<svg width="11" height="12" viewBox="0 0 11 12" fill="none" xmlns="http://www.w3.org/2000/svg">
<path d="M10.8657 6.11621L8.46 8.5219C8.37204 8.60598 8.25519 8.65313 8.13351 8.65364C8.04265 8.65349 7.95388 8.62633 7.87849 8.57561C7.8031 8.52489 7.7445 8.4529 7.71012 8.36879C7.67574 8.28469 7.66714 8.19226 7.68541 8.10325C7.70369 8.01425 7.74801 7.93268 7.81275 7.86893L9.43373 6.24795H4.12403C4.0025 6.24795 3.88595 6.19968 3.80002 6.11374C3.71408 6.02781 3.66581 5.91126 3.66581 5.78973C3.66581 5.6682 3.71408 5.55165 3.80002 5.46571C3.88595 5.37978 4.0025 5.3315 4.12403 5.3315H9.43373L7.81275 3.71053C7.72616 3.6247 7.67722 3.50799 7.67668 3.38607C7.67614 3.26415 7.72406 3.14701 7.80989 3.06042C7.89572 2.97383 8.01243 2.92488 8.13435 2.92435C8.25627 2.92381 8.37341 2.97173 8.46 3.05756L10.8657 5.46324C10.9517 5.55012 11 5.66745 11 5.78973C11 5.912 10.9517 6.02934 10.8657 6.11621ZM4.12403 10.372H0.916452V1.20747H4.12403C4.24556 1.20747 4.36211 1.15919 4.44805 1.07326C4.53398 0.987322 4.58226 0.870771 4.58226 0.749242C4.58226 0.627713 4.53398 0.511161 4.44805 0.425227C4.36211 0.339293 4.24556 0.291016 4.12403 0.291016H0.916452C0.673394 0.291016 0.440291 0.38757 0.268422 0.559438C0.0965544 0.731306 0 0.964409 0 1.20747V10.372C0 10.615 0.0965544 10.8481 0.268422 11.02C0.440291 11.1919 0.673394 11.2884 0.916452 11.2884H4.12403C4.24556 11.2884 4.36211 11.2402 4.44805 11.1542C4.53398 11.0683 4.58226 10.9517 4.58226 10.8302C4.58226 10.7087 4.53398 10.5921 4.44805 10.5062C4.36211 10.4203 4.24556 10.372 4.12403 10.372Z" fill="#7A7A7A"/>
</svg>
