<svg width="13" height="14" viewBox="0 0 13 14" fill="none" xmlns="http://www.w3.org/2000/svg">
<path d="M11.1875 5.0957H8.96094V3.33789C8.96094 2.68521 8.70166 2.05926 8.24015 1.59775C7.77863 1.13623 7.15268 0.876953 6.5 0.876953C5.84732 0.876953 5.22137 1.13623 4.75985 1.59775C4.29834 2.05926 4.03906 2.68521 4.03906 3.33789V5.0957H1.8125C1.59494 5.0957 1.38629 5.18213 1.23245 5.33597C1.07861 5.48981 0.992188 5.69846 0.992188 5.91602V12.4785C0.992188 12.6961 1.07861 12.9047 1.23245 13.0586C1.38629 13.2124 1.59494 13.2988 1.8125 13.2988H11.1875C11.4051 13.2988 11.6137 13.2124 11.7675 13.0586C11.9214 12.9047 12.0078 12.6961 12.0078 12.4785V5.91602C12.0078 5.69846 11.9214 5.48981 11.7675 5.33597C11.6137 5.18213 11.4051 5.0957 11.1875 5.0957ZM4.74219 3.33789C4.74219 2.87169 4.92739 2.42458 5.25704 2.09493C5.58669 1.76528 6.0338 1.58008 6.5 1.58008C6.9662 1.58008 7.41331 1.76528 7.74296 2.09493C8.07262 2.42458 8.25781 2.87169 8.25781 3.33789V5.0957H4.74219V3.33789ZM11.3047 12.4785C11.3047 12.5096 11.2923 12.5394 11.2704 12.5614C11.2484 12.5834 11.2186 12.5957 11.1875 12.5957H1.8125C1.78142 12.5957 1.75161 12.5834 1.72964 12.5614C1.70766 12.5394 1.69531 12.5096 1.69531 12.4785V5.91602C1.69531 5.88494 1.70766 5.85513 1.72964 5.83315C1.75161 5.81117 1.78142 5.79883 1.8125 5.79883H11.1875C11.2186 5.79883 11.2484 5.81117 11.2704 5.83315C11.2923 5.85513 11.3047 5.88494 11.3047 5.91602V12.4785ZM7.08594 9.19727C7.08594 9.31315 7.05157 9.42644 6.98719 9.5228C6.92281 9.61915 6.83129 9.69425 6.72423 9.7386C6.61716 9.78295 6.49935 9.79455 6.38569 9.77194C6.27203 9.74934 6.16762 9.69353 6.08568 9.61159C6.00373 9.52964 5.94793 9.42524 5.92532 9.31158C5.90271 9.19792 5.91432 9.0801 5.95866 8.97304C6.00301 8.86597 6.07811 8.77446 6.17447 8.71008C6.27083 8.64569 6.38411 8.61133 6.5 8.61133C6.6554 8.61133 6.80444 8.67306 6.91432 8.78294C7.02421 8.89283 7.08594 9.04187 7.08594 9.19727Z" fill="#7A7A7A"/>
</svg>
