<svg width="13" height="13" viewBox="0 0 13 13" fill="none" xmlns="http://www.w3.org/2000/svg">
<path d="M12.4766 6.79102C12.4766 5.79675 12.2286 4.81819 11.755 3.94397C11.2814 3.06976 10.5971 2.32751 9.76428 1.78446C8.93142 1.24141 7.97623 0.914731 6.98525 0.834004C5.99427 0.753277 4.99881 0.921056 4.08904 1.32214C3.17927 1.72323 2.38393 2.34496 1.77508 3.131C1.16623 3.91703 0.763098 4.84255 0.602207 5.82371C0.441316 6.80487 0.527749 7.81067 0.853674 8.74999C1.1796 9.68931 1.73472 10.5325 2.46875 11.2031L2.53906 11.2617C3.63069 12.2312 5.04 12.7667 6.5 12.7667C7.96 12.7667 9.36931 12.2312 10.4609 11.2617L10.5313 11.2031C11.1447 10.6436 11.6346 9.96215 11.9696 9.2024C12.3046 8.44265 12.4773 7.62134 12.4766 6.79102ZM1.22656 6.79102C1.22539 5.93011 1.435 5.08201 1.8371 4.32077C2.2392 3.55954 2.82155 2.90832 3.5333 2.424C4.24506 1.93968 5.06456 1.63698 5.92025 1.54233C6.77594 1.44769 7.64179 1.56398 8.44218 1.88104C9.24257 2.19811 9.95317 2.70632 10.5119 3.36128C11.0706 4.01624 11.4605 4.79803 11.6475 5.63838C11.8345 6.47874 11.8129 7.35209 11.5846 8.18218C11.3564 9.01227 10.9283 9.77384 10.3379 10.4004C9.78415 9.54377 8.95878 8.89792 7.99414 8.56641C8.47568 8.24567 8.84124 7.7785 9.03675 7.23396C9.23227 6.68942 9.24737 6.09641 9.07983 5.54263C8.91228 4.98884 8.57098 4.50366 8.10639 4.15883C7.6418 3.814 7.07858 3.62783 6.5 3.62783C5.92142 3.62783 5.3582 3.814 4.89361 4.15883C4.42902 4.50366 4.08772 4.98884 3.92017 5.54263C3.75263 6.09641 3.76773 6.68942 3.96325 7.23396C4.15876 7.7785 4.52432 8.24567 5.00586 8.56641C4.04122 8.89792 3.21585 9.54377 2.66211 10.4004C1.73923 9.42537 1.22543 8.13354 1.22656 6.79102ZM4.50781 6.32227C4.50781 5.92825 4.62465 5.54308 4.84356 5.21547C5.06246 4.88785 5.3736 4.63251 5.73762 4.48173C6.10165 4.33094 6.50221 4.29149 6.88866 4.36836C7.2751 4.44523 7.63008 4.63496 7.90869 4.91358C8.1873 5.19219 8.37704 5.54716 8.45391 5.93361C8.53078 6.32006 8.49133 6.72062 8.34054 7.08464C8.18976 7.44867 7.93441 7.75981 7.6068 7.97871C7.27919 8.19761 6.89402 8.31445 6.5 8.31445C5.97212 8.31291 5.46629 8.10252 5.09302 7.72925C4.71975 7.35598 4.50936 6.85015 4.50781 6.32227ZM3.18359 10.8926C3.52825 10.3212 4.01468 9.84857 4.59573 9.52049C5.17677 9.19241 5.83273 9.02002 6.5 9.02002C7.16727 9.02002 7.82323 9.19241 8.40427 9.52049C8.98532 9.84857 9.47175 10.3212 9.81641 10.8926C8.87737 11.6507 7.7069 12.0643 6.5 12.0643C5.2931 12.0643 4.12263 11.6507 3.18359 10.8926Z" fill="#7A7A7A"/>
</svg>
