<svg width="20" height="20" viewBox="0 0 20 20" fill="none" xmlns="http://www.w3.org/2000/svg">
<g clip-path="url(#clip0_1656_53071)">
<path d="M19.6094 1.5625H18.5385C18.3228 1.5625 18.1479 1.73738 18.1479 1.95312C18.1479 2.16887 18.3228 2.34375 18.5385 2.34375H19.2188V14.6094H8.31141V8.44859C8.65973 8.42902 9.00352 8.29746 9.28371 8.0518L10.3112 7.1509C10.5571 6.93523 10.7039 6.62402 10.7138 6.29707C10.7237 5.97012 10.5961 5.65059 10.3637 5.42043C9.94738 5.00816 9.30258 4.96074 8.83043 5.30762L8.3709 5.64523L8.30957 5.58375C8.3107 5.5716 8.31145 5.55934 8.31145 5.54691V2.34375H15.4139C15.6296 2.34375 15.8045 2.16887 15.8045 1.95312C15.8045 1.73738 15.6296 1.5625 15.4139 1.5625H7.92078C7.70508 1.5625 7.53016 1.73738 7.53016 1.95312V4.80227L7.25793 4.52934C6.77012 4.04023 6.16578 3.71059 5.50758 3.56402C5.81715 3.20887 6.00531 2.7452 6.00531 2.23816V2.02082C6.00531 0.906563 5.09879 0 3.98453 0C2.87023 0 1.96371 0.906563 1.96371 2.02082V2.23816C1.96371 2.71375 2.12926 3.15113 2.4052 3.49668C1.05273 3.65637 0 4.8091 0 6.20375V10.4557C0 11.1019 0.525742 11.6276 1.17195 11.6276C1.30891 11.6276 1.44039 11.6038 1.56266 11.5604V13.5547C1.56266 13.7704 1.73758 13.9453 1.95328 13.9453C2.16898 13.9453 2.34391 13.7704 2.34391 13.5547V10.4557V10.3303H5.62516V18.5938C5.62516 18.9384 5.34477 19.2188 5.00016 19.2188C4.65555 19.2188 4.37516 18.9384 4.37516 18.5938V12.8353C4.37516 12.6196 4.20023 12.4447 3.98453 12.4447C3.76883 12.4447 3.59391 12.6196 3.59391 12.8353V18.5938C3.59391 18.9384 3.31352 19.2188 2.96891 19.2188C2.6243 19.2188 2.34391 18.9384 2.34391 18.5938V16.6797C2.34391 16.4639 2.16898 16.2891 1.95328 16.2891C1.73758 16.2891 1.56266 16.4639 1.56266 16.6797V18.5938C1.56266 19.3692 2.19348 20 2.96891 20C3.36789 20 3.72832 19.8327 3.98453 19.5649C4.24074 19.8327 4.60117 20 5.00016 20C5.77559 20 6.40641 19.3692 6.40641 18.5938V10.005C6.40641 9.99395 6.40563 9.98309 6.40477 9.9723C6.40563 9.96152 6.40641 9.95066 6.40641 9.93965V7.30414L7.075 7.97641C7.21047 8.11258 7.36496 8.21937 7.53016 8.29715V15C7.53016 15.2157 7.70508 15.3906 7.92078 15.3906H19.6094C19.8251 15.3906 20 15.2157 20 15V1.95312C20 1.73738 19.8251 1.5625 19.6094 1.5625ZM2.74496 2.02082C2.74496 1.3373 3.30102 0.78125 3.98453 0.78125C4.66801 0.78125 5.22406 1.3373 5.22406 2.02082V2.23816C5.22406 2.91359 4.68094 3.46418 4.00855 3.47711H3.96047C3.28805 3.46422 2.74492 2.91359 2.74492 2.23816V2.02082H2.74496ZM6.29277 6.08195C6.18117 5.96977 6.01293 5.93602 5.8668 5.99633C5.72059 6.05668 5.62516 6.19926 5.62516 6.35742V9.54898H2.34391V7.14844C2.34391 6.9327 2.16898 6.75781 1.95328 6.75781C1.73758 6.75781 1.56266 6.9327 1.56266 7.14844V10.005V10.4557C1.56266 10.6711 1.38738 10.8463 1.17195 10.8463C0.956523 10.8463 0.78125 10.6711 0.78125 10.4557V6.20375C0.78125 5.13105 1.65395 4.25836 2.72664 4.25836H3.59391V5.54688C3.59391 5.76262 3.76883 5.9375 3.98453 5.9375C4.20023 5.9375 4.37516 5.76262 4.37516 5.54688V4.25836H4.7223C5.47164 4.25836 6.1757 4.55051 6.70484 5.08105L8.05496 6.43469C8.19137 6.57144 8.40723 6.58797 8.56281 6.47363L9.29297 5.93719C9.45336 5.81938 9.6725 5.83547 9.81391 5.97551C9.89406 6.05488 9.93629 6.16066 9.93289 6.27336C9.92945 6.38609 9.8809 6.4891 9.79609 6.56348L8.76863 7.46438C8.43887 7.75355 7.93824 7.73644 7.62891 7.42547L6.29277 6.08195Z" fill="#7A7A7A"/>
<path d="M16.7076 8.17383H14.8326C14.6169 8.17383 14.442 8.34871 14.442 8.56445V9.21191H12.9576C12.7419 9.21191 12.567 9.3868 12.567 9.60254V10.5049H11.0826C10.8669 10.5049 10.692 10.6798 10.692 10.8955V12.4213H9.91211C9.69641 12.4213 9.52148 12.5962 9.52148 12.812C9.52148 13.0277 9.69641 13.2026 9.91211 13.2026H11.0826H12.9576H14.8326H16.7076H17.878C18.0938 13.2026 18.2687 13.0277 18.2687 12.812C18.2687 12.5962 18.0938 12.4213 17.878 12.4213H17.0982V8.56445C17.0982 8.34871 16.9233 8.17383 16.7076 8.17383ZM11.4732 11.2861H12.567V12.4213H11.4732V11.2861ZM13.3482 10.8955V9.99312H14.442V12.4213H13.3482V10.8955ZM15.2232 12.4213V9.6025V8.95504H16.317V12.4213H15.2232Z" fill="#7A7A7A"/>
<path d="M1.95312 15.5078C2.05625 15.5078 2.15664 15.466 2.22926 15.3934C2.3023 15.3207 2.34375 15.2199 2.34375 15.1172C2.34375 15.0145 2.3023 14.9137 2.22926 14.841C2.15664 14.7684 2.05586 14.7266 1.95312 14.7266C1.85039 14.7266 1.75 14.7684 1.67695 14.841C1.6043 14.9137 1.5625 15.0145 1.5625 15.1172C1.5625 15.2199 1.60426 15.3207 1.67695 15.3934C1.74965 15.466 1.85039 15.5078 1.95312 15.5078Z" fill="#7A7A7A"/>
<path d="M16.0384 4.38531L13.9784 6.44527L13.2593 5.72609C13.186 5.65285 13.0867 5.61168 12.9831 5.61168C12.8795 5.61168 12.7801 5.65285 12.7069 5.72609L10.8058 7.62715C10.6533 7.77969 10.6533 8.02703 10.8058 8.17961C10.8821 8.25586 10.9821 8.29402 11.082 8.29402C11.182 8.29402 11.2819 8.25586 11.3582 8.17961L12.9831 6.55477L13.7022 7.27395C13.7755 7.34719 13.8748 7.38836 13.9784 7.38836C14.082 7.38836 14.1814 7.34719 14.2546 7.27395L16.5908 4.93773C16.6205 5.12406 16.7815 5.26664 16.9761 5.26664C17.1918 5.26664 17.3667 5.09176 17.3667 4.87602V4C17.3667 3.78426 17.1918 3.60938 16.9761 3.60938H16.1001C15.8844 3.60938 15.7095 3.78426 15.7095 4C15.7095 4.19469 15.8521 4.35566 16.0384 4.38531Z" fill="#7A7A7A"/>
<path d="M16.9766 2.34375C17.0793 2.34375 17.1801 2.30195 17.2527 2.2293C17.3254 2.15664 17.3672 2.05586 17.3672 1.95312C17.3672 1.85039 17.3254 1.74961 17.2527 1.67695C17.1801 1.6043 17.0793 1.5625 16.9766 1.5625C16.8738 1.5625 16.773 1.6043 16.7004 1.67695C16.6278 1.74961 16.5859 1.85 16.5859 1.95312C16.5859 2.05586 16.6277 2.15664 16.7004 2.2293C16.773 2.30195 16.8738 2.34375 16.9766 2.34375Z" fill="#7A7A7A"/>
</g>
<defs>
<clipPath id="clip0_1656_53071">
<rect width="20" height="20" fill="white"/>
</clipPath>
</defs>
</svg>
