<svg width="15" height="16" viewBox="0 0 15 16" fill="none" xmlns="http://www.w3.org/2000/svg">
<path d="M9.84375 1.22852C9.18497 1.22836 8.53531 1.38253 7.94683 1.67866C7.35836 1.97479 6.84743 2.40465 6.455 2.93379C6.06256 3.46293 5.79953 4.07664 5.68698 4.72574C5.57443 5.37483 5.61549 6.04127 5.80687 6.67164L0.9375 11.541V14.3535H3.75L8.61938 9.48414C9.19964 9.66027 9.81106 9.70924 10.412 9.62771C11.0129 9.54617 11.5891 9.33605 12.1015 9.01166C12.6138 8.68727 13.0502 8.25624 13.3809 7.74794C13.7116 7.23964 13.9289 6.66602 14.0178 6.06617C14.1068 5.46632 14.0654 4.85434 13.8965 4.27194C13.7275 3.68954 13.435 3.15041 13.0388 2.69128C12.6427 2.23215 12.1522 1.86382 11.6008 1.6114C11.0495 1.35897 10.4502 1.22838 9.84375 1.22852ZM9.84375 8.72852C9.52102 8.72834 9.20008 8.68064 8.89125 8.58695L8.35359 8.42383L7.95656 8.82086L6.46547 10.312L5.81906 9.66602L5.15625 10.3288L5.80266 10.9752L5.05922 11.7187L4.41281 11.0723L3.75 11.7351L4.39641 12.3815L3.36188 13.416H1.875V11.9291L6.46969 7.33445L6.86719 6.93742L6.70406 6.39977C6.50371 5.73929 6.51673 5.03246 6.74126 4.37981C6.96579 3.72716 7.39041 3.16193 7.95471 2.76453C8.519 2.36712 9.19425 2.15777 9.88439 2.16626C10.5745 2.17475 11.2444 2.40065 11.7988 2.81182C12.3531 3.22299 12.7637 3.79849 12.9721 4.45647C13.1805 5.11444 13.1761 5.82138 12.9596 6.47673C12.7431 7.13207 12.3254 7.70245 11.766 8.10672C11.2066 8.51099 10.5339 8.72857 9.84375 8.72852Z" fill="#7A7A7A"/>
<path d="M10.3125 5.91602C10.8303 5.91602 11.25 5.49628 11.25 4.97852C11.25 4.46075 10.8303 4.04102 10.3125 4.04102C9.79473 4.04102 9.375 4.46075 9.375 4.97852C9.375 5.49628 9.79473 5.91602 10.3125 5.91602Z" fill="#7A7A7A"/>
</svg>
