<svg width="20" height="20" viewBox="0 0 20 20" fill="none" xmlns="http://www.w3.org/2000/svg">
<g clip-path="url(#clip0_1656_53030)">
<path d="M14.104 5.31803C14.2407 5.27262 14.3327 5.14535 14.3327 5.0013V3.66504C14.3327 3.52132 14.2407 3.39372 14.104 3.34863L13.3927 3.11328C13.3537 3.00505 13.3094 2.89795 13.2596 2.79395L13.5594 2.1626C13.611 2.05339 13.5999 1.92497 13.5299 1.82633C13.248 1.42969 12.9036 1.08529 12.5063 0.802734C12.4077 0.732747 12.279 0.721354 12.1701 0.773275L11.5387 1.07308C11.4341 1.0236 11.3273 0.979004 11.2194 0.940267L10.9837 0.228678C10.9386 0.0919596 10.8114 0 10.6673 0H9.33105C9.18734 0 9.05973 0.0919596 9.01465 0.228678L8.77441 0.953939L8.47266 1.07894L7.82829 0.772949C7.71908 0.721354 7.59098 0.732747 7.49202 0.802409C7.09538 1.08464 6.75065 1.42904 6.46794 1.82601C6.39795 1.92432 6.38672 2.05306 6.43864 2.16227L6.74463 2.80664L6.61963 3.1084L5.89437 3.34863C5.75798 3.39404 5.66602 3.52132 5.66602 3.66536V5.00163C5.66602 5.14535 5.75798 5.27295 5.89469 5.31803L6.61995 5.55827L6.74495 5.86003L6.43896 6.50439C6.38737 6.61361 6.39827 6.74202 6.46842 6.84066C6.75065 7.2373 7.09505 7.58203 7.49202 7.86475C7.59033 7.93473 7.71908 7.94564 7.82829 7.89404L8.45964 7.5944C8.56429 7.64372 8.67106 7.68831 8.77897 7.72705L9.01465 8.43864C9.06006 8.57471 9.18734 8.66667 9.33138 8.66667H10.6676C10.8114 8.66667 10.939 8.57471 10.984 8.43799L11.2197 7.72673C11.328 7.68766 11.4351 7.64339 11.5391 7.59359L12.1704 7.89339C12.2796 7.94531 12.408 7.93441 12.5067 7.86393C12.9033 7.58203 13.2477 7.23763 13.5303 6.84033C13.6004 6.74202 13.6117 6.61328 13.5597 6.50407L13.2601 5.87272C13.3094 5.76807 13.354 5.6613 13.3927 5.55339L14.104 5.31803ZM13.0244 4.97298C12.9217 5.007 12.842 5.0887 12.8104 5.19238C12.756 5.36995 12.6838 5.54492 12.5947 5.7124C12.5451 5.80534 12.5426 5.91667 12.5877 6.01204L12.8711 6.6084C12.6953 6.83008 12.4956 7.02962 12.2744 7.20508L11.6781 6.92171C11.582 6.87598 11.4714 6.87907 11.3781 6.92871C11.2118 7.01725 11.0369 7.09001 10.8584 7.14437C10.7547 7.17594 10.673 7.2557 10.639 7.3584L10.4268 8H9.57194L9.3597 7.3584C9.32568 7.2557 9.24398 7.17594 9.1403 7.14437C8.96273 7.09001 8.78776 7.01774 8.62028 6.92871C8.52734 6.87907 8.41602 6.87663 8.32064 6.92171L7.72428 7.20508C7.5026 7.0293 7.30306 6.82959 7.12728 6.60807L7.41064 6.01172C7.45133 5.92627 7.45361 5.82796 7.41764 5.74105L7.17741 5.16162C7.1403 5.07227 7.06608 5.00326 6.97428 4.97298L6.33268 4.76074V3.90592L6.97428 3.69369C7.06608 3.66341 7.1403 3.5944 7.17741 3.50505L7.41764 2.92562C7.45361 2.8387 7.45133 2.74007 7.41064 2.65495L7.12728 2.05859C7.30306 1.83708 7.5026 1.63737 7.72428 1.46159L8.32064 1.74495C8.40609 1.78564 8.50439 1.7876 8.59131 1.75195L9.17074 1.51172C9.26009 1.47461 9.32894 1.40039 9.35938 1.30859L9.57194 0.666667H10.4268L10.639 1.30827C10.673 1.41097 10.7547 1.49072 10.8584 1.5223C11.036 1.57666 11.2109 1.64893 11.3784 1.73796C11.4714 1.78727 11.5824 1.79004 11.6781 1.74495L12.2744 1.46159C12.4961 1.63737 12.6956 1.83708 12.8711 2.05827L12.5877 2.65462C12.5423 2.75033 12.5451 2.86133 12.5947 2.95459C12.6833 3.12093 12.756 3.29574 12.8104 3.47428C12.842 3.57796 12.9217 3.65967 13.0244 3.69369L13.666 3.90592V4.76074L13.0244 4.97298Z" fill="#7A7A7A"/>
<path d="M3 19.9992C4.65397 19.9992 6 18.6532 6 16.9992C6 15.4578 4.83105 14.1855 3.33333 14.0189V13.3325H9.66667V14.0189C8.16895 14.1855 7 15.4578 7 16.9992C7 18.6532 8.34603 19.9992 10 19.9992C11.654 19.9992 13 18.6532 13 16.9992C13 15.4578 11.8311 14.1855 10.3333 14.0189V13.3325H16.6667V14.0189C15.1689 14.1855 14 15.4578 14 16.9992C14 18.6532 15.346 19.9992 17 19.9992C18.654 19.9992 20 18.6532 20 16.9992C20 15.4578 18.8311 14.1855 17.3333 14.0189V12.9992C17.3333 12.8153 17.1839 12.6659 17 12.6659H10.3333V10.6659L10.7334 11.1992L11.2666 10.7992L10.2666 9.46582C10.141 9.29785 9.85905 9.29785 9.7334 9.46582L8.7334 10.7992L9.2666 11.1992L9.66667 10.6659V12.6659H3C2.81608 12.6659 2.66667 12.8153 2.66667 12.9992V14.0189C1.16895 14.1855 0 15.4578 0 16.9992C0 18.6532 1.34603 19.9992 3 19.9992ZM17.3333 15.3325V14.6925C18.353 14.8395 19.16 15.6462 19.3066 16.6659H18.6667V17.3325H19.3066C19.1597 18.3522 18.353 19.1592 17.3333 19.3058V18.6659H16.6667V19.3058C15.647 19.1589 14.84 18.3522 14.6934 17.3325H15.3333V16.6659H14.6934C14.8403 15.6462 15.647 14.8392 16.6667 14.6925V15.3325H17.3333ZM11 19.1042C10.6963 19.2492 10.3584 19.3325 10 19.3325C9.6416 19.3325 9.30371 19.2492 9 19.1042V17.6691C9 17.5796 9.03499 17.4941 9.10205 17.4285C9.1613 17.3675 9.24707 17.3325 9.33659 17.3325C9.46338 17.3325 9.57926 17.2609 9.63525 17.1471C9.69173 17.0339 9.67871 16.8978 9.60173 16.7972C9.53434 16.7085 9.5 16.6082 9.5 16.4992C9.5 16.3446 9.56966 16.2008 9.69173 16.1051C9.81608 16.0078 9.97298 15.9769 10.1343 16.0161C10.2926 16.0549 10.4303 16.1872 10.4767 16.3462C10.5369 16.5516 10.4663 16.7059 10.3963 16.7988C10.3206 16.8999 10.3083 17.0348 10.3651 17.1478C10.4217 17.2612 10.5369 17.3325 10.6634 17.3325C10.849 17.3325 11 17.4836 11 17.6691V19.1042ZM10 14.6659C11.2866 14.6659 12.3333 15.7126 12.3333 16.9992C12.3333 17.6331 12.0783 18.2082 11.6667 18.6292V17.6691C11.6667 17.2845 11.4491 16.9495 11.1304 16.7812C11.181 16.5799 11.1777 16.3662 11.1164 16.1585C11.0033 15.7731 10.6797 15.4632 10.293 15.3688C9.93392 15.2801 9.56527 15.3576 9.28027 15.5802C8.99626 15.8032 8.83333 16.1382 8.83333 16.4992C8.83333 16.5955 8.84505 16.6898 8.868 16.7812C8.77962 16.8275 8.69906 16.8869 8.6307 16.9572C8.44173 17.1411 8.33333 17.4009 8.33333 17.6691V18.6292C7.92171 18.2082 7.66667 17.6331 7.66667 16.9992C7.66667 15.7126 8.71338 14.6659 10 14.6659ZM3 14.6659C4.28662 14.6659 5.33333 15.7126 5.33333 16.9992C5.33333 18.2858 4.28662 19.3325 3 19.3325C1.71338 19.3325 0.666667 18.2858 0.666667 16.9992C0.666667 15.7126 1.71338 14.6659 3 14.6659Z" fill="#7A7A7A"/>
<path d="M16.334 17.3325H17.0007C17.112 17.3325 17.216 17.2769 17.278 17.1842L17.9447 16.1842L17.39 15.8145L16.8223 16.6659H16.334V17.3325Z" fill="#7A7A7A"/>
<path d="M2.69938 17.334H3.29932C3.5013 17.334 3.66602 17.4837 3.66602 17.6673C3.66602 17.8509 3.5013 18.0007 3.29932 18.0007H1.99935V18.6673H3.29932C3.86898 18.6673 4.33268 18.2186 4.33268 17.6673C4.33268 17.116 3.86898 16.6673 3.29932 16.6673H2.69938C2.4974 16.6673 2.33268 16.5176 2.33268 16.334C2.33268 16.1504 2.4974 16.0007 2.69938 16.0007H3.99935V15.334H2.69938C2.12972 15.334 1.66602 15.7827 1.66602 16.334C1.66602 16.8853 2.12972 17.334 2.69938 17.334Z" fill="#7A7A7A"/>
<path d="M10.0007 2.16602C8.80599 2.16602 7.83398 3.13802 7.83398 4.33268C7.83398 5.52734 8.80599 6.49935 10.0007 6.49935C11.1953 6.49935 12.1673 5.52734 12.1673 4.33268C12.1673 3.13802 11.1953 2.16602 10.0007 2.16602ZM10.0007 5.83268C9.17367 5.83268 8.50065 5.15967 8.50065 4.33268C8.50065 3.5057 9.17367 2.83268 10.0007 2.83268C10.8276 2.83268 11.5007 3.5057 11.5007 4.33268C11.5007 5.15967 10.8276 5.83268 10.0007 5.83268Z" fill="#7A7A7A"/>
<path d="M5.42529 8.89653L5.90641 8.43495C4.8916 7.37749 4.33268 5.98687 4.33268 4.51926C4.33268 3.05165 4.8916 1.66086 5.90674 0.60324C6.00602 0.499561 6.02799 0.343963 5.96094 0.216847C5.89404 0.0898935 5.75228 0.020232 5.61133 0.0435068L3.61133 0.37684L3.72103 1.03455L4.83903 0.848194C4.07731 1.9133 3.66602 3.18788 3.66602 4.51926C3.66602 6.15988 4.29102 7.71457 5.42529 8.89653Z" fill="#7A7A7A"/>
<path d="M14.3335 8.99984C14.3668 8.99984 14.4002 8.99479 14.4331 8.98454L16.4331 8.35791L16.2338 7.72184L15.2775 8.02116C15.9641 6.99186 16.3335 5.78125 16.3335 4.51986C16.3335 2.87923 15.7085 1.32454 14.5742 0.142578L14.0931 0.604167C15.1079 1.66146 15.6668 3.05225 15.6668 4.51986C15.6668 5.98747 15.1079 7.37809 14.0927 8.43587C13.9874 8.54557 13.9698 8.71289 14.0501 8.84212C14.1121 8.94222 14.2205 8.99984 14.3335 8.99984Z" fill="#7A7A7A"/>
</g>
<defs>
<clipPath id="clip0_1656_53030">
<rect width="20" height="20" fill="white"/>
</clipPath>
</defs>
</svg>
