<svg width="13" height="13" viewBox="0 0 13 13" fill="none" xmlns="http://www.w3.org/2000/svg">
<path d="M6.1875 0.791016C4.77854 0.791016 3.42728 1.35072 2.431 2.34701C1.43471 3.3433 0.875 4.69455 0.875 6.10352C0.875 7.51248 1.43471 8.86373 2.431 9.86002C3.42728 10.8563 4.77854 11.416 6.1875 11.416C6.88515 11.416 7.57596 11.2786 8.22051 11.0116C8.86505 10.7446 9.45069 10.3533 9.94401 9.86002C10.4373 9.36671 10.8286 8.78106 11.0956 8.13652C11.3626 7.49198 11.5 6.80116 11.5 6.10352C11.5 4.69455 10.9403 3.3433 9.94401 2.34701C8.94772 1.35072 7.59646 0.791016 6.1875 0.791016ZM6.1875 0.166016C7.76222 0.166016 9.27245 0.791572 10.3859 1.90507C11.4994 3.01857 12.125 4.52879 12.125 6.10352C12.125 7.67824 11.4994 9.18847 10.3859 10.302C9.27245 11.4155 7.76222 12.041 6.1875 12.041C4.61278 12.041 3.10255 11.4155 1.98905 10.302C0.875556 9.18847 0.25 7.67824 0.25 6.10352C0.25 4.52879 0.875556 3.01857 1.98905 1.90507C3.10255 0.791572 4.61278 0.166016 6.1875 0.166016ZM5.875 8.91602H6.5V10.166H5.875V8.91602ZM6.1875 2.04102C6.76766 2.04102 7.32406 2.27148 7.7343 2.68172C8.14453 3.09196 8.375 3.64835 8.375 4.22852C8.375 4.79102 7.9375 5.16602 7.475 5.59102L6.89375 6.15352C6.525 6.57227 6.48125 7.37227 6.5 7.64727V7.66602H5.875C5.875 7.63477 5.8125 6.44102 6.41875 5.74102L7.0625 5.12227C7.4375 4.79102 7.75 4.50977 7.75 4.22852C7.75 3.81411 7.58538 3.41669 7.29235 3.12366C6.99933 2.83064 6.6019 2.66602 6.1875 2.66602C5.7731 2.66602 5.37567 2.83064 5.08265 3.12366C4.78962 3.41669 4.625 3.81411 4.625 4.22852H4C4 3.64835 4.23047 3.09196 4.6407 2.68172C5.05094 2.27148 5.60734 2.04102 6.1875 2.04102Z" fill="#7A7A7A"/>
</svg>
