<svg width="9" height="13" viewBox="0 0 9 13" fill="none" xmlns="http://www.w3.org/2000/svg">
<path d="M1.5 7.16602C1.5 7.06656 1.53951 6.97118 1.60984 6.90085C1.68016 6.83052 1.77554 6.79102 1.875 6.79102C1.97446 6.79102 2.06984 6.83052 2.14016 6.90085C2.21049 6.97118 2.25 7.06656 2.25 7.16602C2.25 7.26547 2.21049 7.36085 2.14016 7.43118C2.06984 7.50151 1.97446 7.54102 1.875 7.54102C1.77554 7.54102 1.68016 7.50151 1.60984 7.43118C1.53951 7.36085 1.5 7.26547 1.5 7.16602ZM1.875 8.29102C1.77554 8.29102 1.68016 8.33052 1.60984 8.40085C1.53951 8.47118 1.5 8.56656 1.5 8.66602C1.5 8.76547 1.53951 8.86086 1.60984 8.93118C1.68016 9.00151 1.77554 9.04102 1.875 9.04102C1.97446 9.04102 2.06984 9.00151 2.14016 8.93118C2.21049 8.86086 2.25 8.76547 2.25 8.66602C2.25 8.56656 2.21049 8.47118 2.14016 8.40085C2.06984 8.33052 1.97446 8.29102 1.875 8.29102ZM1.5 10.166C1.5 10.0666 1.53951 9.97118 1.60984 9.90085C1.68016 9.83052 1.77554 9.79102 1.875 9.79102C1.97446 9.79102 2.06984 9.83052 2.14016 9.90085C2.21049 9.97118 2.25 10.0666 2.25 10.166C2.25 10.2655 2.21049 10.3609 2.14016 10.4312C2.06984 10.5015 1.97446 10.541 1.875 10.541C1.77554 10.541 1.68016 10.5015 1.60984 10.4312C1.53951 10.3609 1.5 10.2655 1.5 10.166ZM3.375 6.79102C3.27554 6.79102 3.18016 6.83052 3.10983 6.90085C3.03951 6.97118 3 7.06656 3 7.16602C3 7.26547 3.03951 7.36085 3.10983 7.43118C3.18016 7.50151 3.27554 7.54102 3.375 7.54102H7.125C7.22446 7.54102 7.31984 7.50151 7.39017 7.43118C7.46049 7.36085 7.5 7.26547 7.5 7.16602C7.5 7.06656 7.46049 6.97118 7.39017 6.90085C7.31984 6.83052 7.22446 6.79102 7.125 6.79102H3.375ZM3 8.66602C3 8.56656 3.03951 8.47118 3.10983 8.40085C3.18016 8.33052 3.27554 8.29102 3.375 8.29102H7.125C7.22446 8.29102 7.31984 8.33052 7.39017 8.40085C7.46049 8.47118 7.5 8.56656 7.5 8.66602C7.5 8.76547 7.46049 8.86086 7.39017 8.93118C7.31984 9.00151 7.22446 9.04102 7.125 9.04102H3.375C3.27554 9.04102 3.18016 9.00151 3.10983 8.93118C3.03951 8.86086 3 8.76547 3 8.66602ZM3.375 9.79102C3.27554 9.79102 3.18016 9.83052 3.10983 9.90085C3.03951 9.97118 3 10.0666 3 10.166C3 10.2655 3.03951 10.3609 3.10983 10.4312C3.18016 10.5015 3.27554 10.541 3.375 10.541H7.125C7.22446 10.541 7.31984 10.5015 7.39017 10.4312C7.46049 10.3609 7.5 10.2655 7.5 10.166C7.5 10.0666 7.46049 9.97118 7.39017 9.90085C7.31984 9.83052 7.22446 9.79102 7.125 9.79102H3.375ZM1.5 0.791016C1.10218 0.791016 0.720644 0.949051 0.43934 1.23036C0.158035 1.51166 0 1.89319 0 2.29102V11.291C0 11.6888 0.158035 12.0704 0.43934 12.3517C0.720644 12.633 1.10218 12.791 1.5 12.791H7.5C7.89782 12.791 8.27936 12.633 8.56066 12.3517C8.84196 12.0704 9 11.6888 9 11.291V4.85152C8.99974 4.55325 8.88104 4.26729 8.67 4.05652L5.7345 1.12027C5.5236 0.909502 5.23766 0.791079 4.9395 0.791016H1.5ZM0.75 2.29102C0.75 2.0921 0.829018 1.90134 0.96967 1.76069C1.11032 1.62003 1.30109 1.54102 1.5 1.54102H4.5V4.16602C4.5 4.46438 4.61853 4.75053 4.8295 4.96151C5.04048 5.17249 5.32663 5.29102 5.625 5.29102H8.25V11.291C8.25 11.4899 8.17098 11.6807 8.03033 11.8213C7.88968 11.962 7.69891 12.041 7.5 12.041H1.5C1.30109 12.041 1.11032 11.962 0.96967 11.8213C0.829018 11.6807 0.75 11.4899 0.75 11.291V2.29102ZM8.09475 4.54102H5.625C5.52554 4.54102 5.43016 4.50151 5.35983 4.43118C5.28951 4.36085 5.25 4.26547 5.25 4.16602V1.69627L8.09475 4.54102Z" fill="#7A7A7A"/>
</svg>
