<svg width="56" height="56" viewBox="0 0 56 56" fill="none" xmlns="http://www.w3.org/2000/svg">
<rect width="56" height="56" rx="16" fill="#FDEFE6"/>
<path d="M41.1549 15.0859C40.7133 14.5666 40.0694 14.2689 39.3882 14.2689H37.1524V13.5696C37.1524 12.7041 36.4482 12 35.5828 12H20.4208C19.5553 12 18.8513 12.7041 18.8513 13.5695V14.2689H16.6152C15.934 14.2689 15.29 14.5666 14.8485 15.0858C14.4115 15.5996 14.2226 16.2745 14.3305 16.9373C14.918 20.5498 17.1914 23.7413 20.418 25.4918C20.7128 26.2007 21.0467 26.872 21.4185 27.4975C22.6061 29.496 24.0825 30.8771 25.7077 31.545C25.8724 33.2103 24.7643 34.7879 23.0955 35.1638C23.092 35.1646 23.0895 35.1659 23.086 35.1667C22.7603 35.2445 22.5179 35.5367 22.5179 35.8862V39.2839H21.1437C19.9186 39.2839 18.9219 40.2806 18.9219 41.5057V43.2594C18.9219 43.6684 19.2535 44 19.6625 44H36.4118C36.8208 44 37.1524 43.6684 37.1524 43.2594V41.5057C37.1524 40.2806 36.1557 39.2839 34.9306 39.2839H33.5563V35.8863C33.5563 35.5361 33.313 35.2434 32.9864 35.1663C32.9834 35.1655 32.9804 35.1645 32.9774 35.1638C31.296 34.7854 30.1859 33.1919 30.3679 31.5142C31.9646 30.8354 33.4152 29.4666 34.5853 27.4977C34.9571 26.8721 35.2909 26.2007 35.5858 25.4917C38.8122 23.7411 41.0855 20.5497 41.673 16.9373C41.7808 16.2745 41.592 15.5997 41.1549 15.0859ZM15.7925 16.6995C15.754 16.4628 15.8194 16.2305 15.9768 16.0454C16.1365 15.8576 16.3691 15.75 16.6152 15.75H18.8512V17.1126C18.8512 19.2493 19.1239 21.3189 19.6407 23.2116C17.6097 21.6066 16.2113 19.2752 15.7925 16.6995ZM34.9306 40.7652C35.3389 40.7652 35.6712 41.0975 35.6712 41.5059V42.5189H20.4031V41.5059C20.4031 41.0975 20.7354 40.7652 21.1437 40.7652H34.9306ZM32.0751 36.6269V39.284H23.9992V36.6269H32.0751ZM25.9415 35.1457C26.1246 34.9442 26.292 34.7258 26.4417 34.492C26.9352 33.7208 27.1943 32.8447 27.2059 31.9499C27.469 31.9857 27.7345 32.0049 28.0022 32.0049C28.2936 32.0049 28.5822 31.9825 28.868 31.9401C28.8849 33.1425 29.3529 34.2807 30.1398 35.1457H25.9415V35.1457ZM35.6711 17.1127C35.6711 20.7614 34.8332 24.1808 33.3119 26.7408C31.8624 29.1802 29.9766 30.5236 28.0021 30.5236C26.0273 30.5236 24.1414 29.1802 22.6917 26.7409C21.1704 24.1808 20.3325 20.7615 20.3325 17.1128V13.5695C20.3325 13.5208 20.3721 13.4812 20.4207 13.4812H35.5827C35.6314 13.4812 35.6711 13.5208 35.6711 13.5695V17.1127ZM40.211 16.6995C39.7921 19.275 38.3939 21.6064 36.3629 23.2115C36.8797 21.3188 37.1524 19.2493 37.1524 17.1127V15.7501H39.3882C39.6343 15.7501 39.8669 15.8578 40.0266 16.0454C40.184 16.2305 40.2494 16.4628 40.211 16.6995Z" fill="#DD8F3E"/>
<path d="M32.4976 19.6036C32.4104 19.3356 32.1787 19.1402 31.8998 19.0996L29.6649 18.7749L28.6654 16.7497C28.5406 16.497 28.2832 16.3369 28.0013 16.3369C27.7194 16.3369 27.4619 16.497 27.3372 16.7497L26.3377 18.7749L24.1029 19.0996C23.8239 19.1401 23.5921 19.3355 23.505 19.6037C23.4179 19.8719 23.4906 20.1661 23.6924 20.3629L25.3096 21.9392L24.9278 24.1651C24.8801 24.4429 24.9943 24.7237 25.2224 24.8894C25.4504 25.0551 25.7529 25.0769 26.0024 24.9458L28.0013 23.895L30.0002 24.9458C30.1086 25.0027 30.2269 25.0308 30.3447 25.0308C30.4982 25.0308 30.6511 24.9831 30.7801 24.8894C31.0082 24.7236 31.1224 24.4429 31.0747 24.165L30.6929 21.9392L32.3101 20.3629C32.5121 20.1661 32.5847 19.8718 32.4976 19.6036ZM29.3803 21.1503C29.2058 21.3204 29.1261 21.5655 29.1673 21.8059L29.3612 22.9365L28.3459 22.4027C28.2381 22.3459 28.1196 22.3177 28.0013 22.3177C27.8829 22.3177 27.7645 22.3461 27.6566 22.4027L26.6413 22.9365L26.8352 21.8059C26.8764 21.5656 26.7967 21.3205 26.6222 21.1503L25.8009 20.3497L26.936 20.1847C27.1772 20.1497 27.3858 19.9981 27.4936 19.7795L28.0013 18.7509L28.5089 19.7795C28.6169 19.9981 28.8253 20.1496 29.0666 20.1847L30.2017 20.3497L29.3803 21.1503Z" fill="#DD8F3E"/>
</svg>
