<svg width="67" height="67" viewBox="0 0 67 67" fill="none" xmlns="http://www.w3.org/2000/svg">
<rect width="67" height="67" rx="16" fill="#00A94B" fill-opacity="0.1"/>
<path d="M38.6683 46.1996C37.5314 46.1996 36.613 47.2722 36.613 48.5998C36.613 49.9274 37.5314 51 38.6683 51H48.9447C50.0815 51 51 49.9274 51 48.5998V36.5989C51 35.2713 50.0815 34.1987 48.9447 34.1987C47.8079 34.1987 46.8894 35.2713 46.8894 36.5989V42.8019L36.0092 30.1034C35.2064 29.1658 33.9026 29.1658 33.0997 30.1034L26.3365 38.0015L17.5117 27.7032C16.7088 26.7656 15.405 26.7656 14.6021 27.7032C13.7993 28.6408 13.7993 30.1634 14.6021 31.1009L24.8786 43.1019C25.6814 44.0395 26.9852 44.0395 27.7881 43.1019L34.5577 35.1963L43.9799 46.1996H38.6683Z" fill="#F24822"/>
</svg>
