<svg width="56" height="56" viewBox="0 0 56 56" fill="none" xmlns="http://www.w3.org/2000/svg">
<rect width="56" height="56" rx="16" fill="#EBF3F3"/>
<g clip-path="url(#clip0_2851_60463)">
<path d="M20.6667 30.6665C20.2986 30.6665 20 30.3684 20 29.9998V23.333C20 22.9651 20.2986 22.6665 20.6667 22.6665C21.0347 22.6665 21.3333 22.9651 21.3333 23.333V29.9998C21.3333 30.3684 21.0347 30.6665 20.6667 30.6665Z" fill="#005B5B"/>
<path d="M17.9993 18.6667C16.1614 18.6667 14.666 17.1714 14.666 15.3333C14.666 13.4954 16.1614 12 17.9993 12C19.8372 12 21.3325 13.4954 21.3325 15.3333C21.3325 17.1714 19.8372 18.6667 17.9993 18.6667ZM17.9993 13.3333C16.8965 13.3333 15.9993 14.2307 15.9993 15.3333C15.9993 16.436 16.8965 17.3333 17.9993 17.3333C19.1021 17.3333 19.9993 16.436 19.9993 15.3333C19.9993 14.2307 19.1021 13.3333 17.9993 13.3333Z" fill="#005B5B"/>
<path d="M17.334 22.6665H18.6675V23.9998H17.334V22.6665Z" fill="#005B5B"/>
<path d="M12.6667 30.6667C12.2986 30.6667 12 30.3687 12 30V24C12 21.7939 13.7939 20 16 20H30.6667C31.0354 20 31.3333 20.2986 31.3333 20.6667V23.3333C31.3333 23.7014 31.0354 24 30.6667 24H20.6667C20.2986 24 20 23.7014 20 23.3333C20 22.9653 20.2986 22.6667 20.6667 22.6667H30V21.3333H16C14.5293 21.3333 13.3333 22.5293 13.3333 24V30C13.3333 30.3687 13.0347 30.6667 12.6667 30.6667Z" fill="#005B5B"/>
<path d="M15.3325 30.6665C14.9646 30.6665 14.666 30.3684 14.666 29.9998V27.9998C14.666 27.6318 14.9646 27.333 15.3325 27.333C15.7007 27.333 15.9993 27.6318 15.9993 27.9998V29.9998C15.9993 30.3684 15.7007 30.6665 15.3325 30.6665Z" fill="#005B5B"/>
<path d="M17.3325 37.3333C15.8618 37.3333 14.666 36.1375 14.666 34.6667C14.666 33.196 15.8618 32 17.3325 32C18.8032 32 19.9993 33.196 19.9993 34.6667C19.9993 36.1375 18.8032 37.3333 17.3325 37.3333ZM17.3325 33.3333C16.5972 33.3333 15.9993 33.9314 15.9993 34.6667C15.9993 35.4021 16.5972 36 17.3325 36C18.0679 36 18.666 35.4021 18.666 34.6667C18.666 33.9314 18.0679 33.3333 17.3325 33.3333Z" fill="#005B5B"/>
<path d="M20.6667 44.0002H12.6667C12.2986 44.0002 12 43.7021 12 43.3335V42.0002C12 41.1104 12.3467 40.2737 12.9761 39.6436C13.606 39.0142 14.4434 38.667 15.3333 38.667H19.3333C20.2241 38.667 21.0613 39.0142 21.6907 39.6436C21.9507 39.905 21.9507 40.3262 21.6899 40.5869C21.4294 40.8469 21.0073 40.8462 20.7473 40.5862C20.3701 40.2083 19.8679 40.0002 19.3333 40.0002H15.3333C14.7993 40.0002 14.2974 40.209 13.9194 40.5862C13.5413 40.9644 13.3333 41.4663 13.3333 42.0002V42.667H20.6667C21.0347 42.667 21.3333 42.9648 21.3333 43.3335C21.3333 43.7021 21.0347 44.0002 20.6667 44.0002Z" fill="#005B5B"/>
<path d="M28.0007 37.3333C26.53 37.3333 25.334 36.1375 25.334 34.6667C25.334 33.196 26.53 32 28.0007 32C29.4714 32 30.6675 33.196 30.6675 34.6667C30.6675 36.1375 29.4714 37.3333 28.0007 37.3333ZM28.0007 33.3333C27.2654 33.3333 26.6675 33.9314 26.6675 34.6667C26.6675 35.4021 27.2654 36 28.0007 36C28.7361 36 29.334 35.4021 29.334 34.6667C29.334 33.9314 28.7361 33.3333 28.0007 33.3333Z" fill="#005B5B"/>
<path d="M32.666 44.0002H23.3325C22.9646 44.0002 22.666 43.7021 22.666 43.3335V42.0002C22.666 41.1104 23.0127 40.2737 23.6418 39.6436C24.272 39.0142 25.1094 38.667 25.9993 38.667H29.9993C30.8899 38.667 31.7273 39.0142 32.3567 39.6436C32.9854 40.2729 33.3325 41.1104 33.3325 42.0002V43.3335C33.3325 43.7021 33.0347 44.0002 32.666 44.0002ZM23.9993 42.667H31.9993V42.0002C31.9993 41.4663 31.7905 40.9636 31.4133 40.5862C31.0359 40.2083 30.5339 40.0002 29.9993 40.0002H25.9993C25.4653 40.0002 24.9634 40.209 24.5852 40.5862C24.2073 40.9644 23.9993 41.4663 23.9993 42.0002V42.667Z" fill="#005B5B"/>
<path d="M38.6667 37.3333C37.196 37.3333 36 36.1375 36 34.6667C36 33.196 37.196 32 38.6667 32C40.1375 32 41.3333 33.196 41.3333 34.6667C41.3333 36.1375 40.1375 37.3333 38.6667 37.3333ZM38.6667 33.3333C37.9314 33.3333 37.3333 33.9314 37.3333 34.6667C37.3333 35.4021 37.9314 36 38.6667 36C39.4021 36 40 35.4021 40 34.6667C40 33.9314 39.4021 33.3333 38.6667 33.3333Z" fill="#005B5B"/>
<path d="M43.334 44.0002H35.334C34.9653 44.0002 34.6675 43.7021 34.6675 43.3335C34.6675 42.9648 34.9653 42.667 35.334 42.667H42.6675V42.0002C42.6675 41.4663 42.4587 40.9636 42.0813 40.5862C41.7041 40.2083 41.2021 40.0002 40.6675 40.0002H36.6675C36.1333 40.0002 35.6306 40.209 35.2534 40.5862C34.9927 40.8469 34.5713 40.8469 34.3108 40.5862C34.05 40.3257 34.05 39.9043 34.3108 39.6436C34.9402 39.0142 35.7773 38.667 36.6675 38.667H40.6675C41.5581 38.667 42.3955 39.0142 43.0247 39.6436C43.6533 40.2729 44.0007 41.1104 44.0007 42.0002V43.3335C44.0007 43.7021 43.7026 44.0002 43.334 44.0002Z" fill="#005B5B"/>
<path d="M41.9993 30.6667H23.3325C22.9646 30.6667 22.666 30.3687 22.666 30C22.666 29.6313 22.9646 29.3333 23.3325 29.3333H41.9993C42.3672 29.3333 42.666 29.0347 42.666 28.6667V14C42.666 13.6326 42.3672 13.3333 41.9993 13.3333H23.3325C22.9646 13.3333 22.666 13.0347 22.666 12.6667C22.666 12.2986 22.9646 12 23.3325 12H41.9993C43.1021 12 43.9993 12.8972 43.9993 14V28.6667C43.9993 29.7693 43.1021 30.6667 41.9993 30.6667Z" fill="#005B5B"/>
<path d="M40.666 28.0002H23.3325C22.9646 28.0002 22.666 27.7017 22.666 27.3335C22.666 26.9656 22.9646 26.667 23.3325 26.667H40.666C41.0347 26.667 41.3325 26.9656 41.3325 27.3335C41.3325 27.7017 41.0347 28.0002 40.666 28.0002Z" fill="#005B5B"/>
<path d="M28 14.6665H29.3333V15.9998H28V14.6665Z" fill="#005B5B"/>
<path d="M25.334 14.6665H26.6675V15.9998H25.334V14.6665Z" fill="#005B5B"/>
<path d="M22.666 14.6665H23.9993V15.9998H22.666V14.6665Z" fill="#005B5B"/>
</g>
<defs>
<clipPath id="clip0_2851_60463">
<rect width="32" height="32" fill="white" transform="translate(12 12)"/>
</clipPath>
</defs>
</svg>
