<?xml version="1.0" encoding="UTF-8"?>
<svg width="26px" height="27px" viewBox="0 0 26 27" version="1.1" xmlns="http://www.w3.org/2000/svg" xmlns:xlink="http://www.w3.org/1999/xlink">
    <title>csv</title>
    <g id="Page-1" stroke="none" stroke-width="1" fill="none" fill-rule="evenodd">
        <g id="csv" transform="translate(0.943, 0)" fill-rule="nonzero">
            <g id="Group" transform="translate(0, 0)">
                <path d="M7.93043082,-7.43068322e-16 L16.9961557,-7.43068322e-16 L25,8.00384427 L25,23.3765901 C25,25.2448161 23.4729583,26.7718578 21.6047323,26.7718578 L7.93043082,26.7718578 C6.06220483,26.7718578 4.53516316,25.2448161 4.53516316,23.3765901 L4.53516316,3.39526766 C4.53516316,1.52698938 6.06215254,-7.43068322e-16 7.93043082,-7.43068322e-16 L7.93043082,-7.43068322e-16 Z" id="Path" fill="#00733B"></path>
                <path d="M16.9961557,0 L25,8.00384427 L17.8591298,8.00384427 C17.3832496,8.00384427 16.9961557,7.6167504 16.9961557,7.14087017 L16.9961557,0 Z" id="Path" fill="#005C2F"></path>
                <path d="M0.745167471,11.3991119 L19.1841799,11.3991119 C19.5942286,11.3991119 19.9293474,11.7341785 19.9293474,12.1442794 L19.9293474,18.9087749 C19.9293474,19.3188235 19.5942809,19.6554587 19.1841799,19.6554587 L0.745167471,19.6554587 C0.335118821,19.6554587 3.71534161e-16,19.3188235 3.71534161e-16,18.9087749 L3.71534161e-16,12.1442794 C3.71534161e-16,11.7341785 0.335066532,11.3991119 0.745167471,11.3991119 Z" id="Path" fill="#005C2F"></path>
            </g>
            <path d="M4.51754184,14.6031072 L4.51754184,16.4514112 C4.51754184,16.9799462 4.94756481,17.4099692 5.47615213,17.4099692 C6.00468717,17.4099692 6.43471013,16.9799462 6.43471013,16.4514112 C6.43471013,16.2126606 6.62823092,16.0191398 6.86692923,16.0191398 C7.10567982,16.0191398 7.29914832,16.2126606 7.29914832,16.4514112 C7.29914832,17.4566631 6.48135173,18.2744596 5.47609984,18.2744596 C4.47084796,18.2744596 3.65299908,17.4566108 3.65299908,16.4514112 L3.65299908,14.6031072 C3.65299908,13.5978553 4.47084796,12.7800587 5.47609984,12.7800587 C6.48135173,12.7800587 7.29914832,13.5979076 7.29914832,14.6031072 C7.29914832,14.8418578 7.10562753,15.0353786 6.86692923,15.0353786 C6.62817864,15.0353786 6.43471013,14.8418578 6.43471013,14.6031072 C6.43471013,14.0745722 6.00468717,13.6445492 5.47615213,13.6445492 C4.94756481,13.6445492 4.51754184,14.0745722 4.51754184,14.6031072 Z M9.63494062,13.6445492 L10.3234793,13.6445492 C10.6014988,13.6445492 10.8276478,13.8706982 10.8276478,14.1487177 C10.8276478,14.3874683 11.0211686,14.5809368 11.2598669,14.5809368 C11.4986175,14.5809368 11.692086,14.387416 11.692086,14.1487177 C11.692086,13.3940336 11.0781111,12.7800587 10.323427,12.7800587 L9.63488833,12.7800587 C8.75790084,12.7800587 8.04436808,13.4929117 8.04436808,14.3690103 C8.04436808,15.1445053 8.44280862,15.5227624 8.77703853,15.703577 C9.20115286,15.9329679 9.73606713,15.9594783 10.1015134,15.9594783 C10.5018364,15.9594783 10.8275432,16.2845054 10.8275432,16.6839394 C10.8275432,17.0842623 10.5018364,17.4099692 10.1015134,17.4099692 L9.41297473,17.4099692 C9.13500755,17.4099692 8.90880627,17.1838202 8.90880627,16.9058007 C8.90880627,16.6670501 8.71528548,16.4735293 8.47658717,16.4735293 C8.23783658,16.4735293 8.04436808,16.6670501 8.04436808,16.9058007 C8.04436808,17.6604847 8.65834299,18.2744596 9.41302702,18.2744596 L10.1015657,18.2744596 C10.9785532,18.2744596 11.692086,17.5609269 11.692086,16.6839394 C11.692086,15.8077362 10.9785532,15.0949878 10.1015657,15.0949878 C8.9986384,15.0949878 8.90891085,14.7661436 8.90891085,14.368958 C8.90891085,13.9695763 9.2345654,13.6445492 9.63494062,13.6445492 L9.63494062,13.6445492 Z M15.9802369,12.8020723 C15.7537219,12.7267765 15.5090104,12.8494982 15.4337668,13.0760133 L14.3062638,16.4708626 L13.1787607,13.0760133 C13.1035172,12.8494982 12.8589625,12.726881 12.6322906,12.8020723 C12.4057233,12.8773159 12.2830538,13.1219751 12.3582974,13.3485424 L13.8960583,17.9785051 C13.9547786,18.1551889 14.1200111,18.2745119 14.3062638,18.2745119 C14.4925164,18.2745119 14.6578013,18.1552412 14.7164693,17.9785051 L16.2541779,13.3485424 C16.3294214,13.1219751 16.2068042,12.8773159 15.9802369,12.8020723 L15.9802369,12.8020723 Z" id="Shape" fill="#FFFFFF"></path>
        </g>
    </g>
</svg>