<svg width="84" height="84" viewBox="0 0 84 84" fill="none" xmlns="http://www.w3.org/2000/svg">
<path d="M36.1693 49.5002L27.1068 40.4377C26.3429 39.6738 25.4054 39.2918 24.2943 39.2918C23.1832 39.2918 22.2109 39.7085 21.3776 40.5418C20.6137 41.3057 20.2318 42.2779 20.2318 43.4585C20.2318 44.6391 20.6137 45.6113 21.3776 46.3752L33.2526 58.2502C34.0165 59.0141 34.9887 59.396 36.1693 59.396C37.3498 59.396 38.3221 59.0141 39.0859 58.2502L62.7318 34.6043C63.4957 33.8404 63.8776 32.9029 63.8776 31.7918C63.8776 30.6807 63.4609 29.7085 62.6276 28.8752C61.8637 28.1113 60.8915 27.7293 59.7109 27.7293C58.5304 27.7293 57.5582 28.1113 56.7943 28.8752L36.1693 49.5002ZM42.0026 83.6668C36.2387 83.6668 30.8221 82.5724 25.7526 80.3835C20.6832 78.1974 16.2734 75.2293 12.5234 71.4793C8.77344 67.7293 5.80538 63.3196 3.61927 58.2502C1.43038 53.1807 0.335938 47.7641 0.335938 42.0002C0.335938 36.2363 1.43038 30.8196 3.61927 25.7502C5.80538 20.6807 8.77344 16.271 12.5234 12.521C16.2734 8.771 20.6832 5.80155 25.7526 3.61266C30.8221 1.42655 36.2387 0.333496 42.0026 0.333496C47.7665 0.333496 53.1832 1.42655 58.2526 3.61266C63.3221 5.80155 67.7318 8.771 71.4818 12.521C75.2318 16.271 78.1998 20.6807 80.3859 25.7502C82.5748 30.8196 83.6693 36.2363 83.6693 42.0002C83.6693 47.7641 82.5748 53.1807 80.3859 58.2502C78.1998 63.3196 75.2318 67.7293 71.4818 71.4793C67.7318 75.2293 63.3221 78.1974 58.2526 80.3835C53.1832 82.5724 47.7665 83.6668 42.0026 83.6668Z" fill="#006666"/>
</svg>
