<svg width="22" height="22" viewBox="0 0 22 22" fill="none" xmlns="http://www.w3.org/2000/svg">
<path d="M21.5805 4.546L17.6672 0.612662C17.4086 0.355372 17.0586 0.210937 16.6939 0.210938C16.3291 0.210938 15.9791 0.355372 15.7205 0.612662L1.84719 14.466L0.580526 19.9327C0.53683 20.1325 0.538328 20.3396 0.58491 20.5388C0.631492 20.7379 0.721982 20.9242 0.849768 21.0839C0.977555 21.2437 1.13941 21.3728 1.32351 21.462C1.50761 21.5512 1.70931 21.5981 1.91386 21.5993C2.00917 21.609 2.10521 21.609 2.20053 21.5993L7.72719 20.3327L21.5805 6.49266C21.8378 6.23407 21.9823 5.88412 21.9823 5.51933C21.9823 5.15454 21.8378 4.80459 21.5805 4.546ZM7.06053 19.1327L1.88053 20.2193L3.06053 15.1393L13.4405 4.79933L17.4405 8.79933L7.06053 19.1327ZM18.3339 7.83266L14.3339 3.83266L16.6539 1.526L20.5872 5.526L18.3339 7.83266Z" fill="white"/>
</svg>
