<svg width="56" height="56" viewBox="0 0 56 56" fill="none" xmlns="http://www.w3.org/2000/svg">
<rect width="56" height="56" rx="16" fill="#FDEFE6"/>
<path d="M25 27H19.5C19.3674 27 19.2402 26.9473 19.1464 26.8536C19.0527 26.7598 19 26.6326 19 26.5C19 26.3674 19.0527 26.2402 19.1464 26.1464C19.2402 26.0527 19.3674 26 19.5 26H25C25.1326 26 25.2598 26.0527 25.3536 26.1464C25.4473 26.2402 25.5 26.3674 25.5 26.5C25.5 26.6326 25.4473 26.7598 25.3536 26.8536C25.2598 26.9473 25.1326 27 25 27Z" fill="#DD8F3E"/>
<path d="M19.5 23.5H32.5C32.6326 23.5 32.7598 23.5527 32.8536 23.6464C32.9473 23.7402 33 23.8674 33 24C33 24.1326 32.9473 24.2598 32.8536 24.3536C32.7598 24.4473 32.6326 24.5 32.5 24.5H19.5C19.3674 24.5 19.2402 24.4473 19.1464 24.3536C19.0527 24.2598 19 24.1326 19 24C19 23.8674 19.0527 23.7402 19.1464 23.6464C19.2402 23.5527 19.3674 23.5 19.5 23.5Z" fill="#DD8F3E"/>
<path d="M19.5 21H32.5C32.6326 21 32.7598 21.0527 32.8536 21.1464C32.9473 21.2402 33 21.3674 33 21.5C33 21.6326 32.9473 21.7598 32.8536 21.8536C32.7598 21.9473 32.6326 22 32.5 22H19.5C19.3674 22 19.2402 21.9473 19.1464 21.8536C19.0527 21.7598 19 21.6326 19 21.5C19 21.3674 19.0527 21.2402 19.1464 21.1464C19.2402 21.0527 19.3674 21 19.5 21Z" fill="#DD8F3E"/>
<path d="M19.5 18.5H32.5C32.6326 18.5 32.7598 18.5527 32.8536 18.6464C32.9473 18.7402 33 18.8674 33 19C33 19.1326 32.9473 19.2598 32.8536 19.3536C32.7598 19.4473 32.6326 19.5 32.5 19.5H19.5C19.3674 19.5 19.2402 19.4473 19.1464 19.3536C19.0527 19.2598 19 19.1326 19 19C19 18.8674 19.0527 18.7402 19.1464 18.6464C19.2402 18.5527 19.3674 18.5 19.5 18.5Z" fill="#DD8F3E"/>
<path d="M39.92 26.505L39.58 26.85L39.22 26.49L39.535 26.175C39.9526 25.7588 40.1974 25.2002 40.2203 24.6111C40.2431 24.022 40.0424 23.446 39.6584 22.9987C39.2744 22.5514 38.7354 22.2658 38.1496 22.1993C37.5638 22.1328 36.9746 22.2902 36.5 22.64V16C36.4988 15.6025 36.3404 15.2217 36.0593 14.9407C35.7783 14.6596 35.3975 14.5012 35 14.5H17C16.6025 14.5012 16.2217 14.6596 15.9407 14.9407C15.6596 15.2217 15.5012 15.6025 15.5 16V40C15.5012 40.3975 15.6596 40.7783 15.9407 41.0593C16.2217 41.3404 16.6025 41.4988 17 41.5H35C35.3975 41.4988 35.7783 41.3404 36.0593 41.0593C36.3404 40.7783 36.4988 40.3975 36.5 40V31.345L40.63 27.215C40.7242 27.1208 40.777 26.9932 40.777 26.86C40.777 26.7268 40.7242 26.5992 40.63 26.505C40.5358 26.4108 40.4081 26.358 40.275 26.358C40.1418 26.358 40.0142 26.4108 39.92 26.505ZM35.5 30.93L34.915 31.515C34.83 31.599 34.7781 31.7108 34.7689 31.83C34.7597 31.9492 34.7938 32.0676 34.8649 32.1637C34.936 32.2597 35.0394 32.3269 35.1561 32.3529C35.2727 32.3788 35.3949 32.3618 35.5 32.305V40C35.5 40.1326 35.4473 40.2598 35.3536 40.3536C35.2598 40.4473 35.1326 40.5 35 40.5H17C16.8674 40.5 16.7402 40.4473 16.6464 40.3536C16.5527 40.2598 16.5 40.1326 16.5 40V16C16.5 15.8674 16.5527 15.7402 16.6464 15.6464C16.7402 15.5527 16.8674 15.5 17 15.5H35C35.1326 15.5 35.2598 15.5527 35.3536 15.6464C35.4473 15.7402 35.5 15.8674 35.5 16V23.6C33.4 25.7 26.14 32.96 26.135 32.97C25.9935 33.1115 25.891 33.184 25.855 33.375C25.843 33.425 25.175 36.468 25.175 36.52L24.67 37.025C24.5758 37.1192 24.523 37.2468 24.523 37.38C24.523 37.5131 24.5758 37.6408 24.67 37.735C24.7642 37.8292 24.8918 37.882 25.025 37.882C25.1582 37.882 25.2858 37.8292 25.38 37.735L25.89 37.225C25.9675 37.225 28.9565 36.5675 29.03 36.55C29.2575 36.4965 29.2755 36.4395 29.44 36.275L35.5 30.21V30.93ZM26.575 34.23L28.175 35.83C26.522 36.1965 27.469 35.9885 26.13 36.275C26.4065 34.9815 26.3 35.4705 26.575 34.23ZM29.115 35.19L27.22 33.295C27.375 33.132 34.43 26.0795 34.59 25.92L36.485 27.815C36.207 28.0915 29.35 34.9425 29.115 35.19ZM36.5 29.93V29.21C38.18 27.53 37.7405 27.9685 38.515 27.2L38.875 27.555L36.5 29.93ZM38.825 25.47C37.987 26.308 38.353 25.941 37.195 27.105H37.19L35.305 25.215C35.5955 24.9175 35.313 25.2015 36.935 23.58C37.1865 23.3335 37.5251 23.1963 37.8772 23.1981C38.2293 23.1998 38.5665 23.3405 38.8155 23.5895C39.0645 23.8385 39.2052 24.1757 39.2069 24.5278C39.2087 24.8799 39.0715 25.2185 38.825 25.47Z" fill="#DD8F3E"/>
</svg>
