<svg width="48" height="48" viewBox="0 0 48 48" fill="none" xmlns="http://www.w3.org/2000/svg">
<circle cx="24" cy="24" r="24" fill="#FDEFE6"/>
<path d="M30.2114 22.6711C29.8878 22.6711 29.6255 22.9334 29.6255 23.257V31.851C29.6255 32.3895 29.1874 32.8276 28.6489 32.8276H16.1485C15.61 32.8276 15.1719 32.3895 15.1719 31.851V19.3507C15.1719 18.8122 15.61 18.3741 16.1485 18.3741H24.7425C25.0661 18.3741 25.3285 18.1117 25.3285 17.7881C25.3285 17.4645 25.0661 17.2021 24.7425 17.2021H16.1485C14.9638 17.2021 14 18.166 14 19.3507V31.851C14 33.0357 14.9638 33.9995 16.1485 33.9995H28.6489C29.8336 33.9995 30.7974 33.0357 30.7974 31.851V23.257C30.7974 22.9334 30.535 22.6711 30.2114 22.6711Z" fill="#9C652C"/>
<path d="M33.5997 15.5047L32.4948 14.3998C31.9618 13.8667 31.0944 13.8667 30.5612 14.3998L21.7222 23.2389C21.6404 23.3207 21.5846 23.4249 21.5619 23.5383L21.0094 26.3006C20.971 26.4927 21.0311 26.6913 21.1697 26.8298C21.2807 26.9408 21.4302 27.0014 21.584 27.0014C21.6223 27.0014 21.6607 26.9977 21.6989 26.9901L24.4611 26.4376C24.5746 26.4149 24.6788 26.3591 24.7606 26.2773L33.5997 17.4383C33.5997 17.4383 33.5997 17.4383 33.5997 17.4382C34.1328 16.9052 34.1328 16.0378 33.5997 15.5047ZM24.0574 25.3232L22.331 25.6685L22.6763 23.9422L29.8707 16.7477L31.2518 18.1288L24.0574 25.3232ZM32.771 16.6096L32.0805 17.3002L30.6993 15.919L31.3899 15.2285C31.466 15.1523 31.59 15.1523 31.6661 15.2285L32.771 16.3334C32.8472 16.4095 32.8472 16.5335 32.771 16.6096Z" fill="#9C652C"/>
</svg>
