<svg width="56" height="57" viewBox="0 0 56 57" fill="none" xmlns="http://www.w3.org/2000/svg">
<rect y="0.291016" width="56" height="56" rx="16" fill="#D5ECEF"/>
<g clip-path="url(#clip0_3889_66127)">
<path d="M44 37.291H12V35.291C12 26.4661 19.175 19.291 28 19.291C36.825 19.291 44 26.4661 44 35.291V37.291ZM13.3333 35.9578H42.6667V35.291C42.6667 27.2078 36.0833 20.6243 28 20.6243C19.9167 20.6243 13.3333 27.2078 13.3333 35.291V35.9578Z" fill="#395C5F"/>
<path d="M33.9336 29.0791L34.8765 30.022L30.3569 34.5415L29.4141 33.5986L33.9336 29.0791Z" fill="#395C5F"/>
<path d="M40 36.6243H38.6667V35.291C38.6667 29.4077 33.8833 24.6243 28 24.6243C22.1167 24.6243 17.3333 29.4077 17.3333 35.291V36.6243H16V35.291C16 28.6743 21.3833 23.291 28 23.291C34.6167 23.291 40 28.6743 40 35.291V36.6243Z" fill="#395C5F"/>
<path d="M31.3345 36.6243H30.0012V35.9578C30.0012 34.8577 29.1013 33.9578 28.0012 33.9578C26.9011 33.9578 26.0012 34.8577 26.0012 35.9578V36.6243H24.668V35.9578C24.668 34.116 26.1597 32.6243 28.0012 32.6243C29.8428 32.6243 31.3345 34.116 31.3345 35.9578V36.6243Z" fill="#395C5F"/>
<path d="M27.332 19.9578H28.6655V23.9578H27.332V19.9578Z" fill="#395C5F"/>
<path d="M38.7034 24.3162L39.6462 25.259L36.8179 28.0874L35.875 27.1448L38.7034 24.3162Z" fill="#395C5F"/>
<path d="M17.3022 24.3125L20.1306 27.1409L19.1877 28.0837L16.3594 25.2554L17.3022 24.3125Z" fill="#395C5F"/>
</g>
<defs>
<clipPath id="clip0_3889_66127">
<rect width="32" height="32" fill="white" transform="translate(12 12.291)"/>
</clipPath>
</defs>
</svg>
