<svg width="56" height="56" viewBox="0 0 56 56" fill="none" xmlns="http://www.w3.org/2000/svg">
<rect width="56" height="56" rx="16" fill="#EBF3F3"/>
<g clip-path="url(#clip0_2851_63493)">
<path d="M21.4731 25.0581C21.3569 24.9419 21.1956 24.875 21.0312 24.875C20.8669 24.875 20.7057 24.9418 20.5894 25.0581C20.4731 25.1744 20.4062 25.3356 20.4062 25.5C20.4062 25.6644 20.4731 25.8256 20.5894 25.9418C20.7056 26.0581 20.8669 26.125 21.0312 26.125C21.1956 26.125 21.3569 26.0581 21.4731 25.9418C21.5894 25.8256 21.6562 25.6644 21.6562 25.5C21.6562 25.3356 21.5894 25.1744 21.4731 25.0581Z" fill="#006666"/>
<path d="M42.1247 12H17.2498C16.2159 12 15.3748 12.8411 15.3748 13.875V24.25C15.3748 25.2838 16.2159 26.1249 17.2498 26.1249H18.3748C18.72 26.1249 18.9998 25.8451 18.9998 25.4999C18.9998 25.1548 18.72 24.8749 18.3748 24.8749H17.2498C16.9052 24.8749 16.6248 24.5946 16.6248 24.25V13.875C16.6248 13.5304 16.9052 13.25 17.2498 13.25H42.1247C42.4693 13.25 42.7497 13.5304 42.7497 13.875V24.25C42.7497 24.5946 42.4693 24.8749 42.1247 24.8749H37.9443C37.7785 24.8749 37.6195 24.9408 37.5023 25.058L35.4443 27.1161L33.3862 25.058C33.269 24.9408 33.11 24.8749 32.9443 24.8749H28.0702C28.0243 24.7569 27.9724 24.6405 27.9136 24.5263C27.4661 23.6568 26.7043 23.0214 25.7688 22.737L24.8652 22.4622C24.5471 22.3653 24.2088 22.5348 24.0957 22.8475L22.6758 26.7718C22.282 27.8603 21.5053 28.7645 20.4888 29.3181L19.1559 30.0438C18.8283 29.6462 18.3324 29.3922 17.7782 29.3922H13.7845C12.8005 29.3922 12 30.1928 12 31.1768V42.2153C11.9999 43.1993 12.8004 43.9999 13.7844 43.9999H17.7782C18.4003 43.9999 18.9487 43.6797 19.2682 43.1956L19.906 43.4458C20.8436 43.8136 21.8298 44 22.8371 44H31.2701C32.5354 44 33.5647 42.9706 33.5647 41.7053C33.5647 41.2865 33.4514 40.8939 33.2546 40.5556C34.1855 40.263 34.8627 39.3921 34.8627 38.366C34.8627 37.9365 34.7438 37.5344 34.5377 37.1903C35.4289 36.8751 36.0693 36.0244 36.0693 35.0265C36.0693 33.9872 35.3744 33.1075 34.425 32.8264C34.6181 32.4904 34.7291 32.1015 34.7291 31.687C34.7291 30.4218 33.6997 29.3924 32.4344 29.3924H27.4227L28.1236 27.3115C28.2546 26.9225 28.3166 26.5225 28.3123 26.125H32.6854L35.0023 28.4419C35.1244 28.5639 35.2843 28.625 35.4443 28.625C35.6042 28.625 35.7642 28.5639 35.8862 28.4419L38.2032 26.1249H42.1247C43.1586 26.1249 43.9997 25.2838 43.9997 24.25V13.875C43.9997 12.8411 43.1586 12 42.1247 12ZM18.3127 42.2153C18.3127 42.5101 18.0729 42.7499 17.7782 42.7499H13.7844C13.4897 42.7499 13.2499 42.5101 13.2499 42.2153V31.1769C13.2499 30.8821 13.4897 30.6423 13.7844 30.6423H15.1563V38.3373C15.1563 38.6825 15.4361 38.9623 15.7813 38.9623C16.1265 38.9623 16.4063 38.6825 16.4063 38.3373V30.6423H17.7782C18.0116 30.6423 18.21 30.793 18.2827 31.002C18.2879 31.0322 18.2954 31.0622 18.3053 31.0919C18.3097 31.1197 18.3127 31.1479 18.3127 31.1769V42.2153ZM32.4345 30.6422V30.6423C33.0105 30.6423 33.4792 31.1109 33.4792 31.687C33.4792 32.263 33.0105 32.7317 32.4345 32.7317H29.0438C28.6986 32.7317 28.4188 33.0116 28.4188 33.3567C28.4188 33.7019 28.6986 33.9817 29.0438 33.9817L33.7747 33.9819C34.3507 33.9819 34.8193 34.4505 34.8193 35.0265C34.8193 35.6026 34.3507 36.0713 33.7747 36.0713H29.0438C28.6986 36.0713 28.4188 36.3512 28.4188 36.6963C28.4188 37.0414 28.6986 37.3213 29.0438 37.3213H32.568C33.1441 37.3213 33.6127 37.7899 33.6127 38.366C33.6127 38.942 33.1441 39.4106 32.568 39.4106H29.0438C28.6986 39.4106 28.4188 39.6905 28.4188 40.0356C28.4188 40.3808 28.6986 40.6606 29.0438 40.6606H31.2701C31.8462 40.6606 32.3148 41.1293 32.3148 41.7054C32.3148 42.2814 31.8462 42.7501 31.2701 42.7501H22.8371C21.9866 42.7501 21.154 42.5926 20.3623 42.2821L19.5627 41.9685V31.2456L21.0865 30.4159C22.3715 29.7161 23.3533 28.5731 23.8511 27.1971L25.0692 23.8308L25.4052 23.9329C26.0146 24.1182 26.5107 24.5321 26.8022 25.0983C27.0937 25.6646 27.1423 26.3089 26.9389 26.9124L25.9604 29.8177C25.8961 30.0085 25.9277 30.2185 26.0451 30.3819C26.1625 30.5453 26.3514 30.6422 26.5527 30.6422H32.4345Z" fill="#006666"/>
<path d="M41.1381 18.061C41.0197 17.697 40.7108 17.4367 40.332 17.3818L39.2265 17.2214L38.7318 16.2199C38.5623 15.8767 38.2193 15.6636 37.8366 15.6636C37.8366 15.6636 37.8364 15.6636 37.8363 15.6636C37.4535 15.6637 37.1105 15.877 36.9412 16.2203L36.4471 17.2222L35.3416 17.3831C34.9628 17.4383 34.654 17.6988 34.5359 18.0629C34.4177 18.4269 34.5145 18.8191 34.7888 19.0863L35.5889 19.8658L35.4003 20.9669C35.3357 21.3442 35.488 21.7183 35.7978 21.9433C35.9728 22.0704 36.1774 22.1349 36.3835 22.1349C36.5423 22.1349 36.7019 22.0965 36.8493 22.019L37.838 21.4989L38.827 22.0184C39.1658 22.1964 39.5687 22.1672 39.8784 21.9421C40.188 21.717 40.3401 21.3428 40.2753 20.9655L40.0861 19.8646L40.886 19.0846C41.1598 18.8172 41.2564 18.425 41.1381 18.061ZM39.1185 19.0621C38.8832 19.2915 38.776 19.6219 38.8316 19.9459L38.9568 20.6747L38.3019 20.3306C38.0109 20.178 37.6636 20.178 37.3729 20.331L36.7183 20.6754L36.8432 19.9464C36.8987 19.6224 36.7912 19.292 36.5558 19.0627L36.026 18.5466L36.7579 18.44C37.0832 18.3927 37.3642 18.1884 37.5095 17.8937L37.8367 17.2304L38.1642 17.8935C38.3097 18.1882 38.5908 18.3923 38.916 18.4394L39.648 18.5456L39.1185 19.0621Z" fill="#006666"/>
<path d="M33.1869 18.061C33.0685 17.697 32.7597 17.4368 32.3808 17.3818L31.2753 17.2214L30.7806 16.2199C30.6111 15.8767 30.2682 15.6636 29.8854 15.6636C29.8854 15.6636 29.8852 15.6636 29.8852 15.6636C29.5024 15.6637 29.1593 15.877 28.99 16.2204L28.4959 17.2222L27.3904 17.3831C27.0116 17.4383 26.7029 17.6988 26.5847 18.0629C26.4665 18.4269 26.5634 18.8191 26.8376 19.0863L27.6377 19.8658L27.4492 20.9669C27.3846 21.3442 27.5369 21.7184 27.8466 21.9433C28.0215 22.0704 28.2262 22.1349 28.4323 22.1349C28.591 22.1349 28.7506 22.0965 28.898 22.019L29.8867 21.4989L30.8757 22.0184C31.2147 22.1964 31.6174 22.1672 31.9272 21.9421C32.2368 21.717 32.3888 21.3428 32.324 20.9655L32.1349 19.8646L32.9347 19.0846C33.2087 18.8172 33.3053 18.4251 33.1869 18.061ZM31.1673 19.0621C30.932 19.2915 30.8249 19.6219 30.8805 19.9459L31.0057 20.6747L30.3507 20.3307C30.0597 20.1779 29.7124 20.1781 29.4217 20.331L28.7671 20.6754L28.8919 19.9464C28.9474 19.6224 28.84 19.292 28.6045 19.0627L28.0747 18.5466L28.8066 18.44C29.1319 18.3927 29.4128 18.1885 29.5583 17.8936L29.8854 17.2303L30.2129 17.8934C30.3584 18.1881 30.6395 18.3923 30.9648 18.4394L31.6967 18.5456L31.1673 19.0621Z" fill="#006666"/>
<path d="M25.2358 18.061C25.1173 17.697 24.8085 17.4367 24.4297 17.3818L23.3242 17.2214L22.8295 16.2199C22.66 15.8767 22.317 15.6636 21.9343 15.6636C21.9342 15.6636 21.9341 15.6636 21.934 15.6636C21.5512 15.6637 21.2082 15.877 21.0389 16.2204L20.5448 17.2222L19.4393 17.3831C19.0604 17.4383 18.7517 17.6988 18.6335 18.0629C18.5153 18.427 18.6122 18.8192 18.8864 19.0863L19.6866 19.8658L19.498 20.9669C19.4334 21.3442 19.5857 21.7184 19.8954 21.9433C20.0704 22.0704 20.2751 22.1349 20.4811 22.1349C20.6399 22.1349 20.7994 22.0965 20.9469 22.019L21.9355 21.4989L22.9245 22.0184C23.2634 22.1964 23.6662 22.1672 23.9759 21.9421C24.2855 21.717 24.4376 21.3428 24.3728 20.9655L24.1837 19.8646L24.9835 19.0846C25.2575 18.8172 25.3542 18.4251 25.2358 18.061ZM23.2162 19.0621C22.9809 19.2915 22.8737 19.6219 22.9294 19.9459L23.0545 20.6747L22.3996 20.3307C22.1086 20.1779 21.7612 20.1781 21.4705 20.331L20.816 20.6754L20.9409 19.9462C20.9962 19.6223 20.8888 19.2921 20.6534 19.0627L20.1236 18.5466L20.8555 18.44C21.1807 18.3927 21.4617 18.1885 21.6072 17.8936L21.9343 17.2303L22.2617 17.8934C22.4072 18.1881 22.6884 18.3923 23.0137 18.4394L23.7457 18.5456L23.2162 19.0621Z" fill="#006666"/>
<path d="M15.7812 39.96C15.4361 39.96 15.1562 40.2398 15.1562 40.585V40.5947C15.1562 40.9398 15.4361 41.2197 15.7812 41.2197C16.1264 41.2197 16.4062 40.9398 16.4062 40.5947V40.585C16.4062 40.2398 16.1264 39.96 15.7812 39.96Z" fill="#006666"/>
</g>
<defs>
<clipPath id="clip0_2851_63493">
<rect width="32" height="32" fill="white" transform="translate(12 12)"/>
</clipPath>
</defs>
</svg>
