<svg width="60" height="60" viewBox="0 0 60 60" fill="none" xmlns="http://www.w3.org/2000/svg">
<rect width="60" height="60" rx="15" fill="#FDEFE6"/>
<path d="M30.9609 16.375C27.48 16.375 24.1416 17.7578 21.6802 20.2192C19.2187 22.6806 17.8359 26.019 17.8359 29.5H13.4609L19.1339 35.1729L19.2359 35.3771L25.1276 29.5H20.7526C20.7526 23.8562 25.3172 19.2917 30.9609 19.2917C36.6047 19.2917 41.1693 23.8562 41.1693 29.5C41.1693 35.1437 36.6047 39.7083 30.9609 39.7083C28.1464 39.7083 25.5943 38.5562 23.7568 36.7042L21.6859 38.775C22.9013 39.9971 24.3466 40.9665 25.9385 41.6273C27.5304 42.2881 29.2374 42.6271 30.9609 42.625C34.4419 42.625 37.7803 41.2422 40.2417 38.7808C42.7031 36.3194 44.0859 32.981 44.0859 29.5C44.0859 26.019 42.7031 22.6806 40.2417 20.2192C37.7803 17.7578 34.4419 16.375 30.9609 16.375ZM29.5026 23.6667V30.9583L35.7005 34.6333L36.8234 32.7667L31.6901 29.7187V23.6667H29.5026Z" fill="#F8A046"/>
</svg>
