<svg width="56" height="56" viewBox="0 0 56 56" fill="none" xmlns="http://www.w3.org/2000/svg">
<rect width="56" height="56" rx="16" fill="#FCDDCA"/>
<g clip-path="url(#clip0_2334_71446)">
<path d="M41.4417 23.682H39.5346V23.4678C39.5346 22.9347 39.1008 22.501 38.5677 22.501H34.8063C34.5471 22.501 34.3369 22.7111 34.3369 22.9704C34.3369 23.2297 34.5471 23.4398 34.8063 23.4398H38.5677C38.5832 23.4398 38.5957 23.4523 38.5957 23.4678V29.1913C38.5957 29.4506 38.8059 29.6607 39.0652 29.6607C39.3244 29.6607 39.5346 29.4506 39.5346 29.1913V24.6208H41.4417C41.5052 24.6208 41.5568 24.6724 41.5568 24.7359V41.1126C41.5568 42.1868 40.6829 43.0608 39.6087 43.0608H16.3948C15.3206 43.0608 14.4466 42.1868 14.4466 41.1126V24.7359C14.4466 24.6724 14.4983 24.6208 14.5617 24.6208H16.5315V40.6755C16.5315 41.3375 17.07 41.876 17.732 41.876H38.334C38.996 41.876 39.5345 41.3375 39.5345 40.6755V31.1934C39.5345 30.9341 39.3243 30.724 39.0651 30.724C38.8058 30.724 38.5957 30.9341 38.5957 31.1934V37.9487H31.001C30.0173 37.9487 29.1296 38.3646 28.5024 39.0291V32.9571C28.5024 32.6978 28.2923 32.4876 28.033 32.4876C27.7738 32.4876 27.5636 32.6978 27.5636 32.9571V39.0291C26.9365 38.3647 26.0486 37.9487 25.0651 37.9487H22.9321C22.6728 37.9487 22.4626 38.1588 22.4626 38.4181C22.4626 38.6774 22.6728 38.8876 22.9321 38.8876H25.0651C26.2895 38.8876 27.3103 39.7731 27.5225 40.9372H17.732C17.5876 40.9372 17.4703 40.8198 17.4703 40.6755V38.8876H20.9299C21.1891 38.8876 21.3993 38.6774 21.3993 38.4181C21.3993 38.1588 21.1891 37.9487 20.9299 37.9487H17.4703V23.4678C17.4703 23.4523 17.4829 23.4398 17.4983 23.4398H21.2597C21.5189 23.4398 21.7291 23.2297 21.7291 22.9704C21.7291 22.7111 21.5189 22.501 21.2597 22.501H17.4983C16.9652 22.501 16.5315 22.9347 16.5315 23.4678V23.682H14.5617C13.9806 23.682 13.5078 24.1547 13.5078 24.7359V41.1126C13.5078 42.7045 14.8029 43.9996 16.3948 43.9996H39.6085C41.2004 43.9996 42.4955 42.7045 42.4955 41.1126V24.7359C42.4956 24.1547 42.0228 23.682 41.4417 23.682ZM31.001 38.8875H38.5957V40.6755C38.5957 40.8198 38.4783 40.9372 38.334 40.9372H28.5436C28.7557 39.7731 29.7765 38.8875 31.001 38.8875Z" fill="#C07B36"/>
<path d="M21.773 18.5862C22.0307 18.6101 22.2601 18.4211 22.2844 18.163C22.4187 16.7394 23.076 15.4215 24.1355 14.4518C25.2015 13.4762 26.5852 12.9388 28.0316 12.9388C31.215 12.9388 33.8049 15.5287 33.8049 18.7121C33.8049 19.91 33.4413 21.0587 32.7536 22.0344C32.7497 22.0399 32.7459 22.0455 32.7422 22.0511L29.7384 26.7276C29.6897 26.8033 29.6639 26.8913 29.6639 26.9813V27.5895C29.6639 27.7129 29.5635 27.8133 29.4401 27.8133H29.4094L29.7085 22.7389H30.2432C31.0084 22.7389 31.6309 22.1164 31.6309 21.3513V21.2943C31.6309 20.5292 31.0084 19.9067 30.2432 19.9067C29.5096 19.9067 28.9011 20.4804 28.8579 21.2127L28.8233 21.8001H27.1772L27.1426 21.2127C27.0995 20.4804 26.4909 19.9067 25.7573 19.9067C24.9921 19.9067 24.3696 20.5292 24.3696 21.2943V21.3513C24.3696 22.1164 24.9921 22.7389 25.7573 22.7389H26.2921L26.5909 27.81C26.4828 27.7942 26.3993 27.7019 26.3993 27.5895V26.9813C26.3993 26.8913 26.3734 26.8033 26.3249 26.7276L23.3209 22.0511C23.3173 22.0455 23.3135 22.0399 23.3097 22.0344C22.8777 21.4216 22.5736 20.7407 22.4058 20.0105C22.3476 19.7578 22.0954 19.6002 21.8431 19.6582C21.5904 19.7163 21.4327 19.9682 21.4908 20.2209C21.6853 21.067 22.0371 21.8562 22.5364 22.5668L25.4606 27.119V27.5893C25.4606 28.0633 25.746 28.4713 26.1538 28.6521V29.4459C26.1538 30.2813 26.8333 30.9608 27.6686 30.9608H28.3949C29.2302 30.9608 29.9097 30.2813 29.9097 29.4459V28.6521C30.3174 28.4713 30.603 28.0634 30.603 27.5893V27.119L33.527 22.5668C34.3232 21.4339 34.7439 20.1011 34.7439 18.712C34.7437 15.011 31.7326 12 28.0316 12C26.35 12 24.7412 12.6248 23.5016 13.7593C22.2701 14.8865 21.5059 16.4191 21.3498 18.0748C21.3254 18.333 21.5149 18.562 21.773 18.5862ZM29.7951 21.2679C29.8091 21.031 30.0059 20.8454 30.2432 20.8454C30.4907 20.8454 30.6921 21.0468 30.6921 21.2942V21.3512C30.6921 21.5987 30.4907 21.8 30.2432 21.8H29.7638L29.7951 21.2679ZM25.7573 21.8C25.5098 21.8 25.3084 21.5987 25.3084 21.3512V21.2942C25.3084 21.0468 25.5098 20.8454 25.7573 20.8454C25.9946 20.8454 26.1914 21.031 26.2054 21.2679L26.2367 21.8H25.7573ZM28.768 22.7389L28.469 27.8132H27.5316L27.2326 22.7389H28.768ZM28.9707 29.446C28.9707 29.7636 28.7123 30.022 28.3947 30.022H27.6684C27.3508 30.022 27.0924 29.7636 27.0924 29.446V28.752H28.9706V29.446H28.9707Z" fill="#C07B36"/>
<path d="M36.2547 15.5646C36.3647 15.5646 36.4751 15.5262 36.5642 15.448L37.5884 14.5487C37.7833 14.3777 37.8025 14.081 37.6315 13.8863C37.4605 13.6915 37.1639 13.6722 36.9691 13.8432L35.9449 14.7425C35.75 14.9135 35.7308 15.2101 35.9018 15.4049C35.9946 15.5106 36.1244 15.5646 36.2547 15.5646Z" fill="#C07B36"/>
<path d="M35.9448 18.3954L36.969 19.2948C37.0582 19.3731 37.1686 19.4114 37.2786 19.4114C37.409 19.4114 37.5387 19.3574 37.6315 19.2517C37.8026 19.0569 37.7833 18.7603 37.5885 18.5893L36.5643 17.6899C36.3695 17.5188 36.073 17.5382 35.9019 17.733C35.7308 17.9278 35.75 18.2243 35.9448 18.3954Z" fill="#C07B36"/>
<path d="M18.4761 14.5488L19.5003 15.448C19.5895 15.5263 19.6999 15.5647 19.8098 15.5647C19.9402 15.5647 20.07 15.5107 20.1628 15.405C20.3338 15.2102 20.3145 14.9135 20.1197 14.7425L19.0955 13.8433C18.9007 13.6721 18.6041 13.6915 18.4331 13.8863C18.262 14.0811 18.2813 14.3777 18.4761 14.5488Z" fill="#C07B36"/>
<path d="M18.786 19.4114C18.8959 19.4114 19.0063 19.3729 19.0955 19.2947L20.1197 18.3954C20.3145 18.2243 20.3338 17.9277 20.1627 17.7329C19.9917 17.5382 19.6951 17.5189 19.5003 17.6899L18.4761 18.5892C18.2813 18.7603 18.262 19.0569 18.4331 19.2516C18.5258 19.3573 18.6555 19.4114 18.786 19.4114Z" fill="#C07B36"/>
<path d="M23.8792 28.2829C23.8792 28.0236 23.669 27.8135 23.4098 27.8135H18.7858C18.5266 27.8135 18.3164 28.0236 18.3164 28.2829C18.3164 28.5422 18.5266 28.7523 18.7858 28.7523H23.4098C23.669 28.7523 23.8792 28.5422 23.8792 28.2829Z" fill="#C07B36"/>
<path d="M24.8395 30.2012H19.6335C19.3742 30.2012 19.1641 30.4113 19.1641 30.6706C19.1641 30.9299 19.3742 31.14 19.6335 31.14H24.8395C25.0988 31.14 25.3089 30.9299 25.3089 30.6706C25.3089 30.4113 25.0988 30.2012 24.8395 30.2012Z" fill="#C07B36"/>
<path d="M24.8395 32.4883H19.6335C19.3742 32.4883 19.1641 32.6984 19.1641 32.9577C19.1641 33.217 19.3742 33.4271 19.6335 33.4271H24.8395C25.0988 33.4271 25.3089 33.217 25.3089 32.9577C25.3089 32.6984 25.0988 32.4883 24.8395 32.4883Z" fill="#C07B36"/>
<path d="M24.8395 34.7754H19.6335C19.3742 34.7754 19.1641 34.9855 19.1641 35.2448C19.1641 35.5041 19.3742 35.7142 19.6335 35.7142H24.8395C25.0988 35.7142 25.3089 35.5041 25.3089 35.2448C25.3089 34.9855 25.0988 34.7754 24.8395 34.7754Z" fill="#C07B36"/>
<path d="M37.7503 28.2829C37.7503 28.0236 37.5401 27.8135 37.2809 27.8135H32.6569C32.3977 27.8135 32.1875 28.0236 32.1875 28.2829C32.1875 28.5422 32.3977 28.7523 32.6569 28.7523H37.2809C37.5401 28.7523 37.7503 28.5422 37.7503 28.2829Z" fill="#C07B36"/>
<path d="M36.4333 30.2012H31.2272C30.968 30.2012 30.7578 30.4113 30.7578 30.6706C30.7578 30.9299 30.968 31.14 31.2272 31.14H36.4333C36.6925 31.14 36.9027 30.9299 36.9027 30.6706C36.9027 30.4113 36.6925 30.2012 36.4333 30.2012Z" fill="#C07B36"/>
<path d="M36.4333 32.4883H31.2272C30.968 32.4883 30.7578 32.6984 30.7578 32.9577C30.7578 33.217 30.968 33.4271 31.2272 33.4271H36.4333C36.6925 33.4271 36.9027 33.217 36.9027 32.9577C36.9027 32.6984 36.6925 32.4883 36.4333 32.4883Z" fill="#C07B36"/>
<path d="M36.4333 34.7754H31.2272C30.968 34.7754 30.7578 34.9855 30.7578 35.2448C30.7578 35.5041 30.968 35.7142 31.2272 35.7142H36.4333C36.6925 35.7142 36.9027 35.5041 36.9027 35.2448C36.9027 34.9855 36.6925 34.7754 36.4333 34.7754Z" fill="#C07B36"/>
</g>
<defs>
<clipPath id="clip0_2334_71446">
<rect width="32" height="32" fill="white" transform="translate(12 12)"/>
</clipPath>
</defs>
</svg>
