<svg width="56" height="56" viewBox="0 0 56 56" fill="none" xmlns="http://www.w3.org/2000/svg">
<rect width="56" height="56" rx="16" fill="#FCDDCA"/>
<path d="M18.3906 31.9678C18.2114 31.9678 18.0395 31.8966 17.9128 31.7699C17.786 31.6432 17.7148 31.4713 17.7148 31.2921V26.4717C17.7148 26.2924 17.786 26.1206 17.9128 25.9938C18.0395 25.8671 18.2114 25.7959 18.3906 25.7959C18.5698 25.7959 18.7417 25.8671 18.8684 25.9938C18.9952 26.1206 19.0664 26.2924 19.0664 26.4717V31.2921C19.0664 31.4713 18.9952 31.6432 18.8684 31.7699C18.7417 31.8966 18.5698 31.9678 18.3906 31.9678Z" fill="#C07B36"/>
<path d="M21.4325 21.2038C20.786 21.2038 20.1541 21.0121 19.6166 20.653C19.0792 20.2939 18.6602 19.7834 18.4129 19.1862C18.1655 18.589 18.1008 17.9318 18.2269 17.2978C18.353 16.6638 18.6643 16.0814 19.1214 15.6243C19.5785 15.1672 20.1608 14.8559 20.7948 14.7298C21.4289 14.6037 22.086 14.6684 22.6832 14.9158C23.2805 15.1632 23.7909 15.5821 24.1501 16.1196C24.5092 16.6571 24.7009 17.289 24.7009 17.9354C24.6999 18.802 24.3553 19.6327 23.7425 20.2455C23.1298 20.8582 22.299 21.2029 21.4325 21.2038ZM21.4325 16.0185C21.0534 16.0185 20.6827 16.1309 20.3675 16.3416C20.0523 16.5522 19.8066 16.8516 19.6615 17.2018C19.5164 17.5521 19.4784 17.9375 19.5524 18.3094C19.6264 18.6812 19.8089 19.0228 20.077 19.2909C20.3451 19.5589 20.6867 19.7415 21.0585 19.8155C21.4304 19.8894 21.8158 19.8515 22.166 19.7064C22.5163 19.5613 22.8157 19.3156 23.0263 19.0004C23.237 18.6851 23.3494 18.3145 23.3494 17.9354C23.3488 17.4272 23.1466 16.94 22.7873 16.5806C22.4279 16.2213 21.9407 16.0191 21.4325 16.0185Z" fill="#C07B36"/>
<path d="M32.0903 26.2598C31.9598 26.2599 31.832 26.2222 31.7225 26.1513C31.613 26.0803 31.5263 25.9792 31.473 25.8601C31.4197 25.741 31.402 25.609 31.4221 25.4801C31.4422 25.3512 31.4991 25.2308 31.5861 25.1336L35.2578 21.0177C35.3169 20.9515 35.3885 20.8976 35.4685 20.859C35.5486 20.8205 35.6354 20.7981 35.724 20.7931C35.8127 20.7881 35.9015 20.8006 35.9853 20.8299C36.0691 20.8592 36.1464 20.9047 36.2126 20.9639C36.2788 21.0231 36.3328 21.0947 36.3713 21.1747C36.4099 21.2547 36.4323 21.3415 36.4373 21.4302C36.4423 21.5188 36.4298 21.6076 36.4004 21.6915C36.3711 21.7753 36.3256 21.8525 36.2664 21.9187L32.5948 26.0323C32.5315 26.1037 32.4539 26.1609 32.3669 26.2001C32.2799 26.2393 32.1857 26.2597 32.0903 26.2598Z" fill="#C07B36"/>
<path d="M39.3073 32.3618H27.1829C27.0037 32.3618 26.8318 32.2906 26.705 32.1639C26.5783 32.0371 26.5071 31.8652 26.5071 31.686C26.5071 31.5068 26.5783 31.3349 26.705 31.2082C26.8318 31.0815 27.0037 31.0103 27.1829 31.0103H39.3073C39.4865 31.0103 39.6584 30.9391 39.7851 30.8123C39.9119 30.6856 39.9831 30.5137 39.9831 30.3345V16.7099C39.9831 16.5307 39.9119 16.3588 39.7851 16.2321C39.6584 16.1053 39.4865 16.0341 39.3073 16.0341H26.0508C25.8715 16.0341 25.6997 15.9629 25.5729 15.8362C25.4462 15.7095 25.375 15.5376 25.375 15.3584C25.375 15.1792 25.4462 15.0073 25.5729 14.8805C25.6997 14.7538 25.8715 14.6826 26.0508 14.6826H39.3073C39.845 14.6826 40.3606 14.8962 40.7408 15.2764C41.121 15.6566 41.3346 16.1722 41.3346 16.7099V30.3345C41.3346 30.8722 41.121 31.3878 40.7408 31.768C40.3606 32.1482 39.845 32.3618 39.3073 32.3618Z" fill="#C07B36"/>
<path d="M21.4356 41.3342H18.3906C18.2114 41.3342 18.0395 41.263 17.9128 41.1362C17.786 41.0095 17.7148 40.8376 17.7148 40.6584V31.292C17.7148 31.1127 17.786 30.9409 17.9128 30.8141C18.0395 30.6874 18.2114 30.6162 18.3906 30.6162C18.5698 30.6162 18.7417 30.6874 18.8684 30.8141C18.9952 30.9409 19.0664 31.1127 19.0664 31.292V39.9827H21.4356C21.6148 39.9827 21.7867 40.0539 21.9134 40.1806C22.0401 40.3073 22.1113 40.4792 22.1113 40.6584C22.1113 40.8376 22.0401 41.0095 21.9134 41.1362C21.7867 41.263 21.6148 41.3342 21.4356 41.3342Z" fill="#C07B36"/>
<path d="M24.4797 41.3334H21.4342C21.255 41.3334 21.0831 41.2622 20.9564 41.1355C20.8296 41.0088 20.7584 40.8369 20.7584 40.6577V31.6854C20.7584 31.5062 20.8296 31.3343 20.9564 31.2076C21.0831 31.0808 21.255 31.0097 21.4342 31.0097C21.6134 31.0097 21.7853 31.0808 21.912 31.2076C22.0388 31.3343 22.11 31.5062 22.11 31.6854V39.9819H23.8039V27.2056C23.8038 26.9251 23.887 26.651 24.0428 26.4178C24.1986 26.1846 24.4201 26.0028 24.6792 25.8955C24.9383 25.7882 25.2235 25.7602 25.4985 25.8149C25.7736 25.8697 26.0262 26.0048 26.2245 26.2032L27.2836 27.261C27.3621 27.3398 27.4554 27.4023 27.5582 27.4449C27.661 27.4874 27.7711 27.5091 27.8824 27.5088H31.0274C31.1401 27.5088 31.2517 27.4863 31.3556 27.4427C31.4595 27.399 31.5537 27.3351 31.6326 27.2545C31.7115 27.174 31.7735 27.0786 31.815 26.9738C31.8565 26.869 31.8767 26.757 31.8743 26.6443C31.8649 26.187 31.4716 25.8153 30.9977 25.8153H28.5113C28.3321 25.8152 28.1603 25.7439 28.0337 25.6171L26.579 24.1629C26.3151 23.8974 26.0012 23.687 25.6553 23.5438C25.3095 23.4006 24.9387 23.3274 24.5644 23.3285H24.04L23.0186 24.1777C22.5737 24.5475 22.0134 24.75 21.4349 24.75C20.8563 24.75 20.296 24.5475 19.8511 24.1777L18.8289 23.3285H18.3892C17.7609 23.3293 17.1586 23.5791 16.7144 24.0234C16.2701 24.4676 16.0202 25.0699 16.0195 25.6982C16.0195 25.8774 15.9483 26.0493 15.8216 26.176C15.6948 26.3028 15.523 26.374 15.3437 26.374C15.1645 26.374 14.9926 26.3028 14.8659 26.176C14.7392 26.0493 14.668 25.8774 14.668 25.6982C14.669 24.7116 15.0614 23.7657 15.7591 23.0681C16.4567 22.3705 17.4026 21.9781 18.3892 21.977H19.0731C19.2309 21.9771 19.3838 22.0324 19.5051 22.1334L20.7143 23.1384C20.9167 23.307 21.1717 23.3993 21.4351 23.3993C21.6985 23.3993 21.9535 23.307 22.1559 23.1384L23.3642 22.1329C23.4855 22.0319 23.6384 21.9766 23.7962 21.9766H24.5653C25.1171 21.9751 25.6638 22.083 26.1736 22.2942C26.6835 22.5054 27.1463 22.8156 27.5355 23.2069L28.7924 24.4638H30.9999C32.2046 24.4638 33.2038 25.4297 33.2277 26.6172C33.2336 26.9096 33.1811 27.2003 33.0734 27.4721C32.9656 27.744 32.8046 27.9916 32.5999 28.2005C32.3952 28.4094 32.1509 28.5754 31.8813 28.6887C31.6116 28.8019 31.3221 28.8603 31.0296 28.8603H27.8806C27.5918 28.8611 27.3057 28.8046 27.0389 28.6941C26.7721 28.5836 26.5299 28.4213 26.3263 28.2165L25.269 27.1578C25.2603 27.1493 25.2495 27.1432 25.2377 27.1403C25.2259 27.1373 25.2135 27.1376 25.2018 27.1412C25.1886 27.1456 25.1772 27.1541 25.1691 27.1654C25.161 27.1767 25.1567 27.1903 25.1568 27.2042V40.6563C25.157 40.7453 25.1396 40.8334 25.1056 40.9156C25.0716 40.9979 25.0218 41.0726 24.9588 41.1355C24.8959 41.1984 24.8212 41.2483 24.739 41.2822C24.6568 41.3162 24.5686 41.3336 24.4797 41.3334Z" fill="#C07B36"/>
<path d="M16.8664 33.4902C16.2835 33.4896 15.7247 33.2577 15.3125 32.8456C14.9004 32.4334 14.6686 31.8746 14.668 31.2917V25.6982C14.668 25.519 14.7392 25.3471 14.8659 25.2204C14.9926 25.0937 15.1645 25.0225 15.3437 25.0225C15.5229 25.0225 15.6948 25.0937 15.8216 25.2204C15.9483 25.3471 16.0195 25.519 16.0195 25.6982V31.2917C16.0195 31.5163 16.1087 31.7317 16.2675 31.8906C16.4264 32.0494 16.6418 32.1386 16.8664 32.1386C17.0911 32.1386 17.3065 32.0494 17.4653 31.8906C17.6242 31.7317 17.7134 31.5163 17.7134 31.2917C17.7134 31.1125 17.7846 30.9406 17.9113 30.8139C18.038 30.6871 18.2099 30.6159 18.3891 30.6159C18.5684 30.6159 18.7402 30.6871 18.867 30.8139C18.9937 30.9406 19.0649 31.1125 19.0649 31.2917C19.0643 31.8746 18.8325 32.4334 18.4203 32.8456C18.0082 33.2577 17.4493 33.4896 16.8664 33.4902Z" fill="#C07B36"/>
<path d="M35.9321 41.3339H15.3437C15.1645 41.3339 14.9926 41.2627 14.8659 41.136C14.7392 41.0093 14.668 40.8374 14.668 40.6582C14.668 40.479 14.7392 40.3071 14.8659 40.1803C14.9926 40.0536 15.1645 39.9824 15.3437 39.9824H35.9321C36.1113 39.9824 36.2832 40.0536 36.4099 40.1803C36.5367 40.3071 36.6079 40.479 36.6079 40.6582C36.6079 40.8374 36.5367 41.0093 36.4099 41.136C36.2832 41.2627 36.1113 41.3339 35.9321 41.3339Z" fill="#C07B36"/>
<path d="M32.2575 22.1435H28.7539C28.5747 22.1435 28.4028 22.0723 28.276 21.9456C28.1493 21.8189 28.0781 21.647 28.0781 21.4677C28.0781 21.2885 28.1493 21.1166 28.276 20.9899C28.4028 20.8632 28.5747 20.792 28.7539 20.792H32.2575C32.4367 20.792 32.6086 20.8632 32.7353 20.9899C32.862 21.1166 32.9332 21.2885 32.9332 21.4677C32.9332 21.647 32.862 21.8189 32.7353 21.9456C32.6086 22.0723 32.4367 22.1435 32.2575 22.1435Z" fill="#C07B36"/>
<path d="M35.761 19.0878H28.7539C28.5747 19.0878 28.4028 19.0166 28.276 18.8899C28.1493 18.7632 28.0781 18.5913 28.0781 18.4121C28.0781 18.2329 28.1493 18.061 28.276 17.9343C28.4028 17.8075 28.5747 17.7363 28.7539 17.7363H35.761C35.9403 17.7363 36.1121 17.8075 36.2389 17.9343C36.3656 18.061 36.4368 18.2329 36.4368 18.4121C36.4368 18.5913 36.3656 18.7632 36.2389 18.8899C36.1121 19.0166 35.9403 19.0878 35.761 19.0878Z" fill="#C07B36"/>
</svg>
