<svg width="100" height="100" viewBox="0 0 100 100" fill="none" xmlns="http://www.w3.org/2000/svg">
<circle cx="50" cy="50" r="50" fill="#006666"/>
<path d="M39.8965 68.9585C39.3757 68.4377 39.1152 67.821 39.1152 67.1085C39.1152 66.3974 39.3757 65.7814 39.8965 65.2606L55.1569 50.0002L39.8444 34.6877C39.3583 34.2016 39.1152 33.5939 39.1152 32.8647C39.1152 32.1356 39.3757 31.5106 39.8965 30.9897C40.4173 30.4689 41.034 30.2085 41.7465 30.2085C42.4576 30.2085 43.0736 30.4689 43.5944 30.9897L61.0944 48.5418C61.3027 48.7502 61.4507 48.9759 61.5382 49.2189C61.6243 49.462 61.6673 49.7224 61.6673 50.0002C61.6673 50.2779 61.6243 50.5384 61.5382 50.7814C61.4507 51.0245 61.3027 51.2502 61.0944 51.4585L43.5423 69.0106C43.0562 69.4967 42.4576 69.7397 41.7465 69.7397C41.034 69.7397 40.4173 69.4793 39.8965 68.9585Z" fill="white"/>
</svg>
