<svg width="24" height="24" viewBox="0 0 24 24" fill="none" xmlns="http://www.w3.org/2000/svg">
<path d="M18.4288 14.6484V10.8484C18.4288 8.02581 16.6289 5.56453 14.1507 4.64519C14.1797 4.50001 14.1957 4.35165 14.1957 4.20324C14.1958 2.98712 13.2122 2 12.0005 2C10.7888 2 9.8052 2.98712 9.8052 4.20324C9.8052 4.34842 9.82125 4.49354 9.84696 4.63226C8.99523 4.93549 8.20775 5.41612 7.536 6.06774C6.26963 7.29355 5.57217 8.94193 5.57217 10.7097V14.6484C5.57217 14.7871 5.45966 14.9033 5.31823 14.9033C4.13221 14.9033 3.11972 15.8 3.01044 16.942C2.94936 17.5775 3.15832 18.2097 3.58579 18.6807C4.01004 19.1484 4.61754 19.4194 5.2507 19.4194H9.127C9.28771 20.8678 10.5155 22.0001 12.0005 22.0001C13.4854 22.0001 14.7133 20.8678 14.874 19.4194H18.7503C19.3835 19.4194 19.9909 19.1484 20.4152 18.6807C20.8394 18.2097 21.0484 17.5775 20.9905 16.942C20.8812 15.8 19.8656 14.9033 18.6827 14.9033C18.5413 14.9032 18.4288 14.7903 18.4288 14.6484ZM12.0005 3.2903C12.5019 3.2903 12.9101 3.69998 12.9101 4.20318C12.9101 4.24509 12.9036 4.28383 12.8972 4.32574C12.6786 4.29347 12.4568 4.2709 12.235 4.26443C11.8525 4.2515 11.4765 4.27736 11.1037 4.32897C11.0972 4.28706 11.0908 4.24833 11.0908 4.20641C11.0909 3.69998 11.4991 3.2903 12.0005 3.2903ZM12.0005 20.7096C11.2259 20.7096 10.5766 20.1548 10.4255 19.4193H13.5754C13.4244 20.1548 12.7751 20.7096 12.0005 20.7096ZM19.7113 17.0645C19.737 17.342 19.6502 17.6097 19.467 17.8129C19.2774 18.0161 19.0266 18.129 18.7503 18.129H5.25076C4.97433 18.129 4.72366 18.0161 4.53719 17.8129C4.35078 17.6097 4.26398 17.3419 4.28969 17.0645C4.33467 16.5774 4.78791 16.1935 5.31823 16.1935C6.16679 16.1935 6.85781 15.5 6.85781 14.6484V10.7097C6.85781 9.29677 7.41706 7.97743 8.42954 6.99678C9.39699 6.05809 10.657 5.54837 12.0005 5.54837C12.0648 5.54837 12.1258 5.54837 12.1901 5.55161C14.9189 5.64836 17.1432 8.02581 17.1432 10.8484V14.6484C17.1432 15.5 17.8342 16.1935 18.6827 16.1935C19.2131 16.1935 19.6631 16.5774 19.7113 17.0645Z" fill="#9C652C"/>
</svg>
