<svg width="20" height="20" viewBox="0 0 20 20" fill="none" xmlns="http://www.w3.org/2000/svg">
<g clip-path="url(#clip0_1656_54347)">
<path d="M0.9375 15.3123H1.5625V19.0623C1.5625 19.1451 1.59542 19.2246 1.65403 19.2832C1.71263 19.3418 1.79212 19.3748 1.875 19.3748H4.375C4.45788 19.3748 4.53737 19.3418 4.59597 19.2832C4.65458 19.2246 4.6875 19.1451 4.6875 19.0623V15.3123H5.3125C5.39538 15.3123 5.47487 15.2793 5.53347 15.2207C5.59208 15.1621 5.625 15.0826 5.625 14.9998V12.4998C5.6245 12.0855 5.45972 11.6884 5.16681 11.3955C4.87389 11.1025 4.47675 10.9378 4.0625 10.9373H3.94313C4.13583 10.7704 4.27294 10.5487 4.33606 10.3018C4.39918 10.0548 4.38531 9.79447 4.29629 9.55564C4.20728 9.3168 4.04738 9.11089 3.83803 8.9655C3.62868 8.82011 3.37988 8.74219 3.125 8.74219C2.87012 8.74219 2.62132 8.82011 2.41197 8.9655C2.20262 9.11089 2.04272 9.3168 1.95371 9.55564C1.86469 9.79447 1.85082 10.0548 1.91394 10.3018C1.97706 10.5487 2.11417 10.7704 2.30687 10.9373H2.1875C1.77325 10.9378 1.37611 11.1025 1.08319 11.3955C0.790276 11.6884 0.625496 12.0855 0.625 12.4998V14.9998C0.625 15.0826 0.657924 15.1621 0.716529 15.2207C0.775134 15.2793 0.85462 15.3123 0.9375 15.3123ZM3.125 9.37477C3.24861 9.37477 3.36945 9.41142 3.47223 9.4801C3.57501 9.54877 3.65512 9.64638 3.70242 9.76059C3.74973 9.87479 3.76211 10.0005 3.73799 10.1217C3.71388 10.2429 3.65435 10.3543 3.56694 10.4417C3.47953 10.5291 3.36817 10.5886 3.24693 10.6128C3.12569 10.6369 3.00003 10.6245 2.88582 10.5772C2.77162 10.5299 2.67401 10.4498 2.60533 10.347C2.53666 10.2442 2.5 10.1234 2.5 9.99977C2.5 9.834 2.56585 9.67503 2.68306 9.55782C2.80027 9.44061 2.95924 9.37477 3.125 9.37477ZM1.25 12.4998C1.25 12.2511 1.34877 12.0127 1.52459 11.8369C1.7004 11.661 1.93886 11.5623 2.1875 11.5623H4.0625C4.31114 11.5623 4.5496 11.661 4.72541 11.8369C4.90123 12.0127 5 12.2511 5 12.4998V14.6873H4.6875V12.8123H4.0625V18.7498H3.4375V14.9998H2.8125V18.7498H2.1875V12.8123H1.5625V14.6873H1.25V12.4998Z" fill="#7A7A7A"/>
<path d="M17.8125 10.9373H17.6931C17.8858 10.7704 18.0229 10.5487 18.0861 10.3018C18.1492 10.0548 18.1353 9.79447 18.0463 9.55564C17.9573 9.3168 17.7974 9.11089 17.588 8.9655C17.3787 8.82011 17.1299 8.74219 16.875 8.74219C16.6201 8.74219 16.3713 8.82011 16.162 8.9655C15.9526 9.11089 15.7927 9.3168 15.7037 9.55564C15.6147 9.79447 15.6008 10.0548 15.6639 10.3018C15.7271 10.5487 15.8642 10.7704 16.0569 10.9373H15.9375C15.5233 10.9378 15.1261 11.1025 14.8332 11.3955C14.5403 11.6884 14.3755 12.0855 14.375 12.4998V14.9998C14.375 15.0826 14.4079 15.1621 14.4665 15.2207C14.5251 15.2793 14.6046 15.3123 14.6875 15.3123H15.3125V19.0623C15.3125 19.1451 15.3454 19.2246 15.404 19.2832C15.4626 19.3418 15.5421 19.3748 15.625 19.3748H18.125C18.2079 19.3748 18.2874 19.3418 18.346 19.2832C18.4046 19.2246 18.4375 19.1451 18.4375 19.0623V15.3123H19.0625C19.1454 15.3123 19.2249 15.2793 19.2835 15.2207C19.3421 15.1621 19.375 15.0826 19.375 14.9998V12.4998C19.3745 12.0855 19.2097 11.6884 18.9168 11.3955C18.6239 11.1025 18.2267 10.9378 17.8125 10.9373ZM16.875 9.37477C16.9986 9.37477 17.1195 9.41142 17.2222 9.4801C17.325 9.54877 17.4051 9.64638 17.4524 9.76059C17.4997 9.87479 17.5121 10.0005 17.488 10.1217C17.4639 10.2429 17.4044 10.3543 17.3169 10.4417C17.2295 10.5291 17.1182 10.5886 16.9969 10.6128C16.8757 10.6369 16.75 10.6245 16.6358 10.5772C16.5216 10.5299 16.424 10.4498 16.3553 10.347C16.2867 10.2442 16.25 10.1234 16.25 9.99977C16.25 9.834 16.3158 9.67503 16.4331 9.55782C16.5503 9.44061 16.7092 9.37477 16.875 9.37477ZM18.75 14.6873H18.4375V12.8123H17.8125V18.7498H17.1875V14.9998H16.5625V18.7498H15.9375V12.8123H15.3125V14.6873H15V12.4998C15 12.2511 15.0988 12.0127 15.2746 11.8369C15.4504 11.661 15.6889 11.5623 15.9375 11.5623H17.8125C18.0611 11.5623 18.2996 11.661 18.4754 11.8369C18.6512 12.0127 18.75 12.2511 18.75 12.4998V14.6873Z" fill="#7A7A7A"/>
<path d="M2.0101 6.47425L1.85103 7.44925C1.84159 7.50714 1.84864 7.56652 1.87136 7.6206C1.89408 7.67467 1.93156 7.72126 1.97952 7.75504C2.02748 7.78881 2.08397 7.80841 2.14254 7.81159C2.20111 7.81476 2.25939 7.80139 2.31072 7.773L3.1251 7.323L3.93947 7.773C3.9908 7.80139 4.04908 7.81476 4.10765 7.81159C4.16622 7.80841 4.22272 7.78881 4.27067 7.75504C4.31863 7.72126 4.35611 7.67467 4.37884 7.6206C4.40156 7.56652 4.4086 7.50714 4.39916 7.44925L4.2401 6.47425L4.91135 5.78675C4.95148 5.74562 4.9795 5.69423 4.99232 5.63821C5.00514 5.5822 5.00227 5.52374 4.98402 5.46925C4.96577 5.41476 4.93285 5.36636 4.88888 5.32937C4.84491 5.29237 4.79159 5.26822 4.73478 5.25956L3.8201 5.11987L3.40791 4.24206C3.38267 4.18837 3.34268 4.14298 3.2926 4.11118C3.24252 4.07938 3.18442 4.0625 3.1251 4.0625C3.06578 4.0625 3.00768 4.07938 2.9576 4.11118C2.90752 4.14298 2.86752 4.18837 2.84228 4.24206L2.4301 5.11956L1.51541 5.25925C1.4586 5.26791 1.40528 5.29206 1.36131 5.32905C1.31734 5.36605 1.28443 5.41445 1.26618 5.46894C1.24793 5.52342 1.24506 5.58189 1.25788 5.6379C1.2707 5.69391 1.29871 5.74531 1.33885 5.78643L2.0101 6.47425ZM2.68947 5.71237C2.7402 5.7046 2.78823 5.68445 2.82933 5.65371C2.87042 5.62298 2.90331 5.58259 2.9251 5.53612L3.1251 5.11018L3.3251 5.53612C3.34688 5.58259 3.37977 5.62298 3.42087 5.65371C3.46196 5.68445 3.50999 5.7046 3.56072 5.71237L4.03916 5.7855L3.6826 6.15081C3.64847 6.18581 3.62303 6.22833 3.60832 6.27495C3.59361 6.32157 3.59004 6.371 3.59791 6.41925L3.67885 6.91487L3.27635 6.69237C3.23005 6.66676 3.17801 6.65333 3.1251 6.65333C3.07219 6.65333 3.02015 6.66676 2.97385 6.69237L2.57135 6.91487L2.65228 6.41925C2.66015 6.371 2.65658 6.32157 2.64188 6.27495C2.62717 6.22833 2.60173 6.18581 2.5676 6.15081L2.21103 5.7855L2.68947 5.71237Z" fill="#7A7A7A"/>
<path d="M15.7601 6.47425L15.601 7.44925C15.5916 7.50714 15.5986 7.56652 15.6214 7.6206C15.6441 7.67467 15.6816 7.72126 15.7295 7.75504C15.7775 7.78881 15.834 7.80841 15.8925 7.81159C15.9511 7.81476 16.0094 7.80139 16.0607 7.773L16.8751 7.323L17.6895 7.773C17.7408 7.80139 17.7991 7.81476 17.8577 7.81159C17.9162 7.80841 17.9727 7.78881 18.0207 7.75504C18.0686 7.72126 18.1061 7.67467 18.1288 7.6206C18.1516 7.56652 18.1586 7.50714 18.1492 7.44925L17.9901 6.47425L18.6613 5.78675C18.7015 5.74562 18.7295 5.69423 18.7423 5.63821C18.7551 5.5822 18.7523 5.52374 18.734 5.46925C18.7158 5.41476 18.6828 5.36636 18.6389 5.32937C18.5949 5.29237 18.5416 5.26822 18.4848 5.25956L17.5701 5.11987L17.1579 4.24206C17.1327 4.18837 17.0927 4.14298 17.0426 4.11118C16.9925 4.07938 16.9344 4.0625 16.8751 4.0625C16.8158 4.0625 16.7577 4.07938 16.7076 4.11118C16.6575 4.14298 16.6175 4.18837 16.5923 4.24206L16.1801 5.11987L15.2654 5.25956C15.2086 5.26822 15.1553 5.29237 15.1113 5.32937C15.0673 5.36636 15.0344 5.41476 15.0162 5.46925C14.9979 5.52374 14.9951 5.5822 15.0079 5.63821C15.0207 5.69423 15.0487 5.74562 15.0888 5.78675L15.7601 6.47425ZM16.4395 5.71237C16.4902 5.7046 16.5382 5.68445 16.5793 5.65371C16.6204 5.62298 16.6533 5.58259 16.6751 5.53612L16.8751 5.11018L17.0751 5.53612C17.0969 5.58259 17.1298 5.62298 17.1709 5.65371C17.212 5.68445 17.26 5.7046 17.3107 5.71237L17.7892 5.7855L17.4326 6.15081C17.3985 6.18581 17.373 6.22833 17.3583 6.27495C17.3436 6.32157 17.34 6.371 17.3479 6.41925L17.4288 6.91487L17.0263 6.69237C16.98 6.66676 16.928 6.65333 16.8751 6.65333C16.8222 6.65333 16.7701 6.66676 16.7238 6.69237L16.3213 6.91487L16.4023 6.41925C16.4101 6.371 16.4066 6.32157 16.3919 6.27495C16.3772 6.22833 16.3517 6.18581 16.3176 6.15081L15.961 5.7855L16.4395 5.71237Z" fill="#7A7A7A"/>
<path d="M8.5726 3.83456L8.33978 5.26206C8.33034 5.31995 8.33739 5.37933 8.36011 5.43341C8.38283 5.48749 8.42031 5.53408 8.46827 5.56785C8.51623 5.60163 8.57272 5.62122 8.63129 5.6244C8.68986 5.62757 8.74815 5.6142 8.79947 5.58581L10.0001 4.92206L11.2007 5.58581C11.2521 5.61419 11.3104 5.62754 11.369 5.62433C11.4275 5.62113 11.484 5.60149 11.532 5.56768C11.5799 5.53392 11.6173 5.48735 11.6401 5.43331C11.6628 5.37926 11.6698 5.31992 11.6604 5.26206L11.4276 3.83456L12.4113 2.82675C12.4515 2.78562 12.4795 2.73423 12.4923 2.67821C12.5051 2.6222 12.5023 2.56374 12.484 2.50925C12.4658 2.45476 12.4329 2.40636 12.3889 2.36937C12.3449 2.33237 12.2916 2.30822 12.2348 2.29956L10.8882 2.09362L10.2829 0.804559C10.2577 0.750872 10.2177 0.705478 10.1676 0.673682C10.1175 0.641885 10.0594 0.625 10.0001 0.625C9.94078 0.625 9.88268 0.641885 9.8326 0.673682C9.78252 0.705478 9.74252 0.750872 9.71728 0.804559L9.11197 2.09362L7.76541 2.29925C7.7086 2.30791 7.65528 2.33206 7.61131 2.36905C7.56734 2.40605 7.53443 2.45445 7.51618 2.50894C7.49793 2.56342 7.49506 2.62189 7.50788 2.6779C7.5207 2.73391 7.54871 2.78531 7.58885 2.82643L8.5726 3.83456ZM9.37135 2.68737C9.42208 2.6796 9.47011 2.65945 9.5112 2.62871C9.5523 2.59798 9.58519 2.55759 9.60697 2.51112L10.0001 1.673L10.3932 2.51018C10.415 2.55665 10.4479 2.59704 10.489 2.62778C10.5301 2.65852 10.5781 2.67866 10.6288 2.68643L11.5392 2.8255L10.8701 3.51112C10.8359 3.54616 10.8105 3.58873 10.7957 3.63541C10.781 3.68209 10.7775 3.73157 10.7854 3.77987L10.9417 4.72737L10.1529 4.29143C10.1066 4.26583 10.0546 4.25239 10.0017 4.25239C9.94875 4.25239 9.89671 4.26583 9.85041 4.29143L9.06166 4.72737L9.21635 3.77987C9.22426 3.73157 9.22072 3.68209 9.20601 3.63541C9.1913 3.58873 9.16584 3.54616 9.13166 3.51112L8.46104 2.8255L9.37135 2.68737Z" fill="#7A7A7A"/>
<path d="M4.8496 9.02377L8.12429 10.81V13.411L7.19116 19.0103C7.18367 19.0551 7.18603 19.101 7.19806 19.1447C7.21009 19.1885 7.23152 19.2291 7.26084 19.2638C7.29017 19.2984 7.32669 19.3263 7.36787 19.3454C7.40905 19.3645 7.45389 19.3744 7.49929 19.3744H9.06179C9.1347 19.3744 9.20531 19.3489 9.26141 19.3023C9.31751 19.2558 9.35556 19.1911 9.36898 19.1194L9.99929 15.7575L10.6296 19.1194C10.643 19.1911 10.6811 19.2558 10.7372 19.3023C10.7933 19.3489 10.8639 19.3744 10.9368 19.3744H12.4993C12.5447 19.3744 12.5895 19.3645 12.6307 19.3454C12.6719 19.3263 12.7084 19.2984 12.7377 19.2638C12.7671 19.2291 12.7885 19.1885 12.8005 19.1447C12.8125 19.101 12.8149 19.0551 12.8074 19.0103L11.8743 13.411V10.81L15.149 9.02377C15.2133 8.98868 15.2633 8.93208 15.2902 8.86387C15.317 8.79566 15.319 8.72019 15.2959 8.65064L14.9834 7.71314C14.9695 7.67158 14.9471 7.63339 14.9175 7.60106C14.8879 7.56872 14.8519 7.54297 14.8117 7.52546C14.7716 7.50796 14.7282 7.4991 14.6844 7.49945C14.6405 7.4998 14.5973 7.50937 14.5574 7.52752L11.1815 9.06189H10.9271C11.1918 8.86655 11.3881 8.59265 11.488 8.27921C11.5879 7.96578 11.5863 7.6288 11.4835 7.31631C11.3807 7.00382 11.1818 6.73176 10.9153 6.53889C10.6488 6.34602 10.3283 6.24219 9.99929 6.24219C9.67031 6.24219 9.34973 6.34602 9.08323 6.53889C8.81673 6.73176 8.6179 7.00382 8.51507 7.31631C8.41225 7.6288 8.41068 7.96578 8.51059 8.27921C8.61049 8.59265 8.80678 8.86655 9.07148 9.06189H8.8171L5.4421 7.52752C5.40222 7.50937 5.35897 7.4998 5.31516 7.49945C5.27135 7.4991 5.22795 7.50796 5.18779 7.52546C5.14762 7.54297 5.11159 7.56872 5.08202 7.60106C5.05245 7.63339 5.03001 7.67158 5.01616 7.71314L4.70366 8.65064C4.68042 8.72008 4.6823 8.79548 4.70897 8.86367C4.73564 8.93187 4.78541 8.98853 4.8496 9.02377ZM10.2784 11.7785L9.99929 12.0575L9.72023 11.7785L9.99929 10.6628L10.2784 11.7785ZM9.99929 6.87439C10.1847 6.87439 10.366 6.92938 10.5201 7.03239C10.6743 7.13541 10.7945 7.28182 10.8654 7.45313C10.9364 7.62443 10.9549 7.81294 10.9188 7.99479C10.8826 8.17665 10.7933 8.3437 10.6622 8.47481C10.5311 8.60592 10.364 8.69521 10.1822 8.73138C10.0003 8.76755 9.81183 8.74899 9.64052 8.67803C9.46922 8.60707 9.3228 8.48691 9.21978 8.33274C9.11677 8.17857 9.06179 7.99731 9.06179 7.81189C9.06179 7.56325 9.16056 7.3248 9.33638 7.14898C9.51219 6.97317 9.75065 6.87439 9.99929 6.87439ZM5.49929 8.24002L8.62054 9.65877C8.66097 9.67719 8.70486 9.68678 8.74929 9.68689H9.59898L9.07116 11.7985C9.05805 11.8508 9.05873 11.9057 9.07314 11.9577C9.08754 12.0098 9.11517 12.0572 9.15335 12.0953L9.77835 12.7203C9.83695 12.7789 9.91642 12.8118 9.99929 12.8118C10.0822 12.8118 10.1616 12.7789 10.2202 12.7203L10.8452 12.0953C10.8834 12.0572 10.911 12.0098 10.9254 11.9577C10.9398 11.9057 10.9405 11.8508 10.9274 11.7985L10.3996 9.68689H11.2493C11.2939 9.68687 11.338 9.67728 11.3787 9.65877L14.4993 8.24002L14.6196 8.60002L11.4115 10.35C11.3623 10.377 11.3213 10.4167 11.2928 10.465C11.2642 10.5133 11.2492 10.5683 11.2493 10.6244V13.4369C11.2492 13.4542 11.2507 13.4714 11.2537 13.4885L12.1302 18.7494H11.1962L10.3065 14.0044C10.2931 13.9327 10.255 13.868 10.1989 13.8214C10.1428 13.7748 10.0722 13.7493 9.99929 13.7493C9.92636 13.7493 9.85573 13.7748 9.79963 13.8214C9.74353 13.868 9.70549 13.9327 9.6921 14.0044L8.80241 18.7494H7.86835L8.74491 13.4885C8.74792 13.4714 8.74938 13.4542 8.74929 13.4369V10.6244C8.7493 10.5683 8.73418 10.5131 8.70553 10.4649C8.67688 10.4166 8.63576 10.3769 8.58648 10.35L5.37835 8.60002L5.49929 8.24002Z" fill="#7A7A7A"/>
</g>
<defs>
<clipPath id="clip0_1656_54347">
<rect width="20" height="20" fill="white"/>
</clipPath>
</defs>
</svg>
