<svg width="27" height="27" viewBox="0 0 27 27" fill="none" xmlns="http://www.w3.org/2000/svg">
<path d="M17 3C17.5523 3 18 2.55228 18 2C18 1.44772 17.5523 1 17 1H12.9397C10.4909 0.999987 8.57148 0.999987 7.04864 1.16497C5.49459 1.33335 4.23541 1.68309 3.16032 2.4642C2.50945 2.93708 1.93708 3.50945 1.4642 4.16031C0.683094 5.23541 0.333347 6.49459 0.164974 8.04864C-1.31726e-05 9.57148 -1.30968e-05 11.4909 2.36549e-07 13.9397V14.0603C-1.30968e-05 16.5091 -1.31726e-05 18.4285 0.164974 19.9513C0.333347 21.5055 0.683094 22.7645 1.4642 23.8397C1.93708 24.4905 2.50945 25.0629 3.16031 25.5357C4.23541 26.3169 5.49459 26.6667 7.04864 26.8351C8.57145 27 10.4909 27 12.9396 27H13.0604C15.5091 27 17.4285 27 18.9513 26.8351C20.5055 26.6667 21.7645 26.3169 22.8397 25.5357C23.4905 25.0629 24.0629 24.4905 24.5357 23.8397C25.3169 22.7645 25.6667 21.5055 25.8351 19.9513C26 18.4285 26 16.5091 26 14.0604V10C26 9.44772 25.5523 9 25 9C24.4477 9 24 9.44772 24 10V14C24 16.5221 23.9987 18.3333 23.8467 19.736C23.6967 21.1199 23.4099 21.9868 22.9177 22.6641C22.5683 23.1452 22.1452 23.5683 21.6641 23.9177C20.9868 24.4099 20.1199 24.6967 18.736 24.8467C17.3333 24.9987 15.5221 25 13 25C10.4779 25 8.66665 24.9987 7.26405 24.8467C5.88017 24.6967 5.01323 24.4099 4.33588 23.9177C3.85481 23.5683 3.43176 23.1452 3.08224 22.6641C2.59012 21.9868 2.30327 21.1199 2.15333 19.736C2.00137 18.3333 2 16.5221 2 14C2 11.4779 2.00137 9.66665 2.15333 8.26407C2.30327 6.88017 2.59012 6.01323 3.08224 5.33588C3.43176 4.85481 3.85481 4.43176 4.33588 4.08224C5.01323 3.59012 5.88017 3.30327 7.26407 3.15333C8.66665 3.00137 10.4779 3 13 3H17Z" fill="#C07B36"/>
<path d="M5.43836 17.3692C5.19513 17.8651 5.39992 18.4643 5.89576 18.7075C6.3916 18.9507 6.99073 18.7459 7.23396 18.25L9.18108 14.2807C9.78459 13.0503 11.5584 13.1104 12.0772 14.3788C13.2495 17.2442 17.2567 17.3799 18.6202 14.6004L20.5674 10.6311C20.8106 10.1352 20.6058 9.53607 20.1099 9.29285C19.614 9.04963 19.015 9.25441 18.7716 9.75025L16.8246 13.7196C16.2211 14.95 14.4472 14.8899 13.9284 13.6215C12.7562 10.7561 8.74889 10.6204 7.38547 13.3999L5.43836 17.3692Z" fill="#C07B36"/>
<path fill-rule="evenodd" clip-rule="evenodd" d="M20.3359 3.33333C20.3359 5.17428 21.8283 6.66667 23.6693 6.66667C25.5102 6.66667 27.0026 5.17428 27.0026 3.33333C27.0026 1.49239 25.5102 0 23.6693 0C21.8283 0 20.3359 1.49239 20.3359 3.33333ZM22.3359 3.33333C22.3359 4.06971 22.9329 4.66667 23.6693 4.66667C24.4057 4.66667 25.0026 4.06971 25.0026 3.33333C25.0026 2.59696 24.4057 2 23.6693 2C22.9329 2 22.3359 2.59696 22.3359 3.33333Z" fill="#C07B36"/>
</svg>
