<svg width="20" height="20" viewBox="0 0 20 20" fill="none" xmlns="http://www.w3.org/2000/svg">
<path d="M8.06188 0C7.74933 0 7.49915 0.253914 7.49915 0.560292V2.5628C7.49915 2.86919 7.74933 3.12552 8.06188 3.12552H8.43724V3.75295C8.43923 4.02496 8.76049 4.16885 8.96395 3.97938L9.87274 3.12552H11.9369C12.2507 3.12552 12.4996 2.86917 12.4996 2.5628V0.560292C12.4996 0.253914 12.2482 0 11.9369 0L8.06188 0ZM8.12475 0.624981H11.8746V2.50054H9.75068C9.67099 2.50067 9.59435 2.53125 9.53645 2.58605L9.06344 3.02916V2.81187C9.06275 2.6393 8.92231 2.49934 8.74973 2.5H8.12475V0.624981ZM9.06222 1.24989C8.88974 1.24989 8.7499 1.38976 8.74973 1.56239C8.74956 1.73526 8.88951 1.87549 9.06222 1.87549C9.23494 1.87549 9.37488 1.73526 9.37471 1.56239C9.37455 1.38976 9.2347 1.24989 9.06222 1.24989ZM9.99969 1.24989C9.82722 1.24989 9.68737 1.38976 9.6872 1.56239C9.68704 1.73526 9.82698 1.87549 9.99969 1.87549C10.1724 1.87549 10.3124 1.73526 10.3122 1.56239C10.312 1.38976 10.1722 1.24989 9.99969 1.24989ZM10.9372 1.24989C10.7647 1.24989 10.6248 1.38976 10.6247 1.56239C10.6245 1.73526 10.7644 1.87549 10.9372 1.87549C11.1099 1.87549 11.2498 1.73526 11.2497 1.56239C11.2495 1.38976 11.1096 1.24989 10.9372 1.24989ZM1.18771 2.49811C0.875158 2.49811 0.62498 2.75261 0.62498 3.059V5.06395C0.62498 5.37034 0.882477 5.62485 1.18771 5.62485H1.56184V6.25227C1.56019 6.52785 1.89013 6.67049 2.08978 6.48053L2.99856 5.62485H5.06454C5.37587 5.62485 5.62501 5.37033 5.62483 5.06395L5.62364 3.059C5.62346 2.75262 5.37835 2.49811 5.06335 2.49811H1.18771ZM15.2498 2.81181C14.9445 2.81181 14.6871 3.06632 14.6871 3.37271V5.3746C14.6871 5.68098 14.9446 5.93733 15.2498 5.93733H17.3121L18.2233 6.79058C18.4222 6.97675 18.7474 6.83712 18.7494 6.56476V5.93733H19.1254C19.4306 5.93733 19.6857 5.68098 19.6857 5.3746V3.37271C19.6857 3.06632 19.4306 2.81181 19.1254 2.81181H15.2498ZM1.25057 3.12126H4.99863V4.99925H2.87406C2.79437 4.99938 2.71773 5.02996 2.65983 5.08476L2.18682 5.5303V5.31302C2.18748 5.14044 2.04813 4.99999 1.87555 4.99931H1.25057V3.12126ZM15.3126 3.4374H19.0607V5.31175H18.4382C18.2653 5.31109 18.1248 5.45081 18.1244 5.62362V5.84274L17.6514 5.39719C17.5934 5.34227 17.5165 5.31168 17.4366 5.31179H15.3126V3.4374ZM2.18743 3.7499C2.01495 3.7499 1.87494 3.88976 1.87494 4.06239C1.87494 4.23502 2.01495 4.37488 2.18743 4.37488C2.35991 4.37488 2.49992 4.23502 2.49992 4.06239C2.49992 3.88976 2.35991 3.7499 2.18743 3.7499ZM3.1249 3.7499C2.95243 3.7499 2.81241 3.88976 2.81241 4.06239C2.81241 4.23502 2.95243 4.37488 3.1249 4.37488C3.29738 4.37488 3.4374 4.23502 3.4374 4.06239C3.4374 3.88976 3.29738 3.7499 3.1249 3.7499ZM4.06238 3.7499C3.8899 3.7499 3.74989 3.88976 3.74989 4.06239C3.74989 4.23502 3.8899 4.37488 4.06238 4.37488C4.23485 4.37488 4.37487 4.23502 4.37487 4.06239C4.37487 3.88976 4.23485 3.7499 4.06238 3.7499ZM16.2495 4.06239C16.077 4.06239 15.937 4.20225 15.937 4.37488C15.937 4.5475 16.077 4.68737 16.2495 4.68737C16.422 4.68737 16.562 4.5475 16.562 4.37488C16.562 4.20225 16.422 4.06239 16.2495 4.06239ZM17.187 4.06239C17.0145 4.06239 16.8745 4.20225 16.8745 4.37488C16.8745 4.5475 17.0145 4.68737 17.187 4.68737C17.3595 4.68737 17.4995 4.5475 17.4995 4.37488C17.4995 4.20225 17.3595 4.06239 17.187 4.06239ZM18.1244 4.06239C17.952 4.06239 17.812 4.20225 17.812 4.37488C17.812 4.5475 17.952 4.68737 18.1244 4.68737C18.2969 4.68737 18.4369 4.5475 18.4369 4.37488C18.4369 4.20225 18.2969 4.06239 18.1244 4.06239ZM9.99969 4.68493C9.30557 4.68493 8.74973 5.25101 8.74973 5.93794C8.74973 6.62488 9.31047 7.18791 9.99969 7.18791C10.6889 7.18791 11.2503 6.62488 11.2503 5.93794C11.2503 5.25101 10.6938 4.68493 9.99969 4.68493ZM9.99969 5.30992C10.3381 5.30992 10.6253 5.58848 10.6253 5.93794C10.6253 6.28741 10.3381 6.56293 9.99969 6.56293C9.66133 6.56293 9.37471 6.28741 9.37471 5.93794C9.37471 5.58848 9.66133 5.30992 9.99969 5.30992ZM9.37471 7.49918C8.80254 7.49918 8.43338 7.56981 8.12903 7.86355L7.16958 8.68262C6.87282 8.92556 6.81826 9.05429 6.73564 9.27525L6.30413 10.4727C6.12872 10.9595 6.36459 11.5025 6.86259 11.6885C7.36058 11.8745 7.89118 11.6079 8.06677 11.1209L8.43847 10.09V12.1957H5.62361C5.45103 12.1957 5.31234 12.3368 5.31234 12.5094V13.7508C5.31234 13.9225 5.45198 14.0621 5.62361 14.0621H9.68598V16.9392L7.12075 17.4971C6.97728 17.5283 6.87418 17.6548 6.87418 17.8016V18.437C6.87418 18.8631 7.49916 18.8631 7.49916 18.437V18.0531L9.99969 17.5105L12.5002 18.0531V18.437C12.5002 18.854 13.1258 18.854 13.1258 18.437V17.8016C13.1258 17.6546 13.0223 17.5283 12.8786 17.4971L10.311 16.9386V14.0621H14.3733C14.5459 14.0621 14.6871 13.9234 14.6871 13.7508V12.5094C14.6871 12.3359 14.5469 12.1957 14.3733 12.1957H11.5615V10.184C11.6882 10.2528 11.8303 10.3574 12.1865 10.3574H13.4371C13.9544 10.3574 14.3733 9.93694 14.3733 9.40708C14.3733 8.87723 13.9544 8.45679 13.4371 8.45679H12.3617C11.9743 8.20963 11.5344 7.92905 11.1673 7.69327C11.0384 7.61531 10.8299 7.49919 10.6253 7.49918H9.37471ZM1.57771 7.52233C0.704563 7.52233 0 8.21573 0 9.07257C0 9.92942 0.70465 10.6253 1.57771 10.6253C2.45077 10.6253 3.15786 9.92942 3.15786 9.07257C3.15786 8.21573 2.45086 7.52233 1.57771 7.52233ZM18.4217 7.52233C17.5511 7.52233 16.8415 8.21573 16.8415 9.07257C16.8415 9.92942 17.5523 10.6253 18.4217 10.6253C19.2911 10.6253 20 9.92942 20 9.07257C20 8.21573 19.2923 7.52233 18.4217 7.52233ZM9.37471 8.12411H9.6872C9.6872 8.64652 9.6924 9.17039 9.6872 9.69328C9.68295 10.1194 10.3122 10.1194 10.3122 9.69328V8.12411H10.6253C10.5918 8.12411 10.6563 8.11466 10.8444 8.22604L12.1035 9.03351C12.1532 9.06481 12.2108 9.08158 12.2695 9.0817H13.4371C13.6122 9.0817 13.7508 9.23194 13.7508 9.40701C13.7508 9.58209 13.6122 9.73233 13.4371 9.73233H12.1865C11.9952 9.73233 11.9947 9.70988 11.7855 9.59378L11.4096 9.36979C11.2002 9.24502 10.9366 9.39635 10.9366 9.64016V12.1822H9.06344V9.40946C9.06344 9.14015 8.75114 8.99453 8.54649 9.1696L7.97217 9.66092C7.93022 9.69658 7.89842 9.74265 7.88001 9.79458L7.47841 10.9109C7.41504 11.087 7.23626 11.1611 7.07925 11.1025C6.92226 11.0439 6.82894 10.859 6.89249 10.6826L7.32399 9.48513C7.40085 9.27093 7.41292 9.31812 7.59132 9.14396C7.91153 8.87105 8.23711 8.5945 8.55321 8.32062C8.73667 8.13716 9.11305 8.12496 9.37471 8.12411ZM2.53288 9.07257C2.53288 9.58425 2.10438 9.99967 1.57771 9.99967C1.05104 9.99967 0.62498 9.58425 0.62498 9.07257C0.62498 8.56089 1.05104 8.14731 1.57771 8.14731C2.10438 8.14731 2.53288 8.56089 2.53288 9.07257ZM19.3744 9.07257C19.3744 9.58425 18.9471 9.99967 18.4217 9.99967C17.8962 9.99967 17.4671 9.58425 17.4671 9.07257C17.4671 8.56089 17.8962 8.14731 18.4217 8.14731C18.9471 8.14731 19.3744 8.56089 19.3744 9.07257ZM1.36776 11.1996C0.61383 11.1996 0.265832 11.884 0.316153 12.2744L0.811742 16.1195C0.878616 16.6384 1.26331 17.1137 1.86396 17.1137H2.94364L3.3843 19.0357C3.50555 19.6051 3.83687 20 4.31139 20H5.04928C5.63447 20 6.02027 19.4319 5.98127 18.9203L5.48567 15.5543C5.45011 15.3129 5.36694 15.0824 5.21591 14.8945C5.06487 14.7067 4.82461 14.565 4.55369 14.565H3.86829L3.50148 12.1865C3.41793 11.6447 3.02676 11.1996 2.44988 11.1996H1.36776ZM17.5501 11.1996C16.9464 11.1996 16.5762 11.6789 16.4979 12.1865L16.1311 14.565H15.4463C15.1754 14.565 14.9439 14.6957 14.7841 14.8945C14.6331 15.0824 14.5499 15.3129 14.5143 15.5543L14.0181 18.9203C13.971 19.2402 14.2337 19.9994 14.9501 19.9994H15.6862C15.9587 19.9994 16.1795 19.8724 16.3411 19.6631C16.4848 19.4768 16.5646 19.2587 16.6157 19.0357L17.0564 17.1137H18.136C18.7123 17.1137 19.1172 16.6657 19.1877 16.1195L19.6839 12.2744C19.7351 11.8777 19.3703 11.1996 18.6317 11.1996H17.5501ZM2.44988 11.8246C2.67505 11.8246 2.83953 11.9983 2.88321 12.2811L3.29153 14.9251C3.31509 15.0777 3.44654 15.19 3.60096 15.19H4.55369C4.62812 15.19 4.66947 15.2131 4.72886 15.287C4.78826 15.361 4.8447 15.4905 4.8674 15.6447L5.35628 18.9686C5.37463 19.0933 5.2692 19.3744 5.04928 19.3744H4.31139C4.12097 19.3744 4.03113 19.0394 3.9928 18.8947C3.9928 18.8947 3.66345 17.4521 3.49721 16.7311C3.4645 16.5893 3.33821 16.4888 3.19265 16.4888H1.86396C1.6317 16.4888 1.46382 16.3037 1.43001 16.0414C1.26625 14.7711 0.938692 12.2305 0.938692 12.2305C0.938692 12.0288 1.10843 11.8246 1.36776 11.8246L2.44988 11.8246ZM17.5501 11.8246H18.6316C18.9518 11.8246 19.0749 12.1154 19.0607 12.2256L18.5694 16.0414C18.5381 16.2843 18.3838 16.4887 18.136 16.4887H16.8073C16.6618 16.4887 16.5353 16.5892 16.5028 16.731L16.0066 18.8947C15.9333 19.1682 15.8435 19.3744 15.6862 19.3744H14.9501C14.8007 19.3744 14.6419 19.2116 14.6431 18.971L15.1326 15.6447C15.171 15.3834 15.2874 15.19 15.4463 15.19H16.399C16.5532 15.19 16.6844 15.0775 16.7079 14.9251L17.1162 12.2811C17.1599 11.9983 17.3274 11.8246 17.5501 11.8246ZM5.93793 12.8212H14.0621V13.4371H5.93793V12.8212Z" fill="#7A7A7A"/>
</svg>
