<svg width="20" height="20" viewBox="0 0 20 20" fill="none" xmlns="http://www.w3.org/2000/svg">
<path d="M2.79003 12.9747C2.65561 12.9747 2.5267 12.9213 2.43165 12.8263C2.3366 12.7312 2.2832 12.6023 2.2832 12.4679V8.85253C2.2832 8.71811 2.3366 8.5892 2.43165 8.49415C2.5267 8.3991 2.65561 8.3457 2.79003 8.3457C2.92445 8.3457 3.05336 8.3991 3.14841 8.49415C3.24346 8.5892 3.29685 8.71811 3.29685 8.85253V12.4679C3.29685 12.6023 3.24346 12.7312 3.14841 12.8263C3.05336 12.9213 2.92445 12.9747 2.79003 12.9747Z" fill="#7A7A7A"/>
<path d="M5.07439 4.90269C4.58956 4.90269 4.11562 4.75892 3.7125 4.48956C3.30938 4.22021 2.99518 3.83736 2.80965 3.38944C2.62411 2.94151 2.57556 2.44863 2.67015 1.97311C2.76474 1.4976 2.9982 1.06081 3.34103 0.717983C3.68386 0.375157 4.12064 0.141689 4.59616 0.047103C5.07167 -0.0474827 5.56456 0.00106215 6.01248 0.186599C6.46041 0.372135 6.84325 0.68633 7.11261 1.08945C7.38197 1.49257 7.52574 1.96652 7.52574 2.45135C7.52502 3.10126 7.26653 3.72436 6.80696 4.18392C6.3474 4.64348 5.72431 4.90198 5.07439 4.90269ZM5.07439 1.01365C4.79004 1.01365 4.51208 1.09797 4.27565 1.25595C4.03923 1.41392 3.85495 1.63846 3.74614 1.90116C3.63732 2.16387 3.60885 2.45294 3.66432 2.73183C3.7198 3.01071 3.85672 3.26688 4.05779 3.46795C4.25885 3.66901 4.51503 3.80594 4.79391 3.86142C5.0728 3.91689 5.36187 3.88842 5.62457 3.7796C5.88728 3.67079 6.11182 3.48651 6.26979 3.25009C6.42777 3.01366 6.51209 2.73569 6.51209 2.45135C6.51164 2.07018 6.36003 1.70476 6.0905 1.43524C5.82098 1.16571 5.45556 1.0141 5.07439 1.01365Z" fill="#7A7A7A"/>
<path d="M13.0657 8.69467C12.9679 8.69474 12.8721 8.66646 12.7899 8.61327C12.7078 8.56007 12.6428 8.48423 12.6028 8.39491C12.5628 8.30558 12.5496 8.20659 12.5646 8.10989C12.5797 8.01319 12.6224 7.92291 12.6877 7.84996L15.4414 4.76306C15.4858 4.71339 15.5395 4.67294 15.5995 4.64403C15.6595 4.61511 15.7246 4.5983 15.7911 4.59455C15.8576 4.5908 15.9242 4.60019 15.9871 4.62218C16.0499 4.64416 16.1079 4.67831 16.1575 4.72268C16.2072 4.76706 16.2477 4.82078 16.2766 4.88078C16.3055 4.94078 16.3223 5.00589 16.3261 5.07239C16.3298 5.13889 16.3204 5.20548 16.2984 5.26835C16.2765 5.33123 16.2423 5.38915 16.1979 5.43883L13.4442 8.52404C13.3967 8.57758 13.3385 8.62047 13.2732 8.64988C13.208 8.67929 13.1373 8.69455 13.0657 8.69467Z" fill="#7A7A7A"/>
<path d="M18.4787 13.2713H9.38522C9.2508 13.2713 9.12189 13.2179 9.02684 13.1228C8.9318 13.0278 8.8784 12.8989 8.8784 12.7645C8.8784 12.63 8.9318 12.5011 9.02684 12.4061C9.12189 12.311 9.2508 12.2576 9.38522 12.2576H18.4787C18.6131 12.2576 18.742 12.2042 18.8371 12.1092C18.9321 12.0141 18.9855 11.8852 18.9855 11.7508V1.53219C18.9855 1.39778 18.9321 1.26886 18.8371 1.17382C18.742 1.07877 18.6131 1.02537 18.4787 1.02537H8.53612C8.4017 1.02537 8.27279 0.971972 8.17774 0.876924C8.08269 0.781875 8.0293 0.652962 8.0293 0.518544C8.0293 0.384126 8.08269 0.255213 8.17774 0.160164C8.27279 0.0651163 8.4017 0.0117188 8.53612 0.0117188H18.4787C18.8819 0.0117188 19.2687 0.171911 19.5538 0.457056C19.839 0.7422 19.9992 1.12894 19.9992 1.53219V11.7508C19.9992 12.1541 19.839 12.5408 19.5538 12.8259C19.2687 13.1111 18.8819 13.2713 18.4787 13.2713Z" fill="#7A7A7A"/>
<path d="M5.07378 19.9995H2.79003C2.65561 19.9995 2.5267 19.9461 2.43165 19.8511C2.3366 19.756 2.2832 19.6271 2.2832 19.4927V12.4678C2.2832 12.3333 2.3366 12.2044 2.43165 12.1094C2.5267 12.0143 2.65561 11.9609 2.79003 11.9609C2.92445 11.9609 3.05336 12.0143 3.14841 12.1094C3.24346 12.2044 3.29685 12.3333 3.29685 12.4678V18.9859H5.07378C5.2082 18.9859 5.33711 19.0393 5.43216 19.1343C5.52721 19.2294 5.58061 19.3583 5.58061 19.4927C5.58061 19.6271 5.52721 19.756 5.43216 19.8511C5.33711 19.9461 5.2082 19.9995 5.07378 19.9995Z" fill="#7A7A7A"/>
<path d="M7.35877 20.0003H5.07467C4.94025 20.0003 4.81134 19.9469 4.71629 19.8518C4.62124 19.7568 4.56785 19.6279 4.56785 19.4934V12.7642C4.56785 12.6297 4.62124 12.5008 4.71629 12.4058C4.81134 12.3107 4.94025 12.2573 5.07467 12.2573C5.20909 12.2573 5.338 12.3107 5.43305 12.4058C5.5281 12.5008 5.5815 12.6297 5.5815 12.7642V18.9866H6.85194V9.40425C6.85191 9.1939 6.91427 8.98827 7.03112 8.81337C7.14798 8.63846 7.31409 8.50215 7.50843 8.42167C7.70278 8.34119 7.91662 8.32016 8.12292 8.36124C8.32922 8.40232 8.5187 8.50367 8.66739 8.65246L9.46175 9.44581C9.5206 9.50494 9.59058 9.5518 9.66766 9.5837C9.74474 9.6156 9.82738 9.6319 9.9108 9.63164H12.2696C12.3541 9.63166 12.4378 9.61481 12.5157 9.58206C12.5937 9.54932 12.6643 9.50135 12.7235 9.44096C12.7826 9.38057 12.8291 9.30898 12.8603 9.23038C12.8914 9.15179 12.9065 9.06777 12.9048 8.98325C12.8977 8.64029 12.6027 8.36154 12.2473 8.36154H10.3825C10.2481 8.36142 10.1193 8.30795 10.0243 8.21287L8.9333 7.12218C8.73537 6.92309 8.49989 6.76527 8.24052 6.65785C7.98114 6.55044 7.70302 6.49557 7.42229 6.49642H7.02899L6.26301 7.13333C5.92931 7.41068 5.50908 7.56251 5.07518 7.56251C4.64127 7.56251 4.22105 7.41068 3.88735 7.13333L3.12069 6.49642H2.79092C2.31972 6.49696 1.86798 6.68438 1.53479 7.01756C1.20161 7.35075 1.01419 7.80249 1.01365 8.27369C1.01365 8.40811 0.960253 8.53702 0.865205 8.63207C0.770157 8.72712 0.641244 8.78051 0.506825 8.78051C0.372407 8.78051 0.243494 8.72712 0.148446 8.63207C0.0533974 8.53702 0 8.40811 0 8.27369C0.000804926 7.53374 0.295106 6.82433 0.81833 6.3011C1.34155 5.77788 2.05097 5.48358 2.79092 5.48277H3.30382C3.42221 5.48281 3.53685 5.52429 3.62785 5.60002L4.53473 6.35384C4.68652 6.48026 4.87781 6.54949 5.07535 6.54949C5.27289 6.54949 5.46418 6.48026 5.61596 6.35384L6.52216 5.59968C6.61317 5.52395 6.72781 5.48247 6.8462 5.48243H7.42296C7.83685 5.48129 8.24685 5.56226 8.62924 5.72065C9.01162 5.87905 9.35878 6.11172 9.65063 6.40519L10.5933 7.34789H12.249C13.1525 7.34789 13.9019 8.07231 13.9198 8.96297C13.9242 9.18227 13.8849 9.40026 13.804 9.60417C13.7232 9.80807 13.6025 9.9938 13.4489 10.1505C13.2954 10.3071 13.1122 10.4316 12.91 10.5166C12.7077 10.6015 12.4906 10.6453 12.2713 10.6453H9.90945C9.69287 10.6459 9.47832 10.6035 9.27822 10.5207C9.07813 10.4378 8.89646 10.316 8.74375 10.1625L7.95074 9.36843C7.94425 9.36201 7.93615 9.35745 7.92729 9.35525C7.91842 9.35305 7.90913 9.35329 7.90039 9.35593C7.89051 9.35927 7.88192 9.36563 7.87585 9.37412C7.86979 9.38261 7.86655 9.3928 7.8666 9.40323V19.4924C7.86674 19.5592 7.85369 19.6253 7.82822 19.6869C7.80274 19.7486 7.76534 19.8046 7.71816 19.8518C7.67098 19.899 7.61494 19.9364 7.55326 19.9619C7.49159 19.9874 7.42549 20.0004 7.35877 20.0003Z" fill="#7A7A7A"/>
<path d="M1.64887 14.1184C1.2117 14.118 0.792564 13.9441 0.483437 13.635C0.174311 13.3259 0.000447234 12.9067 0 12.4696V8.2744C0 8.13998 0.0533974 8.01107 0.148446 7.91602C0.243494 7.82098 0.372407 7.76758 0.506825 7.76758C0.641244 7.76758 0.770157 7.82098 0.865205 7.91602C0.960253 8.01107 1.01365 8.13998 1.01365 8.2744V12.4696C1.01365 12.638 1.08058 12.7996 1.1997 12.9187C1.31883 13.0379 1.4804 13.1048 1.64887 13.1048C1.81734 13.1048 1.97891 13.0379 2.09804 12.9187C2.21717 12.7996 2.28409 12.638 2.28409 12.4696C2.28409 12.3351 2.33749 12.2062 2.43254 12.1112C2.52759 12.0161 2.6565 11.9627 2.79092 11.9627C2.92534 11.9627 3.05425 12.0161 3.1493 12.1112C3.24435 12.2062 3.29774 12.3351 3.29774 12.4696C3.2973 12.9067 3.12343 13.3259 2.81431 13.635C2.50518 13.9441 2.08604 14.118 1.64887 14.1184Z" fill="#7A7A7A"/>
<path d="M15.9501 20H0.508778C0.37436 20 0.245447 19.9466 0.150399 19.8515C0.0553505 19.7565 0.00195312 19.6276 0.00195312 19.4932C0.00195312 19.3587 0.0553505 19.2298 0.150399 19.1348C0.245447 19.0397 0.37436 18.9863 0.508778 18.9863H15.9501C16.0845 18.9863 16.2134 19.0397 16.3084 19.1348C16.4035 19.2298 16.4569 19.3587 16.4569 19.4932C16.4569 19.6276 16.4035 19.7565 16.3084 19.8515C16.2134 19.9466 16.0845 20 15.9501 20Z" fill="#7A7A7A"/>
<path d="M13.1912 5.6074H10.5635C10.429 5.6074 10.3001 5.554 10.2051 5.45896C10.11 5.36391 10.0566 5.23499 10.0566 5.10058C10.0566 4.96616 10.11 4.83724 10.2051 4.7422C10.3001 4.64715 10.429 4.59375 10.5635 4.59375H13.1912C13.3256 4.59375 13.4545 4.64715 13.5496 4.7422C13.6446 4.83724 13.698 4.96616 13.698 5.10058C13.698 5.23499 13.6446 5.36391 13.5496 5.45896C13.4545 5.554 13.3256 5.6074 13.1912 5.6074Z" fill="#7A7A7A"/>
<path d="M15.8189 3.31638H10.5635C10.429 3.31638 10.3001 3.26299 10.2051 3.16794C10.11 3.07289 10.0566 2.94398 10.0566 2.80956C10.0566 2.67514 10.11 2.54623 10.2051 2.45118C10.3001 2.35613 10.429 2.30273 10.5635 2.30273H15.8189C15.9533 2.30273 16.0822 2.35613 16.1773 2.45118C16.2723 2.54623 16.3257 2.67514 16.3257 2.80956C16.3257 2.94398 16.2723 3.07289 16.1773 3.16794C16.0822 3.26299 15.9533 3.31638 15.8189 3.31638Z" fill="#7A7A7A"/>
</svg>
