<svg width="24" height="24" viewBox="0 0 24 24" fill="none" xmlns="http://www.w3.org/2000/svg">
<path d="M22.4995 6.75C22.4995 8.35275 21.8755 9.8595 20.7423 10.9928L9.93479 21.9285C9.05579 22.8075 7.90154 23.247 6.74804 23.247C5.59604 23.247 4.44404 22.8083 3.56729 21.9315C1.81304 20.1765 1.81304 17.322 3.56729 15.5677L11.3748 7.8045C12.547 6.63975 14.41 6.6015 15.5298 7.71975C16.0765 8.2665 16.3645 9.0045 16.3413 9.79875C16.318 10.5757 15.9978 11.3123 15.439 11.871L8.02979 19.2803C7.73654 19.5735 7.26254 19.5735 6.96929 19.2803C6.67604 18.987 6.67604 18.513 6.96929 18.2197L14.3785 10.8105C14.6658 10.5232 14.8308 10.1482 14.842 9.7545C14.8533 9.378 14.7205 9.0315 14.4693 8.78025C13.933 8.24625 13.0195 8.2845 12.433 8.868L4.62629 16.6298C3.45854 17.7983 3.45854 19.7017 4.62779 20.871C5.79779 22.0402 7.70054 22.0402 8.87054 20.871L19.678 9.93525C20.5315 9.08175 20.9995 7.95225 20.9995 6.75C20.9995 5.54775 20.5315 4.41825 19.6818 3.5685C18.8313 2.718 17.7018 2.25 16.4995 2.25C15.2973 2.25 14.1678 2.718 13.3173 3.5685L2.77829 14.0325C2.48354 14.3242 2.00954 14.3228 1.71779 14.028C1.42604 13.734 1.42754 13.26 1.72154 12.9675L12.259 2.50575C13.39 1.374 14.8968 0.75 16.4995 0.75C18.1023 0.75 19.609 1.374 20.7423 2.508C21.8755 3.6405 22.4995 5.14725 22.4995 6.75Z" fill="#004040"/>
</svg>
