<?xml version="1.0" encoding="UTF-8"?>
<svg width="26px" height="26px" viewBox="0 0 26 26" version="1.1" xmlns="http://www.w3.org/2000/svg" xmlns:xlink="http://www.w3.org/1999/xlink">
    <title>picture</title>
    <g id="Page-1" stroke="none" stroke-width="1" fill="none" fill-rule="evenodd">
        <g id="picture" transform="translate(0.6, 0)" fill-rule="nonzero">
            <path d="M3.54299363,0 L21.4570064,0 C23.4076433,0 25,1.59235669 25,3.54299363 L25,21.9745223 C25,23.9251592 23.4076433,25.5175159 21.4570064,25.5175159 L3.54299363,25.5175159 C1.59235669,25.5175159 0,23.9251592 0,21.9745223 L0,3.50318471 C0,1.59235669 1.59235669,0 3.54299363,0 Z" id="Path" fill="#4A566E"></path>
            <path d="M11.544586,16.6799363 L6.32961783,11.4251592 L0,17.7547771 L0,19.1082803 L0,21.9745223 C0,23.9251592 1.59235669,25.5175159 3.54299363,25.5175159 L21.4570064,25.5175159 C23.4076433,25.5175159 25,23.9251592 25,21.9745223 L25,19.1082803 L25,15.1671975 L19.0684713,9.19585987 L11.544586,16.6799363 Z" id="Path" fill="#00B594"></path>
            <circle id="Oval" fill="#FFCC03" cx="11.4251592" cy="8.43949045" r="2.22929936"></circle>
        </g>
    </g>
</svg>