<svg width="96" height="50" viewBox="0 0 96 50" fill="none" xmlns="http://www.w3.org/2000/svg">
<path d="M8.14288 14.998V5.19805H11.8109C12.6415 5.19805 13.3555 5.33338 13.9529 5.60405C14.5502 5.86538 15.0075 6.24805 15.3249 6.75205C15.6515 7.24671 15.8149 7.84871 15.8149 8.55805C15.8149 9.24871 15.6515 9.84605 15.3249 10.35C15.0075 10.8447 14.5502 11.2274 13.9529 11.498C13.3555 11.7687 12.6415 11.904 11.8109 11.904H8.71688L9.17888 11.414V14.998H8.14288ZM9.17888 11.498L8.71688 10.994H11.7829C12.7629 10.994 13.5049 10.784 14.0089 10.364C14.5222 9.93471 14.7789 9.33271 14.7789 8.55805C14.7789 7.77405 14.5222 7.16738 14.0089 6.73805C13.5049 6.30871 12.7629 6.09405 11.7829 6.09405H8.71688L9.17888 5.60405V11.498ZM20.8 15.068C20.0906 15.068 19.4513 14.9094 18.882 14.592C18.322 14.2654 17.8786 13.822 17.552 13.262C17.2253 12.6927 17.062 12.044 17.062 11.316C17.062 10.5787 17.2253 9.93005 17.552 9.37005C17.8786 8.81005 18.322 8.37138 18.882 8.05405C19.442 7.73671 20.0813 7.57805 20.8 7.57805C21.528 7.57805 22.172 7.73671 22.732 8.05405C23.3013 8.37138 23.7446 8.81005 24.062 9.37005C24.3886 9.93005 24.552 10.5787 24.552 11.316C24.552 12.044 24.3886 12.6927 24.062 13.262C23.7446 13.822 23.3013 14.2654 22.732 14.592C22.1626 14.9094 21.5186 15.068 20.8 15.068ZM20.8 14.186C21.332 14.186 21.8033 14.0694 22.214 13.836C22.6246 13.5934 22.9466 13.2574 23.18 12.828C23.4226 12.3894 23.544 11.8854 23.544 11.316C23.544 10.7374 23.4226 10.2334 23.18 9.80405C22.9466 9.37471 22.6246 9.04338 22.214 8.81005C21.8033 8.56738 21.3366 8.44605 20.814 8.44605C20.2913 8.44605 19.8246 8.56738 19.414 8.81005C19.0033 9.04338 18.6766 9.37471 18.434 9.80405C18.1913 10.2334 18.07 10.7374 18.07 11.316C18.07 11.8854 18.1913 12.3894 18.434 12.828C18.6766 13.2574 19.0033 13.5934 19.414 13.836C19.8246 14.0694 20.2866 14.186 20.8 14.186ZM27.8742 14.998L25.1022 7.64805H26.0542L28.5742 14.466H28.1402L30.7302 7.64805H31.5842L34.1462 14.466H33.7122L36.2742 7.64805H37.1842L34.3982 14.998H33.4602L30.9962 8.58605H31.2902L28.8122 14.998H27.8742ZM41.5978 15.068C40.8325 15.068 40.1605 14.9094 39.5818 14.592C39.0032 14.2654 38.5505 13.822 38.2238 13.262C37.8972 12.6927 37.7338 12.044 37.7338 11.316C37.7338 10.588 37.8878 9.94405 38.1958 9.38405C38.5132 8.82405 38.9425 8.38538 39.4838 8.06805C40.0345 7.74138 40.6505 7.57805 41.3318 7.57805C42.0225 7.57805 42.6338 7.73671 43.1658 8.05405C43.7072 8.36205 44.1318 8.80071 44.4398 9.37005C44.7478 9.93005 44.9018 10.5787 44.9018 11.316C44.9018 11.3627 44.8972 11.414 44.8878 11.47C44.8878 11.5167 44.8878 11.568 44.8878 11.624H38.4898V10.882H44.3558L43.9638 11.176C43.9638 10.644 43.8472 10.1727 43.6138 9.76205C43.3898 9.34205 43.0818 9.01538 42.6898 8.78205C42.2978 8.54871 41.8452 8.43205 41.3318 8.43205C40.8278 8.43205 40.3752 8.54871 39.9738 8.78205C39.5725 9.01538 39.2598 9.34205 39.0358 9.76205C38.8118 10.182 38.6998 10.6627 38.6998 11.204V11.358C38.6998 11.918 38.8212 12.4127 39.0638 12.842C39.3158 13.262 39.6612 13.5934 40.0998 13.836C40.5478 14.0694 41.0565 14.186 41.6258 14.186C42.0738 14.186 42.4892 14.1067 42.8718 13.948C43.2638 13.7894 43.5998 13.5467 43.8798 13.22L44.4398 13.864C44.1132 14.256 43.7025 14.5547 43.2078 14.76C42.7225 14.9654 42.1858 15.068 41.5978 15.068ZM46.9251 14.998V7.64805H47.8771V9.65005L47.7791 9.30005C47.9844 8.74005 48.3297 8.31538 48.8151 8.02605C49.3004 7.72738 49.9024 7.57805 50.6211 7.57805V8.54405C50.5837 8.54405 50.5464 8.54405 50.5091 8.54405C50.4717 8.53471 50.4344 8.53005 50.3971 8.53005C49.6224 8.53005 49.0157 8.76805 48.5771 9.24405C48.1384 9.71071 47.9191 10.378 47.9191 11.246V14.998H46.9251ZM55.4885 15.068C54.7231 15.068 54.0511 14.9094 53.4725 14.592C52.8938 14.2654 52.4411 13.822 52.1145 13.262C51.7878 12.6927 51.6245 12.044 51.6245 11.316C51.6245 10.588 51.7785 9.94405 52.0865 9.38405C52.4038 8.82405 52.8331 8.38538 53.3745 8.06805C53.9251 7.74138 54.5411 7.57805 55.2225 7.57805C55.9131 7.57805 56.5245 7.73671 57.0565 8.05405C57.5978 8.36205 58.0225 8.80071 58.3305 9.37005C58.6385 9.93005 58.7925 10.5787 58.7925 11.316C58.7925 11.3627 58.7878 11.414 58.7785 11.47C58.7785 11.5167 58.7785 11.568 58.7785 11.624H52.3805V10.882H58.2465L57.8545 11.176C57.8545 10.644 57.7378 10.1727 57.5045 9.76205C57.2805 9.34205 56.9725 9.01538 56.5805 8.78205C56.1885 8.54871 55.7358 8.43205 55.2225 8.43205C54.7185 8.43205 54.2658 8.54871 53.8645 8.78205C53.4631 9.01538 53.1505 9.34205 52.9265 9.76205C52.7025 10.182 52.5905 10.6627 52.5905 11.204V11.358C52.5905 11.918 52.7118 12.4127 52.9545 12.842C53.2065 13.262 53.5518 13.5934 53.9905 13.836C54.4385 14.0694 54.9471 14.186 55.5165 14.186C55.9645 14.186 56.3798 14.1067 56.7625 13.948C57.1545 13.7894 57.4905 13.5467 57.7705 13.22L58.3305 13.864C58.0038 14.256 57.5931 14.5547 57.0985 14.76C56.6131 14.9654 56.0765 15.068 55.4885 15.068ZM63.7417 15.068C63.0417 15.068 62.4117 14.9094 61.8517 14.592C61.301 14.2747 60.867 13.836 60.5497 13.276C60.2324 12.7067 60.0737 12.0534 60.0737 11.316C60.0737 10.5694 60.2324 9.91605 60.5497 9.35605C60.867 8.79605 61.301 8.36205 61.8517 8.05405C62.4117 7.73671 63.0417 7.57805 63.7417 7.57805C64.3857 7.57805 64.9597 7.72271 65.4637 8.01205C65.977 8.30138 66.383 8.72605 66.6817 9.28605C66.9897 9.83671 67.1437 10.5134 67.1437 11.316C67.1437 12.1094 66.9944 12.786 66.6957 13.346C66.397 13.906 65.991 14.3354 65.4777 14.634C64.9737 14.9234 64.395 15.068 63.7417 15.068ZM63.8117 14.186C64.3344 14.186 64.801 14.0694 65.2117 13.836C65.6317 13.5934 65.9584 13.2574 66.1917 12.828C66.4344 12.3894 66.5557 11.8854 66.5557 11.316C66.5557 10.7374 66.4344 10.2334 66.1917 9.80405C65.9584 9.37471 65.6317 9.04338 65.2117 8.81005C64.801 8.56738 64.3344 8.44605 63.8117 8.44605C63.2984 8.44605 62.8364 8.56738 62.4257 8.81005C62.015 9.04338 61.6884 9.37471 61.4457 9.80405C61.203 10.2334 61.0817 10.7374 61.0817 11.316C61.0817 11.8854 61.203 12.3894 61.4457 12.828C61.6884 13.2574 62.015 13.5934 62.4257 13.836C62.8364 14.0694 63.2984 14.186 63.8117 14.186ZM66.5837 14.998V12.786L66.6817 11.302L66.5417 9.81805V4.61005H67.5357V14.998H66.5837ZM77.762 15.068C77.118 15.068 76.5394 14.9234 76.026 14.634C75.5127 14.3354 75.1067 13.906 74.808 13.346C74.5094 12.786 74.36 12.1094 74.36 11.316C74.36 10.5134 74.5094 9.83671 74.808 9.28605C75.116 8.72605 75.5267 8.30138 76.04 8.01205C76.5534 7.72271 77.1274 7.57805 77.762 7.57805C78.462 7.57805 79.0874 7.73671 79.638 8.05405C80.198 8.36205 80.6367 8.79605 80.954 9.35605C81.2714 9.91605 81.43 10.5694 81.43 11.316C81.43 12.0534 81.2714 12.7067 80.954 13.276C80.6367 13.836 80.198 14.2747 79.638 14.592C79.0874 14.9094 78.462 15.068 77.762 15.068ZM73.968 14.998V4.61005H74.962V9.81805L74.822 11.302L74.92 12.786V14.998H73.968ZM77.692 14.186C78.2147 14.186 78.6814 14.0694 79.092 13.836C79.5027 13.5934 79.8294 13.2574 80.072 12.828C80.3147 12.3894 80.436 11.8854 80.436 11.316C80.436 10.7374 80.3147 10.2334 80.072 9.80405C79.8294 9.37471 79.5027 9.04338 79.092 8.81005C78.6814 8.56738 78.2147 8.44605 77.692 8.44605C77.1694 8.44605 76.698 8.56738 76.278 8.81005C75.8674 9.04338 75.5407 9.37471 75.298 9.80405C75.0647 10.2334 74.948 10.7374 74.948 11.316C74.948 11.8854 75.0647 12.3894 75.298 12.828C75.5407 13.2574 75.8674 13.5934 76.278 13.836C76.698 14.0694 77.1694 14.186 77.692 14.186ZM83.3072 17.784C82.9619 17.784 82.6306 17.728 82.3132 17.616C82.0052 17.504 81.7392 17.336 81.5152 17.112L81.9772 16.37C82.1639 16.5474 82.3646 16.6827 82.5792 16.776C82.8032 16.8787 83.0506 16.93 83.3212 16.93C83.6479 16.93 83.9279 16.8367 84.1612 16.65C84.4039 16.4727 84.6326 16.1554 84.8472 15.698L85.3232 14.62L85.4352 14.466L88.4592 7.64805H89.4392L85.7572 15.88C85.5519 16.356 85.3232 16.734 85.0712 17.014C84.8286 17.294 84.5626 17.49 84.2732 17.602C83.9839 17.7234 83.6619 17.784 83.3072 17.784ZM85.2672 15.208L81.8792 7.64805H82.9152L85.9112 14.396L85.2672 15.208Z" fill="#7A7A7A"/>
<path d="M10.3681 26.7639H12.3573L15.3713 34.4836L18.4154 26.7639H20.4347L16.6974 36.0459L20.7964 45.8793L28.5423 26.6107H30.8329L21.7609 48.3606H19.8922L15.4014 37.6082L10.8804 48.3606H9.04191L0 26.6107H2.26048L10.0365 45.8793L14.1054 36.0459L10.3681 26.7639Z" fill="#323232"/>
<path d="M33.4219 48.3606V32.4005H35.4714V48.3606H33.4219ZM33.4219 29.0614V25.998H35.4714V29.0614H33.4219Z" fill="#323232"/>
<path d="M45.1394 48.6669C43.8534 48.6669 42.6579 48.4525 41.5528 48.0236C40.4476 47.5948 39.4932 46.9412 38.6895 46.0631L39.5334 44.5927C40.4175 45.43 41.3016 46.0427 42.1857 46.4307C43.0899 46.7983 44.0443 46.9821 45.049 46.9821C46.2747 46.9821 47.2693 46.737 48.0328 46.2469C48.7963 45.7363 49.1781 45.0113 49.1781 44.0719C49.1781 43.4388 48.9872 42.9589 48.6055 42.6321C48.2438 42.2849 47.7113 42.0092 47.0081 41.805C46.3249 41.5804 45.5011 41.3455 44.5366 41.1004C43.4516 40.7941 42.5373 40.4775 41.7939 40.1508C41.0705 39.8036 40.518 39.3747 40.1362 38.8642C39.7745 38.3332 39.5937 37.649 39.5937 36.8117C39.5937 35.7702 39.8449 34.9124 40.3472 34.2385C40.8696 33.5441 41.5729 33.0234 42.457 32.6762C43.3612 32.3086 44.3658 32.1248 45.4709 32.1248C46.6765 32.1248 47.7415 32.3188 48.6657 32.7068C49.59 33.0948 50.3435 33.636 50.9262 34.3304L49.9316 35.7395C49.369 35.086 48.6959 34.6061 47.9122 34.2998C47.1487 33.973 46.2948 33.8096 45.3504 33.8096C44.7074 33.8096 44.0946 33.9015 43.5118 34.0853C42.9291 34.2487 42.4469 34.5346 42.0651 34.9431C41.7035 35.3311 41.5226 35.8723 41.5226 36.5667C41.5226 37.1385 41.6633 37.5878 41.9446 37.9145C42.2259 38.2209 42.6478 38.4864 43.2105 38.711C43.7731 38.9152 44.4663 39.1399 45.2901 39.3849C46.4756 39.7117 47.5104 40.0487 48.3945 40.3959C49.2786 40.7226 49.9618 41.1515 50.444 41.6825C50.9262 42.2135 51.1673 42.9589 51.1673 43.9187C51.1673 45.4096 50.6148 46.5736 49.5097 47.411C48.4045 48.2483 46.9478 48.6669 45.1394 48.6669Z" fill="#323232"/>
<path d="M61.3364 48.6669C60.2112 48.6669 59.1664 48.4525 58.2019 48.0236C57.2374 47.5743 56.4036 46.9719 55.7003 46.2162C54.997 45.4402 54.4445 44.5518 54.0426 43.5511C53.6609 42.5504 53.47 41.4782 53.47 40.3346C53.47 38.8438 53.8015 37.4754 54.4646 36.2297C55.1477 34.9839 56.0821 33.9934 57.2676 33.2582C58.4531 32.5026 59.7993 32.1248 61.3063 32.1248C62.8535 32.1248 64.1997 32.5026 65.345 33.2582C66.5104 34.0138 67.4247 35.0145 68.0877 36.2603C68.7508 37.4857 69.0823 38.8335 69.0823 40.304C69.0823 40.4673 69.0823 40.6307 69.0823 40.7941C69.0823 40.937 69.0723 41.0494 69.0522 41.1311H55.6099C55.7104 42.2747 56.0218 43.2958 56.5442 44.1944C57.0867 45.0726 57.7799 45.7772 58.6239 46.3081C59.4879 46.8187 60.4222 47.074 61.4268 47.074C62.4516 47.074 63.4161 46.8085 64.3203 46.2775C65.2445 45.7465 65.8875 45.0522 66.2492 44.1944L68.0274 44.6846C67.7059 45.4402 67.2137 46.1243 66.5506 46.737C65.8875 47.3497 65.1039 47.8296 64.1997 48.1768C63.3156 48.5036 62.3612 48.6669 61.3364 48.6669ZM55.5496 39.63H67.1534C67.073 38.4659 66.7616 37.4448 66.2191 36.5667C65.6966 35.6885 65.0034 35.0043 64.1394 34.5142C63.2955 34.0036 62.3612 33.7484 61.3364 33.7484C60.3117 33.7484 59.3773 34.0036 58.5334 34.5142C57.6895 35.0043 56.9963 35.6987 56.4538 36.5973C55.9314 37.4754 55.63 38.4864 55.5496 39.63Z" fill="#323232"/>
<path d="M76.7257 30.0265C74.8332 31.8663 73.6211 34.3119 73.293 36.9527C72.9649 39.5935 73.5408 42.2686 74.9239 44.5289C76.3069 46.7891 78.413 48.4969 80.8885 49.3654C83.364 50.234 86.0582 50.2104 88.5186 49.2986C88.6471 49.2516 88.7653 49.1792 88.8663 49.0856C88.9672 48.992 89.049 48.879 89.1069 48.7532C89.1648 48.6274 89.1976 48.4912 89.2035 48.3524C89.2094 48.2137 89.1883 48.0751 89.1414 47.9447C89.0944 47.8142 89.0226 47.6945 88.93 47.5924C88.8374 47.4903 88.7258 47.4078 88.6017 47.3496C88.4776 47.2914 88.3435 47.2588 88.2069 47.2535C88.0704 47.2482 87.9341 47.2704 87.806 47.3188C85.7922 48.0675 83.5862 48.0886 81.5589 47.3786C79.5316 46.6686 77.8066 45.2707 76.674 43.4201C75.5415 41.5694 75.0704 39.3789 75.34 37.2167C75.6097 35.0546 76.6036 33.0527 78.1546 31.5478C79.7056 30.0428 81.7192 29.1266 83.8567 28.9531C85.9942 28.7796 88.1252 29.3595 89.8916 30.5952C91.6579 31.8309 92.9517 33.6471 93.5555 35.7384C94.1593 37.8296 94.0362 40.0684 93.207 42.0783C93.1535 42.2061 93.1253 42.3434 93.1242 42.4823C93.1231 42.6212 93.1489 42.7589 93.2004 42.8876C93.2518 43.0163 93.3277 43.1334 93.4238 43.2321C93.5198 43.3309 93.6342 43.4094 93.7602 43.4631C93.8862 43.5168 94.0214 43.5447 94.1581 43.5451C94.2947 43.5455 94.4301 43.5185 94.5564 43.4656C94.6828 43.4126 94.7976 43.3349 94.8942 43.2367C94.9909 43.1385 95.0675 43.0219 95.1197 42.8935C96.1299 40.4378 96.2781 37.7036 95.5393 35.1499C94.8005 32.5963 93.2198 30.3788 91.0625 28.8697C88.9052 27.3606 86.3028 26.6519 83.6921 26.8625C81.0815 27.0732 78.6217 28.1904 76.7257 30.0265Z" fill="#006666"/>
<path d="M88.8013 41.8662C88.174 41.5967 87.5329 42.2187 87.7687 42.8681L90.0382 49.1182C90.2319 49.6519 90.9001 49.8091 91.3049 49.4163L95.0729 45.7604C95.4777 45.3677 95.3542 44.6819 94.8387 44.4604L88.8013 41.8662Z" fill="#323232"/>
</svg>
