<svg width="56" height="56" viewBox="0 0 56 56" fill="none" xmlns="http://www.w3.org/2000/svg">
<rect width="56" height="56" rx="16" fill="#D5ECEF"/>
<g clip-path="url(#clip0_5427_5733)">
<path d="M16.2488 13.5134C15.4094 13.5134 14.7266 14.1963 14.7266 15.0356C14.7266 15.875 15.4094 16.5578 16.2488 16.5578C17.0881 16.5578 17.7709 15.8749 17.7709 15.0356C17.7709 14.1963 17.0881 13.5134 16.2488 13.5134ZM16.2488 15.6067C15.9338 15.6067 15.6776 15.3504 15.6776 15.0356C15.6776 14.7207 15.9338 14.4644 16.2488 14.4644C16.5637 14.4644 16.8199 14.7207 16.8199 15.0356C16.8199 15.3506 16.5637 15.6067 16.2488 15.6067Z" fill="#508287"/>
<path d="M19.7722 13.5134C18.9329 13.5134 18.25 14.1963 18.25 15.0356C18.25 15.875 18.9329 16.5578 19.7722 16.5578C20.6115 16.5578 21.2944 15.8749 21.2944 15.0356C21.2944 14.1963 20.6115 13.5134 19.7722 13.5134ZM19.7722 15.6067C19.4572 15.6067 19.2011 15.3504 19.2011 15.0356C19.2011 14.7207 19.4572 14.4644 19.7722 14.4644C20.0871 14.4644 20.3433 14.7207 20.3433 15.0356C20.3433 15.3506 20.0871 15.6067 19.7722 15.6067Z" fill="#508287"/>
<path d="M23.2956 13.5134C22.4562 13.5135 21.7734 14.1963 21.7734 15.0356C21.7734 15.875 22.4563 16.5578 23.2956 16.5578C24.135 16.5578 24.8179 15.8749 24.8179 15.0356C24.8178 14.1963 24.1349 13.5134 23.2956 13.5134ZM23.2956 15.6067C22.9806 15.6067 22.7244 15.3504 22.7244 15.0356C22.7244 14.7207 22.9806 14.4644 23.2956 14.4644C23.6105 14.4644 23.8667 14.7207 23.8667 15.0356C23.8667 15.3506 23.6105 15.6067 23.2956 15.6067Z" fill="#508287"/>
<path d="M42.2652 18.3275C42.113 18.1135 41.816 18.0633 41.602 18.2156C41.3879 18.3678 41.3379 18.6647 41.49 18.8786C42.1595 19.82 42.5134 20.9305 42.5134 22.0901C42.5134 25.1491 40.0247 27.6379 36.9657 27.6379C33.9066 27.6379 31.4179 25.1491 31.4179 22.0901C31.4179 19.031 33.9066 16.5423 36.9657 16.5423C38.2307 16.5423 39.422 16.9569 40.4108 17.7413C40.6165 17.9045 40.9156 17.8701 41.0789 17.6643C41.2421 17.4586 41.2076 17.1595 41.0019 16.9962C39.8433 16.077 38.4475 15.5911 36.9657 15.5911C33.3822 15.5911 30.4668 18.5065 30.4668 22.09C30.4668 25.6735 33.3822 28.5889 36.9657 28.5889C40.5492 28.5889 43.4645 25.6735 43.4645 22.09C43.4646 20.7319 43.0499 19.4308 42.2652 18.3275Z" fill="#508287"/>
<path d="M37.0451 29.6102C36.7824 29.6102 36.5695 29.8231 36.5695 30.0858V41.4924C36.5695 42.3507 35.8709 43.0489 35.0123 43.0489H15.0428C14.1846 43.0489 13.4863 42.3506 13.4863 41.4924V18.1739H30.8778C31.1405 18.1739 31.3534 17.961 31.3534 17.6984C31.3534 17.4358 31.1405 17.2228 30.8778 17.2228H13.4863V14.5076C13.4863 13.6494 14.1846 12.9511 15.0428 12.9511H35.0123C35.871 12.9511 36.5696 13.6494 36.5696 14.5076C36.5696 14.7703 36.7825 14.9832 37.0452 14.9832C37.3078 14.9832 37.5207 14.7703 37.5207 14.5076C37.5206 13.1249 36.3954 12 35.0123 12H15.0428C13.6602 12 12.5352 13.1249 12.5352 14.5076V41.4924C12.5352 42.8751 13.6601 44 15.0428 44H35.0123C36.3954 44 37.5207 42.8751 37.5207 41.4924V30.0858C37.5206 29.8231 37.3078 29.6102 37.0451 29.6102Z" fill="#508287"/>
<path d="M28.5985 20.9558H18.042C17.7793 20.9558 17.5664 21.1687 17.5664 21.4314C17.5664 21.694 17.7793 21.9069 18.042 21.9069H28.5985C28.8611 21.9069 29.074 21.694 29.074 21.4314C29.074 21.1687 28.8612 20.9558 28.5985 20.9558Z" fill="#508287"/>
<path d="M16.3838 21.3384C16.2957 20.9178 15.7145 20.8183 15.5028 21.1991C15.2953 21.5722 15.6664 22.0201 16.0719 21.8806C16.2925 21.8048 16.4315 21.5686 16.3838 21.3384Z" fill="#508287"/>
<path d="M28.5985 26.2694H18.042C17.7793 26.2694 17.5664 26.4823 17.5664 26.7449C17.5664 27.0076 17.7793 27.2205 18.042 27.2205H28.5985C28.8612 27.2205 29.074 27.0076 29.074 26.7449C29.074 26.4823 28.8612 26.2694 28.5985 26.2694Z" fill="#508287"/>
<path d="M16.2537 26.4084C15.9577 26.1214 15.4411 26.3261 15.4414 26.7451C15.4416 26.9529 15.583 27.1411 15.7817 27.2006C15.9706 27.2571 16.182 27.1866 16.2992 27.0281C16.438 26.8402 16.4178 26.5737 16.2537 26.4084Z" fill="#508287"/>
<path d="M32.8771 28.9262H29.8974C29.6348 28.9262 29.4219 29.1391 29.4219 29.4017C29.4219 29.6644 29.6348 29.8773 29.8974 29.8773H32.8771C33.1397 29.8773 33.3527 29.6644 33.3527 29.4017C33.3527 29.1391 33.1398 28.9262 32.8771 28.9262Z" fill="#508287"/>
<path d="M28.3122 28.9262H22.7646C22.5019 28.9262 22.2891 29.1391 22.2891 29.4017C22.2891 29.6644 22.5019 29.8773 22.7646 29.8773H28.3122C28.5749 29.8773 28.7878 29.6644 28.7878 29.4017C28.7878 29.1391 28.5748 28.9262 28.3122 28.9262Z" fill="#508287"/>
<path d="M21.1804 28.9262H18.042C17.7793 28.9262 17.5664 29.1391 17.5664 29.4017C17.5664 29.6644 17.7793 29.8773 18.042 29.8773H21.1804C21.4431 29.8773 21.656 29.6644 21.656 29.4017C21.656 29.1391 21.4431 28.9262 21.1804 28.9262Z" fill="#508287"/>
<path d="M16.2536 29.0657C15.9507 28.7628 15.4157 29.0036 15.4424 29.4312C15.4544 29.6249 15.5878 29.7949 15.7722 29.8543C15.9733 29.919 16.2 29.8387 16.3152 29.6616C16.4364 29.4754 16.411 29.2231 16.2536 29.0657Z" fill="#508287"/>
<path d="M25.7453 31.583H18.042C17.7793 31.583 17.5664 31.7959 17.5664 32.0586C17.5664 32.3212 17.7793 32.5341 18.042 32.5341H25.7453C26.008 32.5341 26.2209 32.3212 26.2209 32.0586C26.2209 31.7959 26.008 31.583 25.7453 31.583Z" fill="#508287"/>
<path d="M16.3839 31.9659C16.2957 31.5447 15.7176 31.4466 15.5042 31.8246C15.3985 32.0118 15.433 32.2524 15.5884 32.4014C15.7306 32.5379 15.9475 32.5718 16.1249 32.4863C16.3163 32.3942 16.4273 32.1745 16.3839 31.9659Z" fill="#508287"/>
<path d="M30.5 34.2397H29.042C28.7793 34.2397 28.5664 34.4527 28.5664 34.7153C28.5664 34.9779 28.7793 35.1909 29.042 35.1909H30.5C30.7627 35.1909 30.9756 34.9779 30.9756 34.7153C30.9756 34.4527 30.7627 34.2397 30.5 34.2397Z" fill="#508287"/>
<path d="M27.4573 34.2397H23.2412C22.9785 34.2397 22.7656 34.4527 22.7656 34.7153C22.7656 34.9779 22.9785 35.1909 23.2412 35.1909H27.4573C27.7199 35.1909 27.9329 34.9779 27.9329 34.7153C27.9329 34.4527 27.72 34.2397 27.4573 34.2397Z" fill="#508287"/>
<path d="M21.6559 34.2397H18.042C17.7793 34.2397 17.5664 34.4527 17.5664 34.7153C17.5664 34.9779 17.7793 35.1909 18.042 35.1909H21.6559C21.9186 35.1909 22.1315 34.9779 22.1315 34.7153C22.1315 34.4527 21.9186 34.2397 21.6559 34.2397Z" fill="#508287"/>
<path d="M16.2535 34.3791C15.9508 34.0763 15.4159 34.3177 15.4424 34.7448C15.4544 34.9387 15.5875 35.1084 15.7722 35.1677C15.9733 35.2323 16.2 35.1528 16.3152 34.9753C16.4363 34.7889 16.4111 34.5367 16.2535 34.3791Z" fill="#508287"/>
<path d="M32.6872 36.8966H25.9033C25.6406 36.8966 25.4277 37.1096 25.4277 37.3722C25.4277 37.6348 25.6406 37.8478 25.9033 37.8478H32.6872C32.9499 37.8478 33.1627 37.6348 33.1627 37.3722C33.1627 37.1095 32.9499 36.8966 32.6872 36.8966Z" fill="#508287"/>
<path d="M24.3188 36.8966H18.042C17.7793 36.8966 17.5664 37.1096 17.5664 37.3722C17.5664 37.6348 17.7793 37.8478 18.042 37.8478H24.3188C24.5814 37.8478 24.7943 37.6348 24.7943 37.3722C24.7943 37.1095 24.5815 36.8966 24.3188 36.8966Z" fill="#508287"/>
<path d="M16.3834 37.2792C16.297 36.8671 15.7337 36.7591 15.5117 37.1238C15.2895 37.4889 15.6456 37.9526 16.055 37.827C16.2842 37.7567 16.4324 37.5159 16.3834 37.2792Z" fill="#508287"/>
<path d="M21.1804 39.5534H18.042C17.7793 39.5534 17.5664 39.7664 17.5664 40.029C17.5664 40.2916 17.7793 40.5046 18.042 40.5046H21.1804C21.4431 40.5046 21.656 40.2916 21.656 40.029C21.656 39.7664 21.4431 39.5534 21.1804 39.5534Z" fill="#508287"/>
<path d="M16.3573 39.8472C16.1961 39.4646 15.64 39.4634 15.4791 39.8472C15.398 40.0404 15.4585 40.2731 15.6238 40.4024C15.7718 40.5182 15.9788 40.5366 16.1443 40.4472C16.3548 40.3336 16.4508 40.0684 16.3573 39.8472Z" fill="#508287"/>
<path d="M20.4195 23.6125H18.042C17.7793 23.6125 17.5664 23.8255 17.5664 24.0881C17.5664 24.3507 17.7793 24.5637 18.042 24.5637H20.4195C20.6822 24.5637 20.8951 24.3507 20.8951 24.0881C20.8951 23.8255 20.6822 23.6125 20.4195 23.6125Z" fill="#508287"/>
<path d="M26.6948 23.6125H22.1299C21.8672 23.6125 21.6543 23.8255 21.6543 24.0881C21.6543 24.3507 21.8672 24.5637 22.1299 24.5637H26.6948C26.9575 24.5637 27.1704 24.3507 27.1704 24.0881C27.1704 23.8255 26.9575 23.6125 26.6948 23.6125Z" fill="#508287"/>
<path d="M16.3836 23.9951C16.2963 23.5785 15.7243 23.4751 15.5073 23.8477C15.2902 24.2203 15.6629 24.6789 16.0717 24.5378C16.2922 24.4618 16.4314 24.2251 16.3836 23.9951Z" fill="#508287"/>
<path d="M39.7545 18.9588C39.5221 18.8365 39.2345 18.9257 39.1122 19.1582L36.5662 23.9956L34.7404 22.0937C34.5585 21.9043 34.2576 21.8982 34.0681 22.08C33.8787 22.2619 33.8724 22.5629 34.0544 22.7524L36.3369 25.1299C36.4272 25.224 36.5514 25.2761 36.6799 25.2761C36.7019 25.2761 36.7241 25.2746 36.7464 25.2714C36.8977 25.2501 37.0296 25.1573 37.1007 25.0221L39.9538 19.6011C40.0762 19.3687 39.9869 19.0811 39.7545 18.9588Z" fill="#508287"/>
</g>
<defs>
<clipPath id="clip0_5427_5733">
<rect width="32" height="32" fill="white" transform="translate(12 12)"/>
</clipPath>
</defs>
</svg>
