<svg width="16" height="20" viewBox="0 0 16 20" fill="none" xmlns="http://www.w3.org/2000/svg">
<path d="M13.7132 2.62037H11.9039V1.81092C11.9039 1.54903 11.6182 1.43001 11.3563 1.43001H9.95167C9.61838 0.477696 8.7851 0.00154151 7.83279 0.00154151C6.89096 -0.0338659 6.0343 0.543635 5.7139 1.43001H4.33306C4.07117 1.43001 3.80928 1.54903 3.80928 1.81092V2.62037H1.99986C0.927611 2.63181 0.0503998 3.47767 0 4.54878V18.1906C0 19.2381 0.952309 19.9999 1.99986 19.9999H13.7132C14.7608 19.9999 15.7131 19.2381 15.7131 18.1906V4.54882C15.6627 3.47767 14.7855 2.63181 13.7132 2.62037ZM4.76155 2.38231H6.07098C6.29956 2.35443 6.48316 2.18053 6.52335 1.95378C6.66434 1.33978 7.20302 0.899031 7.83279 0.882444C8.45672 0.901355 8.98729 1.34347 9.11839 1.95378C9.16109 2.18837 9.35681 2.3645 9.59455 2.38231H10.9516V4.28693H4.76155V2.38231ZM14.7608 18.1906C14.7608 18.7144 14.237 19.0477 13.7132 19.0477H1.99986C1.47608 19.0477 0.952309 18.7144 0.952309 18.1906V4.54882C1.00089 4.00363 1.45257 3.5827 1.99986 3.57272H3.80924V4.78692C3.83439 5.05368 4.06543 5.25323 4.33301 5.23929H11.3563C11.6288 5.25419 11.867 5.05737 11.9038 4.78692V3.57268H13.7132C14.2604 3.5827 14.7122 4.00358 14.7607 4.54878V18.1906H14.7608Z" fill="#7A7A7A"/>
<path d="M6.02286 10.6445C5.84427 10.4563 5.54779 10.4457 5.35622 10.6208L3.83252 12.073L3.18971 11.4064C3.01113 11.2181 2.71465 11.2075 2.52308 11.3826C2.33866 11.5758 2.33866 11.8798 2.52308 12.073L3.49918 13.0729C3.58366 13.1675 3.7057 13.2198 3.83247 13.2158C3.95806 13.214 4.07786 13.1627 4.16577 13.0729L6.02276 11.3112C6.20686 11.1423 6.21917 10.8561 6.05024 10.6721C6.04158 10.6624 6.03242 10.6533 6.02286 10.6445Z" fill="#7A7A7A"/>
<path d="M12.8562 11.668H7.38045C7.11747 11.668 6.9043 11.8811 6.9043 12.1441C6.9043 12.4071 7.11747 12.6203 7.38045 12.6203H12.8562C13.1192 12.6203 13.3324 12.4071 13.3324 12.1441C13.3324 11.8811 13.1192 11.668 12.8562 11.668Z" fill="#7A7A7A"/>
<path d="M6.02286 6.83399C5.84427 6.64575 5.54779 6.63513 5.35622 6.81021L3.83252 8.26246L3.18971 7.59582C3.01113 7.40757 2.71465 7.39696 2.52308 7.57203C2.33866 7.76525 2.33866 8.06924 2.52308 8.26246L3.49918 9.26239C3.58366 9.35699 3.7057 9.4093 3.83247 9.40525C3.95806 9.40347 4.07786 9.35211 4.16577 9.26239L6.02276 7.50063C6.20686 7.33175 6.21917 7.04557 6.05024 6.86152C6.04158 6.8519 6.03242 6.84274 6.02286 6.83399Z" fill="#7A7A7A"/>
<path d="M12.8562 7.85742H7.38045C7.11747 7.85742 6.9043 8.0706 6.9043 8.33358C6.9043 8.59656 7.11747 8.80973 7.38045 8.80973H12.8562C13.1192 8.80973 13.3324 8.59656 13.3324 8.33358C13.3324 8.0706 13.1192 7.85742 12.8562 7.85742Z" fill="#7A7A7A"/>
<path d="M6.02286 14.4531C5.84427 14.2649 5.54779 14.2543 5.35622 14.4293L3.83252 15.8816L3.18971 15.2149C3.01113 15.0267 2.71465 15.0161 2.52308 15.1912C2.33866 15.3844 2.33866 15.6884 2.52308 15.8816L3.49918 16.8815C3.58366 16.9761 3.7057 17.0284 3.83247 17.0244C3.95806 17.0226 4.07786 16.9712 4.16577 16.8815L6.02276 15.1198C6.20686 14.9509 6.21917 14.6647 6.05024 14.4806C6.04158 14.4711 6.03242 14.4619 6.02286 14.4531Z" fill="#7A7A7A"/>
<path d="M12.8562 15.4766H7.38045C7.11747 15.4766 6.9043 15.6897 6.9043 15.9527C6.9043 16.2157 7.11747 16.4289 7.38045 16.4289H12.8562C13.1192 16.4289 13.3324 16.2157 13.3324 15.9527C13.3324 15.6897 13.1192 15.4766 12.8562 15.4766Z" fill="#7A7A7A"/>
</svg>
