<svg width="60" height="60" viewBox="0 0 60 60" fill="none" xmlns="http://www.w3.org/2000/svg">
<rect width="60" height="60" rx="15" fill="#D5ECEF"/>
<path d="M42.3994 23.275C42.2726 22.9696 42.0299 22.7268 41.7244 22.6C41.5742 22.5359 41.4128 22.502 41.2494 22.5H34.9994C34.6679 22.5 34.35 22.6317 34.1155 22.8661C33.8811 23.1005 33.7494 23.4185 33.7494 23.75C33.7494 24.0815 33.8811 24.3995 34.1155 24.6339C34.35 24.8683 34.6679 25 34.9994 25H38.2369L31.2494 31.9875L27.1369 27.8625C27.0207 27.7453 26.8825 27.6523 26.7302 27.5889C26.5778 27.5254 26.4144 27.4928 26.2494 27.4928C26.0844 27.4928 25.921 27.5254 25.7687 27.5889C25.6164 27.6523 25.4781 27.7453 25.3619 27.8625L17.8619 35.3625C17.7448 35.4787 17.6518 35.617 17.5883 35.7693C17.5249 35.9216 17.4922 36.085 17.4922 36.25C17.4922 36.415 17.5249 36.5784 17.5883 36.7307C17.6518 36.883 17.7448 37.0213 17.8619 37.1375C17.9781 37.2547 18.1164 37.3477 18.2687 37.4111C18.421 37.4746 18.5844 37.5072 18.7494 37.5072C18.9145 37.5072 19.0778 37.4746 19.2302 37.4111C19.3825 37.3477 19.5207 37.2547 19.6369 37.1375L26.2494 30.5125L30.3619 34.6375C30.4781 34.7547 30.6164 34.8477 30.7687 34.9111C30.921 34.9746 31.0844 35.0072 31.2494 35.0072C31.4144 35.0072 31.5778 34.9746 31.7302 34.9111C31.8825 34.8477 32.0207 34.7547 32.1369 34.6375L39.9994 26.7625V30C39.9994 30.3315 40.1311 30.6495 40.3655 30.8839C40.6 31.1183 40.9179 31.25 41.2494 31.25C41.581 31.25 41.8989 31.1183 42.1333 30.8839C42.3677 30.6495 42.4994 30.3315 42.4994 30V23.75C42.4975 23.5867 42.4635 23.4253 42.3994 23.275Z" fill="#639FA5"/>
</svg>
