<svg width="24" height="22" viewBox="0 0 24 22" fill="none" xmlns="http://www.w3.org/2000/svg">
<path d="M23.9837 1.42265C24.1007 0.878017 23.5667 0.418787 23.0459 0.617535L0.452341 9.24245C0.180421 9.34628 0.000563818 9.6069 1.32316e-06 9.89794C-0.000561171 10.189 0.178265 10.4504 0.449809 10.5552L6.79676 13.0065V20.7274C6.79676 21.0531 7.0204 21.3361 7.33727 21.4114C7.65204 21.4863 7.98025 21.3365 8.12781 21.0438L10.7528 15.8347L17.1589 20.5889C17.5486 20.8781 18.1087 20.6941 18.2505 20.2294C24.2316 0.619082 23.973 1.47192 23.9837 1.42265ZM18.4065 3.89378L7.40023 11.7321L2.66458 9.90315L18.4065 3.89378ZM8.203 12.8868L17.7967 6.05447C9.54145 14.7633 9.97261 14.3049 9.93661 14.3534C9.88312 14.4253 10.0297 14.1449 8.203 17.7697V12.8868ZM17.1963 18.8654L11.5574 14.6806L21.7532 3.92472L17.1963 18.8654Z" fill="#F8A046"/>
</svg>
