<svg width="56" height="56" viewBox="0 0 56 56" fill="none" xmlns="http://www.w3.org/2000/svg">
<rect width="56" height="56" rx="16" fill="#FCDDCA"/>
<path d="M31 17C31 15.346 29.654 14 28 14C26.346 14 25 15.346 25 17C25 18.654 26.346 20 28 20C29.654 20 31 18.654 31 17ZM28 18C27.449 18 27 17.551 27 17C27 16.449 27.449 16 28 16C28.551 16 29 16.449 29 17C29 17.551 28.551 18 28 18Z" fill="#C07B36"/>
<path d="M33 25.522V23C33 21.346 31.654 20 30 20H28H26C24.346 20 23 21.346 23 23V25.522C20.59 27.139 19 29.887 19 33C19 37.962 23.038 42 28 42C32.962 42 37 37.962 37 33C37 29.887 35.41 27.139 33 25.522ZM25 23C25 22.449 25.449 22 26 22H30C30.551 22 31 22.449 31 23V24.525C30.06 24.191 29.053 24 28 24C26.947 24 25.94 24.191 25 24.525V23ZM28 40C24.14 40 21 36.86 21 33C21 29.14 24.14 26 28 26C31.86 26 35 29.14 35 33C35 36.86 31.86 40 28 40Z" fill="#C07B36"/>
<path d="M30.293 29.2932L27.586 32.0003H25C24.448 32.0003 24 32.4483 24 33.0003C24 33.5523 24.448 34.0003 25 34.0003H28C28.265 34.0003 28.52 33.8953 28.707 33.7073L31.707 30.7073C32.098 30.3163 32.098 29.6842 31.707 29.2932C31.316 28.9022 30.684 28.9022 30.293 29.2932Z" fill="#C07B36"/>
<path d="M17.555 29.1678C17.094 28.8598 16.474 28.9858 16.168 29.4448L14.168 32.4448C13.944 32.7808 13.944 33.2178 14.168 33.5538L16.168 36.5538C16.361 36.8438 16.678 36.9998 17.001 36.9998C17.191 36.9998 17.384 36.9458 17.555 36.8318C18.014 36.5258 18.138 35.9048 17.832 35.4448L16.202 32.9998L17.832 30.5548C18.138 30.0948 18.014 29.4738 17.555 29.1678Z" fill="#C07B36"/>
<path d="M41.8319 32.4448L39.8319 29.4448C39.5249 28.9858 38.9039 28.8598 38.4449 29.1678C37.9859 29.4738 37.8619 30.0948 38.1679 30.5548L39.7979 32.9998L38.1679 35.4448C37.8619 35.9038 37.9859 36.5258 38.4449 36.8318C38.6159 36.9458 38.8089 36.9998 38.9989 36.9998C39.3219 36.9998 39.6389 36.8438 39.8319 36.5548L41.8319 33.5548C42.0559 33.2188 42.0559 32.7808 41.8319 32.4448Z" fill="#C07B36"/>
</svg>
