<svg width="22" height="22" viewBox="0 0 22 22" fill="none" xmlns="http://www.w3.org/2000/svg">
<path d="M11 0.640625C8.95111 0.640625 6.94823 1.24819 5.24464 2.38649C3.54105 3.5248 2.21327 5.14271 1.42919 7.03564C0.645113 8.92857 0.439963 11.0115 0.839682 13.021C1.2394 15.0305 2.22604 16.8764 3.67482 18.3252C5.1236 19.774 6.96947 20.7606 8.97899 21.1603C10.9885 21.56 13.0714 21.3549 14.9644 20.5708C16.8573 19.7867 18.4752 18.459 19.6135 16.7554C20.7518 15.0518 21.3594 13.0489 21.3594 11C21.354 8.25417 20.2609 5.62234 18.3193 3.68074C16.3777 1.73915 13.7458 0.645993 11 0.640625ZM11 20.1406C9.19216 20.1406 7.42491 19.6045 5.92175 18.6001C4.41858 17.5958 3.247 16.1682 2.55517 14.498C1.86334 12.8277 1.68232 10.9899 2.03501 9.21675C2.38771 7.44364 3.25827 5.81494 4.53661 4.5366C5.81495 3.25826 7.44365 2.3877 9.21676 2.03501C10.9899 1.68232 12.8277 1.86333 14.498 2.55516C16.1682 3.247 17.5958 4.41857 18.6002 5.92174C19.6045 7.42491 20.1406 9.19215 20.1406 11C20.1379 13.4234 19.174 15.7468 17.4604 17.4604C15.7468 19.174 13.4234 20.1379 11 20.1406ZM6.32813 8.96875C6.32813 8.76788 6.38769 8.57152 6.49929 8.4045C6.61089 8.23748 6.76951 8.10731 6.95509 8.03043C7.14067 7.95356 7.34488 7.93345 7.54189 7.97264C7.7389 8.01183 7.91987 8.10856 8.06191 8.25059C8.20395 8.39263 8.30068 8.5736 8.33986 8.77061C8.37905 8.96762 8.35894 9.17183 8.28207 9.35741C8.2052 9.54299 8.07502 9.70161 7.90801 9.81321C7.74099 9.92481 7.54463 9.98437 7.34375 9.98437C7.07439 9.98437 6.81607 9.87737 6.6256 9.6869C6.43513 9.49644 6.32813 9.23811 6.32813 8.96875ZM13.6406 8.96875C13.6406 8.76788 13.7002 8.57152 13.8118 8.4045C13.9234 8.23748 14.082 8.10731 14.2676 8.03043C14.4532 7.95356 14.6574 7.93345 14.8544 7.97264C15.0514 8.01183 15.2324 8.10856 15.3744 8.25059C15.5164 8.39263 15.6132 8.5736 15.6524 8.77061C15.6916 8.96762 15.6714 9.17183 15.5946 9.35741C15.5177 9.54299 15.3875 9.70161 15.2205 9.81321C15.0535 9.92481 14.8571 9.98437 14.6563 9.98437C14.3869 9.98437 14.1286 9.87737 13.9381 9.6869C13.7476 9.49644 13.6406 9.23811 13.6406 8.96875ZM15.7531 13.7422C15.2702 14.575 14.5769 15.2663 13.7427 15.7468C12.9085 16.2274 11.9627 16.4803 11 16.4803C10.0373 16.4803 9.09149 16.2274 8.2573 15.7468C7.42312 15.2663 6.72983 14.575 6.24688 13.7422C6.20682 13.6728 6.18083 13.5963 6.17038 13.5169C6.15993 13.4375 6.16523 13.3568 6.18598 13.2795C6.20673 13.2021 6.24253 13.1296 6.29131 13.0661C6.3401 13.0026 6.40093 12.9494 6.47032 12.9094C6.5393 12.8679 6.61592 12.8408 6.69561 12.8296C6.77531 12.8184 6.85643 12.8234 6.93416 12.8443C7.01188 12.8651 7.08461 12.9014 7.148 12.951C7.21139 13.0006 7.26415 13.0624 7.30313 13.1328C7.67715 13.7826 8.2158 14.3222 8.86482 14.6975C9.51384 15.0728 10.2503 15.2704 11 15.2704C11.7497 15.2704 12.4862 15.0728 13.1352 14.6975C13.7842 14.3222 14.3229 13.7826 14.6969 13.1328C14.7359 13.0624 14.7886 13.0006 14.852 12.951C14.9154 12.9014 14.9881 12.8651 15.0658 12.8443C15.1436 12.8234 15.2247 12.8184 15.3044 12.8296C15.3841 12.8408 15.4607 12.8679 15.5297 12.9094C15.5991 12.9494 15.6599 13.0026 15.7087 13.0661C15.7575 13.1296 15.7933 13.2021 15.814 13.2795C15.8348 13.3568 15.8401 13.4375 15.8296 13.5169C15.8192 13.5963 15.7932 13.6728 15.7531 13.7422Z" fill="#7A7A7A"/>
</svg>
