<svg width="40" height="40" viewBox="0 0 40 40" fill="none" xmlns="http://www.w3.org/2000/svg">
<path d="M19.9987 36.6663C10.7937 36.6663 3.33203 29.2047 3.33203 19.9997C3.33203 10.7947 10.7937 3.33301 19.9987 3.33301C29.2037 3.33301 36.6654 10.7947 36.6654 19.9997C36.6654 29.2047 29.2037 36.6663 19.9987 36.6663ZM19.9987 33.333C23.5349 33.333 26.9263 31.9282 29.4268 29.4278C31.9273 26.9273 33.332 23.5359 33.332 19.9997C33.332 16.4635 31.9273 13.0721 29.4268 10.5716C26.9263 8.0711 23.5349 6.66634 19.9987 6.66634C16.4625 6.66634 13.0711 8.0711 10.5706 10.5716C8.07012 13.0721 6.66536 16.4635 6.66536 19.9997C6.66536 23.5359 8.07012 26.9273 10.5706 29.4278C13.0711 31.9282 16.4625 33.333 19.9987 33.333Z" fill="#A5A5A5"/>
</svg>
