<svg width="157" height="114" viewBox="0 0 157 114" fill="none" xmlns="http://www.w3.org/2000/svg">
<path d="M43.0988 113.571C33.4234 112.945 24.23 109.761 16.8314 104.474C9.43285 99.1859 4.20739 92.0648 1.90118 84.1272C-0.405032 76.1896 0.325928 67.8412 3.98969 60.2743C7.65345 52.7073 14.0627 46.3087 22.3022 41.9919C24.0554 30.4802 30.7299 19.9009 41.0767 12.2339C51.4234 4.56693 64.7333 0.337708 78.5155 0.337708C92.2976 0.337708 105.608 4.56693 115.954 12.2339C126.301 19.9009 132.976 30.4802 134.729 41.9919C142.968 46.3087 149.378 52.7073 153.041 60.2743C156.705 67.8412 157.436 76.1896 155.13 84.1272C152.824 92.0648 147.598 99.1859 140.2 104.474C132.801 109.761 123.608 112.945 113.932 113.571V113.684H43.0988V113.571ZM85.5988 65.9649H106.849L78.5155 36.1404L50.1822 65.9649H71.4322V89.8246H85.5988V65.9649Z" fill="#72B8BF"/>
</svg>
