<svg width="92" height="68" viewBox="0 0 92 68" fill="none" xmlns="http://www.w3.org/2000/svg">
<path d="M25.1661 67.0121C19.4747 66.6441 14.0668 64.7711 9.71471 61.6607C5.36261 58.5503 2.28881 54.3614 0.932219 49.6922C-0.424375 45.023 0.00560108 40.1123 2.16075 35.6611C4.31591 31.21 8.08603 27.446 12.9328 24.9068C13.9641 18.1352 17.8903 11.9121 23.9766 7.40207C30.063 2.89208 37.8923 0.404297 45.9995 0.404297C54.1066 0.404297 61.936 2.89208 68.0223 7.40207C74.1086 11.9121 78.0348 18.1352 79.0661 24.9068C83.9129 27.446 87.683 31.21 89.8382 35.6611C91.9933 40.1123 92.4233 45.023 91.0667 49.6922C89.7101 54.3614 86.6363 58.5503 82.2842 61.6607C77.9321 64.7711 72.5242 66.6441 66.8328 67.0121V67.0787H25.1661V67.0121ZM50.1661 39.0085H62.6661L45.9995 21.4647L29.3328 39.0085H41.8328V53.0436H50.1661V39.0085Z" fill="#F8A046"/>
</svg>
