<svg width="26" height="26" viewBox="0 0 26 26" fill="none" xmlns="http://www.w3.org/2000/svg">
<path d="M18.1563 12.0625C18.1563 13.0823 17.8538 14.0792 17.2873 14.9272C16.7207 15.7751 15.9154 16.436 14.9732 16.8263C14.031 17.2165 12.9943 17.3186 11.9941 17.1197C10.9939 16.9207 10.0751 16.4296 9.35398 15.7085C8.63287 14.9874 8.14179 14.0686 7.94283 13.0684C7.74388 12.0682 7.84599 11.0315 8.23625 10.0893C8.62652 9.14711 9.28741 8.34181 10.1353 7.77523C10.9833 7.20866 11.9802 6.90625 13 6.90625C14.3675 6.90625 15.679 7.4495 16.646 8.41648C17.613 9.38346 18.1563 10.695 18.1563 12.0625ZM25.1875 13C25.1875 15.4105 24.4727 17.7668 23.1335 19.771C21.7944 21.7752 19.8909 23.3373 17.664 24.2598C15.437 25.1822 12.9865 25.4236 10.6223 24.9533C8.2582 24.4831 6.08659 23.3223 4.38214 21.6179C2.67769 19.9134 1.51694 17.7418 1.04668 15.3777C0.576428 13.0135 0.817781 10.563 1.74022 8.33604C2.66267 6.10907 4.22477 4.20564 6.22899 2.86646C8.23322 1.52728 10.5895 0.8125 13 0.8125C16.2304 0.818694 19.3268 2.10472 21.611 4.38898C23.8953 6.67324 25.1813 9.76958 25.1875 13ZM23.3125 13C23.3131 11.3298 22.908 9.68439 22.1321 8.20534C21.3562 6.72629 20.2326 5.45784 18.858 4.50906C17.4834 3.56029 15.899 2.95959 14.2409 2.75862C12.5828 2.55764 10.9007 2.76241 9.33923 3.35532C7.77778 3.94822 6.38371 4.91152 5.27689 6.16236C4.17008 7.41321 3.38364 8.91418 2.98521 10.5362C2.58679 12.1582 2.5883 13.8527 2.98961 15.474C3.39092 17.0953 4.18003 18.5949 5.28907 19.8437C6.04795 18.7552 7.02587 17.8371 8.16016 17.1484C9.46252 18.3961 11.1964 19.0927 13 19.0927C14.8036 19.0927 16.5375 18.3961 17.8398 17.1484C18.9741 17.8371 19.9521 18.7552 20.7109 19.8437C22.3898 17.9598 23.3159 15.5235 23.3125 13Z" fill="#7A7A7A"/>
</svg>
