<svg width="48" height="48" viewBox="0 0 48 48" fill="none" xmlns="http://www.w3.org/2000/svg">
<circle cx="24" cy="24" r="24" fill="#EBF3F3"/>
<g clip-path="url(#clip0_1_3344)">
<path d="M35.3137 12.6863C32.2917 9.66425 28.2738 8 24 8C19.7263 8 15.7083 9.66425 12.6863 12.6863C9.66425 15.7083 8 19.7263 8 24C8 28.2738 9.66425 32.2917 12.6863 35.3137C15.7083 38.3358 19.7263 40 24 40C28.2739 40 32.2917 38.3357 35.3138 35.3137C38.3357 32.2917 40.0001 28.2737 40.0001 24C40.0001 19.7262 38.3358 15.7083 35.3137 12.6863ZM14.0135 14.0135C15.4205 12.6066 17.0721 11.5334 18.8724 10.833C18.3929 11.4316 17.9442 12.1197 17.533 12.8936C17.0555 13.7923 16.6434 14.7794 16.3002 15.8337C15.1113 15.6364 14.0098 15.3938 13.0256 15.109C13.3341 14.7299 13.6631 14.3639 14.0135 14.0135ZM11.8893 16.7241C13.0404 17.0926 14.3568 17.4035 15.7931 17.6496C15.3931 19.3475 15.1577 21.1746 15.1015 23.0616H9.9085C10.056 20.797 10.7361 18.6358 11.8893 16.7241ZM11.7871 31.1024C10.6962 29.2337 10.0516 27.1349 9.90844 24.9385H15.1051C15.1665 26.7715 15.3972 28.5467 15.7837 30.2001C14.3178 30.4377 12.9684 30.7407 11.7871 31.1024ZM14.0135 33.9866C13.6148 33.5877 13.2434 33.169 12.8991 32.7331C13.9193 32.4502 15.0598 32.2107 16.2875 32.0185C16.6331 33.0875 17.0496 34.0876 17.533 34.9974C17.9811 35.8407 18.4738 36.5817 19.0023 37.2165C17.1517 36.5176 15.4543 35.4272 14.0135 33.9866ZM23.0615 37.8822C21.636 37.4829 20.2875 36.1812 19.1905 34.1167C18.8068 33.3947 18.4698 32.607 18.1811 31.7675C19.7268 31.5974 21.3715 31.4968 23.0615 31.4732V37.8822ZM23.0615 29.5961C21.1873 29.6217 19.3605 29.7394 17.6496 29.9403C17.2723 28.3802 17.0452 26.6917 16.9829 24.9385H23.0616V29.5961H23.0615ZM23.0615 23.0615H16.9793C17.0363 21.2594 17.267 19.5237 17.6561 17.924C19.356 18.1365 21.179 18.2657 23.0615 18.3027V23.0615ZM23.0615 16.4255C21.3649 16.3913 19.7238 16.2807 18.1891 16.1002C18.4761 15.2695 18.8105 14.4897 19.1905 13.7743C20.2875 11.7098 21.636 10.408 23.0615 10.0087V16.4255ZM36.1699 16.8238C37.287 18.7108 37.9466 20.8362 38.0917 23.0615H32.8987C32.8431 21.1963 32.6122 19.3897 32.2206 17.7086C33.6664 17.4751 34.9991 17.178 36.1699 16.8238ZM33.9865 14.0135C34.3633 14.3903 34.7153 14.7853 35.0436 15.1954C34.0391 15.4697 32.9204 15.7025 31.7184 15.8899C31.3716 14.8144 30.9532 13.8083 30.4671 12.8936C30.0559 12.1197 29.6072 11.4316 29.1277 10.833C30.9279 11.5334 32.5796 12.6066 33.9865 14.0135ZM24.9385 24.9385H31.0172C30.9545 26.7053 30.7244 28.4067 30.3416 29.9768C28.642 29.7655 26.8198 29.6374 24.9385 29.6014V24.9385ZM24.9385 23.0615V18.309C26.8139 18.2843 28.6421 18.1676 30.3545 17.9675C30.7374 19.5551 30.9643 21.2757 31.0207 23.0615H24.9385ZM24.9384 10.0087H24.9385C26.364 10.408 27.7125 11.7098 28.8095 13.7743C29.1956 14.501 29.5345 15.2941 29.8245 16.1398C28.2768 16.3093 26.6302 16.4091 24.9384 16.4319V10.0087ZM24.9385 37.8822V31.4786C26.6335 31.5119 28.2734 31.6215 29.8075 31.8009C29.5213 32.6279 29.188 33.4042 28.8095 34.1167C27.7125 36.1812 26.364 37.4829 24.9385 37.8822ZM33.9865 33.9866C32.5458 35.4272 30.8484 36.5176 28.9977 37.2164C29.5262 36.5817 30.0189 35.8407 30.467 34.9974C30.9433 34.1011 31.3544 33.1169 31.697 32.0658C32.9136 32.2666 34.0391 32.5149 35.0417 32.807C34.7141 33.2161 34.3626 33.6104 33.9865 33.9866ZM36.1629 31.1881C34.9982 30.8137 33.6629 30.4986 32.205 30.25C32.5985 28.5825 32.8331 26.79 32.8951 24.9385H38.0917C37.9462 27.1684 37.2844 29.2981 36.1629 31.1881Z" fill="#006666"/>
</g>
<defs>
<clipPath id="clip0_1_3344">
<rect width="32" height="32" fill="white" transform="translate(8 8)"/>
</clipPath>
</defs>
</svg>
