<svg width="140" height="35" viewBox="0 0 140 35" fill="none" xmlns="http://www.w3.org/2000/svg">
<path d="M15.1167 1.1166H18.0169L22.4113 12.3719L26.8496 1.1166H29.7939L24.3449 14.6498L30.3212 28.9869L41.6148 0.893277H44.9545L31.7274 32.6047H29.0029L22.4553 16.9276L15.8637 32.6047H13.1831L0 0.893277H3.29578L14.6333 28.9869L20.5657 14.6498L15.1167 1.1166Z" fill="#323232"/>
<path d="M48.7292 32.6047V9.33476H51.7174V32.6047H48.7292ZM48.7292 4.46639V0H51.7174V4.46639H48.7292Z" fill="#323232"/>
<path d="M65.8134 33.0513C63.9384 33.0513 62.1953 32.7386 60.584 32.1134C58.9728 31.4881 57.5812 30.5352 56.4094 29.2549L57.6398 27.111C58.9288 28.3318 60.2178 29.2251 61.5069 29.7908C62.8252 30.3268 64.2167 30.5948 65.6815 30.5948C67.4686 30.5948 68.9187 30.2375 70.032 29.5228C71.1452 28.7784 71.7018 27.7214 71.7018 26.3517C71.7018 25.4287 71.4235 24.7289 70.8669 24.2525C70.3396 23.7463 69.5632 23.3443 68.5379 23.0466C67.5418 22.719 66.3407 22.3766 64.9345 22.0193C63.3525 21.5727 62.0195 21.1111 60.9356 20.6347C59.8809 20.1285 59.0753 19.5032 58.5187 18.7588C57.9914 17.9847 57.7277 16.9872 57.7277 15.7664C57.7277 14.2478 58.0939 12.9972 58.8263 12.0146C59.588 11.0022 60.6133 10.2429 61.9024 9.73673C63.2207 9.20077 64.6855 8.93278 66.2967 8.93278C68.0545 8.93278 69.6072 9.21565 70.9548 9.7814C72.3024 10.3471 73.401 11.1362 74.2506 12.1486L72.8004 14.2031C71.9801 13.2503 70.9987 12.5506 69.8562 12.1039C68.7429 11.6275 67.4979 11.3893 66.121 11.3893C65.1835 11.3893 64.29 11.5233 63.4404 11.7913C62.5908 12.0295 61.8877 12.4463 61.3311 13.0419C60.8038 13.6076 60.5401 14.3967 60.5401 15.409C60.5401 16.2428 60.7452 16.8978 61.1553 17.3743C61.5655 17.8209 62.1807 18.208 63.001 18.5355C63.8212 18.8333 64.8319 19.1608 66.0331 19.5181C67.7615 19.9945 69.2703 20.4858 70.5593 20.992C71.8483 21.4685 72.8444 22.0937 73.5475 22.8679C74.2506 23.6421 74.6021 24.7289 74.6021 26.1284C74.6021 28.302 73.7965 29.9993 72.1852 31.2201C70.5739 32.4409 68.45 33.0513 65.8134 33.0513Z" fill="#323232"/>
<path d="M89.4287 33.0513C87.7881 33.0513 86.2647 32.7386 84.8585 32.1134C83.4523 31.4583 82.2365 30.5799 81.2112 29.4782C80.1858 28.3467 79.3802 27.0514 78.7943 25.5924C78.2377 24.1334 77.9593 22.5702 77.9593 20.9027C77.9593 18.7291 78.4427 16.7341 79.4095 14.9177C80.4055 13.1014 81.7678 11.6573 83.4963 10.5853C85.2247 9.48364 87.1875 8.93278 89.3847 8.93278C91.6405 8.93278 93.6033 9.48364 95.2732 10.5853C96.9724 11.6871 98.3053 13.1461 99.2721 14.9624C100.239 16.749 100.722 18.7142 100.722 20.858C100.722 21.0963 100.722 21.3345 100.722 21.5727C100.722 21.7811 100.708 21.9449 100.678 22.064H81.0794C81.2258 23.7314 81.6799 25.2202 82.4416 26.5304C83.2326 27.8107 84.2433 28.838 85.4737 29.6122C86.7335 30.3566 88.0957 30.7288 89.5605 30.7288C91.0546 30.7288 92.4608 30.3417 93.7791 29.5675C95.1267 28.7933 96.0642 27.781 96.5915 26.5304L99.1842 27.245C98.7154 28.3467 97.9977 29.3442 97.0309 30.2375C96.0642 31.1307 94.9216 31.8305 93.6033 32.3367C92.3143 32.8131 90.9228 33.0513 89.4287 33.0513ZM80.9915 19.8754H97.9098C97.7926 18.1782 97.3385 16.6894 96.5476 15.409C95.7859 14.1287 94.7752 13.1312 93.5154 12.4166C92.285 11.6722 90.9228 11.3 89.4287 11.3C87.9346 11.3 86.5723 11.6722 85.3419 12.4166C84.1115 13.1312 83.1008 14.1436 82.3098 15.4537C81.5481 16.7341 81.1087 18.208 80.9915 19.8754Z" fill="#323232"/>
<path d="M111.866 5.87892C109.107 8.56141 107.34 12.1272 106.862 15.9774C106.383 19.8277 107.223 23.728 109.239 27.0235C111.256 30.3189 114.327 32.8089 117.936 34.0752C121.545 35.3415 125.473 35.3071 129.06 33.9777C129.248 33.9092 129.42 33.8036 129.567 33.6672C129.715 33.5307 129.834 33.366 129.918 33.1826C130.003 32.9991 130.05 32.8006 130.059 32.5983C130.068 32.3959 130.037 32.1939 129.968 32.0037C129.9 31.8135 129.795 31.639 129.66 31.4901C129.525 31.3412 129.363 31.2209 129.182 31.1361C129.001 31.0513 128.805 31.0037 128.606 30.996C128.407 30.9882 128.208 31.0206 128.022 31.0912C125.085 32.1828 121.869 32.2136 118.913 31.1784C115.957 30.1432 113.442 28.1051 111.791 25.4069C110.14 22.7086 109.453 19.5147 109.846 16.3623C110.239 13.2099 111.688 10.2912 113.95 8.097C116.211 5.90279 119.147 4.56691 122.263 4.31398C125.38 4.06105 128.487 4.9065 131.062 6.70817C133.638 8.50984 135.524 11.1578 136.404 14.2069C137.285 17.256 137.105 20.5201 135.896 23.4505C135.818 23.6369 135.777 23.837 135.775 24.0395C135.774 24.242 135.812 24.4428 135.886 24.6305C135.961 24.8181 136.072 24.9888 136.212 25.1328C136.352 25.2768 136.519 25.3913 136.703 25.4696C136.886 25.5479 137.084 25.5885 137.283 25.5891C137.482 25.5897 137.679 25.5503 137.864 25.4732C138.048 25.396 138.215 25.2826 138.356 25.1395C138.497 24.9963 138.609 24.8263 138.685 24.6392C140.158 21.0587 140.374 17.0722 139.297 13.3489C138.219 9.62574 135.915 6.39258 132.769 4.19235C129.624 1.99213 125.83 0.958816 122.023 1.26593C118.217 1.57304 114.631 3.20187 111.866 5.87892Z" fill="#006666"/>
<path d="M129.469 23.1409C128.554 22.7479 127.62 23.6548 127.963 24.6016L131.272 33.7143C131.555 34.4923 132.529 34.7216 133.119 34.1489L138.613 28.8186C139.203 28.246 139.023 27.2462 138.271 26.9233L129.469 23.1409Z" fill="#323232"/>
</svg>
