<svg width="35" height="35" viewBox="0 0 35 35" fill="none" xmlns="http://www.w3.org/2000/svg">
<circle cx="17.5" cy="17.5" r="17.5" fill="#639FA5"/>
<path d="M12.354 23.14C11.598 23.14 10.8653 23.0327 10.156 22.818C9.456 22.6033 8.90067 22.3187 8.49 21.964L9.12 20.55C9.52133 20.8673 10.0113 21.1287 10.59 21.334C11.178 21.53 11.766 21.628 12.354 21.628C13.082 21.628 13.6233 21.5113 13.978 21.278C14.342 21.0447 14.524 20.7367 14.524 20.354C14.524 20.074 14.4213 19.8453 14.216 19.668C14.02 19.4813 13.768 19.3367 13.46 19.234C13.152 19.1313 12.732 19.0147 12.2 18.884C11.4533 18.7067 10.8467 18.5293 10.38 18.352C9.92267 18.1747 9.526 17.8993 9.19 17.526C8.86333 17.1433 8.7 16.63 8.7 15.986C8.7 15.4447 8.84467 14.9547 9.134 14.516C9.43267 14.068 9.876 13.7133 10.464 13.452C11.0613 13.1907 11.7893 13.06 12.648 13.06C13.2453 13.06 13.8333 13.1347 14.412 13.284C14.9907 13.4333 15.49 13.648 15.91 13.928L15.336 15.342C14.9067 15.09 14.4587 14.8987 13.992 14.768C13.5253 14.6373 13.0727 14.572 12.634 14.572C11.9153 14.572 11.3787 14.6933 11.024 14.936C10.6787 15.1787 10.506 15.5007 10.506 15.902C10.506 16.182 10.604 16.4107 10.8 16.588C11.0053 16.7653 11.262 16.9053 11.57 17.008C11.878 17.1107 12.298 17.2273 12.83 17.358C13.558 17.526 14.1553 17.7033 14.622 17.89C15.0887 18.0673 15.4853 18.3427 15.812 18.716C16.148 19.0893 16.316 19.5933 16.316 20.228C16.316 20.7693 16.1667 21.2593 15.868 21.698C15.5787 22.1367 15.1353 22.4867 14.538 22.748C13.9407 23.0093 13.2127 23.14 12.354 23.14ZM25.0647 17.904C25.606 18.0813 26.0354 18.38 26.3527 18.8C26.67 19.2107 26.8287 19.724 26.8287 20.34C26.8287 21.1893 26.502 21.8473 25.8487 22.314C25.1954 22.7713 24.2434 23 22.9927 23H18.1207V13.2H22.7127C23.87 13.2 24.7614 13.4287 25.3867 13.886C26.012 14.334 26.3247 14.9547 26.3247 15.748C26.3247 16.2333 26.2127 16.6627 25.9887 17.036C25.7647 17.4093 25.4567 17.6987 25.0647 17.904ZM19.9407 14.628V17.33H22.5167C23.1514 17.33 23.6367 17.218 23.9727 16.994C24.318 16.7607 24.4907 16.4247 24.4907 15.986C24.4907 15.538 24.318 15.202 23.9727 14.978C23.6367 14.7447 23.1514 14.628 22.5167 14.628H19.9407ZM22.8807 21.572C24.29 21.572 24.9947 21.1007 24.9947 20.158C24.9947 19.2153 24.29 18.744 22.8807 18.744H19.9407V21.572H22.8807Z" fill="white"/>
</svg>
