<svg width="56" height="56" viewBox="0 0 56 56" fill="none" xmlns="http://www.w3.org/2000/svg">
<g clip-path="url(#clip0_1787_71918)">
<rect width="56" height="56" rx="28" fill="#2D8CFF"/>
<path fill-rule="evenodd" clip-rule="evenodd" d="M22.6945 23.55C21.4668 22.3224 19.8583 21.7081 18.2492 21.707H18.2413C16.6322 21.708 15.0237 22.3224 13.796 23.55C11.3388 26.0072 11.3388 29.9912 13.796 32.4484C16.2533 34.9056 20.2372 34.9056 22.6945 32.4484C25.1517 29.9912 25.1517 26.0073 22.6945 23.55ZM20.9147 30.6688C19.4403 32.1432 17.0501 32.1432 15.5757 30.6688C14.1013 29.1944 14.1013 26.8041 15.5757 25.3298C17.0501 23.8554 19.4403 23.8554 20.9147 25.3298C22.3891 26.8041 22.3891 29.1944 20.9147 30.6688Z" fill="white"/>
<path fill-rule="evenodd" clip-rule="evenodd" d="M35.9093 23.55C34.6817 22.3224 33.0731 21.7081 31.4561 21.707C29.8472 21.708 28.2385 22.3224 27.0109 23.55C24.5537 26.0072 24.5537 29.9912 27.0109 32.4484C29.4681 34.9056 33.4521 34.9056 35.9093 32.4484C38.3665 29.9912 38.3665 26.0073 35.9093 23.55ZM34.1296 30.6688C32.6552 32.1432 30.2649 32.1432 28.7905 30.6688C27.3161 29.1944 27.3161 26.8041 28.7905 25.3298C30.2649 23.8554 32.6553 23.8554 34.1296 25.3298C35.6039 26.8041 35.6039 29.1944 34.1296 30.6688Z" fill="white"/>
<path fill-rule="evenodd" clip-rule="evenodd" d="M2.51683 34.2598L3.14606 34.2913H12.5843L12.5528 33.6627C12.4685 32.6267 11.735 31.8708 10.6965 31.806L10.0673 31.7745H4.40453L11.9551 24.2239L11.9236 23.5954C11.8738 22.5512 11.1098 21.7935 10.0674 21.7384L9.4383 21.7076L0 21.707L0.0315 22.3356C0.112984 23.3592 0.857719 24.133 1.88694 24.1924L2.51694 24.2239H8.17983L0.629234 31.7745L0.660734 32.403C0.72275 33.4403 1.47186 34.191 2.51683 34.2598Z" fill="white"/>
<path fill-rule="evenodd" clip-rule="evenodd" d="M45.5942 25.478C45.8098 25.8491 45.8774 26.2677 45.9018 26.7404L45.9333 27.3696V31.7741L45.9648 32.4027C46.027 33.4317 46.7835 34.1937 47.8215 34.2596L48.4501 34.2911V27.3697L48.4816 26.7405C48.5061 26.2738 48.5746 25.8456 48.7918 25.4735C49.2282 24.7259 50.0389 24.2236 50.967 24.2236C51.8983 24.2236 52.7115 24.7295 53.1468 25.4816C53.3612 25.8519 53.4275 26.2795 53.4524 26.7406L53.4839 27.3692V31.7743L53.5154 32.4029C53.5807 33.4379 54.3325 34.1994 55.3721 34.2598L56.0007 34.2913V27.3756V26.7407C56.0007 23.9607 53.747 21.707 50.9671 21.707C49.4636 21.707 48.1141 22.3661 47.1918 23.4112C46.2694 22.3661 44.9199 21.707 43.4165 21.707C42.3719 21.707 41.4017 22.0252 40.5974 22.5699C40.1079 22.0252 39.012 21.707 38.3828 21.707V34.2913L39.012 34.2598C40.0629 34.1907 40.8271 33.4484 40.8682 32.4038L40.8997 31.7743V27.3698L40.9312 26.7406C40.9578 26.2673 41.0237 25.8476 41.24 25.4761C41.6761 24.7272 42.4875 24.2237 43.4166 24.2237C44.3463 24.2234 45.1585 24.7279 45.5942 25.478Z" fill="white"/>
</g>
<defs>
<clipPath id="clip0_1787_71918">
<rect width="56" height="56" rx="28" fill="white"/>
</clipPath>
</defs>
</svg>
