<svg width="56" height="56" viewBox="0 0 56 56" fill="none" xmlns="http://www.w3.org/2000/svg">
<rect width="56" height="56" rx="16" fill="#EBF3F3"/>
<path d="M41.1529 15.0859C40.7114 14.5666 40.0674 14.2689 39.3862 14.2689H37.1504V13.5696C37.1504 12.7041 36.4462 12 35.5809 12H20.4188C19.5533 12 18.8493 12.7041 18.8493 13.5695V14.2689H16.6133C15.9321 14.2689 15.2881 14.5666 14.8466 15.0858C14.4096 15.5996 14.2207 16.2745 14.3285 16.9373C14.916 20.5498 17.1895 23.7413 20.416 25.4918C20.7108 26.2007 21.0447 26.872 21.4165 27.4975C22.6042 29.496 24.0806 30.8771 25.7057 31.545C25.8704 33.2103 24.7623 34.7879 23.0936 35.1638C23.09 35.1646 23.0875 35.1659 23.084 35.1667C22.7583 35.2445 22.5159 35.5367 22.5159 35.8862V39.2839H21.1418C19.9166 39.2839 18.92 40.2806 18.92 41.5057V43.2594C18.92 43.6684 19.2515 44 19.6606 44H36.4098C36.8189 44 37.1504 43.6684 37.1504 43.2594V41.5057C37.1504 40.2806 36.1537 39.2839 34.9286 39.2839H33.5544V35.8863C33.5544 35.5361 33.311 35.2434 32.9845 35.1663C32.9814 35.1655 32.9785 35.1645 32.9754 35.1638C31.294 34.7854 30.1839 33.1919 30.3659 31.5142C31.9627 30.8354 33.4132 29.4666 34.5834 27.4977C34.9552 26.8721 35.289 26.2007 35.5839 25.4917C38.8102 23.7411 41.0836 20.5497 41.6711 16.9373C41.7789 16.2745 41.59 15.5997 41.1529 15.0859ZM15.7905 16.6995C15.752 16.4628 15.8174 16.2305 15.9748 16.0454C16.1345 15.8576 16.3671 15.75 16.6132 15.75H18.8493V17.1126C18.8493 19.2493 19.122 21.3189 19.6388 23.2116C17.6078 21.6066 16.2094 19.2752 15.7905 16.6995ZM34.9286 40.7652C35.337 40.7652 35.6692 41.0975 35.6692 41.5059V42.5189H20.4011V41.5059C20.4011 41.0975 20.7334 40.7652 21.1418 40.7652H34.9286ZM32.0731 36.6269V39.284H23.9973V36.6269H32.0731ZM25.9396 35.1457C26.1227 34.9442 26.29 34.7258 26.4397 34.492C26.9333 33.7208 27.1923 32.8447 27.204 31.9499C27.467 31.9857 27.7325 32.0049 28.0003 32.0049C28.2916 32.0049 28.5802 31.9825 28.866 31.9401C28.8829 33.1425 29.3509 34.2807 30.1379 35.1457H25.9396V35.1457ZM35.6691 17.1127C35.6691 20.7614 34.8312 24.1808 33.3099 26.7408C31.8604 29.1802 29.9747 30.5236 28.0002 30.5236C26.0253 30.5236 24.1395 29.1802 22.6898 26.7409C21.1684 24.1808 20.3305 20.7615 20.3305 17.1128V13.5695C20.3305 13.5208 20.3701 13.4812 20.4188 13.4812H35.5807C35.6295 13.4812 35.6691 13.5208 35.6691 13.5695V17.1127ZM40.2091 16.6995C39.7902 19.275 38.3919 21.6064 36.361 23.2115C36.8777 21.3188 37.1504 19.2493 37.1504 17.1127V15.7501H39.3862C39.6324 15.7501 39.865 15.8578 40.0246 16.0454C40.182 16.2305 40.2475 16.4628 40.2091 16.6995Z" fill="#004F4F"/>
<path d="M32.4957 19.6036C32.4085 19.3356 32.1767 19.1402 31.8978 19.0996L29.6629 18.7749L28.6635 16.7497C28.5387 16.497 28.2812 16.3369 27.9994 16.3369C27.7174 16.3369 27.46 16.497 27.3352 16.7497L26.3358 18.7749L24.1009 19.0996C23.8219 19.1401 23.5902 19.3355 23.503 19.6037C23.416 19.8719 23.4886 20.1661 23.6905 20.3629L25.3077 21.9392L24.9259 24.1651C24.8782 24.4429 24.9924 24.7237 25.2205 24.8894C25.4485 25.0551 25.7509 25.0769 26.0004 24.9458L27.9994 23.895L29.9982 24.9458C30.1066 25.0027 30.2249 25.0308 30.3427 25.0308C30.4962 25.0308 30.6491 24.9831 30.7781 24.8894C31.0062 24.7236 31.1204 24.4429 31.0727 24.165L30.6909 21.9392L32.3081 20.3629C32.5101 20.1661 32.5827 19.8718 32.4957 19.6036ZM29.3784 21.1503C29.2038 21.3204 29.1241 21.5655 29.1654 21.8059L29.3592 22.9365L28.3439 22.4027C28.2361 22.3459 28.1177 22.3177 27.9993 22.3177C27.8809 22.3177 27.7625 22.3461 27.6547 22.4027L26.6394 22.9365L26.8332 21.8059C26.8745 21.5656 26.7948 21.3205 26.6202 21.1503L25.7989 20.3497L26.934 20.1847C27.1752 20.1497 27.3838 19.9981 27.4917 19.7795L27.9994 18.7509L28.507 19.7795C28.6149 19.9981 28.8234 20.1496 29.0646 20.1847L30.1997 20.3497L29.3784 21.1503Z" fill="#004F4F"/>
</svg>
