<svg width="32" height="32" viewBox="0 0 32 32" fill="none" xmlns="http://www.w3.org/2000/svg">
<path d="M20 5C20.5523 5 21 4.55228 21 4C21 3.44772 20.5523 3 20 3H15.9397C13.4909 2.99999 11.5715 2.99999 10.0486 3.16497C8.49459 3.33335 7.23541 3.68309 6.16032 4.4642C5.50945 4.93708 4.93708 5.50945 4.4642 6.16031C3.68309 7.23541 3.33335 8.49459 3.16497 10.0486C2.99999 11.5715 2.99999 13.4909 3 15.9397V16.0603C2.99999 18.5091 2.99999 20.4285 3.16497 21.9513C3.33335 23.5055 3.68309 24.7645 4.4642 25.8397C4.93708 26.4905 5.50945 27.0629 6.16031 27.5357C7.23541 28.3169 8.49459 28.6667 10.0486 28.8351C11.5715 29 13.4909 29 15.9396 29H16.0604C18.5091 29 20.4285 29 21.9513 28.8351C23.5055 28.6667 24.7645 28.3169 25.8397 27.5357C26.4905 27.0629 27.0629 26.4905 27.5357 25.8397C28.3169 24.7645 28.6667 23.5055 28.8351 21.9513C29 20.4285 29 18.5091 29 16.0604V12C29 11.4477 28.5523 11 28 11C27.4477 11 27 11.4477 27 12V16C27 18.5221 26.9987 20.3333 26.8467 21.736C26.6967 23.1199 26.4099 23.9868 25.9177 24.6641C25.5683 25.1452 25.1452 25.5683 24.6641 25.9177C23.9868 26.4099 23.1199 26.6967 21.736 26.8467C20.3333 26.9987 18.5221 27 16 27C13.4779 27 11.6667 26.9987 10.2641 26.8467C8.88017 26.6967 8.01323 26.4099 7.33588 25.9177C6.85481 25.5683 6.43176 25.1452 6.08224 24.6641C5.59012 23.9868 5.30327 23.1199 5.15333 21.736C5.00137 20.3333 5 18.5221 5 16C5 13.4779 5.00137 11.6667 5.15333 10.2641C5.30327 8.88017 5.59012 8.01323 6.08224 7.33588C6.43176 6.85481 6.85481 6.43176 7.33588 6.08224C8.01323 5.59012 8.88017 5.30327 10.2641 5.15333C11.6667 5.00137 13.4779 5 16 5H20Z" fill="#395C5F"/>
<path d="M8.43836 19.3692C8.19513 19.8651 8.39992 20.4643 8.89576 20.7075C9.3916 20.9507 9.99073 20.7459 10.234 20.25L12.1811 16.2807C12.7846 15.0503 14.5584 15.1104 15.0772 16.3788C16.2495 19.2442 20.2567 19.3799 21.6202 16.6004L23.5674 12.6311C23.8106 12.1352 23.6058 11.5361 23.1099 11.2929C22.614 11.0496 22.015 11.2544 21.7716 11.7503L19.8246 15.7196C19.2211 16.95 17.4472 16.8899 16.9284 15.6215C15.7562 12.7561 11.7489 12.6204 10.3855 15.3999L8.43836 19.3692Z" fill="#395C5F"/>
<path fill-rule="evenodd" clip-rule="evenodd" d="M23.3359 5.33333C23.3359 7.17428 24.8283 8.66667 26.6693 8.66667C28.5102 8.66667 30.0026 7.17428 30.0026 5.33333C30.0026 3.49239 28.5102 2 26.6693 2C24.8283 2 23.3359 3.49239 23.3359 5.33333ZM25.3359 5.33333C25.3359 6.06971 25.9329 6.66667 26.6693 6.66667C27.4057 6.66667 28.0026 6.06971 28.0026 5.33333C28.0026 4.59696 27.4057 4 26.6693 4C25.9329 4 25.3359 4.59696 25.3359 5.33333Z" fill="#395C5F"/>
</svg>
