<svg width="56" height="57" viewBox="0 0 56 57" fill="none" xmlns="http://www.w3.org/2000/svg">
<rect y="0.291016" width="56" height="56" rx="16" fill="#D5ECEF"/>
<path d="M34.7189 29.7896C32.4658 29.7896 30.6328 27.9077 30.6328 25.5944C30.6328 23.2811 32.4667 21.3992 34.7189 21.3992C36.9711 21.3992 38.8053 23.2811 38.8053 25.5944C38.8053 27.9077 36.973 29.7896 34.7189 29.7896ZM34.7189 22.4232C33.0306 22.4232 31.6568 23.8459 31.6568 25.5944C31.6568 27.3429 33.0306 28.7656 34.7189 28.7656C36.4072 28.7656 37.7813 27.3429 37.7813 25.5944C37.7813 23.8459 36.4085 22.4232 34.7189 22.4232Z" fill="#395C5F"/>
<path d="M34.3085 27.3201C34.1727 27.3204 34.0424 27.2668 33.9462 27.171L32.7594 25.9841C32.7118 25.9366 32.6741 25.8801 32.6484 25.818C32.6226 25.7559 32.6094 25.6893 32.6094 25.6221C32.6094 25.5548 32.6226 25.4882 32.6484 25.4261C32.6741 25.364 32.7118 25.3075 32.7594 25.26C32.8069 25.2124 32.8634 25.1747 32.9255 25.149C32.9876 25.1233 33.0542 25.11 33.1214 25.11C33.1887 25.11 33.2553 25.1233 33.3174 25.149C33.3795 25.1747 33.436 25.2124 33.4835 25.26L34.3085 26.083L35.9578 24.4334C36.0538 24.3374 36.184 24.2834 36.3198 24.2834C36.4556 24.2834 36.5859 24.3374 36.6819 24.4334C36.7779 24.5295 36.8319 24.6597 36.8319 24.7955C36.8319 24.9313 36.7779 25.0616 36.6819 25.1576L34.6704 27.171C34.5743 27.2667 34.4441 27.3203 34.3085 27.3201Z" fill="#395C5F"/>
<path d="M32.2688 34.3726H20.1917C20.0559 34.3726 19.9257 34.3187 19.8296 34.2226C19.7336 34.1266 19.6797 33.9964 19.6797 33.8606C19.6797 33.7248 19.7336 33.5946 19.8296 33.4986C19.9257 33.4025 20.0559 33.3486 20.1917 33.3486H32.2688C32.4046 33.3486 32.5348 33.4025 32.6308 33.4986C32.7269 33.5946 32.7808 33.7248 32.7808 33.8606C32.7808 33.9964 32.7269 34.1266 32.6308 34.2226C32.5348 34.3187 32.4046 34.3726 32.2688 34.3726Z" fill="#395C5F"/>
<path d="M32.2688 30.7592H20.1917C20.0559 30.7592 19.9257 30.7052 19.8296 30.6092C19.7336 30.5132 19.6797 30.383 19.6797 30.2472C19.6797 30.1114 19.7336 29.9811 19.8296 29.8851C19.9257 29.7891 20.0559 29.7352 20.1917 29.7352H32.2688C32.4046 29.7352 32.5348 29.7891 32.6308 29.8851C32.7269 29.9811 32.7808 30.1114 32.7808 30.2472C32.7808 30.383 32.7269 30.5132 32.6308 30.6092C32.5348 30.7052 32.4046 30.7592 32.2688 30.7592Z" fill="#395C5F"/>
<path d="M32.2688 37.987H20.1917C20.0559 37.987 19.9257 37.9331 19.8296 37.8371C19.7336 37.741 19.6797 37.6108 19.6797 37.475C19.6797 37.3392 19.7336 37.209 19.8296 37.113C19.9257 37.017 20.0559 36.963 20.1917 36.963H32.2688C32.4046 36.963 32.5348 37.017 32.6308 37.113C32.7269 37.209 32.7808 37.3392 32.7808 37.475C32.7808 37.6108 32.7269 37.741 32.6308 37.8371C32.5348 37.9331 32.4046 37.987 32.2688 37.987Z" fill="#395C5F"/>
<path d="M28.8897 27.1461H20.1565C20.0207 27.1461 19.8905 27.0921 19.7945 26.9961C19.6985 26.9001 19.6445 26.7699 19.6445 26.6341C19.6445 26.4983 19.6985 26.368 19.7945 26.272C19.8905 26.176 20.0207 26.1221 20.1565 26.1221H28.8897C29.0254 26.1221 29.1557 26.176 29.2517 26.272C29.3477 26.368 29.4017 26.4983 29.4017 26.6341C29.4017 26.7699 29.3477 26.9001 29.2517 26.9961C29.1557 27.0921 29.0254 27.1461 28.8897 27.1461Z" fill="#395C5F"/>
<path d="M24.208 23.5329H20.1917C20.0559 23.5329 19.9257 23.479 19.8296 23.383C19.7336 23.287 19.6797 23.1567 19.6797 23.0209C19.6797 22.8852 19.7336 22.7549 19.8296 22.6589C19.9257 22.5629 20.0559 22.5089 20.1917 22.5089H24.208C24.3438 22.5089 24.474 22.5629 24.57 22.6589C24.6661 22.7549 24.72 22.8852 24.72 23.0209C24.72 23.1567 24.6661 23.287 24.57 23.383C24.474 23.479 24.3438 23.5329 24.208 23.5329Z" fill="#395C5F"/>
<path d="M33.666 41.603H18.7575C18.3423 41.6025 17.9442 41.4374 17.6507 41.1438C17.3571 40.8502 17.1919 40.4521 17.1914 40.0369V20.4577C17.1919 20.0425 17.3571 19.6445 17.6507 19.3509C17.9442 19.0573 18.3423 18.8922 18.7575 18.8917H22.1284C22.2642 18.8917 22.3944 18.9456 22.4904 19.0416C22.5864 19.1376 22.6404 19.2679 22.6404 19.4037C22.6404 19.5395 22.5864 19.6697 22.4904 19.7657C22.3944 19.8617 22.2642 19.9157 22.1284 19.9157H18.7575C18.6139 19.9162 18.4763 19.9734 18.3747 20.075C18.2732 20.1765 18.2159 20.3141 18.2154 20.4577V40.0369C18.2159 40.1806 18.2732 40.3181 18.3747 40.4197C18.4763 40.5212 18.6139 40.5785 18.7575 40.579H33.666C33.8094 40.5782 33.9466 40.5208 34.0479 40.4192C34.1492 40.3177 34.2063 40.1803 34.2068 40.0369V29.2776C34.2068 29.1418 34.2607 29.0116 34.3567 28.9155C34.4527 28.8195 34.583 28.7656 34.7188 28.7656C34.8546 28.7656 34.9848 28.8195 35.0808 28.9155C35.1768 29.0116 35.2308 29.1418 35.2308 29.2776V40.0369C35.2303 40.4519 35.0653 40.8498 34.772 41.1433C34.4787 41.4369 34.0809 41.6022 33.666 41.603Z" fill="#395C5F"/>
<path d="M34.7208 22.4232C34.585 22.4232 34.4548 22.3692 34.3588 22.2732C34.2628 22.1772 34.2088 22.047 34.2088 21.9112V20.4577C34.2083 20.3142 34.1511 20.1766 34.0496 20.0751C33.9481 19.9736 33.8106 19.9163 33.6671 19.9157H30.2972C30.1614 19.9157 30.0311 19.8617 29.9351 19.7657C29.8391 19.6697 29.7852 19.5395 29.7852 19.4037C29.7852 19.2679 29.8391 19.1376 29.9351 19.0416C30.0311 18.9456 30.1614 18.8917 30.2972 18.8917H33.668C34.083 18.8925 34.4807 19.0578 34.774 19.3514C35.0673 19.6449 35.2323 20.0428 35.2328 20.4577V21.9112C35.2328 22.047 35.1789 22.1772 35.0829 22.2732C34.9869 22.3692 34.8566 22.4232 34.7208 22.4232Z" fill="#395C5F"/>
<path d="M30.2956 21.2961H22.1292C21.9934 21.2961 21.8632 21.2422 21.7671 21.1462C21.6711 21.0501 21.6172 20.9199 21.6172 20.7841V18.5067C21.6174 18.2718 21.7109 18.0465 21.877 17.8804C22.0431 17.7143 22.2683 17.6209 22.5033 17.6206H29.9218C30.1567 17.6209 30.3818 17.7144 30.5479 17.8805C30.7139 18.0466 30.8073 18.2718 30.8076 18.5067V20.7841C30.8076 20.9199 30.7536 21.0501 30.6576 21.1462C30.5616 21.2422 30.4314 21.2961 30.2956 21.2961ZM22.6412 20.2721H29.7836V18.6446H22.6412V20.2721Z" fill="#395C5F"/>
<path d="M28.4038 18.6545H24.0198C23.884 18.6545 23.7538 18.6006 23.6578 18.5046C23.5618 18.4085 23.5078 18.2783 23.5078 18.1425V17.683C23.5078 16.9659 23.7927 16.2781 24.2998 15.771C24.8069 15.2639 25.4947 14.979 26.2118 14.979C26.929 14.979 27.6167 15.2639 28.1238 15.771C28.6309 16.2781 28.9158 16.9659 28.9158 17.683V18.1425C28.9158 18.2783 28.8619 18.4085 28.7659 18.5046C28.6698 18.6006 28.5396 18.6545 28.4038 18.6545ZM24.5318 17.6305H27.8909C27.8761 17.195 27.6928 16.7823 27.3795 16.4795C27.0662 16.1766 26.6475 16.0073 26.2118 16.0073C25.7761 16.0073 25.3574 16.1766 25.0441 16.4795C24.7309 16.7823 24.5475 17.195 24.5328 17.6305H24.5318Z" fill="#395C5F"/>
</svg>
