<svg width="67" height="67" viewBox="0 0 67 67" fill="none" xmlns="http://www.w3.org/2000/svg">
<rect width="67" height="67" rx="16" fill="#00A94B" fill-opacity="0.1"/>
<g clip-path="url(#clip0_9005_79532)">
<path d="M38.6676 28.3125C37.5306 28.3125 36.612 27.3908 36.612 26.25C36.612 25.1092 37.5306 24.1875 38.6676 24.1875H48.9454C50.0823 24.1875 51.0009 25.1092 51.0009 26.25V36.5625C51.0009 37.7033 50.0823 38.625 48.9454 38.625C47.8084 38.625 46.8898 37.7033 46.8898 36.5625V31.2322L36.0082 42.1441C35.2053 42.9498 33.9013 42.9498 33.0983 42.1441L26.3342 35.3572L17.5082 44.2066C16.7053 45.0123 15.4013 45.0123 14.5983 44.2066C13.7954 43.401 13.7954 42.0926 14.5983 41.2869L24.8761 30.9744C25.679 30.1688 26.983 30.1688 27.786 30.9744L34.5565 37.7678L43.9799 28.3125H38.6676Z" fill="#00A94B"/>
</g>
<defs>
<clipPath id="clip0_9005_79532">
<rect width="37" height="33" fill="white" transform="translate(14 18)"/>
</clipPath>
</defs>
</svg>
