<svg width="84" height="84" viewBox="0 0 84 84" fill="none" xmlns="http://www.w3.org/2000/svg">
<path d="M36.1654 49.4997L27.1029 40.4372C26.339 39.6733 25.4015 39.2913 24.2904 39.2913C23.1793 39.2913 22.207 39.708 21.3737 40.5413C20.6098 41.3052 20.2279 42.2775 20.2279 43.458C20.2279 44.6386 20.6098 45.6108 21.3737 46.3747L33.2487 58.2497C34.0126 59.0136 34.9848 59.3955 36.1654 59.3955C37.3459 59.3955 38.3181 59.0136 39.082 58.2497L62.7279 34.6038C63.4918 33.84 63.8737 32.9025 63.8737 31.7913C63.8737 30.6802 63.457 29.708 62.6237 28.8747C61.8598 28.1108 60.8876 27.7288 59.707 27.7288C58.5265 27.7288 57.5543 28.1108 56.7904 28.8747L36.1654 49.4997ZM41.9987 83.6664C36.2348 83.6664 30.8181 82.5719 25.7487 80.383C20.6793 78.1969 16.2695 75.2289 12.5195 71.4789C8.76953 67.7289 5.80148 63.3191 3.61537 58.2497C1.42648 53.1802 0.332031 47.7636 0.332031 41.9997C0.332031 36.2358 1.42648 30.8191 3.61537 25.7497C5.80148 20.6802 8.76953 16.2705 12.5195 12.5205C16.2695 8.77051 20.6793 5.80106 25.7487 3.61217C30.8181 1.42606 36.2348 0.333008 41.9987 0.333008C47.7626 0.333008 53.1793 1.42606 58.2487 3.61217C63.3181 5.80106 67.7279 8.77051 71.4779 12.5205C75.2279 16.2705 78.1959 20.6802 80.382 25.7497C82.5709 30.8191 83.6654 36.2358 83.6654 41.9997C83.6654 47.7636 82.5709 53.1802 80.382 58.2497C78.1959 63.3191 75.2279 67.7289 71.4779 71.4789C67.7279 75.2289 63.3181 78.1969 58.2487 80.383C53.1793 82.5719 47.7626 83.6664 41.9987 83.6664Z" fill="#F8A046"/>
</svg>
