<svg width="29" height="29" viewBox="0 0 29 29" fill="none" xmlns="http://www.w3.org/2000/svg">
<path d="M21.3086 10.4668C21.5078 10.6772 21.6154 10.9581 21.6077 11.2477C21.6 11.5374 21.4777 11.8122 21.2676 12.0117L13.2559 19.668C13.0487 19.8628 12.7746 19.9705 12.4902 19.9688C12.2101 19.9698 11.9404 19.862 11.7383 19.668L7.73243 15.8398C7.62132 15.7429 7.53096 15.6245 7.46678 15.4918C7.4026 15.359 7.36592 15.2146 7.35895 15.0674C7.35198 14.9201 7.37487 14.7729 7.42623 14.6347C7.47759 14.4965 7.55637 14.3701 7.65783 14.2631C7.75929 14.1561 7.88133 14.0707 8.01663 14.0121C8.15193 13.9535 8.29768 13.9228 8.44513 13.9219C8.59257 13.9211 8.73867 13.9501 8.87464 14.0071C9.01061 14.0641 9.13364 14.1481 9.23633 14.2539L12.4902 17.3574L19.7637 10.4258C19.9741 10.2266 20.255 10.119 20.5446 10.1267C20.8343 10.1344 21.109 10.2567 21.3086 10.4668ZM28.7188 14.5C28.7188 17.3122 27.8848 20.0613 26.3225 22.3995C24.7601 24.7378 22.5394 26.5602 19.9413 27.6364C17.3431 28.7126 14.4842 28.9942 11.7261 28.4455C8.9679 27.8969 6.43436 26.5427 4.44583 24.5542C2.4573 22.5656 1.1031 20.0321 0.554466 17.2739C0.00583208 14.5158 0.287411 11.6569 1.36359 9.05872C2.43978 6.46058 4.26223 4.23992 6.60049 2.67754C8.93875 1.11517 11.6878 0.28125 14.5 0.28125C18.2688 0.288477 21.8812 1.78884 24.5462 4.45381C27.2112 7.11878 28.7115 10.7312 28.7188 14.5ZM26.5313 14.5C26.5313 12.1204 25.8256 9.79432 24.5036 7.8158C23.1816 5.83727 21.3026 4.29519 19.1042 3.38457C16.9057 2.47396 14.4867 2.2357 12.1528 2.69993C9.81899 3.16416 7.67523 4.31002 5.99263 5.99262C4.31003 7.67522 3.16416 9.81899 2.69993 12.1528C2.2357 14.4867 2.47396 16.9057 3.38458 19.1042C4.2952 21.3026 5.83727 23.1816 7.8158 24.5036C9.79433 25.8256 12.1205 26.5312 14.5 26.5312C17.6898 26.5276 20.7479 25.2589 23.0034 23.0034C25.2589 20.7479 26.5276 17.6898 26.5313 14.5Z" fill="#006666"/>
</svg>
