<svg width="31" height="31" viewBox="0 0 31 31" fill="none" xmlns="http://www.w3.org/2000/svg">
<path fill-rule="evenodd" clip-rule="evenodd" d="M0.046875 15.4996C0.046875 11.401 1.67502 7.47029 4.57315 4.57217C7.47127 1.67405 11.402 0.0458984 15.5005 0.0458984C19.5991 0.0458984 23.5298 1.67405 26.4279 4.57217C29.326 7.47029 30.9542 11.401 30.9542 15.4996C30.9542 19.5981 29.326 23.5288 26.4279 26.4269C23.5298 29.3251 19.5991 30.9532 15.5005 30.9532C11.402 30.9532 7.47127 29.3251 4.57315 26.4269C1.67502 23.5288 0.046875 19.5981 0.046875 15.4996ZM15.5005 2.26256C11.9899 2.26256 8.62299 3.65717 6.14057 6.13959C3.65815 8.62201 2.26354 11.9889 2.26354 15.4996C2.26354 19.0102 3.65815 22.3771 6.14057 24.8595C8.62299 27.3419 11.9899 28.7366 15.5005 28.7366C19.0112 28.7366 22.3781 27.3419 24.8605 24.8595C27.3429 22.3771 28.7375 19.0102 28.7375 15.4996C28.7375 11.9889 27.3429 8.62201 24.8605 6.13959C22.3781 3.65717 19.0112 2.26256 15.5005 2.26256ZM20.9932 10.0092C21.2119 10.228 21.3348 10.5247 21.3348 10.8341C21.3348 11.1434 21.2119 11.4401 20.9932 11.6589L17.1502 15.4996L20.9932 19.3402C21.2123 19.5593 21.3353 19.8564 21.3353 20.1662C21.3353 20.476 21.2123 20.7732 20.9932 20.9922C20.7741 21.2113 20.477 21.3344 20.1672 21.3344C19.8574 21.3344 19.5603 21.2113 19.3412 20.9922L15.5005 17.1492L11.6599 20.9922C11.5514 21.1007 11.4226 21.1867 11.2809 21.2454C11.1392 21.3042 10.9873 21.3344 10.8339 21.3344C10.6805 21.3344 10.5286 21.3042 10.3868 21.2454C10.2451 21.1867 10.1163 21.1007 10.0079 20.9922C9.8994 20.8838 9.81336 20.755 9.75465 20.6133C9.69595 20.4715 9.66573 20.3196 9.66573 20.1662C9.66573 20.0128 9.69595 19.8609 9.75465 19.7192C9.81336 19.5775 9.8994 19.4487 10.0079 19.3402L13.8509 15.4996L10.0079 11.6589C9.7888 11.4398 9.66573 11.1427 9.66573 10.8329C9.66573 10.5231 9.7888 10.226 10.0079 10.0069C10.2269 9.78783 10.5241 9.66475 10.8339 9.66475C11.1437 9.66475 11.4408 9.78783 11.6599 10.0069L15.5005 13.8499L19.3412 10.0069C19.4496 9.89825 19.5783 9.81205 19.7201 9.75323C19.8618 9.69442 20.0137 9.66414 20.1672 9.66414C20.3207 9.66414 20.4726 9.69442 20.6143 9.75323C20.7561 9.81205 20.8848 9.90058 20.9932 10.0092Z" fill="#EF4F5F"/>
</svg>
