<svg width="60" height="60" viewBox="0 0 60 60" fill="none" xmlns="http://www.w3.org/2000/svg">
<rect width="60" height="60" rx="15" fill="#E4E8E8"/>
<path d="M30.9584 16.375C27.4774 16.375 24.139 17.7578 21.6776 20.2192C19.2162 22.6806 17.8334 26.019 17.8334 29.5H13.4584L19.1313 35.1729L19.2334 35.3771L25.125 29.5H20.75C20.75 23.8562 25.3146 19.2917 30.9584 19.2917C36.6021 19.2917 41.1667 23.8562 41.1667 29.5C41.1667 35.1437 36.6021 39.7083 30.9584 39.7083C28.1438 39.7083 25.5917 38.5562 23.7542 36.7042L21.6834 38.775C22.8988 39.9971 24.3441 40.9665 25.936 41.6273C27.5278 42.2881 29.2348 42.6271 30.9584 42.625C34.4393 42.625 37.7777 41.2422 40.2392 38.7808C42.7006 36.3194 44.0834 32.981 44.0834 29.5C44.0834 26.019 42.7006 22.6806 40.2392 20.2192C37.7777 17.7578 34.4393 16.375 30.9584 16.375ZM29.5 23.6667V30.9583L35.698 34.6333L36.8209 32.7667L31.6875 29.7187V23.6667H29.5Z" fill="#006666"/>
</svg>
