<svg width="56" height="56" viewBox="0 0 56 56" fill="none" xmlns="http://www.w3.org/2000/svg">
<rect width="56" height="56" rx="16" fill="#F8CBCE"/>
<path d="M41.9655 19.0613L38.6067 15.7025C38.1185 15.2143 37.3271 15.2143 36.839 15.7025C36.3508 16.1907 36.3508 16.9821 36.839 17.4703L37.6345 18.2657L36.0031 19.8971C33.8795 18.1255 31.2973 17.056 28.543 16.8071V14.5H29.668C30.3583 14.5 30.918 13.9404 30.918 13.25C30.918 12.5596 30.3583 12 29.668 12H24.918C24.2276 12 23.668 12.5596 23.668 13.25C23.668 13.9404 24.2276 14.5 24.918 14.5H26.043V16.8071C19.1852 17.4268 13.668 23.1855 13.668 30.375C13.668 37.9051 19.7618 44 27.293 44C34.8231 44 40.918 37.9062 40.918 30.375C40.918 27.1556 39.8082 24.1071 37.7708 21.6649L39.4022 20.0335L40.1977 20.829C40.6858 21.3171 41.4773 21.3172 41.9655 20.829C42.4536 20.3409 42.4536 19.5494 41.9655 19.0613ZM27.293 41.5C21.1587 41.5 16.168 36.5093 16.168 30.375C16.168 24.2407 21.1587 19.25 27.293 19.25C33.4273 19.25 38.418 24.2407 38.418 30.375C38.418 36.5093 33.4273 41.5 27.293 41.5ZM33.7882 30.375C33.7882 31.0654 33.2285 31.625 32.5382 31.625H27.293C26.6027 31.625 26.043 31.0654 26.043 30.375V23.0203C26.043 22.3299 26.6027 21.7703 27.293 21.7703C27.9834 21.7703 28.543 22.3299 28.543 23.0203V29.125H32.5382C33.2285 29.125 33.7882 29.6846 33.7882 30.375Z" fill="#B93D49"/>
</svg>
