<?xml version="1.0" encoding="UTF-8"?>
<svg width="17px" height="17px" viewBox="0 0 17 17" version="1.1" xmlns="http://www.w3.org/2000/svg" xmlns:xlink="http://www.w3.org/1999/xlink">
    <title>download</title>
    <g id="Page-1" stroke="none" stroke-width="1" fill="none" fill-rule="evenodd">
        <g id="download" transform="translate(0.000214, 0.987687)" fill="#FFFFFF" fill-rule="nonzero">
            <path d="M0.292786454,0.305312993 C0.683286305,-0.085068945 1.3162866,-0.085068945 1.70678645,0.305312993 L7.99978645,6.59831299 L14.2927865,0.305312993 C14.5438609,0.0453564089 14.9156643,-0.0588996039 15.2652938,0.0326158368 C15.6149232,0.124131277 15.8879682,0.397176238 15.9794836,0.746805669 C16.0709991,1.0964351 15.966743,1.46823852 15.7067865,1.71931299 L9.41378645,8.01231299 L15.7067865,14.305313 C16.0857587,14.6976919 16.0803388,15.3213978 15.694605,15.7071316 C15.3088712,16.0928654 14.6851653,16.0982852 14.2927865,15.719313 L7.99978645,9.42631299 L1.70678645,15.719313 C1.31440757,16.0982852 0.690701677,16.0928654 0.304967878,15.7071316 C-0.0807659201,15.3213978 -0.0861857558,14.6976919 0.292786454,14.305313 L6.58578645,8.01231299 L0.292786454,1.71931299 C-0.0975954846,1.32881314 -0.0975954846,0.695812845 0.292786454,0.305312993 Z" id="Path"></path>
        </g>
    </g>
</svg>