<svg width="56" height="56" viewBox="0 0 56 56" fill="none" xmlns="http://www.w3.org/2000/svg">
<rect width="56" height="56" rx="16" fill="#FDEFE6"/>
<path d="M19.3347 21.3334H34.0013C34.3698 21.3334 34.668 21.0352 34.668 20.6667C34.668 20.2982 34.3698 20 34.0013 20H19.3347C18.9662 20 18.668 20.2982 18.668 20.6667C18.668 21.0352 18.9662 21.3334 19.3347 21.3334Z" fill="#DD8F3E"/>
<path d="M27.3347 28H19.3347C18.9662 28 18.668 28.2982 18.668 28.6667C18.668 29.0352 18.9662 29.3334 19.3347 29.3334H27.3347C27.7032 29.3334 28.0013 29.0352 28.0013 28.6667C28.0013 28.2982 27.7032 28 27.3347 28Z" fill="#DD8F3E"/>
<path d="M41.4479 16.0007C41.4093 16.0007 41.3719 16.0104 41.3334 16.0122V16.0007C41.3334 14.53 40.1367 13.334 38.6667 13.334H14.6667C13.1966 13.334 12 14.53 12 16.0007V42.0007C12 42.2702 12.1628 42.5137 12.4114 42.6166C12.4935 42.6511 12.5807 42.6674 12.6666 42.6674C12.8398 42.6674 13.0104 42.5997 13.138 42.472L19.6094 36.0007H38.6667C40.1367 36.0007 41.3334 34.8047 41.3334 33.334V22.2764L43.2526 20.3574C43.2526 20.3574 43.2526 20.3574 43.2526 20.3568C43.7279 19.8815 44 19.224 44 18.5527C44 17.1452 42.8555 16.0007 41.4479 16.0007ZM40 33.334C40 34.069 39.4023 34.6673 38.6667 34.6673H19.3333C19.1562 34.6673 18.9869 34.7376 18.8619 34.8626L13.3333 40.3913V16.0007C13.3333 15.2657 13.931 14.6674 14.6666 14.6674H38.6666C39.4024 14.6674 40 15.2657 40 16.0007V16.456C39.8734 16.543 39.7524 16.6387 39.6432 16.748L32.3895 24.0007H19.3333C18.9648 24.0007 18.6666 24.2989 18.6666 24.6674C18.6666 25.0359 18.9648 25.334 19.3333 25.334H31.3199L30.6797 28.5365C30.6354 28.7553 30.7044 28.9812 30.862 29.1387C30.9883 29.265 31.1589 29.334 31.3334 29.334C31.3764 29.334 31.4206 29.3295 31.4636 29.321L34.7956 28.6544C34.9258 28.6283 35.0443 28.5652 35.1367 28.472L40 23.6095V33.334ZM34.3372 27.3867L32.1836 27.8177L32.6146 25.6615L38.6664 19.6097L40.3906 21.3339L34.3372 27.3867ZM42.3099 19.4147L41.3333 20.3913L39.609 18.667L40.5859 17.6901C40.8124 17.4642 41.1262 17.334 41.4479 17.334C42.1197 17.334 42.6666 17.8809 42.6666 18.5527C42.6667 18.873 42.5364 19.1875 42.3099 19.4147Z" fill="#DD8F3E"/>
</svg>
