<svg width="48" height="48" viewBox="0 0 48 48" fill="none" xmlns="http://www.w3.org/2000/svg">
<circle cx="24" cy="24" r="24" fill="#EBF3F3"/>
<path d="M30.2114 22.6716C29.8878 22.6716 29.6255 22.9339 29.6255 23.2575V31.8515C29.6255 32.39 29.1874 32.8281 28.6489 32.8281H16.1485C15.61 32.8281 15.1719 32.39 15.1719 31.8515V19.3511C15.1719 18.8126 15.61 18.3745 16.1485 18.3745H24.7425C25.0661 18.3745 25.3285 18.1122 25.3285 17.7886C25.3285 17.465 25.0661 17.2026 24.7425 17.2026H16.1485C14.9638 17.2026 14 18.1665 14 19.3511V31.8515C14 33.0362 14.9638 34 16.1485 34H28.6489C29.8336 34 30.7974 33.0362 30.7974 31.8515V23.2575C30.7974 22.9339 30.535 22.6716 30.2114 22.6716Z" fill="#004040"/>
<path d="M33.5997 15.5047L32.4948 14.3998C31.9618 13.8667 31.0944 13.8667 30.5612 14.3998L21.7222 23.2389C21.6404 23.3207 21.5846 23.4249 21.5619 23.5383L21.0094 26.3006C20.971 26.4927 21.0311 26.6913 21.1697 26.8298C21.2807 26.9408 21.4302 27.0014 21.584 27.0014C21.6223 27.0014 21.6607 26.9977 21.6989 26.9901L24.4611 26.4376C24.5746 26.4149 24.6788 26.3591 24.7606 26.2773L33.5997 17.4383C33.5997 17.4383 33.5997 17.4383 33.5997 17.4382C34.1328 16.9052 34.1328 16.0378 33.5997 15.5047ZM24.0574 25.3232L22.331 25.6685L22.6763 23.9422L29.8707 16.7477L31.2518 18.1288L24.0574 25.3232ZM32.771 16.6096L32.0805 17.3002L30.6993 15.919L31.3899 15.2285C31.466 15.1523 31.59 15.1523 31.6661 15.2285L32.771 16.3334C32.8472 16.4095 32.8472 16.5335 32.771 16.6096Z" fill="#004040"/>
</svg>
