<svg width="56" height="56" viewBox="0 0 56 56" fill="none" xmlns="http://www.w3.org/2000/svg">
<rect width="56" height="56" rx="16" fill="#FDEFE6"/>
<g clip-path="url(#clip0_1_67799)">
<path d="M43.7254 33.9616L41.2468 31.483V22.9811L42.865 22.3977C43.2365 22.2637 43.4842 21.9114 43.4845 21.5165C43.4848 21.1216 43.2376 20.7688 42.8662 20.6344L28.0614 15.2728C27.8552 15.1981 27.6292 15.1981 27.423 15.2728L12.6183 20.6344C12.2484 20.7684 12.0015 21.119 12 21.5124C11.9986 21.9058 12.2429 22.2582 12.6118 22.3949L18.0755 24.4189V30.5968C18.0755 30.7885 18.1343 30.9757 18.244 31.1329C18.3043 31.2194 18.8755 31.9995 20.3381 32.7357C22.1859 33.6659 24.6094 34.1375 27.5413 34.1375C30.471 34.1375 32.9068 33.6669 34.7809 32.7385C36.2579 32.0069 36.8482 31.2349 36.9107 31.1494C37.0277 30.9889 37.0907 30.7955 37.0907 30.5969V24.4794L39.3721 23.6569V31.483L36.8934 33.9616C36.7176 34.1374 36.6188 34.3759 36.6188 34.6245C36.6188 34.8731 36.7176 35.1115 36.8934 35.2873L39.3721 37.7658V39.8455C39.3721 40.3632 39.7918 40.7829 40.3095 40.7829C40.8272 40.7829 41.2469 40.3632 41.2469 39.8455V37.7658L43.7255 35.2873C44.0916 34.9213 44.0916 34.3277 43.7254 33.9616ZM27.7422 17.1512L39.7887 21.5138L27.5457 25.9277L15.6628 21.5258L27.7422 17.1512ZM35.2158 30.2232C32.0112 33.1068 22.4885 32.7761 19.9504 30.2326V25.1134L27.2156 27.8048C27.3309 27.823 27.4398 27.9225 27.8592 27.8077L35.2159 25.1554V30.2232H35.2158ZM40.3094 36.0519L38.8819 34.6245L40.3094 33.1969L41.7369 34.6245L40.3094 36.0519Z" fill="#DD8F3E"/>
</g>
<defs>
<clipPath id="clip0_1_67799">
<rect width="32" height="32" fill="white" transform="translate(12 12)"/>
</clipPath>
</defs>
</svg>
