<svg width="56" height="56" viewBox="0 0 56 56" fill="none" xmlns="http://www.w3.org/2000/svg">
<rect width="56" height="56" rx="16" fill="#FDEFE6"/>
<path d="M28.3126 13.2511C28.6578 13.2511 28.9377 12.9713 28.9377 12.6261C28.9377 12.2808 28.6578 12.001 28.3126 12.001C27.9674 12.001 27.6875 12.2808 27.6875 12.6261C27.6875 12.9713 27.9674 13.2511 28.3126 13.2511Z" fill="#DD8F3E"/>
<path d="M36.4065 23.3244V14.5169C36.4065 13.1291 35.2774 12 33.8895 12H31.137C30.7912 12 30.5107 12.2804 30.5107 12.6263C30.5107 12.9722 30.7911 13.2527 31.137 13.2527H33.8895C34.5867 13.2527 35.1539 13.8198 35.1539 14.517V24.8439C35.1539 25.5411 34.5867 26.1082 33.8895 26.1082H22.7347C22.0376 26.1082 21.4704 25.5411 21.4704 24.8439V14.5169C21.4704 13.8197 22.0376 13.2526 22.7347 13.2526H25.4871C25.833 13.2526 26.1134 12.9722 26.1134 12.6263C26.1134 12.2803 25.833 12 25.4871 12H22.7347C21.3468 12 20.2178 13.1291 20.2178 14.5169V23.3002C20.1535 23.2959 20.0885 23.2931 20.0199 23.2931C18.3762 23.2931 17.0391 24.6303 17.0391 26.2739V36.5331C17.0391 36.5895 17.0467 36.6456 17.0617 36.7L18.9524 43.5405C19.0472 43.8839 19.4209 44.0802 19.758 43.9664C20.0681 43.8617 20.2468 43.5217 20.1597 43.2068L18.4882 37.1593H22.6526C22.9022 38.0281 23.3469 38.8152 23.936 39.4699V39.9862C23.936 42.1993 25.8991 43.9999 28.3121 43.9999C30.7251 43.9999 32.6882 42.1993 32.6882 39.9862V39.4699C33.2773 38.8152 33.7221 38.0282 33.9716 37.1593H37.5798L36.4523 43.2598C36.3911 43.5911 36.6127 43.9191 36.9423 43.987C37.2812 44.0569 37.6212 43.8275 37.684 43.4874L38.9484 36.6469C38.9554 36.6093 38.9588 36.5713 38.9588 36.5331V26.2739C38.9588 24.7758 37.8477 23.5328 36.4065 23.3244ZM36.4065 24.8439V24.5996C37.1529 24.7907 37.7063 25.4689 37.7063 26.274V35.9069H34.2499V27.3346C35.4676 27.1592 36.4065 26.1094 36.4065 24.8439ZM23.6269 27.3608H32.9973V31.9757C31.9209 30.5628 30.2214 29.649 28.3121 29.649C26.4029 29.649 24.7033 30.5628 23.6269 31.9758V27.3608ZM20.0199 24.5457C20.052 24.5457 20.1982 24.5334 20.2178 24.5549C20.2269 24.565 20.2178 24.7756 20.2178 24.8438C20.2178 26.1093 21.1566 27.1592 22.3743 27.3346V35.9068H18.2917V26.2739C18.2917 25.3211 19.0669 24.5457 20.0199 24.5457ZM28.3121 42.7474C26.8156 42.7474 25.5622 41.8122 25.259 40.5683C26.1497 41.1107 27.1951 41.4234 28.3121 41.4234C29.4291 41.4234 30.4744 41.1107 31.3651 40.5683C31.062 41.8122 29.8086 42.7474 28.3121 42.7474ZM28.3121 40.1708C25.7565 40.1708 23.6774 38.0918 23.6774 35.5362C23.6774 32.9806 25.7565 30.9016 28.3121 30.9016C30.8676 30.9016 32.9467 32.9806 32.9467 35.5362C32.9467 38.0918 30.8676 40.1708 28.3121 40.1708Z" fill="#DD8F3E"/>
<path d="M25.3266 23.6257C25.6725 23.6257 25.9529 23.3453 25.9529 22.9994V16.3607C25.9529 16.0148 25.6725 15.7344 25.3266 15.7344H23.9076C23.5617 15.7344 23.2812 16.0148 23.2812 16.3607C23.2812 16.7066 23.5617 16.987 23.9076 16.987H24.7002V22.9995C24.7002 23.3453 24.9806 23.6257 25.3266 23.6257Z" fill="#DD8F3E"/>
<path d="M28.2227 21.2159C28.2227 22.6198 29.3648 23.7619 30.7687 23.7619C32.1726 23.7619 33.3147 22.6198 33.3147 21.2159V18.1457C33.3147 16.7418 32.1726 15.5996 30.7687 15.5996C29.3648 15.5996 28.2227 16.7418 28.2227 18.1457V21.2159ZM29.4752 18.1457C29.4752 17.4325 30.0555 16.8522 30.7687 16.8522C31.4819 16.8522 32.0621 17.4325 32.0621 18.1457V21.2158C32.0621 21.929 31.4819 22.5093 30.7687 22.5093C30.0555 22.5093 29.4752 21.929 29.4752 21.2158V18.1457Z" fill="#DD8F3E"/>
</svg>
