<svg width="56" height="56" viewBox="0 0 56 56" fill="none" xmlns="http://www.w3.org/2000/svg">
<rect width="56" height="56" rx="16" fill="#FCDDCA"/>
<g clip-path="url(#clip0_812_41494)">
<path d="M24.625 40.25C24.4607 40.25 24.2993 40.3169 24.1831 40.4331C24.0669 40.5493 24 40.7107 24 40.875C24 41.0393 24.0669 41.2007 24.1831 41.3169C24.2993 41.4331 24.4607 41.5 24.625 41.5C24.7893 41.5 24.9507 41.4331 25.0669 41.3169C25.1831 41.2007 25.25 41.0393 25.25 40.875C25.25 40.7107 25.1831 40.5493 25.0669 40.4331C24.9507 40.3169 24.7893 40.25 24.625 40.25Z" fill="#C07B36"/>
<path d="M43.3328 20.52C42.4446 19.6318 40.9995 19.6318 40.1113 20.52L37.25 23.3813V14.125C37.25 12.9534 36.2966 12 35.125 12H14.125C12.9534 12 12 12.9534 12 14.125V41.875C12 43.0466 12.9534 44 14.125 44H35.125C36.2966 44 37.25 43.0466 37.25 41.875V29.8245L43.3328 23.7415C44.2209 22.8533 44.2209 21.4082 43.3328 20.52ZM36 14.125V24.6313L34.75 25.8813V15.125C34.75 14.7798 34.4702 14.5 34.125 14.5H29.948V13.25H35.125C35.6074 13.25 36 13.6426 36 14.125ZM32.5874 31.2654L33.4312 29.3699L34.4829 30.4216L32.5874 31.2654ZM28.698 13.25V15.7969C28.698 16.1846 28.3826 16.5 27.9949 16.5H21.2551C20.8674 16.5 20.552 16.1846 20.552 15.7969V13.25H28.698ZM35.125 42.75H14.125C13.6426 42.75 13.25 42.3574 13.25 41.875V14.125C13.25 13.6426 13.6426 13.25 14.125 13.25H19.302V14.5H15.125C14.7798 14.5 14.5 14.7798 14.5 15.125V40.875C14.5 41.2202 14.7798 41.5 15.125 41.5H22.125C22.4702 41.5 22.75 41.2202 22.75 40.875C22.75 40.5298 22.4702 40.25 22.125 40.25H15.75V15.75H19.302V15.7969C19.302 16.8738 20.1782 17.75 21.2551 17.75H27.9949C29.0718 17.75 29.948 16.8738 29.948 15.7969V15.75H33.5V27.1313L32.7881 27.843C32.7341 27.8972 32.6904 27.9609 32.6592 28.0308L30.7832 32.2444C30.678 32.481 30.7292 32.7576 30.9121 32.9407C31.032 33.0603 31.1919 33.1238 31.3542 33.1238C31.4402 33.1238 31.5266 33.1062 31.6084 33.0698L33.5 32.2275V40.25H27.125C26.7798 40.25 26.5 40.5298 26.5 40.875C26.5 41.2202 26.7798 41.5 27.125 41.5H34.125C34.47 41.5 34.75 41.2202 34.75 40.875V31.6709L35.822 31.1936C35.8879 31.1643 35.9478 31.1235 36 31.0735V41.875C36 42.3574 35.6074 42.75 35.125 42.75ZM40.1194 25.187L35.5679 29.7388L34.114 28.2849L39.7495 22.6494L41.2034 24.1033L40.1194 25.187ZM42.449 22.8577L42.0872 23.2192L40.6335 21.7656L40.9951 21.4041C41.396 21.0032 42.0481 21.0032 42.449 21.4041C42.8496 21.8047 42.8496 22.4568 42.449 22.8577Z" fill="#C07B36"/>
<path d="M22.125 19.5H18.125C17.7798 19.5 17.5 19.7798 17.5 20.125V24.125C17.5 24.4702 17.7798 24.75 18.125 24.75H22.125C22.4702 24.75 22.75 24.4702 22.75 24.125V20.125C22.75 19.7798 22.4702 19.5 22.125 19.5ZM21.5 23.5H18.75V20.75H21.5V23.5Z" fill="#C07B36"/>
<path d="M22.125 26.375H18.125C17.7798 26.375 17.5 26.6548 17.5 27V31C17.5 31.3452 17.7798 31.625 18.125 31.625H22.125C22.4702 31.625 22.75 31.3452 22.75 31V27C22.75 26.6548 22.4702 26.375 22.125 26.375ZM21.5 30.375H18.75V27.625H21.5V30.375Z" fill="#C07B36"/>
<path d="M22.125 33.25H18.125C17.7798 33.25 17.5 33.5298 17.5 33.875V37.875C17.5 38.2202 17.7798 38.5 18.125 38.5H22.125C22.4702 38.5 22.75 38.2202 22.75 37.875V33.875C22.75 33.5298 22.4702 33.25 22.125 33.25ZM21.5 37.25H18.75V34.5H21.5V37.25Z" fill="#C07B36"/>
<path d="M26.597 23.9775C26.7191 24.0996 26.879 24.1606 27.0389 24.1606C27.1988 24.1606 27.3587 24.0996 27.4808 23.9775L30.3026 21.1558C30.5464 20.9119 30.5464 20.5161 30.3026 20.272C30.0584 20.0278 29.6627 20.0278 29.4185 20.272L27.0389 22.6516L26.0904 21.7031C25.8463 21.459 25.4507 21.459 25.2064 21.7031C24.9625 21.9473 24.9625 22.343 25.2064 22.5869L26.597 23.9775Z" fill="#C07B36"/>
<path d="M26.597 30.8524C26.7142 30.9695 26.8731 31.0355 27.0389 31.0355C27.2047 31.0355 27.3636 30.9695 27.4808 30.8524L30.3026 28.0308C30.5464 27.7867 30.5464 27.3909 30.3026 27.1468C30.0584 26.9029 29.6627 26.9029 29.4185 27.1468L27.0389 29.5267L26.0904 28.5782C25.8463 28.334 25.4507 28.334 25.2064 28.5782C24.9625 28.8221 24.9625 29.2178 25.2064 29.462L26.597 30.8524Z" fill="#C07B36"/>
<path d="M27.7545 36.7588L28.7234 37.7275C28.8455 37.8496 29.0054 37.9106 29.1653 37.9106C29.3253 37.9106 29.4852 37.8496 29.6072 37.7275C29.8514 37.4834 29.8514 37.0876 29.6072 36.8438L28.6385 35.8748L29.6072 34.9058C29.8514 34.6619 29.8514 34.2661 29.6072 34.022C29.3631 33.7778 28.9676 33.7778 28.7234 34.022L27.7545 34.9907L26.7857 34.022C26.5416 33.7781 26.1461 33.7778 25.9017 34.022C25.6578 34.2661 25.6578 34.6619 25.9017 34.9058L26.8707 35.8748L25.9017 36.8438C25.6578 37.0876 25.6578 37.4834 25.9017 37.7275C26.0237 37.8496 26.1839 37.9106 26.3438 37.9106C26.5037 37.9106 26.6636 37.8496 26.7857 37.7275L27.7545 36.7588Z" fill="#C07B36"/>
</g>
<defs>
<clipPath id="clip0_812_41494">
<rect width="32" height="32" fill="white" transform="translate(12 12)"/>
</clipPath>
</defs>
</svg>
