<svg width="56" height="56" viewBox="0 0 56 56" fill="none" xmlns="http://www.w3.org/2000/svg">
<rect width="56" height="56" rx="16" fill="#FCDDCA"/>
<g clip-path="url(#clip0_8199_21186)">
<path d="M17.3333 24C16.9797 24 16.6406 24.1405 16.3905 24.3905C16.1405 24.6406 16 24.9797 16 25.3333C16.004 28.2835 17.0934 31.129 19.0606 33.3276C21.0277 35.5261 23.7351 36.924 26.6667 37.2547V41.3333H24C23.6464 41.3333 23.3072 41.4738 23.0572 41.7239C22.8071 41.9739 22.6667 42.313 22.6667 42.6667C22.6667 43.0203 22.8071 43.3594 23.0572 43.6095C23.3072 43.8595 23.6464 44 24 44H32C32.3536 44 32.6928 43.8595 32.9428 43.6095C33.1929 43.3594 33.3333 43.0203 33.3333 42.6667C33.3333 42.313 33.1929 41.9739 32.9428 41.7239C32.6928 41.4738 32.3536 41.3333 32 41.3333H29.3333V37.2547C32.2649 36.924 34.9723 35.5261 36.9394 33.3276C38.9066 31.129 39.996 28.2835 40 25.3333C40 24.9797 39.8595 24.6406 39.6095 24.3905C39.3594 24.1405 39.0203 24 38.6667 24C38.313 24 37.9739 24.1405 37.7239 24.3905C37.4738 24.6406 37.3333 24.9797 37.3333 25.3333C37.3333 27.8087 36.35 30.1827 34.5997 31.933C32.8493 33.6833 30.4754 34.6667 28 34.6667C25.5246 34.6667 23.1507 33.6833 21.4003 31.933C19.65 30.1827 18.6667 27.8087 18.6667 25.3333C18.6667 24.9797 18.5262 24.6406 18.2761 24.3905C18.0261 24.1405 17.687 24 17.3333 24Z" fill="#C07B36"/>
<path d="M27.9987 32C29.7662 31.9979 31.4606 31.2948 32.7104 30.045C33.9602 28.7953 34.6632 27.1008 34.6654 25.3333V18.6667C34.6654 16.8986 33.963 15.2029 32.7127 13.9526C31.4625 12.7024 29.7668 12 27.9987 12C26.2306 12 24.5349 12.7024 23.2847 13.9526C22.0344 15.2029 21.332 16.8986 21.332 18.6667V25.3333C21.3341 27.1008 22.0372 28.7953 23.287 30.045C24.5368 31.2948 26.2312 31.9979 27.9987 32ZM23.9987 18.6667C23.9987 17.6058 24.4201 16.5884 25.1703 15.8382C25.9204 15.0881 26.9378 14.6667 27.9987 14.6667C29.0596 14.6667 30.077 15.0881 30.8271 15.8382C31.5773 16.5884 31.9987 17.6058 31.9987 18.6667V25.3333C31.9987 26.3942 31.5773 27.4116 30.8271 28.1618C30.077 28.9119 29.0596 29.3333 27.9987 29.3333C26.9378 29.3333 25.9204 28.9119 25.1703 28.1618C24.4201 27.4116 23.9987 26.3942 23.9987 25.3333V18.6667Z" fill="#C07B36"/>
</g>
<defs>
<clipPath id="clip0_8199_21186">
<rect width="32" height="32" fill="white" transform="translate(12 12)"/>
</clipPath>
</defs>
</svg>
