<svg width="56" height="57" viewBox="0 0 56 57" fill="none" xmlns="http://www.w3.org/2000/svg">
<rect y="0.291016" width="56" height="56" rx="16" fill="#D5ECEF"/>
<path d="M42 35.8832V19.291C41.9992 18.6282 41.7356 17.9928 41.2669 17.5241C40.7982 17.0554 40.1628 16.7918 39.5 16.791H36V15.791C35.9996 15.3933 35.8414 15.012 35.5602 14.7308C35.279 14.4496 34.8977 14.2915 34.5 14.291H32.0215C31.8889 14.291 31.7617 14.3437 31.6679 14.4375C31.5742 14.5312 31.5215 14.6584 31.5215 14.791C31.5215 14.9236 31.5742 15.0508 31.6679 15.1446C31.7617 15.2383 31.8889 15.291 32.0215 15.291H34.5C34.6326 15.2911 34.7597 15.3438 34.8535 15.4376C34.9472 15.5313 34.9999 15.6584 35 15.791V33.791H21V19.3976C21.0112 19.363 21.0184 19.3273 21.0215 19.291H24.5C24.6326 19.291 24.7598 19.2383 24.8536 19.1446C24.9473 19.0508 25 18.9236 25 18.791V15.291H28C28.1326 15.291 28.2598 15.2383 28.3536 15.1446C28.4473 15.0508 28.5 14.9236 28.5 14.791C28.5 14.6584 28.4473 14.5312 28.3536 14.4375C28.2598 14.3437 28.1326 14.291 28 14.291H24.5C24.3671 14.2913 24.2398 14.3442 24.1459 14.4382L20.1472 18.4369C20.0532 18.5308 20.0003 18.6582 20 18.791H16.5C16.3674 18.791 16.2402 18.8437 16.1464 18.9375C16.0527 19.0312 16 19.1584 16 19.291V34.291C16 34.4236 16.0527 34.5508 16.1464 34.6446C16.2402 34.7383 16.3674 34.791 16.5 34.791H39.5C39.6326 34.791 39.7598 34.7383 39.8536 34.6446C39.9473 34.5508 40 34.4236 40 34.291V19.291C40 19.1584 39.9473 19.0312 39.8536 18.9375C39.7598 18.8437 39.6326 18.791 39.5 18.791H36V17.791H39.5C39.8977 17.7915 40.279 17.9496 40.5602 18.2308C40.8414 18.512 40.9996 18.8933 41 19.291V35.791H31.5C31.3674 35.791 31.2402 35.8437 31.1464 35.9375C31.0527 36.0312 31 36.1584 31 36.291V37.291H25V36.291C25 36.1584 24.9473 36.0312 24.8536 35.9375C24.7598 35.8437 24.6326 35.791 24.5 35.791H15V19.291C15.0004 18.8933 15.1586 18.512 15.4398 18.2308C15.721 17.9496 16.1023 17.7915 16.5 17.791H20C20.1326 17.791 20.2598 17.7383 20.3536 17.6446C20.4473 17.5508 20.5 17.4236 20.5 17.291C20.5 17.1584 20.4473 17.0312 20.3536 16.9375C20.2598 16.8437 20.1326 16.791 20 16.791H16.5C15.8372 16.7918 15.2018 17.0554 14.7331 17.5241C14.2644 17.9928 14.0008 18.6282 14 19.291V35.8832C13.7084 35.9859 13.4557 36.1764 13.2766 36.4284C13.0976 36.6805 13.0009 36.9818 13 37.291V38.291C13.0011 39.2189 13.3702 40.1085 14.0264 40.7646C14.6825 41.4208 15.5721 41.7899 16.5 41.791H39.5C40.4279 41.7899 41.3175 41.4208 41.9736 40.7646C42.6298 40.1085 42.9989 39.2189 43 38.291V37.291C42.9991 36.9818 42.9024 36.6805 42.7234 36.4284C42.5443 36.1764 42.2916 35.9859 42 35.8832ZM21.7071 18.291L24 15.9981V18.291H21.7071ZM17 19.791H20V33.791H17V19.791ZM39 19.791V33.791H36V19.791H39ZM42 38.291C41.9992 38.9538 41.7356 39.5892 41.2669 40.0579C40.7982 40.5266 40.1628 40.7902 39.5 40.791H16.5C15.8372 40.7902 15.2018 40.5266 14.7331 40.0579C14.2644 39.5892 14.0008 38.9538 14 38.291V37.291C14.0001 37.1584 14.0528 37.0313 14.1465 36.9375C14.2403 36.8438 14.3674 36.7911 14.5 36.791H24V37.791C24 37.9236 24.0527 38.0508 24.1464 38.1446C24.2402 38.2383 24.3674 38.291 24.5 38.291H31.5C31.6326 38.291 31.7598 38.2383 31.8536 38.1446C31.9473 38.0508 32 37.9236 32 37.791V36.791H41.5C41.6326 36.7911 41.7597 36.8438 41.8535 36.9375C41.9472 37.0313 41.9999 37.1584 42 37.291V38.291Z" fill="#395C5F"/>
<path d="M28 21.791C26.9122 21.791 25.8488 22.1136 24.9444 22.7179C24.0399 23.3223 23.3349 24.1813 22.9187 25.1863C22.5024 26.1912 22.3935 27.2971 22.6057 28.364C22.8179 29.4309 23.3417 30.4109 24.1109 31.1801C24.8801 31.9493 25.8601 32.4731 26.927 32.6853C27.9939 32.8976 29.0998 32.7886 30.1048 32.3724C31.1098 31.9561 31.9687 31.2511 32.5731 30.3467C33.1774 29.4422 33.5 28.3788 33.5 27.291C33.4983 25.8328 32.9184 24.4348 31.8873 23.4038C30.8562 22.3727 29.4582 21.7927 28 21.791ZM28 31.791C27.11 31.791 26.24 31.5271 25.4999 31.0326C24.7599 30.5382 24.1831 29.8354 23.8425 29.0131C23.5019 28.1908 23.4128 27.286 23.5865 26.4131C23.7601 25.5402 24.1887 24.7384 24.818 24.109C25.4474 23.4797 26.2492 23.0511 27.1221 22.8775C27.995 22.7038 28.8998 22.793 29.7221 23.1336C30.5443 23.4742 31.2472 24.0509 31.7416 24.7909C32.2361 25.531 32.5 26.401 32.5 27.291C32.4987 28.4841 32.0241 29.6279 31.1805 30.4715C30.3369 31.3152 29.1931 31.7897 28 31.791Z" fill="#395C5F"/>
<path d="M30.1482 25.1875L27.0017 28.334L25.8552 27.1875C25.7609 27.0964 25.6346 27.046 25.5035 27.0472C25.3724 27.0483 25.247 27.1009 25.1543 27.1936C25.0616 27.2863 25.009 27.4117 25.0078 27.5428C25.0067 27.6739 25.0571 27.8002 25.1482 27.8945L26.6482 29.3945C26.6946 29.4409 26.7497 29.4778 26.8103 29.5029C26.871 29.5281 26.936 29.541 27.0017 29.541C27.0673 29.541 27.1323 29.5281 27.193 29.5029C27.2537 29.4778 27.3088 29.4409 27.3552 29.3945L30.8552 25.8945C30.9462 25.8002 30.9966 25.6739 30.9955 25.5428C30.9944 25.4117 30.9418 25.2863 30.8491 25.1936C30.7564 25.1009 30.631 25.0483 30.4999 25.0472C30.3688 25.046 30.2425 25.0964 30.1482 25.1875Z" fill="#395C5F"/>
<path d="M29.8516 15.291H30.5005C30.6331 15.291 30.7603 15.2383 30.8541 15.1446C30.9478 15.0508 31.0005 14.9236 31.0005 14.791C31.0005 14.6584 30.9478 14.5312 30.8541 14.4375C30.7603 14.3437 30.6331 14.291 30.5005 14.291H29.8516C29.719 14.291 29.5918 14.3437 29.498 14.4375C29.4042 14.5312 29.3516 14.6584 29.3516 14.791C29.3516 14.9236 29.4042 15.0508 29.498 15.1446C29.5918 15.2383 29.719 15.291 29.8516 15.291Z" fill="#395C5F"/>
<path d="M33 19.791H23C22.8674 19.791 22.7402 19.8437 22.6464 19.9375C22.5527 20.0312 22.5 20.1584 22.5 20.291C22.5 20.4236 22.5527 20.5508 22.6464 20.6446C22.7402 20.7383 22.8674 20.791 23 20.791H33C33.1326 20.791 33.2598 20.7383 33.3536 20.6446C33.4473 20.5508 33.5 20.4236 33.5 20.291C33.5 20.1584 33.4473 20.0312 33.3536 19.9375C33.2598 19.8437 33.1326 19.791 33 19.791Z" fill="#395C5F"/>
<path d="M33 17.791H27C26.8674 17.791 26.7402 17.8437 26.6464 17.9375C26.5527 18.0312 26.5 18.1584 26.5 18.291C26.5 18.4236 26.5527 18.5508 26.6464 18.6446C26.7402 18.7383 26.8674 18.791 27 18.791H33C33.1326 18.791 33.2598 18.7383 33.3536 18.6446C33.4473 18.5508 33.5 18.4236 33.5 18.291C33.5 18.1584 33.4473 18.0312 33.3536 17.9375C33.2598 17.8437 33.1326 17.791 33 17.791Z" fill="#395C5F"/>
</svg>
