<svg width="56" height="56" viewBox="0 0 56 56" fill="none" xmlns="http://www.w3.org/2000/svg">
<rect width="56" height="56" rx="16" fill="#FCDDCA"/>
<g clip-path="url(#clip0_8199_39076)">
<path d="M40.3508 27.5722H15.6468C15.4235 27.5722 15.2093 27.4835 15.0513 27.3256C14.8934 27.1676 14.8047 26.9534 14.8047 26.7301V12.8421C14.8047 12.6188 14.8934 12.4046 15.0513 12.2466C15.2093 12.0887 15.4235 12 15.6468 12H40.3508C40.5741 12 40.7883 12.0887 40.9463 12.2466C41.1042 12.4046 41.1929 12.6188 41.1929 12.8421V26.7301C41.1929 26.9534 41.1042 27.1676 40.9463 27.3256C40.7883 27.4835 40.5741 27.5722 40.3508 27.5722ZM16.4889 25.888H39.5087V13.6842H16.4889V25.888Z" fill="#C07B36"/>
<path d="M29.4027 24.0553H19.4827C19.2594 24.0553 19.0452 23.9666 18.8873 23.8087C18.7293 23.6507 18.6406 23.4365 18.6406 23.2132C18.6406 22.9899 18.7293 22.7757 18.8873 22.6177C19.0452 22.4598 19.2594 22.3711 19.4827 22.3711H29.4027C29.6261 22.3711 29.8403 22.4598 29.9982 22.6177C30.1561 22.7757 30.2448 22.9899 30.2448 23.2132C30.2448 23.4365 30.1561 23.6507 29.9982 23.8087C29.8403 23.9666 29.6261 24.0553 29.4027 24.0553Z" fill="#C07B36"/>
<path d="M32.0368 20.6295H19.4827C19.2594 20.6295 19.0452 20.5408 18.8873 20.3829C18.7293 20.225 18.6406 20.0108 18.6406 19.7874C18.6406 19.5641 18.7293 19.3499 18.8873 19.192C19.0452 19.034 19.2594 18.9453 19.4827 18.9453H32.0368C32.2602 18.9453 32.4744 19.034 32.6323 19.192C32.7902 19.3499 32.8789 19.5641 32.8789 19.7874C32.8789 20.0108 32.7902 20.225 32.6323 20.3829C32.4744 20.5408 32.2602 20.6295 32.0368 20.6295Z" fill="#C07B36"/>
<path d="M26.2196 17.2008H19.4827C19.2594 17.2008 19.0452 17.1121 18.8873 16.9542C18.7293 16.7962 18.6406 16.582 18.6406 16.3587C18.6406 16.1354 18.7293 15.9212 18.8873 15.7632C19.0452 15.6053 19.2594 15.5166 19.4827 15.5166H26.2196C26.4429 15.5166 26.6571 15.6053 26.815 15.7632C26.973 15.9212 27.0617 16.1354 27.0617 16.3587C27.0617 16.582 26.973 16.7962 26.815 16.9542C26.6571 17.1121 26.4429 17.2008 26.2196 17.2008Z" fill="#C07B36"/>
<path d="M32.2111 32.3386C31.9078 32.3397 31.6273 32.1776 31.4768 31.9142L28.7383 27.158L30.1901 26.3125L32.9084 31.0788C33.1409 31.4823 33.0003 31.9979 32.5951 32.2274C32.4785 32.2962 32.3464 32.3344 32.2111 32.3386Z" fill="#C07B36"/>
<path d="M23.8046 32.3386C23.659 32.3397 23.5158 32.3013 23.3903 32.2274C22.9851 31.9979 22.8445 31.4823 23.0771 31.0788L25.8089 26.3125L27.2606 27.158L24.539 31.9142C24.3885 32.1776 24.108 32.3397 23.8046 32.3386Z" fill="#C07B36"/>
<path d="M21.4712 39.0078C20.8017 39.0078 20.1472 38.8093 19.5905 38.4373C19.0337 38.0653 18.5998 37.5366 18.3436 36.9181C18.0874 36.2995 18.0204 35.6188 18.151 34.9621C18.2816 34.3055 18.604 33.7023 19.0775 33.2288C19.5509 32.7554 20.1541 32.433 20.8108 32.3024C21.4674 32.1717 22.1481 32.2388 22.7667 32.495C23.3853 32.7512 23.914 33.1851 24.2859 33.7418C24.6579 34.2985 24.8565 34.953 24.8565 35.6226C24.8556 36.5201 24.4986 37.3807 23.864 38.0153C23.2293 38.65 22.3688 39.0069 21.4712 39.0078ZM21.4712 33.9215C21.1388 33.9248 20.8149 34.0264 20.5401 34.2135C20.2654 34.4006 20.0522 34.6648 19.9273 34.9728C19.8024 35.2808 19.7714 35.6189 19.8383 35.9445C19.9052 36.2701 20.0669 36.5686 20.3031 36.8025C20.5393 37.0363 20.8394 37.1951 21.1656 37.2587C21.4919 37.3223 21.8296 37.288 22.1364 37.1601C22.4432 37.0321 22.7052 36.8162 22.8895 36.5397C23.0739 36.2631 23.1722 35.9381 23.1723 35.6057C23.1723 35.3831 23.1282 35.1627 23.0425 34.9573C22.9568 34.7518 22.8312 34.5654 22.673 34.4088C22.5148 34.2522 22.3272 34.1285 22.1209 34.0449C21.9146 33.9612 21.6938 33.9193 21.4712 33.9215Z" fill="#C07B36"/>
<path d="M26.4628 44.0004H16.4788C16.2555 44.0004 16.0413 43.9117 15.8834 43.7538C15.7254 43.5959 15.6367 43.3817 15.6367 43.1583C15.6367 41.611 16.2514 40.1271 17.3455 39.033C18.4396 37.9389 19.9235 37.3242 21.4708 37.3242C23.0181 37.3242 24.5021 37.9389 25.5962 39.033C26.6903 40.1271 27.3049 41.611 27.3049 43.1583C27.3049 43.3817 27.2162 43.5959 27.0583 43.7538C26.9004 43.9117 26.6862 44.0004 26.4628 44.0004ZM17.4051 42.3162H25.5331C25.3399 41.3812 24.8301 40.5414 24.0898 39.9385C23.3495 39.3355 22.4239 39.0063 21.4691 39.0063C20.5144 39.0063 19.5888 39.3355 18.8485 39.9385C18.1082 40.5414 17.5984 41.3812 17.4051 42.3162Z" fill="#C07B36"/>
<path d="M34.5259 39.0078C33.8563 39.0078 33.2018 38.8093 32.6451 38.4373C32.0884 38.0653 31.6545 37.5366 31.3983 36.9181C31.1421 36.2995 31.0751 35.6188 31.2057 34.9621C31.3363 34.3055 31.6587 33.7023 32.1321 33.2288C32.6056 32.7554 33.2088 32.433 33.8655 32.3024C34.5221 32.1717 35.2028 32.2388 35.8214 32.495C36.4399 32.7512 36.9687 33.1851 37.3406 33.7418C37.7126 34.2985 37.9112 34.953 37.9112 35.6226C37.9103 36.5201 37.5533 37.3807 36.9186 38.0153C36.284 38.65 35.4234 39.0069 34.5259 39.0078ZM34.5259 33.9215C34.1935 33.9248 33.8696 34.0264 33.5948 34.2135C33.3201 34.4006 33.1068 34.6648 32.9819 34.9728C32.857 35.2808 32.8261 35.6189 32.893 35.9445C32.9598 36.2701 33.1216 36.5686 33.3578 36.8025C33.594 37.0363 33.8941 37.1951 34.2203 37.2587C34.5465 37.3223 34.8843 37.288 35.1911 37.1601C35.4979 37.0321 35.7599 36.8162 35.9442 36.5397C36.1286 36.2631 36.2269 35.9381 36.2269 35.6057C36.2216 35.1578 36.0402 34.7299 35.7218 34.4147C35.4035 34.0996 34.9739 33.9224 34.5259 33.9215Z" fill="#C07B36"/>
<path d="M39.5175 44.0004H29.5335C29.3102 44.0004 29.096 43.9117 28.9381 43.7538C28.7801 43.5959 28.6914 43.3817 28.6914 43.1583C28.6914 41.611 29.3061 40.1271 30.4002 39.033C31.4943 37.9389 32.9782 37.3242 34.5255 37.3242C36.0728 37.3242 37.5567 37.9389 38.6508 39.033C39.745 40.1271 40.3596 41.611 40.3596 43.1583C40.3596 43.3817 40.2709 43.5959 40.113 43.7538C39.955 43.9117 39.7409 44.0004 39.5175 44.0004ZM30.4632 42.3162H38.608C38.4148 41.3812 37.905 40.5414 37.1647 39.9385C36.4244 39.3355 35.4988 39.0063 34.544 39.0063C33.5893 39.0063 32.6637 39.3355 31.9234 39.9385C31.183 40.5414 30.6733 41.3812 30.48 42.3162H30.4632Z" fill="#C07B36"/>
</g>
<defs>
<clipPath id="clip0_8199_39076">
<rect width="32" height="32" fill="white" transform="translate(12 12)"/>
</clipPath>
</defs>
</svg>
