<svg width="56" height="56" viewBox="0 0 56 56" fill="none" xmlns="http://www.w3.org/2000/svg">
<rect width="56" height="56" rx="16" fill="#FCDDCA"/>
<path d="M41.33 20.1036C40.8766 19.8589 40.3646 19.7437 39.8502 19.7706C39.3357 19.7974 38.8385 19.9653 38.413 20.2558L33 23.8884V21C32.9991 20.2046 32.6827 19.4421 32.1203 18.8797C31.5579 18.3173 30.7954 18.0009 30 18H16C15.2046 18.0009 14.4421 18.3173 13.8797 18.8797C13.3173 19.4421 13.0009 20.2046 13 21V35C13.0009 35.7954 13.3173 36.5579 13.8797 37.1203C14.4421 37.6827 15.2046 37.9991 16 38H30C30.7954 37.9991 31.5579 37.6827 32.1203 37.1203C32.6827 36.5579 32.9991 35.7954 33 35V32.1114L38.414 35.7442C38.8385 36.0367 39.3357 36.2057 39.8505 36.2326C40.3653 36.2595 40.8774 36.1431 41.33 35.8964C41.8454 35.6102 42.2732 35.189 42.5674 34.6781C42.8616 34.1672 43.0111 33.5859 43 32.9964V23.004C43.0112 22.4145 42.8617 21.833 42.5675 21.3221C42.2733 20.8111 41.8455 20.3899 41.33 20.1036ZM31 35C30.9997 35.2651 30.8942 35.5193 30.7068 35.7068C30.5193 35.8942 30.2651 35.9997 30 36H16C15.7349 35.9997 15.4807 35.8942 15.2932 35.7068C15.1058 35.5193 15.0003 35.2651 15 35V21C15.0003 20.7349 15.1058 20.4807 15.2932 20.2932C15.4807 20.1058 15.7349 20.0003 16 20H30C30.2651 20.0003 30.5193 20.1058 30.7068 20.2932C30.8942 20.4807 30.9997 20.7349 31 21V35ZM41 32.996C41.0108 33.2231 40.9596 33.4489 40.8519 33.6492C40.7442 33.8494 40.5841 34.0166 40.3886 34.1328C40.2557 34.208 40.1039 34.2433 39.9514 34.2347C39.799 34.226 39.6522 34.1737 39.5286 34.084L33 29.7032V26.2968L39.5274 21.9168C39.6518 21.8284 39.7986 21.7769 39.951 21.7683C40.1033 21.7596 40.255 21.7942 40.3886 21.868C40.5839 21.9841 40.744 22.1512 40.8517 22.3513C40.9594 22.5514 41.0107 22.777 41 23.004V32.996Z" fill="#C07B36"/>
</svg>
