<svg width="56" height="56" viewBox="0 0 56 56" fill="none" xmlns="http://www.w3.org/2000/svg">
<rect width="56" height="56" rx="16" fill="#FCDDCA"/>
<path fill-rule="evenodd" clip-rule="evenodd" d="M19.332 41.3336H37.9987C39.1032 41.3336 39.9987 40.4382 39.9987 39.3336V30.0003C39.9987 29.6322 39.7002 29.3336 39.332 29.3336C38.9639 29.3336 38.6654 29.6322 38.6654 30.0003V39.3336C38.6654 39.7018 38.3668 40.0003 37.9987 40.0003H19.332C18.9639 40.0003 18.6654 39.7018 18.6654 39.3336L18.6654 16.667C18.6654 16.2988 18.9638 16.0003 19.332 16.0003H35.419C35.7871 16.0003 36.0856 16.2988 36.0856 16.667V36.667C36.0856 37.0351 36.3842 37.3336 36.7523 37.3336C37.1204 37.3336 37.419 37.0351 37.419 36.667V16.667C37.419 15.5624 36.5235 14.667 35.419 14.667H19.332C18.2275 14.667 17.332 15.5624 17.332 16.667L17.332 39.3336C17.332 40.4382 18.2275 41.3336 19.332 41.3336Z" fill="#C07B36"/>
<path fill-rule="evenodd" clip-rule="evenodd" d="M32.6641 20.1673H21.9974V23.1673H32.6641V20.1673ZM21.9974 18.834C21.261 18.834 20.6641 19.4309 20.6641 20.1673V23.1673C20.6641 23.9037 21.261 24.5007 21.9974 24.5007H32.6641C33.4005 24.5007 33.9974 23.9037 33.9974 23.1673V20.1673C33.9974 19.4309 33.4005 18.834 32.6641 18.834H21.9974Z" fill="#C07B36"/>
<path fill-rule="evenodd" clip-rule="evenodd" d="M20.6641 26.6667C20.6641 26.2985 20.9625 26 21.3307 26H33.3307C33.6989 26 33.9974 26.2985 33.9974 26.6667C33.9974 27.0349 33.6989 27.3333 33.3307 27.3333H21.3307C20.9625 27.3333 20.6641 27.0349 20.6641 26.6667Z" fill="#C07B36"/>
<path fill-rule="evenodd" clip-rule="evenodd" d="M20.6641 29.3337C20.6641 28.9655 20.9625 28.667 21.3307 28.667H33.3307C33.6989 28.667 33.9974 28.9655 33.9974 29.3337C33.9974 29.7019 33.6989 30.0003 33.3307 30.0003H21.3307C20.9625 30.0003 20.6641 29.7019 20.6641 29.3337Z" fill="#C07B36"/>
<path fill-rule="evenodd" clip-rule="evenodd" d="M20.6641 32.0007C20.6641 31.6325 20.9625 31.334 21.3307 31.334H33.3307C33.6989 31.334 33.9974 31.6325 33.9974 32.0007C33.9974 32.3689 33.6989 32.6673 33.3307 32.6673H21.3307C20.9625 32.6673 20.6641 32.3689 20.6641 32.0007Z" fill="#C07B36"/>
<path fill-rule="evenodd" clip-rule="evenodd" d="M20.6641 34.6667C20.6641 34.2985 20.9625 34 21.3307 34H27.9974C28.3655 34 28.6641 34.2985 28.6641 34.6667C28.6641 35.0349 28.3655 35.3333 27.9974 35.3333H21.3307C20.9625 35.3333 20.6641 35.0349 20.6641 34.6667Z" fill="#C07B36"/>
</svg>
