<svg width="100" height="100" viewBox="0 0 100 100" fill="none" xmlns="http://www.w3.org/2000/svg">
<circle cx="50" cy="50" r="50" fill="#72B8BF"/>
<path d="M39.8945 68.9584C39.3737 68.4375 39.1133 67.8209 39.1133 67.1084C39.1133 66.3973 39.3737 65.7813 39.8945 65.2605L55.1549 50L39.8424 34.6875C39.3563 34.2014 39.1133 33.5938 39.1133 32.8646C39.1133 32.1355 39.3737 31.5105 39.8945 30.9896C40.4154 30.4688 41.032 30.2084 41.7445 30.2084C42.4556 30.2084 43.0716 30.4688 43.5924 30.9896L61.0925 48.5417C61.3008 48.75 61.4487 48.9757 61.5362 49.2188C61.6223 49.4618 61.6654 49.7223 61.6654 50C61.6654 50.2778 61.6223 50.5382 61.5362 50.7813C61.4487 51.0243 61.3008 51.25 61.0925 51.4584L43.5404 69.0105C43.0543 69.4966 42.4556 69.7396 41.7445 69.7396C41.032 69.7396 40.4154 69.4792 39.8945 68.9584Z" fill="white"/>
</svg>
