<svg width="48" height="48" viewBox="0 0 48 48" fill="none" xmlns="http://www.w3.org/2000/svg">
<circle cx="24" cy="24" r="24" fill="#EBF3F3"/>
<g clip-path="url(#clip0_1_3338)">
<path d="M34.1818 10H13.8182C12.8055 10 11.8344 10.4023 11.1183 11.1183C10.4023 11.8344 10 12.8055 10 13.8182V34.1818C10 35.1945 10.4023 36.1656 11.1183 36.8817C11.8344 37.5977 12.8055 38 13.8182 38H34.1818C35.1945 38 36.1656 37.5977 36.8817 36.8817C37.5977 36.1656 38 35.1945 38 34.1818V13.8182C38 12.8055 37.5977 11.8344 36.8817 11.1183C36.1656 10.4023 35.1945 10 34.1818 10V10ZM19.5455 32.1582C19.5457 32.2358 19.5306 32.3127 19.501 32.3845C19.4714 32.4563 19.428 32.5216 19.3731 32.5766C19.3183 32.6315 19.2532 32.6752 19.1815 32.7049C19.1098 32.7347 19.0329 32.75 18.9552 32.75H16.44C16.3622 32.7502 16.2852 32.735 16.2133 32.7054C16.1414 32.6757 16.0761 32.6321 16.0211 32.5771C15.9661 32.5221 15.9225 32.4568 15.8928 32.3849C15.8631 32.313 15.848 32.236 15.8482 32.1582V21.6136C15.8482 21.4567 15.9105 21.3061 16.0215 21.1952C16.1325 21.0842 16.283 21.0218 16.44 21.0218H18.9552C19.1119 21.0222 19.262 21.0848 19.3727 21.1957C19.4833 21.3067 19.5455 21.457 19.5455 21.6136V32.1582ZM17.6968 20.0227C17.2248 20.0227 16.7635 19.8828 16.371 19.6206C15.9786 19.3583 15.6727 18.9856 15.4921 18.5496C15.3115 18.1135 15.2642 17.6337 15.3563 17.1708C15.4484 16.7079 15.6757 16.2827 16.0094 15.9489C16.3431 15.6152 16.7684 15.3879 17.2313 15.2959C17.6942 15.2038 18.174 15.251 18.61 15.4317C19.0461 15.6123 19.4188 15.9181 19.681 16.3106C19.9432 16.703 20.0832 17.1644 20.0832 17.6364C20.0832 18.2693 19.8318 18.8762 19.3842 19.3238C18.9367 19.7713 18.3297 20.0227 17.6968 20.0227ZM32.6927 32.1995C32.6929 32.2711 32.679 32.3419 32.6517 32.408C32.6245 32.4741 32.5844 32.5342 32.5338 32.5847C32.4833 32.6353 32.4232 32.6754 32.3571 32.7026C32.291 32.7299 32.2201 32.7438 32.1486 32.7436H29.4441C29.3726 32.7438 29.3017 32.7299 29.2356 32.7026C29.1695 32.6754 29.1095 32.6353 29.0589 32.5847C29.0083 32.5342 28.9683 32.4741 28.941 32.408C28.9137 32.3419 28.8998 32.2711 28.9 32.1995V27.2598C28.9 26.5216 29.1164 24.027 26.9702 24.027C25.3077 24.027 24.9689 25.7341 24.902 26.5009V32.2059C24.9021 32.3488 24.8458 32.486 24.7455 32.5879C24.6452 32.6897 24.5088 32.7479 24.3659 32.75H21.7536C21.6823 32.75 21.6116 32.7359 21.5457 32.7086C21.4797 32.6812 21.4199 32.6411 21.3695 32.5905C21.3191 32.54 21.2791 32.48 21.252 32.414C21.2248 32.348 21.2109 32.2773 21.2111 32.2059V21.5675C21.2109 21.4961 21.2248 21.4254 21.252 21.3594C21.2791 21.2934 21.3191 21.2334 21.3695 21.1829C21.4199 21.1323 21.4797 21.0922 21.5457 21.0649C21.6116 21.0375 21.6823 21.0234 21.7536 21.0234H24.3659C24.5102 21.0234 24.6486 21.0807 24.7506 21.1828C24.8527 21.2848 24.91 21.4232 24.91 21.5675V22.487C25.5273 21.5595 26.442 20.8468 28.3941 20.8468C32.7182 20.8468 32.6895 24.8845 32.6895 27.1023L32.6927 32.1995Z" fill="#006666"/>
</g>
<defs>
<clipPath id="clip0_1_3338">
<rect width="28" height="28" fill="white" transform="translate(10 10)"/>
</clipPath>
</defs>
</svg>
