<svg width="56" height="56" viewBox="0 0 56 56" fill="none" xmlns="http://www.w3.org/2000/svg">
<rect width="56" height="56" rx="16" fill="#FDEFE6"/>
<g clip-path="url(#clip0_4361_8410)">
<path d="M24.899 12C24.3989 12 23.9986 12.4063 23.9986 12.8965V16.1005C23.9986 16.5907 24.3989 17.0008 24.899 17.0008H25.4996V18.0047C25.5028 18.4399 26.0168 18.6702 26.3423 18.367L27.7964 17.0008H31.099C31.6011 17.0008 31.9994 16.5907 31.9994 16.1005V12.8965C31.9994 12.4063 31.5972 12 31.099 12L24.899 12ZM24.9996 13H30.9994V16.0009H27.6011C27.4736 16.0011 27.351 16.05 27.2583 16.1377L26.5015 16.8466V16.499C26.5004 16.2229 26.2757 15.9989 25.9996 16H24.9996V13ZM26.4996 13.9998C26.2236 13.9998 25.9998 14.2236 25.9996 14.4998C25.9993 14.7764 26.2232 15.0008 26.4996 15.0008C26.7759 15.0008 26.9998 14.7764 26.9995 14.4998C26.9993 14.2236 26.7755 13.9998 26.4996 13.9998ZM27.9995 13.9998C27.7235 13.9998 27.4998 14.2236 27.4995 14.4998C27.4993 14.7764 27.7232 15.0008 27.9995 15.0008C28.2759 15.0008 28.4998 14.7764 28.4995 14.4998C28.4992 14.2236 28.2755 13.9998 27.9995 13.9998ZM29.4995 13.9998C29.2235 13.9998 28.9998 14.2236 28.9995 14.4998C28.9992 14.7764 29.2231 15.0008 29.4995 15.0008C29.7758 15.0008 29.9997 14.7764 29.9995 14.4998C29.9992 14.2236 29.7754 13.9998 29.4995 13.9998ZM13.9003 15.997C13.4003 15.997 13 16.4042 13 16.8944V20.1023C13 20.5925 13.412 20.9998 13.9003 20.9998H14.4989V22.0036C14.4963 22.4446 15.0242 22.6728 15.3436 22.3689L16.7977 20.9998H20.1033C20.6014 20.9998 21 20.5925 20.9997 20.1023L20.9978 16.8944C20.9975 16.4042 20.6054 15.997 20.1014 15.997H13.9003ZM36.3996 16.4989C35.9113 16.4989 35.4993 16.9061 35.4993 17.3963V20.5994C35.4993 21.0896 35.9113 21.4997 36.3996 21.4997H39.6993L41.1573 22.8649C41.4755 23.1628 41.9959 22.9394 41.9991 22.5036V21.4997H42.6006C43.089 21.4997 43.4971 21.0896 43.4971 20.5994V17.3963C43.4971 16.9061 43.089 16.4989 42.6006 16.4989H36.3996ZM14.0009 16.994H19.9978V19.9988H16.5985C16.471 19.999 16.3484 20.0479 16.2557 20.1356L15.4989 20.8485V20.5008C15.5 20.2247 15.277 20 15.0009 19.9989H14.0009V16.994ZM36.5002 17.4998H42.4971V20.4988H41.5011C41.2246 20.4977 40.9997 20.7213 40.9991 20.9978V21.3484L40.2423 20.6355C40.1494 20.5476 40.0264 20.4987 39.8986 20.4989H36.5002V17.4998ZM15.4999 17.9998C15.2239 17.9998 14.9999 18.2236 14.9999 18.4998C14.9999 18.776 15.2239 18.9998 15.4999 18.9998C15.7759 18.9998 15.9999 18.776 15.9999 18.4998C15.9999 18.2236 15.7759 17.9998 15.4999 17.9998ZM16.9998 17.9998C16.7239 17.9998 16.4999 18.2236 16.4999 18.4998C16.4999 18.776 16.7239 18.9998 16.9998 18.9998C17.2758 18.9998 17.4998 18.776 17.4998 18.4998C17.4998 18.2236 17.2758 17.9998 16.9998 17.9998ZM18.4998 17.9998C18.2238 17.9998 17.9998 18.2236 17.9998 18.4998C17.9998 18.776 18.2238 18.9998 18.4998 18.9998C18.7758 18.9998 18.9998 18.776 18.9998 18.4998C18.9998 18.2236 18.7758 17.9998 18.4998 17.9998ZM37.9992 18.4998C37.7232 18.4998 37.4992 18.7236 37.4992 18.9998C37.4992 19.276 37.7232 19.4998 37.9992 19.4998C38.2752 19.4998 38.4992 19.276 38.4992 18.9998C38.4992 18.7236 38.2752 18.4998 37.9992 18.4998ZM39.4992 18.4998C39.2232 18.4998 38.9992 18.7236 38.9992 18.9998C38.9992 19.276 39.2232 19.4998 39.4992 19.4998C39.7751 19.4998 39.9991 19.276 39.9991 18.9998C39.9991 18.7236 39.7751 18.4998 39.4992 18.4998ZM40.9991 18.4998C40.7231 18.4998 40.4991 18.7236 40.4991 18.9998C40.4991 19.276 40.7231 19.4998 40.9991 19.4998C41.2751 19.4998 41.4991 19.276 41.4991 18.9998C41.4991 18.7236 41.2751 18.4998 40.9991 18.4998ZM27.9995 19.4959C26.8889 19.4959 25.9996 20.4016 25.9996 21.5007C25.9996 22.5998 26.8968 23.5007 27.9995 23.5007C29.1023 23.5007 30.0004 22.5998 30.0004 21.5007C30.0004 20.4016 29.1101 19.4959 27.9995 19.4959ZM27.9995 20.4959C28.5409 20.4959 29.0005 20.9416 29.0005 21.5007C29.0005 22.0599 28.5409 22.5007 27.9995 22.5007C27.4581 22.5007 26.9995 22.0599 26.9995 21.5007C26.9995 20.9416 27.4581 20.4959 27.9995 20.4959ZM26.9995 23.9987C26.0841 23.9987 25.4934 24.1117 25.0064 24.5817L23.4713 25.8922C22.9965 26.2809 22.9092 26.4869 22.777 26.8404L22.0866 28.7564C21.806 29.5352 22.1834 30.4041 22.9801 30.7016C23.7769 30.9991 24.6259 30.5727 24.9068 29.7934L25.5015 28.1441V31.5131H20.9978C20.7216 31.5131 20.4997 31.7389 20.4997 32.0151V34.0013C20.4997 34.2759 20.7232 34.4994 20.9978 34.4994H27.4976V39.1027L23.3932 39.9953C23.1636 40.0452 22.9987 40.2476 22.9987 40.4826V41.4992C22.9987 42.1809 23.9987 42.1809 23.9987 41.4992V40.8849L27.9995 40.0168L32.0004 40.8849V41.4992C32.0004 42.1665 33.0013 42.1665 33.0013 41.4992V40.4826C33.0013 40.2474 32.8357 40.0453 32.6058 39.9953L28.4975 39.1018V34.4994H34.9973C35.2735 34.4994 35.4993 34.2774 35.4993 34.0013V32.0151C35.4993 31.7374 35.275 31.5131 34.9973 31.5131H30.4985V28.2945C30.7011 28.4044 30.9285 28.5718 31.4984 28.5718H33.4993C34.3271 28.5718 34.9973 27.8991 34.9973 27.0513C34.9973 26.2036 34.3271 25.5309 33.4993 25.5309H31.7787C31.1589 25.1354 30.4551 24.6865 29.8676 24.3092C29.6615 24.1845 29.3279 23.9987 29.0005 23.9987H26.9995ZM14.5243 24.0357C13.1273 24.0357 12 25.1452 12 26.5161C12 27.8871 13.1274 29.0004 14.5243 29.0004C15.9212 29.0004 17.0526 27.8871 17.0526 26.5161C17.0526 25.1452 15.9214 24.0357 14.5243 24.0357ZM41.4747 24.0357C40.0817 24.0357 38.9464 25.1452 38.9464 26.5161C38.9464 27.8871 40.0836 29.0004 41.4747 29.0004C42.8657 29.0004 44 27.8871 44 26.5161C44 25.1452 42.8677 24.0357 41.4747 24.0357ZM26.9995 24.9986H27.4995C27.4995 25.8344 27.5078 26.6726 27.4995 27.5092C27.4927 28.191 28.4995 28.191 28.4995 27.5092V24.9986H29.0005C28.9469 24.9986 29.0501 24.9835 29.351 25.1617L31.3656 26.4536C31.4452 26.5037 31.5372 26.5305 31.6313 26.5307H33.4993C33.7795 26.5307 34.0013 26.7711 34.0013 27.0512C34.0013 27.3313 33.7795 27.5717 33.4993 27.5717H31.4984C31.1923 27.5717 31.1915 27.5358 30.8568 27.3501L30.2553 26.9917C29.9202 26.792 29.4985 27.0342 29.4985 27.4243V31.4915H26.5015V27.0551C26.5015 26.6242 26.0018 26.3912 25.6744 26.6714L24.7555 27.4575C24.6883 27.5145 24.6375 27.5882 24.608 27.6713L23.9655 29.4574C23.8641 29.7392 23.578 29.8578 23.3268 29.764C23.0756 29.6703 22.9263 29.3744 23.028 29.0922L23.7184 27.1762C23.8414 26.8335 23.8607 26.909 24.1461 26.6303C24.6584 26.1937 25.1794 25.7512 25.6851 25.313C25.9787 25.0195 26.5809 24.9999 26.9995 24.9986ZM16.0526 26.5161C16.0526 27.3348 15.367 27.9995 14.5243 27.9995C13.6817 27.9995 13 27.3348 13 26.5161C13 25.6974 13.6817 25.0357 14.5243 25.0357C15.367 25.0357 16.0526 25.6974 16.0526 26.5161ZM42.9991 26.5161C42.9991 27.3348 42.3154 27.9995 41.4747 27.9995C40.6339 27.9995 39.9474 27.3348 39.9474 26.5161C39.9474 25.6974 40.634 25.0357 41.4747 25.0357C42.3154 25.0357 42.9991 25.6974 42.9991 26.5161ZM14.1884 29.9193C12.9821 29.9193 12.4253 31.0143 12.5058 31.639L13.2988 37.7912C13.4058 38.6214 14.0213 39.382 14.9823 39.382H16.7098L17.4149 42.4571C17.6089 43.3681 18.139 44 18.8982 44H20.0789C21.0152 44 21.6324 43.0911 21.57 42.2725L20.7771 36.8869C20.7202 36.5007 20.5871 36.1319 20.3454 35.8313C20.1038 35.5307 19.7194 35.304 19.2859 35.304H18.1893L17.6024 31.4984C17.4687 30.6316 16.8428 29.9193 15.9198 29.9193H14.1884ZM40.0802 29.9193C39.1142 29.9193 38.5219 30.6863 38.3967 31.4984L37.8098 35.304H36.7141C36.2806 35.304 35.9103 35.5132 35.6546 35.8313C35.4129 36.1319 35.2798 36.5007 35.2229 36.8869L34.429 42.2725C34.3536 42.7843 34.7739 43.999 35.9202 43.999H37.0979C37.534 43.999 37.8872 43.7958 38.1457 43.4609C38.3758 43.163 38.5034 42.8138 38.5851 42.4571L39.2902 39.382H41.0177C41.9397 39.382 42.5875 38.6652 42.7002 37.7912L43.4942 31.639C43.5761 31.0043 42.9924 29.9193 41.8106 29.9193H40.0802ZM15.9198 30.9193C16.2801 30.9193 16.5433 31.1972 16.6131 31.6498L17.2664 35.8801C17.3042 36.1243 17.5145 36.3039 17.7615 36.3039H19.2859C19.405 36.3039 19.4711 36.341 19.5662 36.4593C19.6612 36.5776 19.7515 36.7848 19.7878 37.0315L20.5701 42.3497C20.5994 42.5492 20.4307 42.9991 20.0789 42.9991H18.8982C18.5935 42.9991 18.4498 42.4631 18.3885 42.2316C18.3885 42.2316 17.8615 39.9233 17.5955 38.7697C17.5432 38.5428 17.3411 38.3821 17.1082 38.3821H14.9823C14.6107 38.3821 14.3421 38.0859 14.288 37.6663C14.026 35.6338 13.5019 31.5688 13.5019 31.5688C13.5019 31.246 13.7735 30.9193 14.1884 30.9193L15.9198 30.9193ZM40.0802 30.9193H41.8106C42.3229 30.9193 42.5198 31.3847 42.4971 31.5609L41.711 37.6662C41.661 38.0549 41.4141 38.382 41.0177 38.382H38.8918C38.6589 38.382 38.4565 38.5427 38.4045 38.7697L37.6105 42.2315C37.4933 42.6691 37.3495 42.999 37.0979 42.999H35.9202C35.6811 42.999 35.427 42.7386 35.429 42.3536L36.2122 37.0314C36.2737 36.6134 36.4599 36.3039 36.7141 36.3039H38.2385C38.4852 36.3039 38.695 36.124 38.7326 35.8801L39.3859 31.6498C39.4558 31.1972 39.7238 30.9193 40.0802 30.9193ZM21.5007 32.514H34.4993V33.4993H21.5007V32.514Z" fill="#DD8F3E"/>
</g>
<defs>
<clipPath id="clip0_4361_8410">
<rect width="32" height="32" fill="white" transform="translate(12 12)"/>
</clipPath>
</defs>
</svg>
