<svg width="56" height="56" viewBox="0 0 56 56" fill="none" xmlns="http://www.w3.org/2000/svg">
<rect width="56" height="56" rx="16" fill="#EBF3F3"/>
<g clip-path="url(#clip0_3889_67890)">
<path d="M30.7975 29.6694C30.6176 29.7321 30.4847 29.886 30.449 30.0732C30.4133 30.2604 30.4802 30.4524 30.6245 30.5769C30.7688 30.7015 30.9685 30.7395 31.1485 30.6769C35.5781 29.1417 38.2517 24.6323 37.4733 20.0092C36.6949 15.3862 32.6921 12.001 28.0039 12.001C23.3158 12.001 19.313 15.3862 18.5346 20.0092C17.7562 24.6323 20.4298 29.1417 24.8594 30.6769C25.1378 30.7736 25.4419 30.6264 25.5386 30.3481C25.6354 30.0697 25.4882 29.7656 25.2098 29.6689C24.2877 29.3471 23.4279 28.869 22.6679 28.2555V27.6747C22.6658 26.011 23.6902 24.5184 25.2434 23.9222C26.8957 25.0928 29.1069 25.0928 30.7591 23.9222C32.3124 24.5184 33.3368 26.011 33.3346 27.6747V28.2577C32.576 28.87 31.7178 29.3476 30.7975 29.6694ZM24.2679 20.0001C24.2679 17.9382 25.9394 16.2667 28.0013 16.2667C30.0631 16.2667 31.7346 17.9382 31.7346 20.0001C31.7346 22.0619 30.0631 23.7334 28.0013 23.7334C25.9404 23.731 24.2703 22.0609 24.2679 20.0001ZM31.6279 23.1323C33.3048 21.1957 33.1653 18.2836 31.3111 16.516C29.4569 14.7485 26.5414 14.7485 24.6872 16.516C22.833 18.2836 22.6935 21.1957 24.3703 23.1323C22.7999 23.9352 21.7582 25.4952 21.6183 27.2534C18.578 23.8269 18.7855 18.6112 22.0885 15.4371C25.3914 12.263 30.6112 12.263 33.9141 15.4371C37.217 18.6112 37.4245 23.8269 34.3842 27.2534C34.2439 25.4941 33.2003 23.9338 31.6279 23.1323Z" fill="#005B5B"/>
<path d="M23.4135 43.7927C23.7396 44.0333 24.1745 44.0667 24.5335 43.8786L28.0039 42.0754L31.4738 43.8791C31.8336 44.0662 32.2684 44.033 32.5957 43.7935C32.923 43.554 33.0861 43.1496 33.0167 42.75L32.3575 38.9463L35.1468 36.2578C35.4399 35.9753 35.5466 35.5506 35.4219 35.1631C35.2972 34.7757 34.9629 34.4929 34.5602 34.4343L30.6882 33.878L28.9602 30.4044C28.7807 30.0407 28.4095 29.8113 28.0039 29.8135C27.5995 29.812 27.2295 30.0406 27.0498 30.4028L25.3122 33.878L21.4487 34.4338C21.0457 34.4922 20.7111 34.7751 20.5864 35.1628C20.4617 35.5504 20.5687 35.9753 20.862 36.2578L23.6524 38.9463L22.9927 42.75C22.9222 43.1494 23.0855 43.5541 23.4135 43.7927ZM21.6002 35.4898L25.7399 34.894C25.9129 34.8692 26.0627 34.7612 26.141 34.605L28.0034 30.8802L29.8578 34.6039C29.9359 34.7607 30.086 34.8691 30.2594 34.894L34.4076 35.4898L31.4135 38.3746C31.2861 38.4974 31.228 38.6754 31.2583 38.8498L31.966 42.9335L28.2503 41.0023C28.0962 40.9222 27.9127 40.9222 27.7586 41.0023L24.0423 42.9335L24.75 38.8508C24.7803 38.6765 24.7222 38.4985 24.5948 38.3756L21.6002 35.4898Z" fill="#005B5B"/>
<path d="M14.5075 35.5849L13.9864 38.5977C13.9361 38.8786 14.0127 39.1674 14.1955 39.3865C14.3784 39.6055 14.6488 39.7325 14.9341 39.7332C15.09 39.733 15.2434 39.6953 15.3816 39.6233L18.1341 38.1908L20.8851 39.6265C21.0541 39.7146 21.2572 39.7058 21.418 39.6034C21.5787 39.501 21.6726 39.3207 21.6644 39.1303C21.6561 38.94 21.5469 38.7684 21.3779 38.6804L18.3805 37.1177C18.2261 37.0373 18.0422 37.0373 17.8877 37.1177L15.0733 38.5839L15.6067 35.4905C15.637 35.3162 15.5788 35.1382 15.4515 35.0153L13.1864 32.8287L16.3208 32.3785C16.4939 32.3536 16.6438 32.2454 16.7219 32.0889L18.1341 29.2655L19.5411 32.0884C19.6193 32.2453 19.7696 32.3538 19.9432 32.3785L23.292 32.8585C23.5836 32.9002 23.8538 32.6976 23.8955 32.406C23.9372 32.1144 23.7346 31.8442 23.443 31.8025L20.3709 31.3625L18.9965 28.6041C18.8337 28.276 18.4983 28.0691 18.132 28.0708H18.1288C17.7665 28.0701 17.4354 28.2758 17.2755 28.6009L15.8941 31.3625L12.8312 31.802C12.4645 31.8509 12.1586 32.1061 12.0447 32.4581C11.9308 32.8101 12.0293 33.1961 12.2979 33.4505L14.5075 35.5849Z" fill="#005B5B"/>
<path d="M43.9529 32.4566C43.8415 32.1065 43.5383 31.8519 43.1742 31.8028L40.1076 31.3628L38.7294 28.6017C38.5701 28.2757 38.239 28.0688 37.8761 28.0684H37.8729C37.5064 28.0664 37.1707 28.2734 37.0078 28.6017L35.634 31.3596L32.5614 31.7996C32.3728 31.8265 32.2129 31.9521 32.1419 32.1289C32.0709 32.3058 32.0997 32.507 32.2174 32.6569C32.335 32.8068 32.5237 32.8825 32.7124 32.8556L36.0617 32.3756C36.2353 32.3508 36.3856 32.2424 36.4638 32.0854L37.8676 29.2657L39.2772 32.0892C39.3553 32.2456 39.5051 32.3538 39.6782 32.3788L42.811 32.8284L40.546 35.015C40.4186 35.1379 40.3605 35.3159 40.3908 35.4902L40.9268 38.5836L38.1124 37.1158C37.9579 37.0354 37.774 37.0354 37.6196 37.1158L34.6222 38.6785C34.4532 38.7665 34.344 38.938 34.3357 39.1284C34.3275 39.3188 34.4214 39.4991 34.5821 39.6015C34.7429 39.7038 34.946 39.7127 35.115 39.6246L37.8676 38.191L40.6196 39.6268C40.9453 39.796 41.3389 39.7656 41.6348 39.5484C41.9307 39.3312 42.0776 38.9648 42.0137 38.6033L41.4942 35.5852L43.7054 33.4518C43.973 33.1956 44.0693 32.8083 43.9529 32.4566Z" fill="#005B5B"/>
<path d="M25.0669 37.1411C25.0926 37.1409 25.1182 37.139 25.1437 37.1352L27.1495 36.8467C27.3225 36.8218 27.4723 36.7138 27.5506 36.5576L28.4786 34.7021C28.6112 34.4385 28.5049 34.1173 28.2413 33.9848C27.9777 33.8522 27.6565 33.9585 27.5239 34.2221L26.7239 35.828L24.9933 36.0771C24.7161 36.1166 24.5166 36.3637 24.5365 36.643C24.5565 36.9223 24.789 37.1387 25.069 37.1384L25.0669 37.1411Z" fill="#005B5B"/>
</g>
<defs>
<clipPath id="clip0_3889_67890">
<rect width="32" height="32" fill="white" transform="translate(12 12)"/>
</clipPath>
</defs>
</svg>
