<svg width="35" height="35" viewBox="0 0 35 35" fill="none" xmlns="http://www.w3.org/2000/svg">
<circle cx="17.5" cy="17.5" r="17.5" fill="#639FA5"/>
<path d="M11.842 23.14C11.2167 23.14 10.638 23.0187 10.106 22.776C9.58333 22.5333 9.154 22.1833 8.818 21.726L9.854 20.48C10.1247 20.8533 10.4187 21.1333 10.736 21.32C11.0627 21.5067 11.4173 21.6 11.8 21.6C12.8173 21.6 13.326 20.998 13.326 19.794V14.726H9.84V13.2H15.146V19.696C15.146 20.8533 14.8613 21.7167 14.292 22.286C13.732 22.8553 12.9153 23.14 11.842 23.14ZM16.1077 23L20.5177 13.2H22.3097L26.7337 23H24.8297L21.0357 14.166H21.7637L17.9837 23H16.1077ZM18.1377 20.732L18.6277 19.304H23.9197L24.4097 20.732H18.1377Z" fill="white"/>
</svg>
