<svg width="56" height="56" viewBox="0 0 56 56" fill="none" xmlns="http://www.w3.org/2000/svg">
<rect width="56" height="56" rx="16" fill="#EBF3F3"/>
<path d="M39.3125 28.7595H36.1801C35.7538 28.7595 35.3411 28.8177 34.9482 28.9249C34.1734 27.4016 32.5914 26.355 30.7684 26.355H25.2316C23.4086 26.355 21.8266 27.4016 21.0518 28.9249C20.6589 28.8177 20.2462 28.7595 19.8199 28.7595H16.6875C14.1028 28.7595 12 30.8623 12 33.447V38.4544C12 40.0052 13.2617 41.2669 14.8125 41.2669H41.1875C42.7383 41.2669 44 40.0052 44 38.4544V33.447C44 30.8623 41.8972 28.7595 39.3125 28.7595ZM20.5441 31.0426V39.3919H14.8125C14.2956 39.3919 13.875 38.9714 13.875 38.4544V33.447C13.875 31.8962 15.1367 30.6345 16.6875 30.6345H19.8199C20.0744 30.6345 20.3208 30.6691 20.5554 30.7328C20.5487 30.8354 20.5441 30.9385 20.5441 31.0426ZM33.5809 39.3919H22.4191V31.0425C22.4191 29.4917 23.6807 28.23 25.2316 28.23H30.7684C32.3193 28.23 33.5809 29.4917 33.5809 31.0425V39.3919ZM42.125 38.4544C42.125 38.9714 41.7044 39.3919 41.1875 39.3919H35.4559V31.0425C35.4559 30.9384 35.4513 30.8352 35.4446 30.7327C35.6792 30.6691 35.9256 30.6345 36.1801 30.6345H39.3125C40.8633 30.6345 42.125 31.8962 42.125 33.447V38.4544Z" fill="#508287"/>
<path d="M18.2538 19.9067C15.9569 19.9067 14.0884 21.7753 14.0884 24.0721C14.0883 26.3689 15.9569 28.2375 18.2538 28.2375C20.5505 28.2375 22.4191 26.3689 22.4191 24.0721C22.4191 21.7753 20.5506 19.9067 18.2538 19.9067ZM18.2537 26.3625C16.9908 26.3625 15.9633 25.3351 15.9633 24.0721C15.9633 22.8092 16.9908 21.7817 18.2537 21.7817C19.5166 21.7817 20.5441 22.8092 20.5441 24.0721C20.5441 25.3351 19.5166 26.3625 18.2537 26.3625Z" fill="#508287"/>
<path d="M27.9999 14.7329C24.9314 14.7329 22.4351 17.2293 22.4351 20.2978C22.4351 23.3663 24.9314 25.8627 27.9999 25.8627C31.0684 25.8627 33.5648 23.3663 33.5648 20.2978C33.5648 17.2293 31.0684 14.7329 27.9999 14.7329ZM27.9999 23.9877C25.9653 23.9877 24.3101 22.3324 24.3101 20.2978C24.3101 18.2632 25.9653 16.6079 27.9999 16.6079C30.0346 16.6079 31.6898 18.2632 31.6898 20.2978C31.6898 22.3324 30.0346 23.9877 27.9999 23.9877Z" fill="#508287"/>
<path d="M37.7464 19.9067C35.4497 19.9067 33.5811 21.7753 33.5811 24.0721C33.5811 26.3689 35.4497 28.2375 37.7464 28.2375C40.0432 28.2375 41.9118 26.3689 41.9118 24.0721C41.9118 21.7753 40.0432 19.9067 37.7464 19.9067ZM37.7464 26.3625C36.4836 26.3625 35.4561 25.3351 35.4561 24.0721C35.4561 22.8092 36.4836 21.7817 37.7464 21.7817C39.0094 21.7817 40.0368 22.8092 40.0368 24.0721C40.0368 25.3351 39.0094 26.3625 37.7464 26.3625Z" fill="#508287"/>
</svg>
