<svg width="56" height="56" viewBox="0 0 56 56" fill="none" xmlns="http://www.w3.org/2000/svg">
<rect width="56" height="56" rx="16" fill="#FDEFE6"/>
<g clip-path="url(#clip0_4361_51803)">
<path d="M16.2488 13.5137C15.4094 13.5137 14.7266 14.1965 14.7266 15.0359C14.7266 15.8752 15.4094 16.558 16.2488 16.558C17.0881 16.558 17.7709 15.8752 17.7709 15.0359C17.7709 14.1965 17.0881 13.5137 16.2488 13.5137ZM16.2488 15.6069C15.9338 15.6069 15.6776 15.3507 15.6776 15.0358C15.6776 14.7209 15.9338 14.4647 16.2488 14.4647C16.5637 14.4647 16.8199 14.7209 16.8199 15.0358C16.8199 15.3508 16.5637 15.6069 16.2488 15.6069Z" fill="#F8A046"/>
<path d="M19.7722 13.5137C18.9329 13.5137 18.25 14.1965 18.25 15.0359C18.25 15.8752 18.9329 16.558 19.7722 16.558C20.6115 16.558 21.2944 15.8752 21.2944 15.0359C21.2944 14.1965 20.6115 13.5137 19.7722 13.5137ZM19.7722 15.6069C19.4572 15.6069 19.2011 15.3507 19.2011 15.0358C19.2011 14.7209 19.4572 14.4647 19.7722 14.4647C20.0871 14.4647 20.3433 14.7209 20.3433 15.0358C20.3433 15.3508 20.0871 15.6069 19.7722 15.6069Z" fill="#F8A046"/>
<path d="M23.2956 13.5137C22.4562 13.5137 21.7734 14.1965 21.7734 15.0359C21.7734 15.8752 22.4563 16.558 23.2956 16.558C24.135 16.558 24.8179 15.8752 24.8179 15.0359C24.8178 14.1965 24.1349 13.5137 23.2956 13.5137ZM23.2956 15.6069C22.9806 15.6069 22.7244 15.3507 22.7244 15.0358C22.7244 14.7209 22.9806 14.4647 23.2956 14.4647C23.6105 14.4647 23.8667 14.7209 23.8667 15.0358C23.8667 15.3508 23.6105 15.6069 23.2956 15.6069Z" fill="#F8A046"/>
<path d="M42.2632 18.3272C42.1111 18.1132 41.8141 18.063 41.6 18.2153C41.386 18.3675 41.3359 18.6644 41.488 18.8783C42.1576 19.8197 42.5115 20.9302 42.5115 22.0898C42.5115 25.1488 40.0227 27.6376 36.9637 27.6376C33.9047 27.6376 31.4159 25.1488 31.4159 22.0898C31.4159 19.0307 33.9047 16.5419 36.9637 16.5419C38.2288 16.5419 39.4201 16.9566 40.4088 17.741C40.6146 17.9042 40.9137 17.8698 41.077 17.664C41.2402 17.4583 41.2057 17.1592 40.9999 16.9959C39.8413 16.0767 38.4456 15.5908 36.9637 15.5908C33.3802 15.5908 30.4648 18.5062 30.4648 22.0897C30.4648 25.6732 33.3802 28.5886 36.9637 28.5886C40.5472 28.5886 43.4625 25.6732 43.4625 22.0897C43.4627 20.7316 43.0479 19.4304 42.2632 18.3272Z" fill="#F8A046"/>
<path d="M37.0451 29.6102C36.7824 29.6102 36.5695 29.8231 36.5695 30.0858V41.4924C36.5695 42.3507 35.8709 43.0489 35.0123 43.0489H15.0428C14.1846 43.0489 13.4863 42.3506 13.4863 41.4924V18.1739H30.8778C31.1405 18.1739 31.3534 17.961 31.3534 17.6984C31.3534 17.4358 31.1405 17.2228 30.8778 17.2228H13.4863V14.5076C13.4863 13.6494 14.1846 12.9511 15.0428 12.9511H35.0123C35.871 12.9511 36.5696 13.6494 36.5696 14.5076C36.5696 14.7703 36.7825 14.9832 37.0452 14.9832C37.3078 14.9832 37.5207 14.7703 37.5207 14.5076C37.5206 13.1249 36.3954 12 35.0123 12H15.0428C13.6602 12 12.5352 13.1249 12.5352 14.5076V41.4924C12.5352 42.8751 13.6601 44 15.0428 44H35.0123C36.3954 44 37.5207 42.8751 37.5207 41.4924V30.0858C37.5206 29.8231 37.3078 29.6102 37.0451 29.6102Z" fill="#F8A046"/>
<path d="M28.5985 20.9561H18.042C17.7793 20.9561 17.5664 21.169 17.5664 21.4316C17.5664 21.6942 17.7793 21.9072 18.042 21.9072H28.5985C28.8611 21.9072 29.074 21.6942 29.074 21.4316C29.074 21.169 28.8612 20.9561 28.5985 20.9561Z" fill="#F8A046"/>
<path d="M16.3818 21.3388C16.2937 20.9181 15.7126 20.8186 15.5008 21.1994C15.2933 21.5725 15.6644 22.0204 16.0699 21.8809C16.2905 21.8051 16.4296 21.569 16.3818 21.3388Z" fill="#F8A046"/>
<path d="M28.5985 26.2695H18.042C17.7793 26.2695 17.5664 26.4825 17.5664 26.7451C17.5664 27.0077 17.7793 27.2207 18.042 27.2207H28.5985C28.8612 27.2207 29.074 27.0077 29.074 26.7451C29.074 26.4825 28.8612 26.2695 28.5985 26.2695Z" fill="#F8A046"/>
<path d="M16.2537 26.408C15.9577 26.121 15.4411 26.3257 15.4414 26.7447C15.4416 26.9525 15.583 27.1407 15.7817 27.2002C15.9706 27.2567 16.182 27.1862 16.2992 27.0277C16.438 26.8399 16.4178 26.5734 16.2537 26.408Z" fill="#F8A046"/>
<path d="M32.8771 28.9258H29.8974C29.6348 28.9258 29.4219 29.1387 29.4219 29.4013C29.4219 29.664 29.6348 29.8769 29.8974 29.8769H32.8771C33.1397 29.8769 33.3527 29.664 33.3527 29.4013C33.3527 29.1387 33.1398 28.9258 32.8771 28.9258Z" fill="#F8A046"/>
<path d="M28.3122 28.9258H22.7646C22.5019 28.9258 22.2891 29.1387 22.2891 29.4013C22.2891 29.664 22.5019 29.8769 22.7646 29.8769H28.3122C28.5749 29.8769 28.7878 29.664 28.7878 29.4013C28.7878 29.1387 28.5748 28.9258 28.3122 28.9258Z" fill="#F8A046"/>
<path d="M21.1804 28.9258H18.042C17.7793 28.9258 17.5664 29.1387 17.5664 29.4013C17.5664 29.664 17.7793 29.8769 18.042 29.8769H21.1804C21.4431 29.8769 21.656 29.664 21.656 29.4013C21.656 29.1387 21.4431 28.9258 21.1804 28.9258Z" fill="#F8A046"/>
<path d="M16.2536 29.0653C15.9507 28.7624 15.4157 29.0031 15.4424 29.4308C15.4544 29.6245 15.5878 29.7944 15.7722 29.8538C15.9733 29.9186 16.2 29.8383 16.3152 29.6611C16.4364 29.4749 16.411 29.2227 16.2536 29.0653Z" fill="#F8A046"/>
<path d="M25.7453 31.583H18.042C17.7793 31.583 17.5664 31.7959 17.5664 32.0586C17.5664 32.3212 17.7793 32.5341 18.042 32.5341H25.7453C26.008 32.5341 26.2209 32.3212 26.2209 32.0586C26.2209 31.7959 26.008 31.583 25.7453 31.583Z" fill="#F8A046"/>
<path d="M16.382 31.9659C16.2937 31.5447 15.7157 31.4466 15.5022 31.8246C15.3966 32.0118 15.4311 32.2524 15.5864 32.4014C15.7287 32.5379 15.9456 32.5718 16.123 32.4863C16.3143 32.3942 16.4253 32.1745 16.382 31.9659Z" fill="#F8A046"/>
<path d="M30.5 34.2402H29.042C28.7793 34.2402 28.5664 34.4532 28.5664 34.7158C28.5664 34.9784 28.7793 35.1914 29.042 35.1914H30.5C30.7627 35.1914 30.9756 34.9784 30.9756 34.7158C30.9756 34.4532 30.7627 34.2402 30.5 34.2402Z" fill="#F8A046"/>
<path d="M27.4573 34.2402H23.2412C22.9785 34.2402 22.7656 34.4532 22.7656 34.7158C22.7656 34.9784 22.9785 35.1914 23.2412 35.1914H27.4573C27.7199 35.1914 27.9329 34.9784 27.9329 34.7158C27.9329 34.4532 27.72 34.2402 27.4573 34.2402Z" fill="#F8A046"/>
<path d="M21.6559 34.2402H18.042C17.7793 34.2402 17.5664 34.4532 17.5664 34.7158C17.5664 34.9784 17.7793 35.1914 18.042 35.1914H21.6559C21.9186 35.1914 22.1315 34.9784 22.1315 34.7158C22.1315 34.4532 21.9186 34.2402 21.6559 34.2402Z" fill="#F8A046"/>
<path d="M16.2535 34.3795C15.9508 34.0768 15.4159 34.3181 15.4424 34.7452C15.4544 34.9391 15.5875 35.1088 15.7722 35.1681C15.9733 35.2327 16.2 35.1533 16.3152 34.9758C16.4363 34.7893 16.4111 34.5371 16.2535 34.3795Z" fill="#F8A046"/>
<path d="M32.6892 36.8965H25.9052C25.6426 36.8965 25.4297 37.1094 25.4297 37.372C25.4297 37.6347 25.6426 37.8476 25.9052 37.8476H32.6891C32.9518 37.8476 33.1647 37.6347 33.1647 37.372C33.1647 37.1094 32.9519 36.8965 32.6892 36.8965Z" fill="#F8A046"/>
<path d="M24.3188 36.8965H18.042C17.7793 36.8965 17.5664 37.1094 17.5664 37.372C17.5664 37.6347 17.7793 37.8476 18.042 37.8476H24.3188C24.5814 37.8476 24.7943 37.6347 24.7943 37.372C24.7943 37.1094 24.5815 36.8965 24.3188 36.8965Z" fill="#F8A046"/>
<path d="M16.3853 37.2796C16.2989 36.8675 15.7356 36.7595 15.5137 37.1242C15.2914 37.4893 15.6476 37.953 16.0569 37.8274C16.2861 37.7571 16.4344 37.5163 16.3853 37.2796Z" fill="#F8A046"/>
<path d="M21.1804 39.5537H18.042C17.7793 39.5537 17.5664 39.7666 17.5664 40.0293C17.5664 40.2919 17.7793 40.5048 18.042 40.5048H21.1804C21.4431 40.5048 21.656 40.2919 21.656 40.0293C21.656 39.7666 21.4431 39.5537 21.1804 39.5537Z" fill="#F8A046"/>
<path d="M16.3553 39.8469C16.1941 39.4644 15.6381 39.4632 15.4771 39.8469C15.3961 40.0402 15.4566 40.2729 15.6218 40.4022C15.7699 40.518 15.9769 40.5363 16.1423 40.4469C16.3529 40.3333 16.4489 40.0681 16.3553 39.8469Z" fill="#F8A046"/>
<path d="M20.4195 23.6123H18.042C17.7793 23.6123 17.5664 23.8252 17.5664 24.0879C17.5664 24.3505 17.7793 24.5634 18.042 24.5634H20.4195C20.6822 24.5634 20.8951 24.3505 20.8951 24.0879C20.8951 23.8252 20.6822 23.6123 20.4195 23.6123Z" fill="#F8A046"/>
<path d="M26.6967 23.6123H22.1318C21.8691 23.6123 21.6562 23.8252 21.6562 24.0879C21.6562 24.3505 21.8691 24.5634 22.1318 24.5634H26.6967C26.9594 24.5634 27.1723 24.3505 27.1723 24.0879C27.1723 23.8252 26.9595 23.6123 26.6967 23.6123Z" fill="#F8A046"/>
<path d="M16.3856 23.9952C16.2983 23.5786 15.7263 23.4752 15.5093 23.8478C15.2921 24.2204 15.6648 24.679 16.0737 24.5379C16.2941 24.4619 16.4333 24.2252 16.3856 23.9952Z" fill="#F8A046"/>
<path d="M39.7545 18.9591C39.5221 18.8368 39.2345 18.926 39.1122 19.1585L36.5662 23.9959L34.7404 22.094C34.5585 21.9046 34.2576 21.8985 34.0681 22.0803C33.8787 22.2622 33.8724 22.5632 34.0544 22.7527L36.3369 25.1302C36.4272 25.2243 36.5514 25.2764 36.6799 25.2764C36.7019 25.2764 36.7241 25.2749 36.7464 25.2717C36.8977 25.2504 37.0296 25.1576 37.1007 25.0224L39.9538 19.6014C40.0762 19.369 39.9869 19.0814 39.7545 18.9591Z" fill="#F8A046"/>
</g>
<defs>
<clipPath id="clip0_4361_51803">
<rect width="32" height="32" fill="white" transform="translate(12 12)"/>
</clipPath>
</defs>
</svg>
