<svg width="56" height="56" viewBox="0 0 56 56" fill="none" xmlns="http://www.w3.org/2000/svg">
<rect width="56" height="56" rx="16" fill="#FDEFE6"/>
<g clip-path="url(#clip0_4361_33036)">
<path d="M43.2 25.5502L32.2 20.5502C32.05 20.5002 31.9 20.5002 31.8 20.5502L20.8 25.5502C20.6 25.6002 20.5 25.8002 20.5 26.0002C20.5 26.2002 20.6 26.3502 20.8 26.4502L24.5 28.3002C24.5 28.3002 24.5 32.1502 24.55 32.2002C25 33.3502 29.35 33.5002 32 33.5002C34.65 33.5002 39 33.3502 39.45 32.2002C39.5 32.1502 39.5 28.3002 39.5 28.3002L43.2 26.4502C43.35 26.3502 43.5 26.2002 43.5 26.0002C43.5 25.8002 43.4 25.6002 43.2 25.5502ZM36 27.5002C36.3 27.5002 36.5 27.7002 36.5 28.0002V28.5002H35.5V28.0002C35.5 27.7002 35.7 27.5002 36 27.5002ZM38.5 31.1002C37.85 30.9002 36.8 30.7002 35.05 30.6002C34.8 30.6002 34.55 30.8002 34.5 31.0502C34.5 31.3502 34.7 31.5502 34.95 31.6002C36.5 31.7002 37.45 31.8502 38 32.0002C37.05 32.2502 35.05 32.5002 32 32.5002C28.95 32.5002 26.95 32.2502 26 32.0002C26.95 31.7502 28.95 31.5002 32 31.5002H33C33 31.5002 33.5 31.3002 33.5 31.0002C33.5 30.7002 33.3 30.5002 33 30.5002C32.65 30.5002 32.3 30.5002 31.95 30.5002C29.95 30.5002 27 30.6002 25.45 31.1502V26.3002C26.3 25.8502 27.2 25.4502 28.1 25.2002C28.35 25.1002 28.5 24.8502 28.45 24.6002C28.35 24.3502 28.1 24.2002 27.85 24.2502C26.75 24.5502 25.75 25.0002 24.75 25.6002C24.6 25.6502 24.5 25.8002 24.5 26.0002V27.2002L22.15 26.0002L32 21.5502L35.5 23.1502V24.1002C33.65 23.6502 31.75 23.5502 29.9 23.8002C29.65 23.8502 29.45 24.1002 29.5 24.3502C29.55 24.6002 29.8 24.8002 30.05 24.7502C31.85 24.5002 33.75 24.6002 35.5 25.1002V26.6002C34.9 26.8002 34.5 27.3502 34.5 28.0002V29.0002C34.5 29.3002 34.7 29.5002 35 29.5002H37C37.3 29.5002 37.5 29.3002 37.5 29.0002V28.0002C37.5 27.3502 37.1 26.8002 36.5 26.6002V25.4002C37.2 25.6502 37.85 25.9502 38.5 26.3002V31.1002ZM39.5 27.2002V26.0002C39.5 25.8002 39.4 25.6502 39.25 25.5502C38.4 25.0502 37.45 24.6502 36.5 24.3502V23.6002L41.85 26.0002L39.5 27.2002Z" fill="#F8A046"/>
<path d="M34 34.5C33.7 34.5 33.5 34.7 33.5 35V41.95C33.5 42.2 33.3 42.5 32.95 42.5H24.1L19.25 40.35C19 40.25 18.7 40.35 18.6 40.6C18.5 40.85 18.6 41.15 18.85 41.25L20 41.75L14.75 40.8C15.05 40.5 15.3 40.15 15.4 39.7L16.8 40.35C17.05 40.45 17.35 40.35 17.45 40.1C17.55 39.85 17.45 39.55 17.2 39.45L15.2 38.55C15.05 38.5 14.85 38.5 14.7 38.6C14.6 38.65 14.5 38.85 14.5 39C14.5 39.65 14.1 40.2 13.5 40.4V24C13.5 23.7 13.3 23.5 13 23.5C12.7 23.5 12.5 23.7 12.5 24V40.95C12.5 41.2 12.65 41.45 12.9 41.5L23.9 43.5H32.95C33.8 43.5 34.5 42.8 34.5 41.95V35C34.5 34.7 34.3 34.5 34 34.5Z" fill="#F8A046"/>
<path d="M13 22.45C13.3 22.45 13.5 22.25 13.5 21.95V21C13.5 20.7 13.3 20.5 13 20.5C12.7 20.5 12.5 20.7 12.5 21V21.95C12.5 22.25 12.7 22.45 13 22.45Z" fill="#F8A046"/>
<path d="M13 19.7C13.3 19.7 13.5 19.5 13.5 19.2V14.05C13.5 13.8 13.8 13.5 14.05 13.5H28C28.3 13.5 28.5 13.3 28.5 13C28.5 12.7 28.3 12.5 28 12.5H14.05C13.2 12.5 12.5 13.2 12.5 14.05V19.2C12.5 19.5 12.7 19.7 13 19.7Z" fill="#F8A046"/>
<path d="M30 13.5H32.95C33.2 13.5 33.5 13.8 33.5 14.05V20C33.5 20.3 33.7 20.5 34 20.5C34.3 20.5 34.5 20.3 34.5 20V14.05C34.5 13.2 33.8 12.5 32.95 12.5H30C29.7 12.5 29.5 12.7 29.5 13C29.5 13.3 29.7 13.5 30 13.5Z" fill="#F8A046"/>
<path d="M28.5 15C28.5 14.7 28.3 14.5 28 14.5H19C18.7 14.5 18.5 14.7 18.5 15C18.5 15.3 18.7 15.5 19 15.5H28C28.3 15.5 28.5 15.3 28.5 15Z" fill="#F8A046"/>
<path d="M21 16.5C20.7 16.5 20.5 16.7 20.5 17C20.5 17.3 20.7 17.5 21 17.5H26C26.3 17.5 26.5 17.3 26.5 17C26.5 16.7 26.3 16.5 26 16.5H21Z" fill="#F8A046"/>
<path d="M17 28C16.7 28 16.5 28.2 16.5 28.5H15.5V27.5H16.5C16.8 27.5 17 27.3 17 27C17 26.7 16.8 26.5 16.5 26.5H15.5C14.95 26.5 14.5 26.95 14.5 27.5V28.5C14.5 29.05 14.95 29.5 15.5 29.5H16.5C17.05 29.5 17.5 29.05 17.5 28.5C17.5 28.25 17.3 28 17 28Z" fill="#F8A046"/>
<path d="M17.5 31.5C17.5 30.95 17.05 30.5 16.5 30.5H15.5C14.95 30.5 14.5 30.95 14.5 31.5V32.5C14.5 33.05 14.95 33.5 15.5 33.5H16.5C17.05 33.5 17.5 33.05 17.5 32.5V31.5ZM15.5 32.5V31.5H16.5V32.5H15.5Z" fill="#F8A046"/>
<path d="M15 36C14.7 36 14.5 36.2 14.5 36.5C14.5 37.05 14.95 37.5 15.5 37.5H16.5C17.05 37.5 17.5 37.05 17.5 36.5V35.5C17.5 34.95 17.05 34.5 16.5 34.5H15.5C15.2 34.5 15 34.7 15 35C15 35.3 15.2 35.5 15.5 35.5H16.5V36.5H15.5C15.5 36.25 15.3 36 15 36Z" fill="#F8A046"/>
<path d="M32.5 19C32.5 18.7 32.3 18.5 32 18.5H19C18.7 18.5 18.5 18.7 18.5 19C18.5 19.3 18.7 19.5 19 19.5H32C32.3 19.5 32.5 19.3 32.5 19Z" fill="#F8A046"/>
<path d="M27.5 21C27.5 20.7 27.3 20.5 27 20.5H19C18.7 20.5 18.5 20.7 18.5 21C18.5 21.3 18.7 21.5 19 21.5H27C27.3 21.5 27.5 21.3 27.5 21Z" fill="#F8A046"/>
<path d="M23.5 23C23.5 22.7 23.3 22.5 23 22.5H19C18.7 22.5 18.5 22.7 18.5 23C18.5 23.3 18.7 23.5 19 23.5H23C23.3 23.5 23.5 23.3 23.5 23Z" fill="#F8A046"/>
<path d="M20 24.5H19C18.7 24.5 18.5 24.7 18.5 25C18.5 25.3 18.7 25.5 19 25.5H20C20.3 25.5 20.5 25.3 20.5 25C20.5 24.7 20.3 24.5 20 24.5Z" fill="#F8A046"/>
<path d="M20 26.5H19C18.7 26.5 18.5 26.7 18.5 27C18.5 27.3 18.7 27.5 19 27.5H20C20.3 27.5 20.5 27.3 20.5 27C20.5 26.7 20.3 26.5 20 26.5Z" fill="#F8A046"/>
<path d="M23 28.5H19C18.7 28.5 18.5 28.7 18.5 29C18.5 29.3 18.7 29.5 19 29.5H23C23.3 29.5 23.5 29.3 23.5 29C23.5 28.7 23.3 28.5 23 28.5Z" fill="#F8A046"/>
<path d="M19 31.5H23C23.3 31.5 23.5 31.3 23.5 31C23.5 30.7 23.3 30.5 23 30.5H19C18.7 30.5 18.5 30.7 18.5 31C18.5 31.3 18.7 31.5 19 31.5Z" fill="#F8A046"/>
<path d="M19 33.5H23C23.3 33.5 23.5 33.3 23.5 33C23.5 32.7 23.3 32.5 23 32.5H19C18.7 32.5 18.5 32.7 18.5 33C18.5 33.3 18.7 33.5 19 33.5Z" fill="#F8A046"/>
<path d="M32 34.5H19C18.7 34.5 18.5 34.7 18.5 35C18.5 35.3 18.7 35.5 19 35.5H32C32.3 35.5 32.5 35.3 32.5 35C32.5 34.7 32.3 34.5 32 34.5Z" fill="#F8A046"/>
<path d="M26 36.5H19C18.7 36.5 18.5 36.7 18.5 37C18.5 37.3 18.7 37.5 19 37.5H26C26.3 37.5 26.5 37.3 26.5 37C26.5 36.7 26.3 36.5 26 36.5Z" fill="#F8A046"/>
<path d="M14.6508 20.3498L15.6508 21.3498C16.0508 21.6498 16.4008 21.3498 16.4508 21.2498L17.4508 19.2498C17.5508 18.9998 17.4508 18.6998 17.2508 18.5998C17.0008 18.4998 16.7008 18.5998 16.6008 18.7998L15.9008 20.1998L15.4008 19.6998C15.2008 19.4998 14.9008 19.4998 14.7008 19.6998C14.5008 19.8998 14.4508 20.1498 14.6508 20.3498Z" fill="#F8A046"/>
<path d="M14.6508 24.3498L15.6508 25.3498C16.0008 25.6498 16.4008 25.3498 16.4508 25.2498L17.4508 23.2498C17.5508 22.9998 17.4508 22.6998 17.2508 22.5998C17.0008 22.4998 16.7008 22.5998 16.6008 22.7998L15.9008 24.1998L15.4008 23.6998C15.2008 23.4998 14.9008 23.4998 14.7008 23.6998C14.5008 23.8998 14.4508 24.1498 14.6508 24.3498Z" fill="#F8A046"/>
<path d="M32 38.5C31.7 38.5 31.5 38.7 31.5 39V40.2C31.5 40.35 31.35 40.5 31.2 40.5H30C29.7 40.5 29.5 40.7 29.5 41C29.5 41.3 29.7 41.5 30 41.5H31.2C31.95 41.5 32.5 40.95 32.5 40.2V39C32.5 38.7 32.3 38.5 32 38.5Z" fill="#F8A046"/>
<path d="M27 41.5H28C28.3 41.5 28.5 41.3 28.5 41C28.5 40.7 28.3 40.5 28 40.5H27C26.7 40.5 26.5 40.7 26.5 41C26.5 41.3 26.7 41.5 27 41.5Z" fill="#F8A046"/>
<path d="M15.5 16V15.5H16C16.3 15.5 16.5 15.3 16.5 15C16.5 14.7 16.3 14.5 16 14.5H15.45C14.95 14.5 14.5 14.95 14.5 15.45V16C14.5 16.3 14.7 16.5 15 16.5C15.3 16.5 15.5 16.3 15.5 16Z" fill="#F8A046"/>
</g>
<defs>
<clipPath id="clip0_4361_33036">
<rect width="32" height="32" fill="white" transform="translate(12 12)"/>
</clipPath>
</defs>
</svg>
