<svg width="32" height="32" viewBox="0 0 32 32" fill="none" xmlns="http://www.w3.org/2000/svg">
<circle cx="16" cy="16" r="16" fill="#EBF3F3"/>
<path d="M24.2422 9H7.75781C6.7866 9 6 9.78797 6 10.75V21.25C6 22.2178 6.79238 23 7.75781 23H24.2422C25.2053 23 26 22.2211 26 21.25V10.75C26 9.78968 25.2165 9 24.2422 9ZM23.996 10.1667C23.6369 10.5223 17.4564 16.643 17.243 16.8543C16.9109 17.1848 16.4695 17.3668 16 17.3668C15.5305 17.3668 15.0891 17.1848 14.7559 16.8532C14.6124 16.711 8.50012 10.658 8.00398 10.1667H23.996ZM7.17188 21.0125V10.9882L12.2359 16.0031L7.17188 21.0125ZM8.00473 21.8333L13.0667 16.8259L13.9284 17.6792C14.4818 18.2301 15.2175 18.5335 16 18.5335C16.7825 18.5335 17.5182 18.2301 18.0705 17.6803L18.9333 16.8259L23.9953 21.8333H8.00473ZM24.8281 21.0125L19.7641 16.0031L24.8281 10.9882V21.0125Z" fill="#004040"/>
</svg>
