<svg width="32" height="32" viewBox="0 0 32 32" fill="none" xmlns="http://www.w3.org/2000/svg">
<path d="M26.2876 20.2374V14.1574C26.2876 9.64127 23.4077 5.70324 19.4427 4.23229C19.489 4 19.5147 3.76263 19.5147 3.52517C19.5147 1.57938 17.9411 0 16.0023 0C14.0635 0 12.4898 1.57938 12.4898 3.52517C12.4898 3.75746 12.5155 3.98966 12.5567 4.2116C11.1939 4.69678 9.93394 5.46578 8.85914 6.50836C6.83295 8.46966 5.71702 11.1071 5.71702 13.9354V20.2374C5.71702 20.4593 5.53701 20.6451 5.31072 20.6451C3.41309 20.6451 1.79312 22.08 1.61826 23.9071C1.52053 24.9239 1.85487 25.9354 2.53882 26.689C3.21762 27.4374 4.18963 27.871 5.20268 27.871H11.4047C11.6619 30.1884 13.6264 32 16.0023 32C18.3782 32 20.3427 30.1884 20.5998 27.871H26.8019C27.815 27.871 28.787 27.4374 29.4658 26.689C30.1446 25.9354 30.4789 24.9239 30.3863 23.9071C30.2115 22.08 28.5864 20.6451 26.6939 20.6451C26.4676 20.6451 26.2876 20.4644 26.2876 20.2374ZM16.0023 2.06447C16.8045 2.06447 17.4576 2.71996 17.4576 3.52508C17.4576 3.59214 17.4473 3.65411 17.437 3.72117C17.0873 3.66954 16.7325 3.63343 16.3776 3.62308C15.7656 3.6024 15.1639 3.64377 14.5674 3.72634C14.5571 3.65928 14.5468 3.59731 14.5468 3.53025C14.547 2.71996 15.2001 2.06447 16.0023 2.06447ZM16.0023 29.9354C14.7629 29.9354 13.7241 29.0476 13.4824 27.8709H18.5221C18.2805 29.0477 17.2417 29.9354 16.0023 29.9354ZM28.3395 24.1032C28.3807 24.5471 28.2418 24.9754 27.9487 25.3006C27.6453 25.6258 27.2441 25.8063 26.8019 25.8063H5.20276C4.76048 25.8063 4.35941 25.6257 4.06106 25.3006C3.7628 24.9754 3.62393 24.547 3.66506 24.1032C3.73703 23.3238 4.46221 22.7096 5.31072 22.7096C6.66841 22.7096 7.77404 21.6 7.77404 20.2374V13.9354C7.77404 11.6748 8.66883 9.56387 10.2888 7.99483C11.8367 6.49293 13.8527 5.67738 16.0023 5.67738C16.1052 5.67738 16.2028 5.67738 16.3057 5.68255C20.6718 5.83736 24.2305 9.64127 24.2305 14.1574V20.2374C24.2305 21.6 25.3362 22.7096 26.6939 22.7096C27.5424 22.7096 28.2624 23.3238 28.3395 24.1032Z" fill="#395C5F"/>
</svg>
