<svg width="32" height="32" viewBox="0 0 32 32" fill="none" xmlns="http://www.w3.org/2000/svg">
<circle cx="16" cy="16" r="16" fill="#EBF3F3"/>
<path d="M22.4288 18.6484V14.8484C22.4288 12.0258 20.6289 9.56453 18.1507 8.64519C18.1797 8.50001 18.1957 8.35165 18.1957 8.20324C18.1958 6.98712 17.2122 6 16.0005 6C14.7888 6 13.8052 6.98712 13.8052 8.20324C13.8052 8.34842 13.8212 8.49354 13.847 8.63226C12.9952 8.93549 12.2078 9.41612 11.536 10.0677C10.2696 11.2936 9.57217 12.9419 9.57217 14.7097V18.6484C9.57217 18.7871 9.45966 18.9033 9.31823 18.9033C8.13221 18.9033 7.11972 19.8 7.01044 20.942C6.94936 21.5775 7.15832 22.2097 7.58579 22.6807C8.01004 23.1484 8.61754 23.4194 9.2507 23.4194H13.127C13.2877 24.8678 14.5155 26.0001 16.0005 26.0001C17.4854 26.0001 18.7133 24.8678 18.874 23.4194H22.7503C23.3835 23.4194 23.9909 23.1484 24.4152 22.6807C24.8394 22.2097 25.0484 21.5775 24.9905 20.942C24.8812 19.8 23.8656 18.9033 22.6827 18.9033C22.5413 18.9032 22.4288 18.7903 22.4288 18.6484ZM16.0005 7.2903C16.5019 7.2903 16.9101 7.69998 16.9101 8.20318C16.9101 8.24509 16.9036 8.28383 16.8972 8.32574C16.6786 8.29347 16.4568 8.2709 16.235 8.26443C15.8525 8.2515 15.4765 8.27736 15.1037 8.32897C15.0972 8.28706 15.0908 8.24833 15.0908 8.20641C15.0909 7.69998 15.4991 7.2903 16.0005 7.2903ZM16.0005 24.7096C15.2259 24.7096 14.5766 24.1548 14.4255 23.4193H17.5754C17.4244 24.1548 16.7751 24.7096 16.0005 24.7096ZM23.7113 21.0645C23.737 21.342 23.6502 21.6097 23.467 21.8129C23.2774 22.0161 23.0266 22.129 22.7503 22.129H9.25076C8.97433 22.129 8.72366 22.0161 8.53719 21.8129C8.35078 21.6097 8.26398 21.3419 8.28969 21.0645C8.33467 20.5774 8.78791 20.1935 9.31823 20.1935C10.1668 20.1935 10.8578 19.5 10.8578 18.6484V14.7097C10.8578 13.2968 11.4171 11.9774 12.4295 10.9968C13.397 10.0581 14.657 9.54837 16.0005 9.54837C16.0648 9.54837 16.1258 9.54837 16.1901 9.55161C18.9189 9.64836 21.1432 12.0258 21.1432 14.8484V18.6484C21.1432 19.5 21.8342 20.1935 22.6827 20.1935C23.2131 20.1935 23.6631 20.5774 23.7113 21.0645Z" fill="#004040"/>
</svg>
