<svg width="30" height="30" viewBox="0 0 30 30" fill="none" xmlns="http://www.w3.org/2000/svg">
<path d="M22.5939 1.94238L27.8102 7.37988V28.0574H8.32422V28.1249H27.8767V7.44832L22.5939 1.94238Z" fill="#909090"/>
<path d="M22.5294 1.875H8.25781V28.0575H27.8103V7.38094L22.5294 1.875Z" fill="#F4F4F4"/>
<path d="M8.11367 3.28125H2.12305V9.68156H20.9668V3.28125H8.11367Z" fill="#7A7B7C"/>
<path d="M21.0673 9.57297H2.24512V3.16797H21.0673V9.57297Z" fill="#DD2025"/>
<path d="M8.48605 4.25052H7.26074V8.75052H8.22449V7.23271L8.4373 7.2449C8.64409 7.24134 8.84893 7.2043 9.04387 7.13521C9.21478 7.07643 9.372 6.98362 9.50606 6.8624C9.64246 6.74692 9.75 6.60117 9.82012 6.43677C9.91414 6.16349 9.94773 5.87305 9.91855 5.58552C9.9127 5.38012 9.87669 5.1767 9.81168 4.98177C9.7525 4.84106 9.66467 4.71421 9.55379 4.6093C9.4429 4.50438 9.31139 4.42371 9.16762 4.3724C9.04331 4.3274 8.91488 4.29474 8.78418 4.2749C8.6852 4.25963 8.58526 4.25148 8.48512 4.25052M8.30793 6.40115H8.22449V5.01365H8.40543C8.48529 5.00789 8.56542 5.02015 8.6399 5.04952C8.71438 5.07889 8.78131 5.12462 8.83574 5.18334C8.94854 5.33429 9.0088 5.51803 9.0073 5.70646C9.0073 5.93709 9.0073 6.14615 8.79918 6.29334C8.64924 6.3758 8.47858 6.41387 8.30793 6.40115ZM11.7495 4.23834C11.6454 4.23834 11.5442 4.24584 11.4729 4.24865L11.2498 4.25427H10.5186V8.75427H11.3792C11.7081 8.76329 12.0355 8.70754 12.3429 8.59021C12.5903 8.49208 12.8094 8.33388 12.9804 8.1299C13.1467 7.92408 13.266 7.68443 13.3301 7.42771C13.4038 7.13696 13.4397 6.83794 13.437 6.53802C13.4552 6.1838 13.4278 5.8287 13.3554 5.48146C13.2868 5.22586 13.1582 4.9903 12.9804 4.79427C12.8409 4.63599 12.6702 4.50831 12.4789 4.41927C12.3146 4.34326 12.1418 4.28723 11.9642 4.2524C11.8935 4.24073 11.822 4.2354 11.7504 4.23646M11.5798 7.9274H11.4861V5.0549H11.4982C11.6915 5.03266 11.8871 5.06753 12.0607 5.15521C12.1879 5.25677 12.2916 5.38471 12.3645 5.53021C12.4432 5.68334 12.4886 5.8514 12.4976 6.02334C12.5061 6.22959 12.4976 6.39834 12.4976 6.53802C12.5014 6.69893 12.4911 6.85987 12.4667 7.01896C12.4378 7.1823 12.3844 7.34034 12.3082 7.48771C12.2221 7.62473 12.1057 7.74019 11.9679 7.82521C11.8523 7.90002 11.7153 7.93492 11.5779 7.92459M16.3404 4.25427H14.0623V8.75427H15.0261V6.96927H16.2448V6.13302H15.0261V5.09052H16.3386V4.25427" fill="#464648"/>
<path d="M20.4196 18.9892C20.4196 18.9892 23.4084 18.4473 23.4084 19.4682C23.4084 20.4892 21.5568 20.0738 20.4196 18.9892ZM18.21 19.067C17.7351 19.1719 17.2723 19.3255 16.829 19.5254L17.204 18.6817C17.579 17.8379 17.9681 16.6876 17.9681 16.6876C18.4156 17.4407 18.9362 18.1479 19.5225 18.7989C19.0803 18.8648 18.6422 18.9549 18.21 19.0689V19.067ZM17.0268 12.9732C17.0268 12.0835 17.3146 11.8407 17.5387 11.8407C17.7628 11.8407 18.015 11.9485 18.0234 12.721C17.9504 13.4978 17.7877 14.2635 17.5387 15.0029C17.1976 14.3821 17.021 13.6844 17.0259 12.976L17.0268 12.9732ZM12.6684 22.832C11.7515 22.2835 14.5912 20.5951 15.1059 20.5407C15.1031 20.5417 13.6284 23.4057 12.6684 22.832ZM24.2812 19.5892C24.2718 19.4954 24.1875 18.4576 22.3406 18.5017C21.5708 18.4893 20.8013 18.5435 20.0409 18.6639C19.3043 17.9217 18.6699 17.0847 18.1546 16.1748C18.4793 15.2367 18.6757 14.2592 18.7387 13.2685C18.7115 12.1435 18.4425 11.4985 17.58 11.5079C16.7175 11.5173 16.5918 12.272 16.7053 13.3951C16.8164 14.1498 17.026 14.8867 17.3287 15.587C17.3287 15.587 16.9303 16.8273 16.4034 18.061C15.8765 19.2948 15.5165 19.9417 15.5165 19.9417C14.6003 20.2399 13.7378 20.683 12.9618 21.2542C12.1893 21.9732 11.8753 22.5254 12.2821 23.0776C12.6328 23.5539 13.86 23.6617 14.9568 22.2245C15.5396 21.4822 16.0721 20.7017 16.5506 19.8882C16.5506 19.8882 18.2231 19.4298 18.7434 19.3042C19.2637 19.1785 19.8928 19.0792 19.8928 19.0792C19.8928 19.0792 21.42 20.6157 22.8928 20.5613C24.3656 20.507 24.2943 19.681 24.285 19.591" fill="#DD2025"/>
<path d="M22.457 1.94727V7.4532H27.738L22.457 1.94727Z" fill="#909090"/>
<path d="M22.5293 1.875V7.38094H27.8102L22.5293 1.875Z" fill="#F4F4F4"/>
<path d="M8.41379 4.17826H7.18848V8.67826H8.15598V7.16138L8.36973 7.17357C8.57651 7.17001 8.78135 7.13297 8.97629 7.06388C9.14719 7.00508 9.30441 6.91227 9.43848 6.79107C9.57386 6.67528 9.68042 6.52956 9.74973 6.36545C9.84375 6.09216 9.87734 5.80173 9.84816 5.5142C9.84231 5.3088 9.8063 5.10537 9.74129 4.91045C9.68211 4.76973 9.59428 4.64288 9.48339 4.53797C9.37251 4.43306 9.241 4.35238 9.09723 4.30107C8.97235 4.25563 8.84328 4.22266 8.71191 4.20263C8.61294 4.18736 8.51299 4.17922 8.41285 4.17826M8.23566 6.32888H8.15223V4.94138H8.3341C8.41396 4.93562 8.49409 4.94788 8.56857 4.97725C8.64305 5.00662 8.70998 5.05236 8.76441 5.11107C8.87721 5.26202 8.93747 5.44576 8.93598 5.6342C8.93598 5.86482 8.93598 6.07388 8.72785 6.22107C8.57791 6.30354 8.40725 6.34067 8.2366 6.32795M11.6772 4.16607C11.5732 4.16607 11.4719 4.17357 11.4007 4.17638L11.1804 4.18201H10.4491V8.68201H11.3097C11.6386 8.69102 11.9661 8.63528 12.2735 8.51795C12.5209 8.41981 12.74 8.26161 12.911 8.05763C13.0773 7.85181 13.1966 7.61217 13.2607 7.35545C13.3343 7.0647 13.3702 6.76568 13.3675 6.46576C13.3857 6.11153 13.3583 5.75643 13.286 5.4092C13.2173 5.1536 13.0888 4.91803 12.911 4.72201C12.7715 4.56372 12.6007 4.43604 12.4094 4.34701C12.2451 4.27099 12.0723 4.21497 11.8947 4.18013C11.8241 4.16847 11.7526 4.16313 11.681 4.1642M11.5104 7.85513H11.4166V4.98263H11.4288C11.6221 4.96039 11.8176 4.99527 11.9913 5.08295C12.1185 5.1845 12.2221 5.31244 12.295 5.45795C12.3737 5.61107 12.4191 5.77914 12.4282 5.95107C12.4366 6.15732 12.4282 6.32607 12.4282 6.46576C12.432 6.62667 12.4216 6.7876 12.3972 6.9467C12.3683 7.11003 12.3149 7.26807 12.2388 7.41545C12.1526 7.55247 12.0362 7.66792 11.8985 7.75295C11.7828 7.82776 11.6458 7.86266 11.5085 7.85232M16.2682 4.18201H13.99V8.68201H14.9538V6.89701H16.1725V6.06076H14.9538V5.01826H16.2663V4.18201" fill="white"/>
</svg>
