<svg width="56" height="56" viewBox="0 0 56 56" fill="none" xmlns="http://www.w3.org/2000/svg">
<rect width="56" height="56" rx="16" fill="#EBF3F3"/>
<path d="M28.3145 13.2516C28.6598 13.2516 28.9396 12.9718 28.9396 12.6265C28.9396 12.2813 28.6598 12.0015 28.3145 12.0015C27.9693 12.0015 27.6895 12.2813 27.6895 12.6265C27.6895 12.9718 27.9693 13.2516 28.3145 13.2516Z" fill="#508287"/>
<path d="M36.4085 23.3244V14.5169C36.4085 13.1291 35.2793 12 33.8915 12H31.139C30.7931 12 30.5127 12.2804 30.5127 12.6263C30.5127 12.9722 30.7931 13.2527 31.139 13.2527H33.8915C34.5887 13.2527 35.1558 13.8198 35.1558 14.517V24.8439C35.1558 25.5411 34.5887 26.1082 33.8915 26.1082H22.7367C22.0395 26.1082 21.4723 25.5411 21.4723 24.8439V14.5169C21.4723 13.8197 22.0395 13.2526 22.7367 13.2526H25.4891C25.835 13.2526 26.1154 12.9722 26.1154 12.6263C26.1154 12.2803 25.835 12 25.4891 12H22.7367C21.3488 12 20.2197 13.1291 20.2197 14.5169V23.3002C20.1555 23.2959 20.0905 23.2931 20.0218 23.2931C18.3782 23.2931 17.041 24.6303 17.041 26.2739V36.5331C17.041 36.5895 17.0486 36.6456 17.0636 36.7L18.9543 43.5405C19.0492 43.8839 19.4229 44.0802 19.76 43.9664C20.07 43.8617 20.2487 43.5217 20.1616 43.2068L18.4902 37.1593H22.6545C22.9041 38.0281 23.3489 38.8152 23.9379 39.4699V39.9862C23.9379 42.1993 25.901 43.9999 28.314 43.9999C30.727 43.9999 32.6901 42.1993 32.6901 39.9862V39.4699C33.2793 38.8152 33.724 38.0282 33.9735 37.1593H37.5818L36.4543 43.2598C36.393 43.5911 36.6146 43.9191 36.9443 43.987C37.2832 44.0569 37.6232 43.8275 37.686 43.4874L38.9503 36.6469C38.9573 36.6093 38.9608 36.5713 38.9608 36.5331V26.2739C38.9608 24.7758 37.8497 23.5328 36.4085 23.3244ZM36.4085 24.8439V24.5996C37.1548 24.7907 37.7082 25.4689 37.7082 26.274V35.9069H34.2518V27.3346C35.4695 27.1592 36.4085 26.1094 36.4085 24.8439ZM23.6289 27.3608H32.9992V31.9757C31.9228 30.5628 30.2233 29.649 28.3141 29.649C26.4049 29.649 24.7053 30.5628 23.6289 31.9758V27.3608ZM20.0218 24.5457C20.0539 24.5457 20.2002 24.5334 20.2197 24.5549C20.2288 24.565 20.2197 24.7756 20.2197 24.8438C20.2197 26.1093 21.1586 27.1592 22.3763 27.3346V35.9068H18.2936V26.2739C18.2936 25.3211 19.0689 24.5457 20.0218 24.5457ZM28.314 42.7474C26.8176 42.7474 25.5641 41.8122 25.261 40.5683C26.1517 41.1107 27.197 41.4234 28.314 41.4234C29.431 41.4234 30.4764 41.1107 31.3671 40.5683C31.0639 41.8122 29.8105 42.7474 28.314 42.7474ZM28.314 40.1708C25.7585 40.1708 23.6794 38.0918 23.6794 35.5362C23.6794 32.9806 25.7585 30.9016 28.314 30.9016C30.8696 30.9016 32.9487 32.9806 32.9487 35.5362C32.9487 38.0918 30.8696 40.1708 28.314 40.1708Z" fill="#508287"/>
<path d="M25.3305 23.6262C25.6764 23.6262 25.9568 23.3458 25.9568 22.9999V16.3612C25.9568 16.0153 25.6764 15.7349 25.3305 15.7349H23.9115C23.5656 15.7349 23.2852 16.0153 23.2852 16.3612C23.2852 16.707 23.5656 16.9875 23.9115 16.9875H24.7041V22.9999C24.7041 23.3458 24.9846 23.6262 25.3305 23.6262Z" fill="#508287"/>
<path d="M28.2266 21.2154C28.2266 22.6193 29.3687 23.7614 30.7726 23.7614C32.1765 23.7614 33.3186 22.6193 33.3186 21.2154V18.1452C33.3186 16.7413 32.1765 15.5991 30.7726 15.5991C29.3687 15.5991 28.2266 16.7413 28.2266 18.1452V21.2154ZM29.4792 18.1452C29.4792 17.432 30.0594 16.8517 30.7726 16.8517C31.4858 16.8517 32.066 17.432 32.066 18.1452V21.2153C32.066 21.9285 31.4858 22.5088 30.7726 22.5088C30.0594 22.5088 29.4792 21.9285 29.4792 21.2153V18.1452Z" fill="#508287"/>
</svg>
