<svg width="20" height="20" viewBox="0 0 20 20" fill="none" xmlns="http://www.w3.org/2000/svg">
<g clip-path="url(#clip0_2318_12056)">
<path d="M10 0C4.47301 0 0 4.4725 0 10C0 15.5269 4.4725 20 10 20C15.527 20 20 15.5275 20 10C20 4.47301 15.5275 0 10 0ZM10 18.6046C5.25539 18.6046 1.39535 14.7446 1.39535 10C1.39535 5.25535 5.25539 1.39535 10 1.39535C14.7446 1.39535 18.6046 5.25535 18.6046 10C18.6046 14.7446 14.7446 18.6046 10 18.6046Z" fill="#F8A046"/>
<path d="M9.70352 12.6533C9.15066 12.6533 8.70312 13.114 8.70312 13.6668C8.70312 14.2066 9.1375 14.6804 9.70352 14.6804C10.2695 14.6804 10.717 14.2066 10.717 13.6668C10.717 13.114 10.2563 12.6533 9.70352 12.6533Z" fill="#F8A046"/>
<path d="M9.87437 4.97949C8.09734 4.97949 7.28125 6.03258 7.28125 6.74336C7.28125 7.25672 7.71563 7.49367 8.07102 7.49367C8.78184 7.49367 8.49227 6.48008 9.83488 6.48008C10.493 6.48008 11.0196 6.76969 11.0196 7.3752C11.0196 8.08598 10.2824 8.49402 9.84805 8.86258C9.46629 9.1916 8.96613 9.73133 8.96613 10.8634C8.96613 11.5478 9.15043 11.7453 9.69008 11.7453C10.335 11.7453 10.4667 11.4557 10.4667 11.2055C10.4667 10.5211 10.4798 10.1262 11.2038 9.5602C11.5592 9.28379 12.678 8.38867 12.678 7.15137C12.678 5.91406 11.5592 4.97949 9.87437 4.97949Z" fill="#F8A046"/>
</g>
<defs>
<clipPath id="clip0_2318_12056">
<rect width="20" height="20" fill="white"/>
</clipPath>
</defs>
</svg>
