<svg width="56" height="56" viewBox="0 0 56 56" fill="none" xmlns="http://www.w3.org/2000/svg">
<rect width="56" height="56" rx="16" fill="#FDEFE6"/>
<path d="M28.0013 41.3327C20.6373 41.3327 14.668 35.3633 14.668 27.9993C14.668 20.6353 20.6373 14.666 28.0013 14.666C35.3653 14.666 41.3346 20.6353 41.3346 27.9993C41.3346 35.3633 35.3653 41.3327 28.0013 41.3327ZM28.0013 38.666C30.8302 38.666 33.5434 37.5422 35.5438 35.5419C37.5441 33.5415 38.668 30.8283 38.668 27.9993C38.668 25.1704 37.5441 22.4573 35.5438 20.4569C33.5434 18.4565 30.8302 17.3327 28.0013 17.3327C25.1723 17.3327 22.4592 18.4565 20.4588 20.4569C18.4584 22.4573 17.3346 25.1704 17.3346 27.9993C17.3346 30.8283 18.4584 33.5415 20.4588 35.5419C22.4592 37.5422 25.1723 38.666 28.0013 38.666ZM26.668 31.9993H29.3346V34.666H26.668V31.9993ZM29.3346 29.806V30.666H26.668V28.666C26.668 28.3124 26.8085 27.9732 27.0585 27.7232C27.3085 27.4732 27.6477 27.3327 28.0013 27.3327C28.3801 27.3327 28.751 27.2251 29.071 27.0224C29.391 26.8199 29.647 26.5305 29.809 26.1881C29.971 25.8457 30.0325 25.4644 29.9862 25.0885C29.94 24.7125 29.788 24.3575 29.5477 24.0646C29.3076 23.7717 28.9892 23.553 28.6296 23.434C28.27 23.315 27.884 23.3005 27.5165 23.3923C27.149 23.4841 26.8152 23.6783 26.5538 23.9524C26.2924 24.2265 26.1142 24.5693 26.04 24.9407L23.424 24.4167C23.5861 23.6061 23.9606 22.8532 24.5092 22.2348C25.0577 21.6164 25.7606 21.1548 26.5461 20.8971C27.3316 20.6394 28.1713 20.5949 28.9796 20.7682C29.7878 20.9414 30.5356 21.3262 31.1464 21.8831C31.7572 22.4401 32.2092 23.1492 32.4561 23.9381C32.703 24.727 32.7361 25.5672 32.5518 26.3731C32.3676 27.1789 31.9726 27.9213 31.4073 28.5245C30.8421 29.1276 30.1268 29.5699 29.3346 29.806Z" fill="#DD8F3E"/>
</svg>
