<svg width="56" height="56" viewBox="0 0 56 56" fill="none" xmlns="http://www.w3.org/2000/svg">
<rect width="56" height="56" rx="16" fill="#FCDDCA"/>
<g clip-path="url(#clip0_1588_56943)">
<path d="M31.5548 20.9621C31.6769 21.0842 31.8368 21.1452 31.9968 21.1452C32.1567 21.1452 32.3167 21.0842 32.4387 20.9621C32.6828 20.7181 32.6828 20.3223 32.4387 20.0782L32.4303 20.0698C32.1862 19.8257 31.7905 19.8257 31.5463 20.0698C31.3023 20.3138 31.3023 20.7096 31.5463 20.9537L31.5548 20.9621Z" fill="#C07B36"/>
<path d="M41.6385 26.875L43.8169 24.6966C43.9957 24.5178 44.0491 24.2489 43.9524 24.0154C43.8556 23.7819 43.6278 23.6296 43.3749 23.6296H38.8592C38.269 21.2134 37.0302 19.0117 35.2593 17.2407C32.6859 14.6672 29.2644 13.25 25.625 13.25C21.9856 13.25 18.5641 14.6672 15.9907 17.2407C13.4173 19.8141 12 23.2356 12 26.875C12 30.5144 13.4173 33.9359 15.9907 36.5093C16.7559 37.2746 17.5966 37.9367 18.4953 38.4906L16.6124 41.8171C16.5029 42.0106 16.5044 42.2478 16.6164 42.4398C16.7283 42.6319 16.9339 42.75 17.1562 42.75H20.375C20.6002 42.75 20.808 42.6289 20.9189 42.4329L22.2503 40.0807C23.34 40.3571 24.4715 40.5 25.625 40.5C26.7785 40.5 27.91 40.3571 28.9997 40.0807L30.3311 42.4329C30.442 42.6289 30.6498 42.75 30.875 42.75H34.0938C34.3161 42.75 34.5217 42.6319 34.6337 42.4398C34.7457 42.2477 34.7472 42.0106 34.6377 41.8172L32.7547 38.4906C33.6534 37.9367 34.4941 37.2746 35.2594 36.5094C37.0296 34.7391 38.2691 32.5365 38.8592 30.1204H43.375C43.6278 30.1204 43.8557 29.9681 43.9524 29.7346C44.0492 29.5011 43.9957 29.2322 43.817 29.0535L41.6385 26.875ZM40.4957 26.25H36.1339L37.5042 24.8796H41.8661L40.4957 26.25ZM20.0106 41.5H18.2282L19.5886 39.0967C20.0554 39.3278 20.5347 39.5322 21.0251 39.7076L20.0106 41.5ZM33.0218 41.5H31.2394L30.2249 39.7076C30.7153 39.5322 31.1946 39.3278 31.6614 39.0967L33.0218 41.5ZM34.3754 35.6254C33.5498 36.4511 32.6277 37.1449 31.6351 37.6981C31.6228 37.704 31.6104 37.7096 31.5984 37.7164C31.5908 37.7208 31.5839 37.7257 31.5766 37.7302C30.8152 38.1491 30.0128 38.4854 29.1803 38.7338C29.1475 38.7403 29.1151 38.7499 29.0832 38.7619C27.9736 39.0831 26.8122 39.25 25.625 39.25C24.4378 39.25 23.2764 39.0831 22.1668 38.762C22.1348 38.75 22.1024 38.7404 22.0696 38.7339C21.2371 38.4855 20.4348 38.1492 19.6734 37.7303C19.6661 37.7257 19.6592 37.7208 19.6516 37.7165C19.6396 37.7097 19.6272 37.7041 19.615 37.6981C18.6224 37.145 17.7003 36.4511 16.8746 35.6254C14.5373 33.2881 13.25 30.1805 13.25 26.875C13.25 23.5695 14.5372 20.4619 16.8746 18.1246C19.2119 15.7872 22.3195 14.5 25.625 14.5C28.9305 14.5 32.0381 15.7872 34.3754 18.1246C35.9112 19.6604 37.0066 21.5523 37.5691 23.6296H37.2454C37.0797 23.6296 36.9207 23.6955 36.8035 23.8127L35.1447 25.4715C34.9773 24.3352 34.6099 23.2303 34.0552 22.2255C33.8884 21.9233 33.5081 21.8137 33.2059 21.9804C32.9038 22.1473 32.7941 22.5275 32.9609 22.8297C33.5542 23.9043 33.8856 25.0727 33.9704 26.2501H31.2147C31.0756 24.9841 30.5161 23.8112 29.6025 22.8976C28.5401 21.8351 27.1275 21.25 25.625 21.25C24.1225 21.25 22.7099 21.8351 21.6476 22.8975C20.5851 23.96 20 25.3725 20 26.875C20 28.3775 20.5851 29.7901 21.6475 30.8524C22.7099 31.9149 24.1225 32.5 25.625 32.5C27.1275 32.5 28.5401 31.9149 29.6024 30.8525C30.5161 29.9389 31.0755 28.7661 31.2146 27.5H33.9677C33.8186 29.4538 32.9942 31.3498 31.547 32.797C29.9652 34.3789 27.862 35.25 25.625 35.25C23.388 35.25 21.2848 34.3789 19.703 32.797C18.1211 31.2152 17.25 29.1121 17.25 26.875C17.25 24.6379 18.1211 22.5348 19.703 20.953C22.3269 18.3291 26.4256 17.7477 29.6704 19.5392C29.9725 19.7059 30.3527 19.5963 30.5196 19.2941C30.6864 18.9919 30.5767 18.6117 30.2746 18.4449C28.4843 17.4564 26.3762 17.0625 24.3389 17.3359C22.2336 17.6182 20.3248 18.5634 18.8191 20.0691C17.0012 21.8871 16 24.3041 16 26.875C16 29.4459 17.0012 31.863 18.8191 33.6809C20.637 35.4988 23.0541 36.5 25.625 36.5C28.1959 36.5 30.613 35.4988 32.4309 33.6809C33.9081 32.2038 34.8452 30.3388 35.1469 28.2808L36.8034 29.9374C36.9206 30.0546 37.0796 30.1204 37.2454 30.1204H37.5689C37.0064 32.1976 35.9106 34.0903 34.3754 35.6254ZM27.6663 25.6965C27.4937 25.3975 27.1114 25.2951 26.8125 25.4677L25.3125 26.3337C25.1191 26.4454 25 26.6517 25 26.875C25 27.0983 25.1191 27.3046 25.3125 27.4163L26.8125 28.2822C26.9109 28.3391 27.0184 28.3661 27.1244 28.3661C27.3404 28.3661 27.5505 28.254 27.6663 28.0535C27.7677 27.8779 27.7735 27.6737 27.7009 27.5H29.9554C29.823 28.4314 29.3957 29.2915 28.7186 29.9686C27.8923 30.7949 26.7936 31.25 25.625 31.25C24.4564 31.25 23.3577 30.7949 22.5314 29.9686C21.7051 29.1423 21.25 28.0436 21.25 26.875C21.25 25.7064 21.7051 24.6077 22.5314 23.7814C23.3577 22.9551 24.4564 22.5 25.625 22.5C26.7936 22.5 27.8922 22.9551 28.7186 23.7814C29.3957 24.4585 29.8231 25.3186 29.9555 26.25H27.701C27.7735 26.0763 27.7677 25.8721 27.6663 25.6965ZM37.5042 28.8704L36.1339 27.5H40.4957L41.8661 28.8704H37.5042Z" fill="#C07B36"/>
</g>
<defs>
<clipPath id="clip0_1588_56943">
<rect width="32" height="32" fill="white" transform="translate(12 12)"/>
</clipPath>
</defs>
</svg>
