<svg width="56" height="56" viewBox="0 0 56 56" fill="none" xmlns="http://www.w3.org/2000/svg">
<rect width="56" height="56" rx="16" fill="#FCDDCA"/>
<path d="M18.3906 31.9668C18.2114 31.9668 18.0395 31.8956 17.9128 31.7689C17.786 31.6422 17.7148 31.4703 17.7148 31.2911V26.4707C17.7148 26.2915 17.786 26.1196 17.9128 25.9928C18.0395 25.8661 18.2114 25.7949 18.3906 25.7949C18.5698 25.7949 18.7417 25.8661 18.8684 25.9928C18.9952 26.1196 19.0664 26.2915 19.0664 26.4707V31.2911C19.0664 31.4703 18.9952 31.6422 18.8684 31.7689C18.7417 31.8956 18.5698 31.9668 18.3906 31.9668Z" fill="#C07B36"/>
<path d="M21.4325 21.2028C20.786 21.2028 20.1541 21.0112 19.6166 20.652C19.0792 20.2929 18.6602 19.7824 18.4129 19.1852C18.1655 18.588 18.1008 17.9308 18.2269 17.2968C18.353 16.6628 18.6643 16.0804 19.1214 15.6233C19.5785 15.1662 20.1608 14.8549 20.7948 14.7288C21.4289 14.6027 22.086 14.6674 22.6832 14.9148C23.2805 15.1622 23.7909 15.5811 24.1501 16.1186C24.5092 16.6561 24.7009 17.288 24.7009 17.9344C24.6999 18.801 24.3553 19.6318 23.7425 20.2445C23.1298 20.8572 22.299 21.2019 21.4325 21.2028ZM21.4325 16.0175C21.0534 16.0175 20.6827 16.13 20.3675 16.3406C20.0523 16.5512 19.8066 16.8506 19.6615 17.2009C19.5164 17.5511 19.4784 17.9366 19.5524 18.3084C19.6264 18.6802 19.8089 19.0218 20.077 19.2899C20.3451 19.558 20.6867 19.7405 21.0585 19.8145C21.4304 19.8885 21.8158 19.8505 22.166 19.7054C22.5163 19.5603 22.8157 19.3146 23.0263 18.9994C23.237 18.6842 23.3494 18.3136 23.3494 17.9344C23.3488 17.4262 23.1466 16.939 22.7873 16.5796C22.4279 16.2203 21.9407 16.0181 21.4325 16.0175Z" fill="#C07B36"/>
<path d="M32.0903 26.2588C31.9598 26.2589 31.832 26.2212 31.7225 26.1503C31.613 26.0794 31.5263 25.9783 31.473 25.8592C31.4197 25.7401 31.402 25.6081 31.4221 25.4791C31.4422 25.3502 31.4991 25.2298 31.5861 25.1326L35.2578 21.0168C35.3169 20.9505 35.3885 20.8966 35.4685 20.8581C35.5486 20.8195 35.6354 20.7971 35.724 20.7921C35.8127 20.7871 35.9015 20.7996 35.9853 20.8289C36.0691 20.8582 36.1464 20.9038 36.2126 20.9629C36.2788 21.0221 36.3328 21.0937 36.3713 21.1737C36.4099 21.2537 36.4323 21.3405 36.4373 21.4292C36.4423 21.5179 36.4298 21.6066 36.4004 21.6905C36.3711 21.7743 36.3256 21.8515 36.2664 21.9178L32.5948 26.0313C32.5315 26.1027 32.4539 26.1599 32.3669 26.1991C32.2799 26.2383 32.1857 26.2587 32.0903 26.2588Z" fill="#C07B36"/>
<path d="M39.3073 32.3608H27.1829C27.0037 32.3608 26.8318 32.2896 26.705 32.1629C26.5783 32.0362 26.5071 31.8643 26.5071 31.685C26.5071 31.5058 26.5783 31.3339 26.705 31.2072C26.8318 31.0805 27.0037 31.0093 27.1829 31.0093H39.3073C39.4865 31.0093 39.6584 30.9381 39.7851 30.8114C39.9119 30.6846 39.9831 30.5128 39.9831 30.3335V16.7089C39.9831 16.5297 39.9119 16.3578 39.7851 16.2311C39.6584 16.1044 39.4865 16.0332 39.3073 16.0332H26.0508C25.8715 16.0332 25.6997 15.962 25.5729 15.8352C25.4462 15.7085 25.375 15.5366 25.375 15.3574C25.375 15.1782 25.4462 15.0063 25.5729 14.8796C25.6997 14.7528 25.8715 14.6816 26.0508 14.6816H39.3073C39.845 14.6816 40.3606 14.8952 40.7408 15.2754C41.121 15.6556 41.3346 16.1712 41.3346 16.7089V30.3335C41.3346 30.8712 41.121 31.3868 40.7408 31.767C40.3606 32.1472 39.845 32.3608 39.3073 32.3608Z" fill="#C07B36"/>
<path d="M21.4356 41.3332H18.3906C18.2114 41.3332 18.0395 41.262 17.9128 41.1353C17.786 41.0085 17.7148 40.8367 17.7148 40.6574V31.291C17.7148 31.1118 17.786 30.9399 17.9128 30.8132C18.0395 30.6864 18.2114 30.6152 18.3906 30.6152C18.5698 30.6152 18.7417 30.6864 18.8684 30.8132C18.9952 30.9399 19.0664 31.1118 19.0664 31.291V39.9817H21.4356C21.6148 39.9817 21.7867 40.0529 21.9134 40.1796C22.0401 40.3063 22.1113 40.4782 22.1113 40.6574C22.1113 40.8367 22.0401 41.0085 21.9134 41.1353C21.7867 41.262 21.6148 41.3332 21.4356 41.3332Z" fill="#C07B36"/>
<path d="M24.4797 41.3334H21.4342C21.255 41.3334 21.0831 41.2622 20.9564 41.1355C20.8296 41.0088 20.7584 40.8369 20.7584 40.6577V31.6854C20.7584 31.5062 20.8296 31.3343 20.9564 31.2076C21.0831 31.0808 21.255 31.0097 21.4342 31.0097C21.6134 31.0097 21.7853 31.0808 21.912 31.2076C22.0388 31.3343 22.11 31.5062 22.11 31.6854V39.9819H23.8039V27.2056C23.8038 26.9251 23.887 26.651 24.0428 26.4178C24.1986 26.1846 24.4201 26.0028 24.6792 25.8955C24.9383 25.7882 25.2235 25.7602 25.4985 25.8149C25.7736 25.8697 26.0262 26.0048 26.2245 26.2032L27.2836 27.261C27.3621 27.3398 27.4554 27.4023 27.5582 27.4449C27.661 27.4874 27.7711 27.5091 27.8824 27.5088H31.0274C31.1401 27.5088 31.2517 27.4863 31.3556 27.4427C31.4595 27.399 31.5537 27.3351 31.6326 27.2545C31.7115 27.174 31.7735 27.0786 31.815 26.9738C31.8565 26.869 31.8767 26.757 31.8743 26.6443C31.8649 26.187 31.4716 25.8153 30.9977 25.8153H28.5113C28.3321 25.8152 28.1603 25.7439 28.0337 25.6171L26.579 24.1629C26.3151 23.8974 26.0012 23.687 25.6553 23.5438C25.3095 23.4006 24.9387 23.3274 24.5644 23.3285H24.04L23.0186 24.1777C22.5737 24.5475 22.0134 24.75 21.4349 24.75C20.8563 24.75 20.296 24.5475 19.8511 24.1777L18.8289 23.3285H18.3892C17.7609 23.3293 17.1586 23.5791 16.7144 24.0234C16.2701 24.4676 16.0202 25.0699 16.0195 25.6982C16.0195 25.8774 15.9483 26.0493 15.8216 26.176C15.6948 26.3028 15.523 26.374 15.3437 26.374C15.1645 26.374 14.9926 26.3028 14.8659 26.176C14.7392 26.0493 14.668 25.8774 14.668 25.6982C14.669 24.7116 15.0614 23.7657 15.7591 23.0681C16.4567 22.3705 17.4026 21.9781 18.3892 21.977H19.0731C19.2309 21.9771 19.3838 22.0324 19.5051 22.1334L20.7143 23.1384C20.9167 23.307 21.1717 23.3993 21.4351 23.3993C21.6985 23.3993 21.9535 23.307 22.1559 23.1384L23.3642 22.1329C23.4855 22.0319 23.6384 21.9766 23.7962 21.9766H24.5653C25.1171 21.9751 25.6638 22.083 26.1736 22.2942C26.6835 22.5054 27.1463 22.8156 27.5355 23.2069L28.7924 24.4638H30.9999C32.2046 24.4638 33.2038 25.4297 33.2277 26.6172C33.2336 26.9096 33.1811 27.2003 33.0734 27.4721C32.9656 27.744 32.8046 27.9916 32.5999 28.2005C32.3952 28.4094 32.1509 28.5754 31.8813 28.6887C31.6116 28.8019 31.3221 28.8603 31.0296 28.8603H27.8806C27.5918 28.8611 27.3057 28.8046 27.0389 28.6941C26.7721 28.5836 26.5299 28.4213 26.3263 28.2165L25.269 27.1578C25.2603 27.1493 25.2495 27.1432 25.2377 27.1403C25.2259 27.1373 25.2135 27.1376 25.2018 27.1412C25.1886 27.1456 25.1772 27.1541 25.1691 27.1654C25.161 27.1767 25.1567 27.1903 25.1568 27.2042V40.6563C25.157 40.7453 25.1396 40.8334 25.1056 40.9156C25.0716 40.9979 25.0218 41.0726 24.9588 41.1355C24.8959 41.1984 24.8212 41.2483 24.739 41.2822C24.6568 41.3162 24.5686 41.3336 24.4797 41.3334V41.3334Z" fill="#C07B36"/>
<path d="M16.8664 33.4892C16.2835 33.4886 15.7247 33.2568 15.3125 32.8446C14.9004 32.4324 14.6686 31.8736 14.668 31.2907V25.6972C14.668 25.518 14.7392 25.3461 14.8659 25.2194C14.9926 25.0927 15.1645 25.0215 15.3437 25.0215C15.5229 25.0215 15.6948 25.0927 15.8216 25.2194C15.9483 25.3461 16.0195 25.518 16.0195 25.6972V31.2907C16.0195 31.5153 16.1087 31.7308 16.2675 31.8896C16.4264 32.0484 16.6418 32.1377 16.8664 32.1377C17.0911 32.1377 17.3065 32.0484 17.4653 31.8896C17.6242 31.7308 17.7134 31.5153 17.7134 31.2907C17.7134 31.1115 17.7846 30.9396 17.9113 30.8129C18.038 30.6862 18.2099 30.615 18.3891 30.615C18.5684 30.615 18.7402 30.6862 18.867 30.8129C18.9937 30.9396 19.0649 31.1115 19.0649 31.2907C19.0643 31.8736 18.8325 32.4324 18.4203 32.8446C18.0082 33.2568 17.4493 33.4886 16.8664 33.4892Z" fill="#C07B36"/>
<path d="M35.9321 41.332H15.3437C15.1645 41.332 14.9926 41.2608 14.8659 41.1341C14.7392 41.0073 14.668 40.8354 14.668 40.6562C14.668 40.477 14.7392 40.3051 14.8659 40.1784C14.9926 40.0517 15.1645 39.9805 15.3437 39.9805H35.9321C36.1113 39.9805 36.2832 40.0517 36.4099 40.1784C36.5367 40.3051 36.6079 40.477 36.6079 40.6562C36.6079 40.8354 36.5367 41.0073 36.4099 41.1341C36.2832 41.2608 36.1113 41.332 35.9321 41.332Z" fill="#C07B36"/>
<path d="M32.2575 22.1425H28.7539C28.5747 22.1425 28.4028 22.0713 28.276 21.9446C28.1493 21.8179 28.0781 21.646 28.0781 21.4668C28.0781 21.2876 28.1493 21.1157 28.276 20.9889C28.4028 20.8622 28.5747 20.791 28.7539 20.791H32.2575C32.4367 20.791 32.6086 20.8622 32.7353 20.9889C32.862 21.1157 32.9332 21.2876 32.9332 21.4668C32.9332 21.646 32.862 21.8179 32.7353 21.9446C32.6086 22.0713 32.4367 22.1425 32.2575 22.1425Z" fill="#C07B36"/>
<path d="M35.761 19.0878H28.7539C28.5747 19.0878 28.4028 19.0166 28.276 18.8899C28.1493 18.7632 28.0781 18.5913 28.0781 18.4121C28.0781 18.2329 28.1493 18.061 28.276 17.9343C28.4028 17.8075 28.5747 17.7363 28.7539 17.7363H35.761C35.9403 17.7363 36.1121 17.8075 36.2389 17.9343C36.3656 18.061 36.4368 18.2329 36.4368 18.4121C36.4368 18.5913 36.3656 18.7632 36.2389 18.8899C36.1121 19.0166 35.9403 19.0878 35.761 19.0878Z" fill="#C07B36"/>
</svg>
