<svg width="24" height="24" viewBox="0 0 24 24" fill="none" xmlns="http://www.w3.org/2000/svg">
<g clip-path="url(#clip0_812_37953)">
<path d="M23.9837 2.42216C24.1007 1.87753 23.5667 1.4183 23.0459 1.61705L0.452341 10.242C0.180421 10.3458 0.000563818 10.6064 1.32316e-06 10.8975C-0.000561171 11.1885 0.178265 11.4499 0.449809 11.5547L6.79676 14.006V21.7269C6.79676 22.0526 7.0204 22.3356 7.33727 22.4109C7.65204 22.4858 7.98025 22.336 8.12781 22.0433L10.7528 16.8342L17.1589 21.5884C17.5486 21.8776 18.1087 21.6936 18.2505 21.2289C24.2316 1.61859 23.973 2.47143 23.9837 2.42216ZM18.4065 4.8933L7.40023 12.7316L2.66458 10.9027L18.4065 4.8933ZM8.203 13.8863L17.7967 7.05398C9.54145 15.7628 9.97261 15.3044 9.93661 15.3529C9.88312 15.4248 10.0297 15.1444 8.203 18.7692V13.8863ZM17.1963 19.8649L11.5574 15.6802L21.7532 4.92423L17.1963 19.8649Z" fill="#004040"/>
</g>
<defs>
<clipPath id="clip0_812_37953">
<rect width="24" height="24" fill="white"/>
</clipPath>
</defs>
</svg>
