<svg width="100" height="100" viewBox="0 0 100 100" fill="none" xmlns="http://www.w3.org/2000/svg">
<path d="M44.1654 57.4997L35.1029 48.4372C34.339 47.6733 33.4015 47.2913 32.2904 47.2913C31.1793 47.2913 30.207 47.708 29.3737 48.5413C28.6098 49.3052 28.2279 50.2775 28.2279 51.458C28.2279 52.6386 28.6098 53.6108 29.3737 54.3747L41.2487 66.2497C42.0126 67.0136 42.9848 67.3955 44.1654 67.3955C45.3459 67.3955 46.3181 67.0136 47.082 66.2497L70.7279 42.6038C71.4918 41.84 71.8737 40.9025 71.8737 39.7913C71.8737 38.6802 71.457 37.708 70.6237 36.8747C69.8598 36.1108 68.8876 35.7288 67.707 35.7288C66.5265 35.7288 65.5543 36.1108 64.7904 36.8747L44.1654 57.4997ZM49.9987 91.6664C44.2348 91.6664 38.8181 90.5719 33.7487 88.383C28.6793 86.1969 24.2695 83.2289 20.5195 79.4789C16.7695 75.7289 13.8015 71.3191 11.6154 66.2497C9.42648 61.1802 8.33203 55.7636 8.33203 49.9997C8.33203 44.2358 9.42648 38.8191 11.6154 33.7497C13.8015 28.6802 16.7695 24.2705 20.5195 20.5205C24.2695 16.7705 28.6793 13.8011 33.7487 11.6122C38.8181 9.42606 44.2348 8.33301 49.9987 8.33301C55.7626 8.33301 61.1793 9.42606 66.2487 11.6122C71.3181 13.8011 75.7279 16.7705 79.4779 20.5205C83.2279 24.2705 86.1959 28.6802 88.382 33.7497C90.5709 38.8191 91.6654 44.2358 91.6654 49.9997C91.6654 55.7636 90.5709 61.1802 88.382 66.2497C86.1959 71.3191 83.2279 75.7289 79.4779 79.4789C75.7279 83.2289 71.3181 86.1969 66.2487 88.383C61.1793 90.5719 55.7626 91.6664 49.9987 91.6664Z" fill="#F8A046"/>
</svg>
