<svg width="56" height="56" viewBox="0 0 56 56" fill="none" xmlns="http://www.w3.org/2000/svg">
<rect width="56" height="56" rx="16" fill="#EBF3F3"/>
<path d="M43.0684 17.6877C43.0664 17.6877 43.0645 17.6875 43.0625 17.6875H34.5625V16.75C34.5625 15.1992 33.3008 13.9375 31.75 13.9375H24.25C22.6992 13.9375 21.4375 15.1992 21.4375 16.75V17.6875H12.9375C12.4155 17.6875 12 18.1152 12 18.625V39.25C12 40.8008 13.2617 42.0625 14.8125 42.0625H41.1875C42.7383 42.0625 44 40.8008 44 39.25V18.6448C44 18.6436 44 18.6423 44 18.6411C43.9641 18.0254 43.5854 17.6912 43.0684 17.6877ZM23.3125 16.75C23.3125 16.2332 23.7332 15.8125 24.25 15.8125H31.75C32.2668 15.8125 32.6875 16.2332 32.6875 16.75V17.6875H23.3125V16.75ZM41.7617 19.5625L38.8503 28.2964C38.7227 28.6799 38.3652 28.9375 37.9612 28.9375H32.6875V28C32.6875 27.4822 32.2678 27.0625 31.75 27.0625H24.25C23.7322 27.0625 23.3125 27.4822 23.3125 28V28.9375H18.0388C17.6348 28.9375 17.2773 28.6799 17.1497 28.2964L14.2383 19.5625H41.7617ZM30.8125 28.9375V30.8125H25.1875V28.9375H30.8125ZM42.125 39.25C42.125 39.7668 41.7043 40.1875 41.1875 40.1875H14.8125C14.2957 40.1875 13.875 39.7668 13.875 39.25V24.4021L15.3708 28.8894C15.7542 30.0398 16.8264 30.8125 18.0388 30.8125H23.3125V31.75C23.3125 32.2678 23.7322 32.6875 24.25 32.6875H31.75C32.2678 32.6875 32.6875 32.2678 32.6875 31.75V30.8125H37.9612C39.1736 30.8125 40.2458 30.0398 40.6292 28.8894L42.125 24.4021V39.25Z" fill="#004040"/>
</svg>
