<svg width="56" height="56" viewBox="0 0 56 56" fill="none" xmlns="http://www.w3.org/2000/svg">
<g clip-path="url(#clip0_1787_15080)">
<path d="M28 56C43.464 56 56 43.464 56 28C56 12.536 43.464 0 28 0C12.536 0 0 12.536 0 28C0 43.464 12.536 56 28 56Z" fill="#827DDC"/>
<path d="M38.6747 20.884L35.4449 17.6543C34.8877 17.0971 34.131 16.7393 33.2912 16.697L29.1625 12.5684L10.1875 15.8975V39.6661L26.4804 55.9591C26.9842 55.9861 27.4913 56.0006 28.0018 56.0006C42.2234 56.0006 53.9676 45.3977 55.763 31.6659L43.9586 19.8614C43.9585 19.8613 43.9583 19.8612 43.9581 19.8609C43.3706 19.2735 42.5589 18.9101 41.6623 18.9101C40.321 18.9101 39.1698 19.7237 38.6747 20.884Z" fill="#6E64C3"/>
<path d="M10.1875 39.6661L29.1625 42.9952V12.5684L10.1875 15.8974V39.6661Z" fill="#302C89"/>
<path d="M30.5275 37.9543C31.2367 38.5275 32.1391 38.8714 33.122 38.8714C35.404 38.8714 37.254 37.0214 37.254 34.7394V24.8047H30.5273L30.5275 37.9543Z" fill="#302C89"/>
<path d="M33.1219 23.2594C34.935 23.2594 36.4049 21.7896 36.4049 19.9764C36.4049 18.1633 34.9352 16.6934 33.1219 16.6934C32.0664 16.6934 31.1278 17.1921 30.5273 17.9662V21.9866C31.1279 22.7607 32.0664 23.2594 33.1219 23.2594Z" fill="#302C89"/>
<path d="M45.748 26.9336H38.6133V35.7092C39.3633 36.5918 40.481 37.1516 41.7285 37.1516C42.8202 37.1516 43.8662 36.715 44.6338 35.939C45.4014 35.163 45.8266 34.1121 45.8146 33.0207L45.748 26.9336Z" fill="#302C89"/>
<path d="M41.6612 25.4044C43.4545 25.4044 44.9083 23.9506 44.9083 22.1573C44.9083 20.3639 43.4545 18.9102 41.6612 18.9102C39.8678 18.9102 38.4141 20.3639 38.4141 22.1573C38.4141 23.9506 39.8678 25.4044 41.6612 25.4044Z" fill="#302C89"/>
<path d="M23.4165 24.3786H20.5858V32.6488H18.8775V24.3786H16.0469V22.6797H23.4163V24.3786H23.4165Z" fill="white"/>
</g>
<defs>
<clipPath id="clip0_1787_15080">
<rect width="56" height="56" fill="white"/>
</clipPath>
</defs>
</svg>
