<svg width="56" height="56" viewBox="0 0 56 56" fill="none" xmlns="http://www.w3.org/2000/svg">
<rect width="56" height="56" rx="16" fill="#FCDDCA"/>
<g clip-path="url(#clip0_812_41432)">
<path d="M20.6667 30.667C20.2986 30.667 20 30.3689 20 30.0002V23.3335C20 22.9656 20.2986 22.667 20.6667 22.667C21.0347 22.667 21.3333 22.9656 21.3333 23.3335V30.0002C21.3333 30.3689 21.0347 30.667 20.6667 30.667Z" fill="#C07B36"/>
<path d="M18.0012 18.6667C16.1633 18.6667 14.668 17.1714 14.668 15.3333C14.668 13.4954 16.1633 12 18.0012 12C19.8391 12 21.3345 13.4954 21.3345 15.3333C21.3345 17.1714 19.8391 18.6667 18.0012 18.6667ZM18.0012 13.3333C16.8984 13.3333 16.0012 14.2307 16.0012 15.3333C16.0012 16.436 16.8984 17.3333 18.0012 17.3333C19.104 17.3333 20.0012 16.436 20.0012 15.3333C20.0012 14.2307 19.104 13.3333 18.0012 13.3333Z" fill="#C07B36"/>
<path d="M17.332 22.667H18.6655V24.0002H17.332V22.667Z" fill="#C07B36"/>
<path d="M12.6667 30.6667C12.2986 30.6667 12 30.3687 12 30V24C12 21.7939 13.7939 20 16 20H30.6667C31.0354 20 31.3333 20.2986 31.3333 20.6667V23.3333C31.3333 23.7014 31.0354 24 30.6667 24H20.6667C20.2986 24 20 23.7014 20 23.3333C20 22.9653 20.2986 22.6667 20.6667 22.6667H30V21.3333H16C14.5293 21.3333 13.3333 22.5293 13.3333 24V30C13.3333 30.3687 13.0347 30.6667 12.6667 30.6667Z" fill="#C07B36"/>
<path d="M15.3345 30.6665C14.9666 30.6665 14.668 30.3684 14.668 29.9998V27.9998C14.668 27.6318 14.9666 27.333 15.3345 27.333C15.7026 27.333 16.0012 27.6318 16.0012 27.9998V29.9998C16.0012 30.3684 15.7026 30.6665 15.3345 30.6665Z" fill="#C07B36"/>
<path d="M17.3345 37.3333C15.8638 37.3333 14.668 36.1375 14.668 34.6667C14.668 33.196 15.8638 32 17.3345 32C18.8052 32 20.0012 33.196 20.0012 34.6667C20.0012 36.1375 18.8052 37.3333 17.3345 37.3333ZM17.3345 33.3333C16.5991 33.3333 16.0012 33.9314 16.0012 34.6667C16.0012 35.4021 16.5991 36 17.3345 36C18.0698 36 18.668 35.4021 18.668 34.6667C18.668 33.9314 18.0698 33.3333 17.3345 33.3333Z" fill="#C07B36"/>
<path d="M20.6667 44.0002H12.6667C12.2986 44.0002 12 43.7021 12 43.3335V42.0002C12 41.1104 12.3467 40.2737 12.9761 39.6436C13.606 39.0142 14.4434 38.667 15.3333 38.667H19.3333C20.2241 38.667 21.0613 39.0142 21.6907 39.6436C21.9507 39.905 21.9507 40.3262 21.6899 40.5869C21.4294 40.8469 21.0073 40.8462 20.7473 40.5862C20.3701 40.2083 19.8679 40.0002 19.3333 40.0002H15.3333C14.7993 40.0002 14.2974 40.209 13.9194 40.5862C13.5413 40.9644 13.3333 41.4663 13.3333 42.0002V42.667H20.6667C21.0347 42.667 21.3333 42.9648 21.3333 43.3335C21.3333 43.7021 21.0347 44.0002 20.6667 44.0002Z" fill="#C07B36"/>
<path d="M27.9988 37.3333C26.5281 37.3333 25.332 36.1375 25.332 34.6667C25.332 33.196 26.5281 32 27.9988 32C29.4695 32 30.6655 33.196 30.6655 34.6667C30.6655 36.1375 29.4695 37.3333 27.9988 37.3333ZM27.9988 33.3333C27.2634 33.3333 26.6655 33.9314 26.6655 34.6667C26.6655 35.4021 27.2634 36 27.9988 36C28.7341 36 29.332 35.4021 29.332 34.6667C29.332 33.9314 28.7341 33.3333 27.9988 33.3333Z" fill="#C07B36"/>
<path d="M32.668 44.0002H23.3345C22.9666 44.0002 22.668 43.7021 22.668 43.3335V42.0002C22.668 41.1104 23.0146 40.2737 23.6438 39.6436C24.2739 39.0142 25.1113 38.667 26.0012 38.667H30.0012C30.8918 38.667 31.7292 39.0142 32.3586 39.6436C32.9873 40.2729 33.3345 41.1104 33.3345 42.0002V43.3335C33.3345 43.7021 33.0366 44.0002 32.668 44.0002ZM24.0012 42.667H32.0012V42.0002C32.0012 41.4663 31.7925 40.9636 31.4153 40.5862C31.0378 40.2083 30.5359 40.0002 30.0012 40.0002H26.0012C25.4673 40.0002 24.9653 40.209 24.5872 40.5862C24.2092 40.9644 24.0012 41.4663 24.0012 42.0002V42.667Z" fill="#C07B36"/>
<path d="M38.6667 37.3333C37.196 37.3333 36 36.1375 36 34.6667C36 33.196 37.196 32 38.6667 32C40.1375 32 41.3333 33.196 41.3333 34.6667C41.3333 36.1375 40.1375 37.3333 38.6667 37.3333ZM38.6667 33.3333C37.9314 33.3333 37.3333 33.9314 37.3333 34.6667C37.3333 35.4021 37.9314 36 38.6667 36C39.4021 36 40 35.4021 40 34.6667C40 33.9314 39.4021 33.3333 38.6667 33.3333Z" fill="#C07B36"/>
<path d="M43.332 44.0002H35.332C34.9634 44.0002 34.6655 43.7021 34.6655 43.3335C34.6655 42.9648 34.9634 42.667 35.332 42.667H42.6655V42.0002C42.6655 41.4663 42.4568 40.9636 42.0793 40.5862C41.7021 40.2083 41.2002 40.0002 40.6655 40.0002H36.6655C36.1313 40.0002 35.6287 40.209 35.2515 40.5862C34.9907 40.8469 34.5693 40.8469 34.3088 40.5862C34.0481 40.3257 34.0481 39.9043 34.3088 39.6436C34.9382 39.0142 35.7754 38.667 36.6655 38.667H40.6655C41.5562 38.667 42.3936 39.0142 43.0227 39.6436C43.6514 40.2729 43.9988 41.1104 43.9988 42.0002V43.3335C43.9988 43.7021 43.7007 44.0002 43.332 44.0002Z" fill="#C07B36"/>
<path d="M42.0012 30.6667H23.3345C22.9666 30.6667 22.668 30.3687 22.668 30C22.668 29.6313 22.9666 29.3333 23.3345 29.3333H42.0012C42.3691 29.3333 42.668 29.0347 42.668 28.6667V14C42.668 13.6326 42.3691 13.3333 42.0012 13.3333H23.3345C22.9666 13.3333 22.668 13.0347 22.668 12.6667C22.668 12.2986 22.9666 12 23.3345 12H42.0012C43.104 12 44.0012 12.8972 44.0012 14V28.6667C44.0012 29.7693 43.104 30.6667 42.0012 30.6667Z" fill="#C07B36"/>
<path d="M40.668 28.0002H23.3345C22.9666 28.0002 22.668 27.7017 22.668 27.3335C22.668 26.9656 22.9666 26.667 23.3345 26.667H40.668C41.0366 26.667 41.3345 26.9656 41.3345 27.3335C41.3345 27.7017 41.0366 28.0002 40.668 28.0002Z" fill="#C07B36"/>
<path d="M28 14.667H29.3333V16.0002H28V14.667Z" fill="#C07B36"/>
<path d="M25.332 14.667H26.6655V16.0002H25.332V14.667Z" fill="#C07B36"/>
<path d="M22.668 14.667H24.0012V16.0002H22.668V14.667Z" fill="#C07B36"/>
</g>
<defs>
<clipPath id="clip0_812_41432">
<rect width="32" height="32" fill="white" transform="translate(12 12)"/>
</clipPath>
</defs>
</svg>
