<svg width="56" height="56" viewBox="0 0 56 56" fill="none" xmlns="http://www.w3.org/2000/svg">
<rect width="56" height="56" rx="16" fill="#FCDDCA"/>
<path d="M39.3125 28.76H36.1801C35.7538 28.76 35.3411 28.8182 34.9482 28.9253C34.1734 27.4021 32.5914 26.3555 30.7684 26.3555H25.2316C23.4086 26.3555 21.8266 27.4021 21.0518 28.9253C20.6589 28.8182 20.2462 28.76 19.8199 28.76H16.6875C14.1028 28.76 12 30.8628 12 33.4475V38.4548C12 40.0057 13.2617 41.2673 14.8125 41.2673H41.1875C42.7383 41.2673 44 40.0057 44 38.4548V33.4475C44 30.8628 41.8972 28.76 39.3125 28.76ZM20.5441 31.0431V39.3924H14.8125C14.2956 39.3924 13.875 38.9718 13.875 38.4549V33.4475C13.875 31.8967 15.1367 30.635 16.6875 30.635H19.8199C20.0744 30.635 20.3208 30.6696 20.5554 30.7333C20.5487 30.8358 20.5441 30.939 20.5441 31.0431ZM33.5809 39.3924H22.4191V31.043C22.4191 29.4922 23.6807 28.2305 25.2316 28.2305H30.7684C32.3193 28.2305 33.5809 29.4922 33.5809 31.043V39.3924ZM42.125 38.4549C42.125 38.9718 41.7044 39.3924 41.1875 39.3924H35.4559V31.043C35.4559 30.9388 35.4513 30.8357 35.4446 30.7332C35.6792 30.6696 35.9256 30.635 36.1801 30.635H39.3125C40.8633 30.635 42.125 31.8967 42.125 33.4475V38.4549Z" fill="#C07B36"/>
<path d="M18.2552 19.9062C15.9584 19.9062 14.0898 21.7748 14.0898 24.0716C14.0898 26.3684 15.9584 28.237 18.2552 28.237C20.552 28.237 22.4206 26.3684 22.4206 24.0716C22.4206 21.7748 20.552 19.9062 18.2552 19.9062ZM18.2552 26.362C16.9922 26.362 15.9648 25.3346 15.9648 24.0716C15.9648 22.8087 16.9922 21.7812 18.2552 21.7812C19.5181 21.7812 20.5455 22.8087 20.5455 24.0716C20.5455 25.3346 19.5181 26.362 18.2552 26.362Z" fill="#C07B36"/>
<path d="M27.9985 14.7324C24.93 14.7324 22.4336 17.2288 22.4336 20.2973C22.4336 23.3658 24.93 25.8622 27.9985 25.8622C31.067 25.8622 33.5633 23.3658 33.5633 20.2973C33.5633 17.2289 31.067 14.7324 27.9985 14.7324ZM27.9985 23.9872C25.9638 23.9872 24.3086 22.3319 24.3086 20.2973C24.3086 18.2627 25.9638 16.6074 27.9985 16.6074C30.0331 16.6074 31.6883 18.2627 31.6883 20.2973C31.6883 22.3319 30.0331 23.9872 27.9985 23.9872Z" fill="#C07B36"/>
<path d="M37.7474 19.9062C35.4507 19.9062 33.582 21.7748 33.582 24.0716C33.5821 26.3684 35.4507 28.237 37.7474 28.237C40.0442 28.237 41.9128 26.3684 41.9128 24.0716C41.9128 21.7748 40.0442 19.9062 37.7474 19.9062ZM37.7474 26.362C36.4845 26.362 35.457 25.3346 35.457 24.0716C35.4571 22.8087 36.4845 21.7812 37.7474 21.7812C39.0103 21.7812 40.0378 22.8087 40.0378 24.0716C40.0378 25.3346 39.0103 26.362 37.7474 26.362Z" fill="#C07B36"/>
</svg>
