<?xml version="1.0" encoding="UTF-8"?>
<svg width="26px" height="34px" viewBox="0 0 26 34" version="1.1" xmlns="http://www.w3.org/2000/svg" xmlns:xlink="http://www.w3.org/1999/xlink">
    <title>xls</title>
    <g id="Page-1" stroke="none" stroke-width="1" fill="none" fill-rule="evenodd">
        <g id="xls" transform="translate(0.561, -0)">
            <path d="M4.34357455,0 L15.5319613,0 L25,9.88287711 L25,29.075182 C25,31.4788032 23.0600466,33.4309639 20.6564255,33.4309639 L4.34357455,33.4309639 C1.95216074,33.4309639 0,31.4788032 0,29.075182 L0,4.34357455 C0,1.95216074 1.95216074,0 4.34357455,0 L4.34357455,0 Z" id="Path" fill="#00733B"></path>
            <g id="Group" transform="translate(4.917, 0)" fill="#FFFFFF" fill-rule="nonzero">
                <polygon id="Path" opacity="0.302" points="10.6027301 0 10.6027301 9.79746797 20.0829761 9.79746797"></polygon>
                <path d="M5.47826586,24.3411838 L3.85553436,24.3411838 L2.74525772,22.4744322 L1.63493885,24.3411838 L0,24.3411838 L1.9277883,21.0956785 L0.231854992,18.277219 L1.8667516,18.277219 L2.74521548,19.7413395 L3.61147203,18.277219 L5.24641087,18.277219 L3.56264267,21.1078859 L5.47826586,24.3411838 Z M6.05171519,24.3411838 L6.05171519,18.277219 L7.6012449,18.277219 L7.6012449,23.0234246 L10.2366788,23.0234246 L10.2366788,24.3411838 L6.05171519,24.3411838 L6.05171519,24.3411838 Z M12.7989109,24.4143856 C12.1888395,24.4143856 11.6520122,24.2191526 11.1883867,23.8409362 C10.7369263,23.474885 10.4807411,23.0112595 10.4441191,22.4622248 L11.7740434,22.0718011 C11.8106654,22.3646083 11.9326543,22.6208358 12.1400947,22.8160687 C12.3597001,23.0113017 12.6037202,23.108876 12.8721549,23.108876 C13.0917603,23.108876 13.274786,23.0600888 13.4211896,22.9624724 C13.5553858,22.8648559 13.6285876,22.7306596 13.6285876,22.5720487 C13.6285876,22.4378524 13.5675932,22.3280286 13.4577694,22.2304121 C13.3479455,22.1450029 13.2015419,22.0718011 13.0307236,22.0108067 C12.8599053,21.9498122 12.6525073,21.8887755 12.445067,21.8399884 C12.2254616,21.7789939 12.0058139,21.7057921 11.7984158,21.6081756 C11.5788104,21.5227665 11.3835775,21.4129427 11.2127592,21.2787464 C11.0297335,21.1567152 10.8955373,20.9737318 10.7857134,20.7418768 C10.6758896,20.5222714 10.6148952,20.2538367 10.6148952,19.9488221 C10.6148952,19.4485746 10.8222932,19.0337362 11.2493389,18.704307 C11.6763847,18.3626704 12.1888395,18.2040594 12.7866613,18.2040594 C13.3845253,18.2040594 13.9091453,18.350463 14.3483983,18.6311051 C14.7876514,18.9239124 15.0682513,19.302171 15.1780751,19.7657965 L13.7871564,20.3514531 C13.7261619,20.0952257 13.6041307,19.8878276 13.4333124,19.7292167 C13.2624941,19.5828131 13.0428887,19.4974039 12.7866613,19.4974039 C12.5914283,19.4974039 12.4450247,19.5461911 12.3230358,19.6194351 C12.213212,19.6926369 12.1644249,19.8024607 12.1644249,19.936657 C12.1644249,20.0586882 12.2376267,20.1684697 12.3840303,20.2538789 C12.5304339,20.3270807 12.7256668,20.3880752 12.9452723,20.4246972 C13.1648777,20.4613192 13.4088978,20.5223137 13.6651252,20.6077228 C13.93356,20.7053393 14.1653727,20.8029558 14.3971855,20.937152 C14.6167909,21.0591832 14.7998165,21.2665813 14.9462201,21.5350161 C15.1048311,21.8156582 15.1780751,22.1450874 15.1780751,22.5233038 C15.1780751,23.0845458 14.9584275,23.5482135 14.5191744,23.8898078 C14.0799213,24.2314022 13.5065987,24.4143856 12.7989109,24.4143856 L12.7989109,24.4143856 Z" id="Shape"></path>
            </g>
        </g>
    </g>
</svg>